M48
METRIC,TZ
T01C0.5080
T02C0.7620
T03C2.7000
T04C1.0160
T05C1.5240
T06C3.1750
%
T01
X+43579Y+52617
X+38562Y+52641
X+9806Y+23500
X+9726Y+17450
X+46641Y+17396
X+46641Y+22986
T02
X+11000Y+38000
X+13540Y+38000
X+16080Y+38000
X+18620Y+38000
X+21160Y+38000
X+23700Y+38000
X+26240Y+38000
X+28780Y+38000
X+31320Y+38000
X+33860Y+38000
X+36400Y+38000
X+38940Y+38000
X+41480Y+38000
X+44020Y+38000
X+46560Y+38000
X+49100Y+38000
X+54000Y+55500
X+51460Y+55500
X+48920Y+55500
X+46380Y+55500
X+43840Y+55500
X+41300Y+55500
X+38760Y+55500
X+36220Y+55500
X+36220Y+47880
X+38760Y+47880
X+41300Y+47880
X+43840Y+47880
X+46380Y+47880
X+48920Y+47880
X+51460Y+47880
X+54000Y+47880
X+18660Y+28000
X+8500Y+28000
X+23500Y+23500
X+13340Y+23500
X+10920Y+47960
X+10920Y+53040
X+16000Y+50500
X+11000Y+34000
X+13540Y+34000
X+64610Y+63983
X+67150Y+63983
X+69690Y+63983
X+72230Y+63983
X+74770Y+63983
X+77310Y+63983
X+79850Y+63983
X+82390Y+63983
X+79850Y+82017
X+77310Y+82017
X+74770Y+82017
X+72230Y+82017
X+69690Y+82017
X+67150Y+82017
X+64610Y+82017
X+64500Y+53000
X+64500Y+42840
X+59500Y+53000
X+59500Y+42840
X+68000Y+105000
X+68000Y+99920
X+68000Y+94000
X+68000Y+88920
X+78000Y+105000
X+78000Y+99920
X+78000Y+94000
X+78000Y+88920
X+64000Y+116000
X+74160Y+116000
T03
X+6000Y+37500
X+6000Y+6500
X+81000Y+37500
X+81000Y+6500
T04
X+13980Y+65800
X+16520Y+65800
X+19060Y+65800
X+21600Y+65800
X+24140Y+65800
X+26680Y+65800
X+29220Y+65800
X+31760Y+65800
X+34300Y+65800
X+39380Y+65800
X+41920Y+65800
X+44460Y+65800
X+47000Y+65800
X+49540Y+65800
X+49540Y+91200
X+47000Y+91200
X+44460Y+91200
X+41920Y+91200
X+39380Y+91200
X+36840Y+91200
X+34300Y+91200
X+31760Y+91200
X+29220Y+91200
X+26680Y+91200
X+24140Y+91200
X+21600Y+91200
X+19060Y+91200
X+16520Y+91200
X+13980Y+91200
X+79000Y+116000
X+79000Y+113460
T05
X+79500Y+48920
X+79500Y+54000
X+8000Y+110000
X+8000Y+115080
X+18252Y+115572
X+18252Y+98428
X+57748Y+115572
X+57748Y+98428
T06
X+23014Y+115001
X+52986Y+98999
M30
