M48
METRIC,TZ
T01C0.5080
T02C1.5240
T03C0.7620
T04C1.1430
T05C1.0160
T06C2.9970
T07C3.0000
%
T01
X+25475Y+56605
X+25522Y+61578
X+5500Y+45000
X+10848Y+45000
X+58235Y+63898
X+58305Y+58324
X+16541Y+37166
X+16640Y+32317
X+99475Y+56605
X+99522Y+61578
X+79500Y+45000
X+84848Y+45000
X+132235Y+63898
X+132305Y+58324
X+90541Y+37166
X+90640Y+32317
T02
X+3000Y+89000
X+8080Y+89000
X+64500Y+90494
X+64500Y+85490
X+64500Y+80486
X+64500Y+75482
X+64500Y+70504
X+64500Y+65500
X+77000Y+89000
X+82080Y+89000
X+138500Y+90494
X+138500Y+85490
X+138500Y+80486
X+138500Y+75482
X+138500Y+70504
X+138500Y+65500
T03
X+14000Y+89000
X+21620Y+89000
X+16460Y+69000
X+19000Y+69000
X+10000Y+68000
X+10000Y+78160
X+47000Y+72000
X+36100Y+72000
X+47200Y+90700
X+36000Y+90700
X+55000Y+90000
X+55000Y+87460
X+60160Y+28000
X+50000Y+28000
X+88000Y+89000
X+95620Y+89000
X+90460Y+69000
X+93000Y+69000
X+84000Y+68000
X+84000Y+78160
X+121000Y+72000
X+110100Y+72000
X+121200Y+90700
X+110000Y+90700
X+129000Y+90000
X+129000Y+87460
X+134160Y+28000
X+124000Y+28000
T04
X+20080Y+79000
X+15000Y+79000
X+94080Y+79000
X+89000Y+79000
T05
X+5540Y+78000
X+3000Y+78000
X+29300Y+73520
X+29300Y+70980
X+29300Y+68440
X+29300Y+65900
X+29300Y+63360
X+29300Y+55740
X+29300Y+53200
X+29300Y+50660
X+29300Y+48120
X+29300Y+45580
X+29300Y+43040
X+29300Y+40500
X+29300Y+37960
X+54700Y+37960
X+54700Y+40500
X+54700Y+43040
X+54700Y+45580
X+54700Y+48120
X+54700Y+50660
X+54700Y+53200
X+54700Y+55740
X+54700Y+58280
X+54700Y+60820
X+54700Y+63360
X+54700Y+65900
X+54700Y+68440
X+54700Y+73520
X+5500Y+40000
X+8040Y+40000
X+10580Y+40000
X+13120Y+40000
X+15660Y+40000
X+18200Y+40000
X+8500Y+5000
X+11040Y+5000
X+13580Y+5000
X+16120Y+5000
X+29000Y+5500
X+29000Y+8040
X+29000Y+10580
X+29000Y+13120
X+29000Y+15660
X+29000Y+18200
X+57000Y+19000
X+54460Y+19000
X+51920Y+19000
X+49380Y+19000
X+46840Y+19000
X+22000Y+61700
X+22000Y+59160
X+22000Y+56620
X+22000Y+54080
X+22000Y+51540
X+22000Y+49000
X+62000Y+36460
X+62000Y+39000
X+79540Y+78000
X+77000Y+78000
X+103300Y+73520
X+103300Y+70980
X+103300Y+68440
X+103300Y+65900
X+103300Y+63360
X+103300Y+55740
X+103300Y+53200
X+103300Y+50660
X+103300Y+48120
X+103300Y+45580
X+103300Y+43040
X+103300Y+40500
X+103300Y+37960
X+128700Y+37960
X+128700Y+40500
X+128700Y+43040
X+128700Y+45580
X+128700Y+48120
X+128700Y+50660
X+128700Y+53200
X+128700Y+55740
X+128700Y+58280
X+128700Y+60820
X+128700Y+63360
X+128700Y+65900
X+128700Y+68440
X+128700Y+73520
X+79500Y+40000
X+82040Y+40000
X+84580Y+40000
X+87120Y+40000
X+89660Y+40000
X+92200Y+40000
X+82500Y+5000
X+85040Y+5000
X+87580Y+5000
X+90120Y+5000
X+103000Y+5500
X+103000Y+8040
X+103000Y+10580
X+103000Y+13120
X+103000Y+15660
X+103000Y+18200
X+131000Y+19000
X+128460Y+19000
X+125920Y+19000
X+123380Y+19000
X+120840Y+19000
X+96000Y+61700
X+96000Y+59160
X+96000Y+56620
X+96000Y+54080
X+96000Y+51540
X+96000Y+49000
X+136000Y+36460
X+136000Y+39000
T06
X+29720Y+34530
X+54230Y+34530
X+29720Y+81470
X+103720Y+34530
X+128230Y+34530
X+103720Y+81470
T07
X+27000Y+90000
X+5000Y+10000
X+64000Y+5000
X+51000Y+79000
X+101000Y+90000
X+79000Y+10000
X+138000Y+5000
X+125000Y+79000
M30
