G04 PROTEUS RS274X GERBER FILE*
%FSLAX45Y45*%
%MOMM*%
G01*
%ADD17C,0.203200*%
%ADD18C,0.127000*%
%ADD19C,0.063500*%
D17*
X+3475734Y+3814318D02*
X+3475734Y+3687318D01*
X+3412234Y+3750818D02*
X+3539234Y+3750818D01*
X+3471814Y+4284688D02*
X+3471814Y+4157688D01*
X+3408314Y+4221188D02*
X+3535314Y+4221188D01*
X+3475734Y+9414318D02*
X+3475734Y+9287318D01*
X+3412234Y+9350818D02*
X+3539234Y+9350818D01*
X+3471814Y+9884688D02*
X+3471814Y+9757688D01*
X+3408314Y+9821188D02*
X+3535314Y+9821188D01*
X+3475734Y+15014318D02*
X+3475734Y+14887318D01*
X+3412234Y+14950818D02*
X+3539234Y+14950818D01*
X+3471814Y+15484688D02*
X+3471814Y+15357688D01*
X+3408314Y+15421188D02*
X+3535314Y+15421188D01*
X+3475734Y+20614318D02*
X+3475734Y+20487318D01*
X+3412234Y+20550818D02*
X+3539234Y+20550818D01*
X+3471814Y+21084688D02*
X+3471814Y+20957688D01*
X+3408314Y+21021188D02*
X+3535314Y+21021188D01*
X+9055099Y+4074901D02*
X+9144901Y+3985099D01*
X+9055099Y+3985099D02*
X+9144901Y+4074901D01*
X+7755099Y+4074901D02*
X+7844901Y+3985099D01*
X+7755099Y+3985099D02*
X+7844901Y+4074901D01*
X+9055099Y+1174901D02*
X+9144901Y+1085099D01*
X+9055099Y+1085099D02*
X+9144901Y+1174901D01*
X+7755099Y+1174901D02*
X+7844901Y+1085099D01*
X+7755099Y+1085099D02*
X+7844901Y+1174901D01*
X+763500Y+1600000D02*
X+763283Y+1605247D01*
X+761518Y+1615742D01*
X+757826Y+1626237D01*
X+751798Y+1636732D01*
X+742576Y+1647112D01*
X+732081Y+1654800D01*
X+721586Y+1659718D01*
X+711091Y+1662524D01*
X+700596Y+1663497D01*
X+700000Y+1663500D01*
X+636500Y+1600000D02*
X+636717Y+1605247D01*
X+638482Y+1615742D01*
X+642174Y+1626237D01*
X+648202Y+1636732D01*
X+657424Y+1647112D01*
X+667919Y+1654800D01*
X+678414Y+1659718D01*
X+688909Y+1662524D01*
X+699404Y+1663497D01*
X+700000Y+1663500D01*
X+636500Y+1600000D02*
X+636717Y+1594753D01*
X+638482Y+1584258D01*
X+642174Y+1573763D01*
X+648202Y+1563268D01*
X+657424Y+1552888D01*
X+667919Y+1545200D01*
X+678414Y+1540282D01*
X+688909Y+1537476D01*
X+699404Y+1536503D01*
X+700000Y+1536500D01*
X+763500Y+1600000D02*
X+763283Y+1594753D01*
X+761518Y+1584258D01*
X+757826Y+1573763D01*
X+751798Y+1563268D01*
X+742576Y+1552888D01*
X+732081Y+1545200D01*
X+721586Y+1540282D01*
X+711091Y+1537476D01*
X+700596Y+1536503D01*
X+700000Y+1536500D01*
X+700000Y+1663500D02*
X+700000Y+1536500D01*
X+636500Y+1600000D02*
X+763500Y+1600000D01*
X+763500Y+2108000D02*
X+763283Y+2113247D01*
X+761518Y+2123742D01*
X+757826Y+2134237D01*
X+751798Y+2144732D01*
X+742576Y+2155112D01*
X+732081Y+2162800D01*
X+721586Y+2167718D01*
X+711091Y+2170524D01*
X+700596Y+2171497D01*
X+700000Y+2171500D01*
X+636500Y+2108000D02*
X+636717Y+2113247D01*
X+638482Y+2123742D01*
X+642174Y+2134237D01*
X+648202Y+2144732D01*
X+657424Y+2155112D01*
X+667919Y+2162800D01*
X+678414Y+2167718D01*
X+688909Y+2170524D01*
X+699404Y+2171497D01*
X+700000Y+2171500D01*
X+636500Y+2108000D02*
X+636717Y+2102753D01*
X+638482Y+2092258D01*
X+642174Y+2081763D01*
X+648202Y+2071268D01*
X+657424Y+2060888D01*
X+667919Y+2053200D01*
X+678414Y+2048282D01*
X+688909Y+2045476D01*
X+699404Y+2044503D01*
X+700000Y+2044500D01*
X+763500Y+2108000D02*
X+763283Y+2102753D01*
X+761518Y+2092258D01*
X+757826Y+2081763D01*
X+751798Y+2071268D01*
X+742576Y+2060888D01*
X+732081Y+2053200D01*
X+721586Y+2048282D01*
X+711091Y+2045476D01*
X+700596Y+2044503D01*
X+700000Y+2044500D01*
X+700000Y+2171500D02*
X+700000Y+2044500D01*
X+636500Y+2108000D02*
X+763500Y+2108000D01*
X+763500Y+2616000D02*
X+763283Y+2621247D01*
X+761518Y+2631742D01*
X+757826Y+2642237D01*
X+751798Y+2652732D01*
X+742576Y+2663112D01*
X+732081Y+2670800D01*
X+721586Y+2675718D01*
X+711091Y+2678524D01*
X+700596Y+2679497D01*
X+700000Y+2679500D01*
X+636500Y+2616000D02*
X+636717Y+2621247D01*
X+638482Y+2631742D01*
X+642174Y+2642237D01*
X+648202Y+2652732D01*
X+657424Y+2663112D01*
X+667919Y+2670800D01*
X+678414Y+2675718D01*
X+688909Y+2678524D01*
X+699404Y+2679497D01*
X+700000Y+2679500D01*
X+636500Y+2616000D02*
X+636717Y+2610753D01*
X+638482Y+2600258D01*
X+642174Y+2589763D01*
X+648202Y+2579268D01*
X+657424Y+2568888D01*
X+667919Y+2561200D01*
X+678414Y+2556282D01*
X+688909Y+2553476D01*
X+699404Y+2552503D01*
X+700000Y+2552500D01*
X+763500Y+2616000D02*
X+763283Y+2610753D01*
X+761518Y+2600258D01*
X+757826Y+2589763D01*
X+751798Y+2579268D01*
X+742576Y+2568888D01*
X+732081Y+2561200D01*
X+721586Y+2556282D01*
X+711091Y+2553476D01*
X+700596Y+2552503D01*
X+700000Y+2552500D01*
X+700000Y+2679500D02*
X+700000Y+2552500D01*
X+636500Y+2616000D02*
X+763500Y+2616000D01*
X+763500Y+3124000D02*
X+763283Y+3129247D01*
X+761518Y+3139742D01*
X+757826Y+3150237D01*
X+751798Y+3160732D01*
X+742576Y+3171112D01*
X+732081Y+3178800D01*
X+721586Y+3183718D01*
X+711091Y+3186524D01*
X+700596Y+3187497D01*
X+700000Y+3187500D01*
X+636500Y+3124000D02*
X+636717Y+3129247D01*
X+638482Y+3139742D01*
X+642174Y+3150237D01*
X+648202Y+3160732D01*
X+657424Y+3171112D01*
X+667919Y+3178800D01*
X+678414Y+3183718D01*
X+688909Y+3186524D01*
X+699404Y+3187497D01*
X+700000Y+3187500D01*
X+636500Y+3124000D02*
X+636717Y+3118753D01*
X+638482Y+3108258D01*
X+642174Y+3097763D01*
X+648202Y+3087268D01*
X+657424Y+3076888D01*
X+667919Y+3069200D01*
X+678414Y+3064282D01*
X+688909Y+3061476D01*
X+699404Y+3060503D01*
X+700000Y+3060500D01*
X+763500Y+3124000D02*
X+763283Y+3118753D01*
X+761518Y+3108258D01*
X+757826Y+3097763D01*
X+751798Y+3087268D01*
X+742576Y+3076888D01*
X+732081Y+3069200D01*
X+721586Y+3064282D01*
X+711091Y+3061476D01*
X+700596Y+3060503D01*
X+700000Y+3060500D01*
X+700000Y+3187500D02*
X+700000Y+3060500D01*
X+636500Y+3124000D02*
X+763500Y+3124000D01*
X+763500Y+3632000D02*
X+763283Y+3637247D01*
X+761518Y+3647742D01*
X+757826Y+3658237D01*
X+751798Y+3668732D01*
X+742576Y+3679112D01*
X+732081Y+3686800D01*
X+721586Y+3691718D01*
X+711091Y+3694524D01*
X+700596Y+3695497D01*
X+700000Y+3695500D01*
X+636500Y+3632000D02*
X+636717Y+3637247D01*
X+638482Y+3647742D01*
X+642174Y+3658237D01*
X+648202Y+3668732D01*
X+657424Y+3679112D01*
X+667919Y+3686800D01*
X+678414Y+3691718D01*
X+688909Y+3694524D01*
X+699404Y+3695497D01*
X+700000Y+3695500D01*
X+636500Y+3632000D02*
X+636717Y+3626753D01*
X+638482Y+3616258D01*
X+642174Y+3605763D01*
X+648202Y+3595268D01*
X+657424Y+3584888D01*
X+667919Y+3577200D01*
X+678414Y+3572282D01*
X+688909Y+3569476D01*
X+699404Y+3568503D01*
X+700000Y+3568500D01*
X+763500Y+3632000D02*
X+763283Y+3626753D01*
X+761518Y+3616258D01*
X+757826Y+3605763D01*
X+751798Y+3595268D01*
X+742576Y+3584888D01*
X+732081Y+3577200D01*
X+721586Y+3572282D01*
X+711091Y+3569476D01*
X+700596Y+3568503D01*
X+700000Y+3568500D01*
X+700000Y+3695500D02*
X+700000Y+3568500D01*
X+636500Y+3632000D02*
X+763500Y+3632000D01*
X+3055099Y+4044901D02*
X+3144901Y+3955099D01*
X+3055099Y+3955099D02*
X+3144901Y+4044901D01*
X+1755099Y+4044901D02*
X+1844901Y+3955099D01*
X+1755099Y+3955099D02*
X+1844901Y+4044901D01*
X+3055099Y+1144901D02*
X+3144901Y+1055099D01*
X+3055099Y+1055099D02*
X+3144901Y+1144901D01*
X+1755099Y+1144901D02*
X+1844901Y+1055099D01*
X+1755099Y+1055099D02*
X+1844901Y+1144901D01*
X+4863500Y+1598000D02*
X+4863283Y+1603247D01*
X+4861518Y+1613742D01*
X+4857826Y+1624237D01*
X+4851798Y+1634732D01*
X+4842576Y+1645112D01*
X+4832081Y+1652800D01*
X+4821586Y+1657718D01*
X+4811091Y+1660524D01*
X+4800596Y+1661497D01*
X+4800000Y+1661500D01*
X+4736500Y+1598000D02*
X+4736717Y+1603247D01*
X+4738482Y+1613742D01*
X+4742174Y+1624237D01*
X+4748202Y+1634732D01*
X+4757424Y+1645112D01*
X+4767919Y+1652800D01*
X+4778414Y+1657718D01*
X+4788909Y+1660524D01*
X+4799404Y+1661497D01*
X+4800000Y+1661500D01*
X+4736500Y+1598000D02*
X+4736717Y+1592753D01*
X+4738482Y+1582258D01*
X+4742174Y+1571763D01*
X+4748202Y+1561268D01*
X+4757424Y+1550888D01*
X+4767919Y+1543200D01*
X+4778414Y+1538282D01*
X+4788909Y+1535476D01*
X+4799404Y+1534503D01*
X+4800000Y+1534500D01*
X+4863500Y+1598000D02*
X+4863283Y+1592753D01*
X+4861518Y+1582258D01*
X+4857826Y+1571763D01*
X+4851798Y+1561268D01*
X+4842576Y+1550888D01*
X+4832081Y+1543200D01*
X+4821586Y+1538282D01*
X+4811091Y+1535476D01*
X+4800596Y+1534503D01*
X+4800000Y+1534500D01*
X+4800000Y+1661500D02*
X+4800000Y+1534500D01*
X+4736500Y+1598000D02*
X+4863500Y+1598000D01*
X+4863500Y+2106000D02*
X+4863283Y+2111247D01*
X+4861518Y+2121742D01*
X+4857826Y+2132237D01*
X+4851798Y+2142732D01*
X+4842576Y+2153112D01*
X+4832081Y+2160800D01*
X+4821586Y+2165718D01*
X+4811091Y+2168524D01*
X+4800596Y+2169497D01*
X+4800000Y+2169500D01*
X+4736500Y+2106000D02*
X+4736717Y+2111247D01*
X+4738482Y+2121742D01*
X+4742174Y+2132237D01*
X+4748202Y+2142732D01*
X+4757424Y+2153112D01*
X+4767919Y+2160800D01*
X+4778414Y+2165718D01*
X+4788909Y+2168524D01*
X+4799404Y+2169497D01*
X+4800000Y+2169500D01*
X+4736500Y+2106000D02*
X+4736717Y+2100753D01*
X+4738482Y+2090258D01*
X+4742174Y+2079763D01*
X+4748202Y+2069268D01*
X+4757424Y+2058888D01*
X+4767919Y+2051200D01*
X+4778414Y+2046282D01*
X+4788909Y+2043476D01*
X+4799404Y+2042503D01*
X+4800000Y+2042500D01*
X+4863500Y+2106000D02*
X+4863283Y+2100753D01*
X+4861518Y+2090258D01*
X+4857826Y+2079763D01*
X+4851798Y+2069268D01*
X+4842576Y+2058888D01*
X+4832081Y+2051200D01*
X+4821586Y+2046282D01*
X+4811091Y+2043476D01*
X+4800596Y+2042503D01*
X+4800000Y+2042500D01*
X+4800000Y+2169500D02*
X+4800000Y+2042500D01*
X+4736500Y+2106000D02*
X+4863500Y+2106000D01*
X+4863500Y+2614000D02*
X+4863283Y+2619247D01*
X+4861518Y+2629742D01*
X+4857826Y+2640237D01*
X+4851798Y+2650732D01*
X+4842576Y+2661112D01*
X+4832081Y+2668800D01*
X+4821586Y+2673718D01*
X+4811091Y+2676524D01*
X+4800596Y+2677497D01*
X+4800000Y+2677500D01*
X+4736500Y+2614000D02*
X+4736717Y+2619247D01*
X+4738482Y+2629742D01*
X+4742174Y+2640237D01*
X+4748202Y+2650732D01*
X+4757424Y+2661112D01*
X+4767919Y+2668800D01*
X+4778414Y+2673718D01*
X+4788909Y+2676524D01*
X+4799404Y+2677497D01*
X+4800000Y+2677500D01*
X+4736500Y+2614000D02*
X+4736717Y+2608753D01*
X+4738482Y+2598258D01*
X+4742174Y+2587763D01*
X+4748202Y+2577268D01*
X+4757424Y+2566888D01*
X+4767919Y+2559200D01*
X+4778414Y+2554282D01*
X+4788909Y+2551476D01*
X+4799404Y+2550503D01*
X+4800000Y+2550500D01*
X+4863500Y+2614000D02*
X+4863283Y+2608753D01*
X+4861518Y+2598258D01*
X+4857826Y+2587763D01*
X+4851798Y+2577268D01*
X+4842576Y+2566888D01*
X+4832081Y+2559200D01*
X+4821586Y+2554282D01*
X+4811091Y+2551476D01*
X+4800596Y+2550503D01*
X+4800000Y+2550500D01*
X+4800000Y+2677500D02*
X+4800000Y+2550500D01*
X+4736500Y+2614000D02*
X+4863500Y+2614000D01*
X+4863500Y+3122000D02*
X+4863283Y+3127247D01*
X+4861518Y+3137742D01*
X+4857826Y+3148237D01*
X+4851798Y+3158732D01*
X+4842576Y+3169112D01*
X+4832081Y+3176800D01*
X+4821586Y+3181718D01*
X+4811091Y+3184524D01*
X+4800596Y+3185497D01*
X+4800000Y+3185500D01*
X+4736500Y+3122000D02*
X+4736717Y+3127247D01*
X+4738482Y+3137742D01*
X+4742174Y+3148237D01*
X+4748202Y+3158732D01*
X+4757424Y+3169112D01*
X+4767919Y+3176800D01*
X+4778414Y+3181718D01*
X+4788909Y+3184524D01*
X+4799404Y+3185497D01*
X+4800000Y+3185500D01*
X+4736500Y+3122000D02*
X+4736717Y+3116753D01*
X+4738482Y+3106258D01*
X+4742174Y+3095763D01*
X+4748202Y+3085268D01*
X+4757424Y+3074888D01*
X+4767919Y+3067200D01*
X+4778414Y+3062282D01*
X+4788909Y+3059476D01*
X+4799404Y+3058503D01*
X+4800000Y+3058500D01*
X+4863500Y+3122000D02*
X+4863283Y+3116753D01*
X+4861518Y+3106258D01*
X+4857826Y+3095763D01*
X+4851798Y+3085268D01*
X+4842576Y+3074888D01*
X+4832081Y+3067200D01*
X+4821586Y+3062282D01*
X+4811091Y+3059476D01*
X+4800596Y+3058503D01*
X+4800000Y+3058500D01*
X+4800000Y+3185500D02*
X+4800000Y+3058500D01*
X+4736500Y+3122000D02*
X+4863500Y+3122000D01*
X+4863500Y+3630000D02*
X+4863283Y+3635247D01*
X+4861518Y+3645742D01*
X+4857826Y+3656237D01*
X+4851798Y+3666732D01*
X+4842576Y+3677112D01*
X+4832081Y+3684800D01*
X+4821586Y+3689718D01*
X+4811091Y+3692524D01*
X+4800596Y+3693497D01*
X+4800000Y+3693500D01*
X+4736500Y+3630000D02*
X+4736717Y+3635247D01*
X+4738482Y+3645742D01*
X+4742174Y+3656237D01*
X+4748202Y+3666732D01*
X+4757424Y+3677112D01*
X+4767919Y+3684800D01*
X+4778414Y+3689718D01*
X+4788909Y+3692524D01*
X+4799404Y+3693497D01*
X+4800000Y+3693500D01*
X+4736500Y+3630000D02*
X+4736717Y+3624753D01*
X+4738482Y+3614258D01*
X+4742174Y+3603763D01*
X+4748202Y+3593268D01*
X+4757424Y+3582888D01*
X+4767919Y+3575200D01*
X+4778414Y+3570282D01*
X+4788909Y+3567476D01*
X+4799404Y+3566503D01*
X+4800000Y+3566500D01*
X+4863500Y+3630000D02*
X+4863283Y+3624753D01*
X+4861518Y+3614258D01*
X+4857826Y+3603763D01*
X+4851798Y+3593268D01*
X+4842576Y+3582888D01*
X+4832081Y+3575200D01*
X+4821586Y+3570282D01*
X+4811091Y+3567476D01*
X+4800596Y+3566503D01*
X+4800000Y+3566500D01*
X+4800000Y+3693500D02*
X+4800000Y+3566500D01*
X+4736500Y+3630000D02*
X+4863500Y+3630000D01*
X+6763500Y+1598000D02*
X+6763283Y+1603247D01*
X+6761518Y+1613742D01*
X+6757826Y+1624237D01*
X+6751798Y+1634732D01*
X+6742576Y+1645112D01*
X+6732081Y+1652800D01*
X+6721586Y+1657718D01*
X+6711091Y+1660524D01*
X+6700596Y+1661497D01*
X+6700000Y+1661500D01*
X+6636500Y+1598000D02*
X+6636717Y+1603247D01*
X+6638482Y+1613742D01*
X+6642174Y+1624237D01*
X+6648202Y+1634732D01*
X+6657424Y+1645112D01*
X+6667919Y+1652800D01*
X+6678414Y+1657718D01*
X+6688909Y+1660524D01*
X+6699404Y+1661497D01*
X+6700000Y+1661500D01*
X+6636500Y+1598000D02*
X+6636717Y+1592753D01*
X+6638482Y+1582258D01*
X+6642174Y+1571763D01*
X+6648202Y+1561268D01*
X+6657424Y+1550888D01*
X+6667919Y+1543200D01*
X+6678414Y+1538282D01*
X+6688909Y+1535476D01*
X+6699404Y+1534503D01*
X+6700000Y+1534500D01*
X+6763500Y+1598000D02*
X+6763283Y+1592753D01*
X+6761518Y+1582258D01*
X+6757826Y+1571763D01*
X+6751798Y+1561268D01*
X+6742576Y+1550888D01*
X+6732081Y+1543200D01*
X+6721586Y+1538282D01*
X+6711091Y+1535476D01*
X+6700596Y+1534503D01*
X+6700000Y+1534500D01*
X+6700000Y+1661500D02*
X+6700000Y+1534500D01*
X+6636500Y+1598000D02*
X+6763500Y+1598000D01*
X+6763500Y+2106000D02*
X+6763283Y+2111247D01*
X+6761518Y+2121742D01*
X+6757826Y+2132237D01*
X+6751798Y+2142732D01*
X+6742576Y+2153112D01*
X+6732081Y+2160800D01*
X+6721586Y+2165718D01*
X+6711091Y+2168524D01*
X+6700596Y+2169497D01*
X+6700000Y+2169500D01*
X+6636500Y+2106000D02*
X+6636717Y+2111247D01*
X+6638482Y+2121742D01*
X+6642174Y+2132237D01*
X+6648202Y+2142732D01*
X+6657424Y+2153112D01*
X+6667919Y+2160800D01*
X+6678414Y+2165718D01*
X+6688909Y+2168524D01*
X+6699404Y+2169497D01*
X+6700000Y+2169500D01*
X+6636500Y+2106000D02*
X+6636717Y+2100753D01*
X+6638482Y+2090258D01*
X+6642174Y+2079763D01*
X+6648202Y+2069268D01*
X+6657424Y+2058888D01*
X+6667919Y+2051200D01*
X+6678414Y+2046282D01*
X+6688909Y+2043476D01*
X+6699404Y+2042503D01*
X+6700000Y+2042500D01*
X+6763500Y+2106000D02*
X+6763283Y+2100753D01*
X+6761518Y+2090258D01*
X+6757826Y+2079763D01*
X+6751798Y+2069268D01*
X+6742576Y+2058888D01*
X+6732081Y+2051200D01*
X+6721586Y+2046282D01*
X+6711091Y+2043476D01*
X+6700596Y+2042503D01*
X+6700000Y+2042500D01*
X+6700000Y+2169500D02*
X+6700000Y+2042500D01*
X+6636500Y+2106000D02*
X+6763500Y+2106000D01*
X+6763500Y+2614000D02*
X+6763283Y+2619247D01*
X+6761518Y+2629742D01*
X+6757826Y+2640237D01*
X+6751798Y+2650732D01*
X+6742576Y+2661112D01*
X+6732081Y+2668800D01*
X+6721586Y+2673718D01*
X+6711091Y+2676524D01*
X+6700596Y+2677497D01*
X+6700000Y+2677500D01*
X+6636500Y+2614000D02*
X+6636717Y+2619247D01*
X+6638482Y+2629742D01*
X+6642174Y+2640237D01*
X+6648202Y+2650732D01*
X+6657424Y+2661112D01*
X+6667919Y+2668800D01*
X+6678414Y+2673718D01*
X+6688909Y+2676524D01*
X+6699404Y+2677497D01*
X+6700000Y+2677500D01*
X+6636500Y+2614000D02*
X+6636717Y+2608753D01*
X+6638482Y+2598258D01*
X+6642174Y+2587763D01*
X+6648202Y+2577268D01*
X+6657424Y+2566888D01*
X+6667919Y+2559200D01*
X+6678414Y+2554282D01*
X+6688909Y+2551476D01*
X+6699404Y+2550503D01*
X+6700000Y+2550500D01*
X+6763500Y+2614000D02*
X+6763283Y+2608753D01*
X+6761518Y+2598258D01*
X+6757826Y+2587763D01*
X+6751798Y+2577268D01*
X+6742576Y+2566888D01*
X+6732081Y+2559200D01*
X+6721586Y+2554282D01*
X+6711091Y+2551476D01*
X+6700596Y+2550503D01*
X+6700000Y+2550500D01*
X+6700000Y+2677500D02*
X+6700000Y+2550500D01*
X+6636500Y+2614000D02*
X+6763500Y+2614000D01*
X+6763500Y+3122000D02*
X+6763283Y+3127247D01*
X+6761518Y+3137742D01*
X+6757826Y+3148237D01*
X+6751798Y+3158732D01*
X+6742576Y+3169112D01*
X+6732081Y+3176800D01*
X+6721586Y+3181718D01*
X+6711091Y+3184524D01*
X+6700596Y+3185497D01*
X+6700000Y+3185500D01*
X+6636500Y+3122000D02*
X+6636717Y+3127247D01*
X+6638482Y+3137742D01*
X+6642174Y+3148237D01*
X+6648202Y+3158732D01*
X+6657424Y+3169112D01*
X+6667919Y+3176800D01*
X+6678414Y+3181718D01*
X+6688909Y+3184524D01*
X+6699404Y+3185497D01*
X+6700000Y+3185500D01*
X+6636500Y+3122000D02*
X+6636717Y+3116753D01*
X+6638482Y+3106258D01*
X+6642174Y+3095763D01*
X+6648202Y+3085268D01*
X+6657424Y+3074888D01*
X+6667919Y+3067200D01*
X+6678414Y+3062282D01*
X+6688909Y+3059476D01*
X+6699404Y+3058503D01*
X+6700000Y+3058500D01*
X+6763500Y+3122000D02*
X+6763283Y+3116753D01*
X+6761518Y+3106258D01*
X+6757826Y+3095763D01*
X+6751798Y+3085268D01*
X+6742576Y+3074888D01*
X+6732081Y+3067200D01*
X+6721586Y+3062282D01*
X+6711091Y+3059476D01*
X+6700596Y+3058503D01*
X+6700000Y+3058500D01*
X+6700000Y+3185500D02*
X+6700000Y+3058500D01*
X+6636500Y+3122000D02*
X+6763500Y+3122000D01*
X+6763500Y+3630000D02*
X+6763283Y+3635247D01*
X+6761518Y+3645742D01*
X+6757826Y+3656237D01*
X+6751798Y+3666732D01*
X+6742576Y+3677112D01*
X+6732081Y+3684800D01*
X+6721586Y+3689718D01*
X+6711091Y+3692524D01*
X+6700596Y+3693497D01*
X+6700000Y+3693500D01*
X+6636500Y+3630000D02*
X+6636717Y+3635247D01*
X+6638482Y+3645742D01*
X+6642174Y+3656237D01*
X+6648202Y+3666732D01*
X+6657424Y+3677112D01*
X+6667919Y+3684800D01*
X+6678414Y+3689718D01*
X+6688909Y+3692524D01*
X+6699404Y+3693497D01*
X+6700000Y+3693500D01*
X+6636500Y+3630000D02*
X+6636717Y+3624753D01*
X+6638482Y+3614258D01*
X+6642174Y+3603763D01*
X+6648202Y+3593268D01*
X+6657424Y+3582888D01*
X+6667919Y+3575200D01*
X+6678414Y+3570282D01*
X+6688909Y+3567476D01*
X+6699404Y+3566503D01*
X+6700000Y+3566500D01*
X+6763500Y+3630000D02*
X+6763283Y+3624753D01*
X+6761518Y+3614258D01*
X+6757826Y+3603763D01*
X+6751798Y+3593268D01*
X+6742576Y+3582888D01*
X+6732081Y+3575200D01*
X+6721586Y+3570282D01*
X+6711091Y+3567476D01*
X+6700596Y+3566503D01*
X+6700000Y+3566500D01*
X+6700000Y+3693500D02*
X+6700000Y+3566500D01*
X+6636500Y+3630000D02*
X+6763500Y+3630000D01*
X+7855099Y+774901D02*
X+7944901Y+685099D01*
X+7855099Y+685099D02*
X+7944901Y+774901D01*
X+8871099Y+774901D02*
X+8960901Y+685099D01*
X+8871099Y+685099D02*
X+8960901Y+774901D01*
X+9800000Y+793500D02*
X+9800000Y+666500D01*
X+9736500Y+730000D02*
X+9863500Y+730000D01*
X+9755099Y+774901D02*
X+9844901Y+685099D01*
X+9755099Y+685099D02*
X+9844901Y+774901D01*
X+9800000Y+1047500D02*
X+9800000Y+920500D01*
X+9736500Y+984000D02*
X+9863500Y+984000D01*
X+9755099Y+1028901D02*
X+9844901Y+939099D01*
X+9755099Y+939099D02*
X+9844901Y+1028901D01*
X+9800000Y+3293500D02*
X+9800000Y+3166500D01*
X+9736500Y+3230000D02*
X+9863500Y+3230000D01*
X+9755099Y+3274901D02*
X+9844901Y+3185099D01*
X+9755099Y+3185099D02*
X+9844901Y+3274901D01*
X+9800000Y+3039500D02*
X+9800000Y+2912500D01*
X+9736500Y+2976000D02*
X+9863500Y+2976000D01*
X+9755099Y+3020901D02*
X+9844901Y+2931099D01*
X+9755099Y+2931099D02*
X+9844901Y+3020901D01*
X+9800000Y+2785500D02*
X+9800000Y+2658500D01*
X+9736500Y+2722000D02*
X+9863500Y+2722000D01*
X+9755099Y+2766901D02*
X+9844901Y+2677099D01*
X+9755099Y+2677099D02*
X+9844901Y+2766901D01*
X+9800000Y+2531500D02*
X+9800000Y+2404500D01*
X+9736500Y+2468000D02*
X+9863500Y+2468000D01*
X+9755099Y+2512901D02*
X+9844901Y+2423099D01*
X+9755099Y+2423099D02*
X+9844901Y+2512901D01*
X+9800000Y+2277500D02*
X+9800000Y+2150500D01*
X+9736500Y+2214000D02*
X+9863500Y+2214000D01*
X+9755099Y+2258901D02*
X+9844901Y+2169099D01*
X+9755099Y+2169099D02*
X+9844901Y+2258901D01*
X+9800000Y+2023500D02*
X+9800000Y+1896500D01*
X+9736500Y+1960000D02*
X+9863500Y+1960000D01*
X+9755099Y+2004901D02*
X+9844901Y+1915099D01*
X+9755099Y+1915099D02*
X+9844901Y+2004901D01*
X+3800000Y+3263500D02*
X+3800000Y+3136500D01*
X+3736500Y+3200000D02*
X+3863500Y+3200000D01*
X+3755099Y+3244901D02*
X+3844901Y+3155099D01*
X+3755099Y+3155099D02*
X+3844901Y+3244901D01*
X+3800000Y+3009500D02*
X+3800000Y+2882500D01*
X+3736500Y+2946000D02*
X+3863500Y+2946000D01*
X+3755099Y+2990901D02*
X+3844901Y+2901099D01*
X+3755099Y+2901099D02*
X+3844901Y+2990901D01*
X+3800000Y+2755500D02*
X+3800000Y+2628500D01*
X+3736500Y+2692000D02*
X+3863500Y+2692000D01*
X+3755099Y+2736901D02*
X+3844901Y+2647099D01*
X+3755099Y+2647099D02*
X+3844901Y+2736901D01*
X+3800000Y+2501500D02*
X+3800000Y+2374500D01*
X+3736500Y+2438000D02*
X+3863500Y+2438000D01*
X+3755099Y+2482901D02*
X+3844901Y+2393099D01*
X+3755099Y+2393099D02*
X+3844901Y+2482901D01*
X+3800000Y+2247500D02*
X+3800000Y+2120500D01*
X+3736500Y+2184000D02*
X+3863500Y+2184000D01*
X+3755099Y+2228901D02*
X+3844901Y+2139099D01*
X+3755099Y+2139099D02*
X+3844901Y+2228901D01*
X+3800000Y+1993500D02*
X+3800000Y+1866500D01*
X+3736500Y+1930000D02*
X+3863500Y+1930000D01*
X+3755099Y+1974901D02*
X+3844901Y+1885099D01*
X+3755099Y+1885099D02*
X+3844901Y+1974901D01*
X+3655099Y+3790901D02*
X+3744901Y+3701099D01*
X+3655099Y+3701099D02*
X+3744901Y+3790901D01*
X+3909099Y+3790901D02*
X+3998901Y+3701099D01*
X+3909099Y+3701099D02*
X+3998901Y+3790901D01*
X+9755099Y+3674901D02*
X+9844901Y+3585099D01*
X+9755099Y+3585099D02*
X+9844901Y+3674901D01*
X+9755099Y+3928901D02*
X+9844901Y+3839099D01*
X+9755099Y+3839099D02*
X+9844901Y+3928901D01*
X+1855099Y+744901D02*
X+1944901Y+655099D01*
X+1855099Y+655099D02*
X+1944901Y+744901D01*
X+2871099Y+744901D02*
X+2960901Y+655099D01*
X+2871099Y+655099D02*
X+2960901Y+744901D01*
X+3800000Y+1117500D02*
X+3800000Y+990500D01*
X+3736500Y+1054000D02*
X+3863500Y+1054000D01*
X+3755099Y+1098901D02*
X+3844901Y+1009099D01*
X+3755099Y+1009099D02*
X+3844901Y+1098901D01*
X+3800000Y+863500D02*
X+3800000Y+736500D01*
X+3736500Y+800000D02*
X+3863500Y+800000D01*
X+3755099Y+844901D02*
X+3844901Y+755099D01*
X+3755099Y+755099D02*
X+3844901Y+844901D01*
X+563500Y+4700000D02*
X+563283Y+4705247D01*
X+561518Y+4715742D01*
X+557826Y+4726237D01*
X+551798Y+4736732D01*
X+542576Y+4747112D01*
X+532081Y+4754800D01*
X+521586Y+4759718D01*
X+511091Y+4762524D01*
X+500596Y+4763497D01*
X+500000Y+4763500D01*
X+436500Y+4700000D02*
X+436717Y+4705247D01*
X+438482Y+4715742D01*
X+442174Y+4726237D01*
X+448202Y+4736732D01*
X+457424Y+4747112D01*
X+467919Y+4754800D01*
X+478414Y+4759718D01*
X+488909Y+4762524D01*
X+499404Y+4763497D01*
X+500000Y+4763500D01*
X+436500Y+4700000D02*
X+436717Y+4694753D01*
X+438482Y+4684258D01*
X+442174Y+4673763D01*
X+448202Y+4663268D01*
X+457424Y+4652888D01*
X+467919Y+4645200D01*
X+478414Y+4640282D01*
X+488909Y+4637476D01*
X+499404Y+4636503D01*
X+500000Y+4636500D01*
X+563500Y+4700000D02*
X+563283Y+4694753D01*
X+561518Y+4684258D01*
X+557826Y+4673763D01*
X+551798Y+4663268D01*
X+542576Y+4652888D01*
X+532081Y+4645200D01*
X+521586Y+4640282D01*
X+511091Y+4637476D01*
X+500596Y+4636503D01*
X+500000Y+4636500D01*
X+455099Y+4744901D02*
X+544901Y+4655099D01*
X+455099Y+4655099D02*
X+544901Y+4744901D01*
X+563500Y+500000D02*
X+563283Y+505247D01*
X+561518Y+515742D01*
X+557826Y+526237D01*
X+551798Y+536732D01*
X+542576Y+547112D01*
X+532081Y+554800D01*
X+521586Y+559718D01*
X+511091Y+562524D01*
X+500596Y+563497D01*
X+500000Y+563500D01*
X+436500Y+500000D02*
X+436717Y+505247D01*
X+438482Y+515742D01*
X+442174Y+526237D01*
X+448202Y+536732D01*
X+457424Y+547112D01*
X+467919Y+554800D01*
X+478414Y+559718D01*
X+488909Y+562524D01*
X+499404Y+563497D01*
X+500000Y+563500D01*
X+436500Y+500000D02*
X+436717Y+494753D01*
X+438482Y+484258D01*
X+442174Y+473763D01*
X+448202Y+463268D01*
X+457424Y+452888D01*
X+467919Y+445200D01*
X+478414Y+440282D01*
X+488909Y+437476D01*
X+499404Y+436503D01*
X+500000Y+436500D01*
X+563500Y+500000D02*
X+563283Y+494753D01*
X+561518Y+484258D01*
X+557826Y+473763D01*
X+551798Y+463268D01*
X+542576Y+452888D01*
X+532081Y+445200D01*
X+521586Y+440282D01*
X+511091Y+437476D01*
X+500596Y+436503D01*
X+500000Y+436500D01*
X+455099Y+544901D02*
X+544901Y+455099D01*
X+455099Y+455099D02*
X+544901Y+544901D01*
X+5063500Y+500000D02*
X+5063283Y+505247D01*
X+5061518Y+515742D01*
X+5057826Y+526237D01*
X+5051798Y+536732D01*
X+5042576Y+547112D01*
X+5032081Y+554800D01*
X+5021586Y+559718D01*
X+5011091Y+562524D01*
X+5000596Y+563497D01*
X+5000000Y+563500D01*
X+4936500Y+500000D02*
X+4936717Y+505247D01*
X+4938482Y+515742D01*
X+4942174Y+526237D01*
X+4948202Y+536732D01*
X+4957424Y+547112D01*
X+4967919Y+554800D01*
X+4978414Y+559718D01*
X+4988909Y+562524D01*
X+4999404Y+563497D01*
X+5000000Y+563500D01*
X+4936500Y+500000D02*
X+4936717Y+494753D01*
X+4938482Y+484258D01*
X+4942174Y+473763D01*
X+4948202Y+463268D01*
X+4957424Y+452888D01*
X+4967919Y+445200D01*
X+4978414Y+440282D01*
X+4988909Y+437476D01*
X+4999404Y+436503D01*
X+5000000Y+436500D01*
X+5063500Y+500000D02*
X+5063283Y+494753D01*
X+5061518Y+484258D01*
X+5057826Y+473763D01*
X+5051798Y+463268D01*
X+5042576Y+452888D01*
X+5032081Y+445200D01*
X+5021586Y+440282D01*
X+5011091Y+437476D01*
X+5000596Y+436503D01*
X+5000000Y+436500D01*
X+4955099Y+544901D02*
X+5044901Y+455099D01*
X+4955099Y+455099D02*
X+5044901Y+544901D01*
X+5063500Y+4700000D02*
X+5063283Y+4705247D01*
X+5061518Y+4715742D01*
X+5057826Y+4726237D01*
X+5051798Y+4736732D01*
X+5042576Y+4747112D01*
X+5032081Y+4754800D01*
X+5021586Y+4759718D01*
X+5011091Y+4762524D01*
X+5000596Y+4763497D01*
X+5000000Y+4763500D01*
X+4936500Y+4700000D02*
X+4936717Y+4705247D01*
X+4938482Y+4715742D01*
X+4942174Y+4726237D01*
X+4948202Y+4736732D01*
X+4957424Y+4747112D01*
X+4967919Y+4754800D01*
X+4978414Y+4759718D01*
X+4988909Y+4762524D01*
X+4999404Y+4763497D01*
X+5000000Y+4763500D01*
X+4936500Y+4700000D02*
X+4936717Y+4694753D01*
X+4938482Y+4684258D01*
X+4942174Y+4673763D01*
X+4948202Y+4663268D01*
X+4957424Y+4652888D01*
X+4967919Y+4645200D01*
X+4978414Y+4640282D01*
X+4988909Y+4637476D01*
X+4999404Y+4636503D01*
X+5000000Y+4636500D01*
X+5063500Y+4700000D02*
X+5063283Y+4694753D01*
X+5061518Y+4684258D01*
X+5057826Y+4673763D01*
X+5051798Y+4663268D01*
X+5042576Y+4652888D01*
X+5032081Y+4645200D01*
X+5021586Y+4640282D01*
X+5011091Y+4637476D01*
X+5000596Y+4636503D01*
X+5000000Y+4636500D01*
X+4955099Y+4744901D02*
X+5044901Y+4655099D01*
X+4955099Y+4655099D02*
X+5044901Y+4744901D01*
X+6563500Y+4700000D02*
X+6563283Y+4705247D01*
X+6561518Y+4715742D01*
X+6557826Y+4726237D01*
X+6551798Y+4736732D01*
X+6542576Y+4747112D01*
X+6532081Y+4754800D01*
X+6521586Y+4759718D01*
X+6511091Y+4762524D01*
X+6500596Y+4763497D01*
X+6500000Y+4763500D01*
X+6436500Y+4700000D02*
X+6436717Y+4705247D01*
X+6438482Y+4715742D01*
X+6442174Y+4726237D01*
X+6448202Y+4736732D01*
X+6457424Y+4747112D01*
X+6467919Y+4754800D01*
X+6478414Y+4759718D01*
X+6488909Y+4762524D01*
X+6499404Y+4763497D01*
X+6500000Y+4763500D01*
X+6436500Y+4700000D02*
X+6436717Y+4694753D01*
X+6438482Y+4684258D01*
X+6442174Y+4673763D01*
X+6448202Y+4663268D01*
X+6457424Y+4652888D01*
X+6467919Y+4645200D01*
X+6478414Y+4640282D01*
X+6488909Y+4637476D01*
X+6499404Y+4636503D01*
X+6500000Y+4636500D01*
X+6563500Y+4700000D02*
X+6563283Y+4694753D01*
X+6561518Y+4684258D01*
X+6557826Y+4673763D01*
X+6551798Y+4663268D01*
X+6542576Y+4652888D01*
X+6532081Y+4645200D01*
X+6521586Y+4640282D01*
X+6511091Y+4637476D01*
X+6500596Y+4636503D01*
X+6500000Y+4636500D01*
X+6455099Y+4744901D02*
X+6544901Y+4655099D01*
X+6455099Y+4655099D02*
X+6544901Y+4744901D01*
X+6563500Y+500000D02*
X+6563283Y+505247D01*
X+6561518Y+515742D01*
X+6557826Y+526237D01*
X+6551798Y+536732D01*
X+6542576Y+547112D01*
X+6532081Y+554800D01*
X+6521586Y+559718D01*
X+6511091Y+562524D01*
X+6500596Y+563497D01*
X+6500000Y+563500D01*
X+6436500Y+500000D02*
X+6436717Y+505247D01*
X+6438482Y+515742D01*
X+6442174Y+526237D01*
X+6448202Y+536732D01*
X+6457424Y+547112D01*
X+6467919Y+554800D01*
X+6478414Y+559718D01*
X+6488909Y+562524D01*
X+6499404Y+563497D01*
X+6500000Y+563500D01*
X+6436500Y+500000D02*
X+6436717Y+494753D01*
X+6438482Y+484258D01*
X+6442174Y+473763D01*
X+6448202Y+463268D01*
X+6457424Y+452888D01*
X+6467919Y+445200D01*
X+6478414Y+440282D01*
X+6488909Y+437476D01*
X+6499404Y+436503D01*
X+6500000Y+436500D01*
X+6563500Y+500000D02*
X+6563283Y+494753D01*
X+6561518Y+484258D01*
X+6557826Y+473763D01*
X+6551798Y+463268D01*
X+6542576Y+452888D01*
X+6532081Y+445200D01*
X+6521586Y+440282D01*
X+6511091Y+437476D01*
X+6500596Y+436503D01*
X+6500000Y+436500D01*
X+6455099Y+544901D02*
X+6544901Y+455099D01*
X+6455099Y+455099D02*
X+6544901Y+544901D01*
X+10663500Y+500000D02*
X+10663283Y+505247D01*
X+10661518Y+515742D01*
X+10657826Y+526237D01*
X+10651798Y+536732D01*
X+10642576Y+547112D01*
X+10632081Y+554800D01*
X+10621586Y+559718D01*
X+10611091Y+562524D01*
X+10600596Y+563497D01*
X+10600000Y+563500D01*
X+10536500Y+500000D02*
X+10536717Y+505247D01*
X+10538482Y+515742D01*
X+10542174Y+526237D01*
X+10548202Y+536732D01*
X+10557424Y+547112D01*
X+10567919Y+554800D01*
X+10578414Y+559718D01*
X+10588909Y+562524D01*
X+10599404Y+563497D01*
X+10600000Y+563500D01*
X+10536500Y+500000D02*
X+10536717Y+494753D01*
X+10538482Y+484258D01*
X+10542174Y+473763D01*
X+10548202Y+463268D01*
X+10557424Y+452888D01*
X+10567919Y+445200D01*
X+10578414Y+440282D01*
X+10588909Y+437476D01*
X+10599404Y+436503D01*
X+10600000Y+436500D01*
X+10663500Y+500000D02*
X+10663283Y+494753D01*
X+10661518Y+484258D01*
X+10657826Y+473763D01*
X+10651798Y+463268D01*
X+10642576Y+452888D01*
X+10632081Y+445200D01*
X+10621586Y+440282D01*
X+10611091Y+437476D01*
X+10600596Y+436503D01*
X+10600000Y+436500D01*
X+10555099Y+544901D02*
X+10644901Y+455099D01*
X+10555099Y+455099D02*
X+10644901Y+544901D01*
X+10663500Y+4700000D02*
X+10663283Y+4705247D01*
X+10661518Y+4715742D01*
X+10657826Y+4726237D01*
X+10651798Y+4736732D01*
X+10642576Y+4747112D01*
X+10632081Y+4754800D01*
X+10621586Y+4759718D01*
X+10611091Y+4762524D01*
X+10600596Y+4763497D01*
X+10600000Y+4763500D01*
X+10536500Y+4700000D02*
X+10536717Y+4705247D01*
X+10538482Y+4715742D01*
X+10542174Y+4726237D01*
X+10548202Y+4736732D01*
X+10557424Y+4747112D01*
X+10567919Y+4754800D01*
X+10578414Y+4759718D01*
X+10588909Y+4762524D01*
X+10599404Y+4763497D01*
X+10600000Y+4763500D01*
X+10536500Y+4700000D02*
X+10536717Y+4694753D01*
X+10538482Y+4684258D01*
X+10542174Y+4673763D01*
X+10548202Y+4663268D01*
X+10557424Y+4652888D01*
X+10567919Y+4645200D01*
X+10578414Y+4640282D01*
X+10588909Y+4637476D01*
X+10599404Y+4636503D01*
X+10600000Y+4636500D01*
X+10663500Y+4700000D02*
X+10663283Y+4694753D01*
X+10661518Y+4684258D01*
X+10657826Y+4673763D01*
X+10651798Y+4663268D01*
X+10642576Y+4652888D01*
X+10632081Y+4645200D01*
X+10621586Y+4640282D01*
X+10611091Y+4637476D01*
X+10600596Y+4636503D01*
X+10600000Y+4636500D01*
X+10555099Y+4744901D02*
X+10644901Y+4655099D01*
X+10555099Y+4655099D02*
X+10644901Y+4744901D01*
X+9055099Y+9674901D02*
X+9144901Y+9585099D01*
X+9055099Y+9585099D02*
X+9144901Y+9674901D01*
X+7755099Y+9674901D02*
X+7844901Y+9585099D01*
X+7755099Y+9585099D02*
X+7844901Y+9674901D01*
X+9055099Y+6774901D02*
X+9144901Y+6685099D01*
X+9055099Y+6685099D02*
X+9144901Y+6774901D01*
X+7755099Y+6774901D02*
X+7844901Y+6685099D01*
X+7755099Y+6685099D02*
X+7844901Y+6774901D01*
X+763500Y+7200000D02*
X+763283Y+7205247D01*
X+761518Y+7215742D01*
X+757826Y+7226237D01*
X+751798Y+7236732D01*
X+742576Y+7247112D01*
X+732081Y+7254800D01*
X+721586Y+7259718D01*
X+711091Y+7262524D01*
X+700596Y+7263497D01*
X+700000Y+7263500D01*
X+636500Y+7200000D02*
X+636717Y+7205247D01*
X+638482Y+7215742D01*
X+642174Y+7226237D01*
X+648202Y+7236732D01*
X+657424Y+7247112D01*
X+667919Y+7254800D01*
X+678414Y+7259718D01*
X+688909Y+7262524D01*
X+699404Y+7263497D01*
X+700000Y+7263500D01*
X+636500Y+7200000D02*
X+636717Y+7194753D01*
X+638482Y+7184258D01*
X+642174Y+7173763D01*
X+648202Y+7163268D01*
X+657424Y+7152888D01*
X+667919Y+7145200D01*
X+678414Y+7140282D01*
X+688909Y+7137476D01*
X+699404Y+7136503D01*
X+700000Y+7136500D01*
X+763500Y+7200000D02*
X+763283Y+7194753D01*
X+761518Y+7184258D01*
X+757826Y+7173763D01*
X+751798Y+7163268D01*
X+742576Y+7152888D01*
X+732081Y+7145200D01*
X+721586Y+7140282D01*
X+711091Y+7137476D01*
X+700596Y+7136503D01*
X+700000Y+7136500D01*
X+700000Y+7263500D02*
X+700000Y+7136500D01*
X+636500Y+7200000D02*
X+763500Y+7200000D01*
X+763500Y+7708000D02*
X+763283Y+7713247D01*
X+761518Y+7723742D01*
X+757826Y+7734237D01*
X+751798Y+7744732D01*
X+742576Y+7755112D01*
X+732081Y+7762800D01*
X+721586Y+7767718D01*
X+711091Y+7770524D01*
X+700596Y+7771497D01*
X+700000Y+7771500D01*
X+636500Y+7708000D02*
X+636717Y+7713247D01*
X+638482Y+7723742D01*
X+642174Y+7734237D01*
X+648202Y+7744732D01*
X+657424Y+7755112D01*
X+667919Y+7762800D01*
X+678414Y+7767718D01*
X+688909Y+7770524D01*
X+699404Y+7771497D01*
X+700000Y+7771500D01*
X+636500Y+7708000D02*
X+636717Y+7702753D01*
X+638482Y+7692258D01*
X+642174Y+7681763D01*
X+648202Y+7671268D01*
X+657424Y+7660888D01*
X+667919Y+7653200D01*
X+678414Y+7648282D01*
X+688909Y+7645476D01*
X+699404Y+7644503D01*
X+700000Y+7644500D01*
X+763500Y+7708000D02*
X+763283Y+7702753D01*
X+761518Y+7692258D01*
X+757826Y+7681763D01*
X+751798Y+7671268D01*
X+742576Y+7660888D01*
X+732081Y+7653200D01*
X+721586Y+7648282D01*
X+711091Y+7645476D01*
X+700596Y+7644503D01*
X+700000Y+7644500D01*
X+700000Y+7771500D02*
X+700000Y+7644500D01*
X+636500Y+7708000D02*
X+763500Y+7708000D01*
X+763500Y+8216000D02*
X+763283Y+8221247D01*
X+761518Y+8231742D01*
X+757826Y+8242237D01*
X+751798Y+8252732D01*
X+742576Y+8263112D01*
X+732081Y+8270800D01*
X+721586Y+8275718D01*
X+711091Y+8278524D01*
X+700596Y+8279497D01*
X+700000Y+8279500D01*
X+636500Y+8216000D02*
X+636717Y+8221247D01*
X+638482Y+8231742D01*
X+642174Y+8242237D01*
X+648202Y+8252732D01*
X+657424Y+8263112D01*
X+667919Y+8270800D01*
X+678414Y+8275718D01*
X+688909Y+8278524D01*
X+699404Y+8279497D01*
X+700000Y+8279500D01*
X+636500Y+8216000D02*
X+636717Y+8210753D01*
X+638482Y+8200258D01*
X+642174Y+8189763D01*
X+648202Y+8179268D01*
X+657424Y+8168888D01*
X+667919Y+8161200D01*
X+678414Y+8156282D01*
X+688909Y+8153476D01*
X+699404Y+8152503D01*
X+700000Y+8152500D01*
X+763500Y+8216000D02*
X+763283Y+8210753D01*
X+761518Y+8200258D01*
X+757826Y+8189763D01*
X+751798Y+8179268D01*
X+742576Y+8168888D01*
X+732081Y+8161200D01*
X+721586Y+8156282D01*
X+711091Y+8153476D01*
X+700596Y+8152503D01*
X+700000Y+8152500D01*
X+700000Y+8279500D02*
X+700000Y+8152500D01*
X+636500Y+8216000D02*
X+763500Y+8216000D01*
X+763500Y+8724000D02*
X+763283Y+8729247D01*
X+761518Y+8739742D01*
X+757826Y+8750237D01*
X+751798Y+8760732D01*
X+742576Y+8771112D01*
X+732081Y+8778800D01*
X+721586Y+8783718D01*
X+711091Y+8786524D01*
X+700596Y+8787497D01*
X+700000Y+8787500D01*
X+636500Y+8724000D02*
X+636717Y+8729247D01*
X+638482Y+8739742D01*
X+642174Y+8750237D01*
X+648202Y+8760732D01*
X+657424Y+8771112D01*
X+667919Y+8778800D01*
X+678414Y+8783718D01*
X+688909Y+8786524D01*
X+699404Y+8787497D01*
X+700000Y+8787500D01*
X+636500Y+8724000D02*
X+636717Y+8718753D01*
X+638482Y+8708258D01*
X+642174Y+8697763D01*
X+648202Y+8687268D01*
X+657424Y+8676888D01*
X+667919Y+8669200D01*
X+678414Y+8664282D01*
X+688909Y+8661476D01*
X+699404Y+8660503D01*
X+700000Y+8660500D01*
X+763500Y+8724000D02*
X+763283Y+8718753D01*
X+761518Y+8708258D01*
X+757826Y+8697763D01*
X+751798Y+8687268D01*
X+742576Y+8676888D01*
X+732081Y+8669200D01*
X+721586Y+8664282D01*
X+711091Y+8661476D01*
X+700596Y+8660503D01*
X+700000Y+8660500D01*
X+700000Y+8787500D02*
X+700000Y+8660500D01*
X+636500Y+8724000D02*
X+763500Y+8724000D01*
X+763500Y+9232000D02*
X+763283Y+9237247D01*
X+761518Y+9247742D01*
X+757826Y+9258237D01*
X+751798Y+9268732D01*
X+742576Y+9279112D01*
X+732081Y+9286800D01*
X+721586Y+9291718D01*
X+711091Y+9294524D01*
X+700596Y+9295497D01*
X+700000Y+9295500D01*
X+636500Y+9232000D02*
X+636717Y+9237247D01*
X+638482Y+9247742D01*
X+642174Y+9258237D01*
X+648202Y+9268732D01*
X+657424Y+9279112D01*
X+667919Y+9286800D01*
X+678414Y+9291718D01*
X+688909Y+9294524D01*
X+699404Y+9295497D01*
X+700000Y+9295500D01*
X+636500Y+9232000D02*
X+636717Y+9226753D01*
X+638482Y+9216258D01*
X+642174Y+9205763D01*
X+648202Y+9195268D01*
X+657424Y+9184888D01*
X+667919Y+9177200D01*
X+678414Y+9172282D01*
X+688909Y+9169476D01*
X+699404Y+9168503D01*
X+700000Y+9168500D01*
X+763500Y+9232000D02*
X+763283Y+9226753D01*
X+761518Y+9216258D01*
X+757826Y+9205763D01*
X+751798Y+9195268D01*
X+742576Y+9184888D01*
X+732081Y+9177200D01*
X+721586Y+9172282D01*
X+711091Y+9169476D01*
X+700596Y+9168503D01*
X+700000Y+9168500D01*
X+700000Y+9295500D02*
X+700000Y+9168500D01*
X+636500Y+9232000D02*
X+763500Y+9232000D01*
X+3055099Y+9644901D02*
X+3144901Y+9555099D01*
X+3055099Y+9555099D02*
X+3144901Y+9644901D01*
X+1755099Y+9644901D02*
X+1844901Y+9555099D01*
X+1755099Y+9555099D02*
X+1844901Y+9644901D01*
X+3055099Y+6744901D02*
X+3144901Y+6655099D01*
X+3055099Y+6655099D02*
X+3144901Y+6744901D01*
X+1755099Y+6744901D02*
X+1844901Y+6655099D01*
X+1755099Y+6655099D02*
X+1844901Y+6744901D01*
X+4863500Y+7198000D02*
X+4863283Y+7203247D01*
X+4861518Y+7213742D01*
X+4857826Y+7224237D01*
X+4851798Y+7234732D01*
X+4842576Y+7245112D01*
X+4832081Y+7252800D01*
X+4821586Y+7257718D01*
X+4811091Y+7260524D01*
X+4800596Y+7261497D01*
X+4800000Y+7261500D01*
X+4736500Y+7198000D02*
X+4736717Y+7203247D01*
X+4738482Y+7213742D01*
X+4742174Y+7224237D01*
X+4748202Y+7234732D01*
X+4757424Y+7245112D01*
X+4767919Y+7252800D01*
X+4778414Y+7257718D01*
X+4788909Y+7260524D01*
X+4799404Y+7261497D01*
X+4800000Y+7261500D01*
X+4736500Y+7198000D02*
X+4736717Y+7192753D01*
X+4738482Y+7182258D01*
X+4742174Y+7171763D01*
X+4748202Y+7161268D01*
X+4757424Y+7150888D01*
X+4767919Y+7143200D01*
X+4778414Y+7138282D01*
X+4788909Y+7135476D01*
X+4799404Y+7134503D01*
X+4800000Y+7134500D01*
X+4863500Y+7198000D02*
X+4863283Y+7192753D01*
X+4861518Y+7182258D01*
X+4857826Y+7171763D01*
X+4851798Y+7161268D01*
X+4842576Y+7150888D01*
X+4832081Y+7143200D01*
X+4821586Y+7138282D01*
X+4811091Y+7135476D01*
X+4800596Y+7134503D01*
X+4800000Y+7134500D01*
X+4800000Y+7261500D02*
X+4800000Y+7134500D01*
X+4736500Y+7198000D02*
X+4863500Y+7198000D01*
X+4863500Y+7706000D02*
X+4863283Y+7711247D01*
X+4861518Y+7721742D01*
X+4857826Y+7732237D01*
X+4851798Y+7742732D01*
X+4842576Y+7753112D01*
X+4832081Y+7760800D01*
X+4821586Y+7765718D01*
X+4811091Y+7768524D01*
X+4800596Y+7769497D01*
X+4800000Y+7769500D01*
X+4736500Y+7706000D02*
X+4736717Y+7711247D01*
X+4738482Y+7721742D01*
X+4742174Y+7732237D01*
X+4748202Y+7742732D01*
X+4757424Y+7753112D01*
X+4767919Y+7760800D01*
X+4778414Y+7765718D01*
X+4788909Y+7768524D01*
X+4799404Y+7769497D01*
X+4800000Y+7769500D01*
X+4736500Y+7706000D02*
X+4736717Y+7700753D01*
X+4738482Y+7690258D01*
X+4742174Y+7679763D01*
X+4748202Y+7669268D01*
X+4757424Y+7658888D01*
X+4767919Y+7651200D01*
X+4778414Y+7646282D01*
X+4788909Y+7643476D01*
X+4799404Y+7642503D01*
X+4800000Y+7642500D01*
X+4863500Y+7706000D02*
X+4863283Y+7700753D01*
X+4861518Y+7690258D01*
X+4857826Y+7679763D01*
X+4851798Y+7669268D01*
X+4842576Y+7658888D01*
X+4832081Y+7651200D01*
X+4821586Y+7646282D01*
X+4811091Y+7643476D01*
X+4800596Y+7642503D01*
X+4800000Y+7642500D01*
X+4800000Y+7769500D02*
X+4800000Y+7642500D01*
X+4736500Y+7706000D02*
X+4863500Y+7706000D01*
X+4863500Y+8214000D02*
X+4863283Y+8219247D01*
X+4861518Y+8229742D01*
X+4857826Y+8240237D01*
X+4851798Y+8250732D01*
X+4842576Y+8261112D01*
X+4832081Y+8268800D01*
X+4821586Y+8273718D01*
X+4811091Y+8276524D01*
X+4800596Y+8277497D01*
X+4800000Y+8277500D01*
X+4736500Y+8214000D02*
X+4736717Y+8219247D01*
X+4738482Y+8229742D01*
X+4742174Y+8240237D01*
X+4748202Y+8250732D01*
X+4757424Y+8261112D01*
X+4767919Y+8268800D01*
X+4778414Y+8273718D01*
X+4788909Y+8276524D01*
X+4799404Y+8277497D01*
X+4800000Y+8277500D01*
X+4736500Y+8214000D02*
X+4736717Y+8208753D01*
X+4738482Y+8198258D01*
X+4742174Y+8187763D01*
X+4748202Y+8177268D01*
X+4757424Y+8166888D01*
X+4767919Y+8159200D01*
X+4778414Y+8154282D01*
X+4788909Y+8151476D01*
X+4799404Y+8150503D01*
X+4800000Y+8150500D01*
X+4863500Y+8214000D02*
X+4863283Y+8208753D01*
X+4861518Y+8198258D01*
X+4857826Y+8187763D01*
X+4851798Y+8177268D01*
X+4842576Y+8166888D01*
X+4832081Y+8159200D01*
X+4821586Y+8154282D01*
X+4811091Y+8151476D01*
X+4800596Y+8150503D01*
X+4800000Y+8150500D01*
X+4800000Y+8277500D02*
X+4800000Y+8150500D01*
X+4736500Y+8214000D02*
X+4863500Y+8214000D01*
X+4863500Y+8722000D02*
X+4863283Y+8727247D01*
X+4861518Y+8737742D01*
X+4857826Y+8748237D01*
X+4851798Y+8758732D01*
X+4842576Y+8769112D01*
X+4832081Y+8776800D01*
X+4821586Y+8781718D01*
X+4811091Y+8784524D01*
X+4800596Y+8785497D01*
X+4800000Y+8785500D01*
X+4736500Y+8722000D02*
X+4736717Y+8727247D01*
X+4738482Y+8737742D01*
X+4742174Y+8748237D01*
X+4748202Y+8758732D01*
X+4757424Y+8769112D01*
X+4767919Y+8776800D01*
X+4778414Y+8781718D01*
X+4788909Y+8784524D01*
X+4799404Y+8785497D01*
X+4800000Y+8785500D01*
X+4736500Y+8722000D02*
X+4736717Y+8716753D01*
X+4738482Y+8706258D01*
X+4742174Y+8695763D01*
X+4748202Y+8685268D01*
X+4757424Y+8674888D01*
X+4767919Y+8667200D01*
X+4778414Y+8662282D01*
X+4788909Y+8659476D01*
X+4799404Y+8658503D01*
X+4800000Y+8658500D01*
X+4863500Y+8722000D02*
X+4863283Y+8716753D01*
X+4861518Y+8706258D01*
X+4857826Y+8695763D01*
X+4851798Y+8685268D01*
X+4842576Y+8674888D01*
X+4832081Y+8667200D01*
X+4821586Y+8662282D01*
X+4811091Y+8659476D01*
X+4800596Y+8658503D01*
X+4800000Y+8658500D01*
X+4800000Y+8785500D02*
X+4800000Y+8658500D01*
X+4736500Y+8722000D02*
X+4863500Y+8722000D01*
X+4863500Y+9230000D02*
X+4863283Y+9235247D01*
X+4861518Y+9245742D01*
X+4857826Y+9256237D01*
X+4851798Y+9266732D01*
X+4842576Y+9277112D01*
X+4832081Y+9284800D01*
X+4821586Y+9289718D01*
X+4811091Y+9292524D01*
X+4800596Y+9293497D01*
X+4800000Y+9293500D01*
X+4736500Y+9230000D02*
X+4736717Y+9235247D01*
X+4738482Y+9245742D01*
X+4742174Y+9256237D01*
X+4748202Y+9266732D01*
X+4757424Y+9277112D01*
X+4767919Y+9284800D01*
X+4778414Y+9289718D01*
X+4788909Y+9292524D01*
X+4799404Y+9293497D01*
X+4800000Y+9293500D01*
X+4736500Y+9230000D02*
X+4736717Y+9224753D01*
X+4738482Y+9214258D01*
X+4742174Y+9203763D01*
X+4748202Y+9193268D01*
X+4757424Y+9182888D01*
X+4767919Y+9175200D01*
X+4778414Y+9170282D01*
X+4788909Y+9167476D01*
X+4799404Y+9166503D01*
X+4800000Y+9166500D01*
X+4863500Y+9230000D02*
X+4863283Y+9224753D01*
X+4861518Y+9214258D01*
X+4857826Y+9203763D01*
X+4851798Y+9193268D01*
X+4842576Y+9182888D01*
X+4832081Y+9175200D01*
X+4821586Y+9170282D01*
X+4811091Y+9167476D01*
X+4800596Y+9166503D01*
X+4800000Y+9166500D01*
X+4800000Y+9293500D02*
X+4800000Y+9166500D01*
X+4736500Y+9230000D02*
X+4863500Y+9230000D01*
X+6763500Y+7198000D02*
X+6763283Y+7203247D01*
X+6761518Y+7213742D01*
X+6757826Y+7224237D01*
X+6751798Y+7234732D01*
X+6742576Y+7245112D01*
X+6732081Y+7252800D01*
X+6721586Y+7257718D01*
X+6711091Y+7260524D01*
X+6700596Y+7261497D01*
X+6700000Y+7261500D01*
X+6636500Y+7198000D02*
X+6636717Y+7203247D01*
X+6638482Y+7213742D01*
X+6642174Y+7224237D01*
X+6648202Y+7234732D01*
X+6657424Y+7245112D01*
X+6667919Y+7252800D01*
X+6678414Y+7257718D01*
X+6688909Y+7260524D01*
X+6699404Y+7261497D01*
X+6700000Y+7261500D01*
X+6636500Y+7198000D02*
X+6636717Y+7192753D01*
X+6638482Y+7182258D01*
X+6642174Y+7171763D01*
X+6648202Y+7161268D01*
X+6657424Y+7150888D01*
X+6667919Y+7143200D01*
X+6678414Y+7138282D01*
X+6688909Y+7135476D01*
X+6699404Y+7134503D01*
X+6700000Y+7134500D01*
X+6763500Y+7198000D02*
X+6763283Y+7192753D01*
X+6761518Y+7182258D01*
X+6757826Y+7171763D01*
X+6751798Y+7161268D01*
X+6742576Y+7150888D01*
X+6732081Y+7143200D01*
X+6721586Y+7138282D01*
X+6711091Y+7135476D01*
X+6700596Y+7134503D01*
X+6700000Y+7134500D01*
X+6700000Y+7261500D02*
X+6700000Y+7134500D01*
X+6636500Y+7198000D02*
X+6763500Y+7198000D01*
X+6763500Y+7706000D02*
X+6763283Y+7711247D01*
X+6761518Y+7721742D01*
X+6757826Y+7732237D01*
X+6751798Y+7742732D01*
X+6742576Y+7753112D01*
X+6732081Y+7760800D01*
X+6721586Y+7765718D01*
X+6711091Y+7768524D01*
X+6700596Y+7769497D01*
X+6700000Y+7769500D01*
X+6636500Y+7706000D02*
X+6636717Y+7711247D01*
X+6638482Y+7721742D01*
X+6642174Y+7732237D01*
X+6648202Y+7742732D01*
X+6657424Y+7753112D01*
X+6667919Y+7760800D01*
X+6678414Y+7765718D01*
X+6688909Y+7768524D01*
X+6699404Y+7769497D01*
X+6700000Y+7769500D01*
X+6636500Y+7706000D02*
X+6636717Y+7700753D01*
X+6638482Y+7690258D01*
X+6642174Y+7679763D01*
X+6648202Y+7669268D01*
X+6657424Y+7658888D01*
X+6667919Y+7651200D01*
X+6678414Y+7646282D01*
X+6688909Y+7643476D01*
X+6699404Y+7642503D01*
X+6700000Y+7642500D01*
X+6763500Y+7706000D02*
X+6763283Y+7700753D01*
X+6761518Y+7690258D01*
X+6757826Y+7679763D01*
X+6751798Y+7669268D01*
X+6742576Y+7658888D01*
X+6732081Y+7651200D01*
X+6721586Y+7646282D01*
X+6711091Y+7643476D01*
X+6700596Y+7642503D01*
X+6700000Y+7642500D01*
X+6700000Y+7769500D02*
X+6700000Y+7642500D01*
X+6636500Y+7706000D02*
X+6763500Y+7706000D01*
X+6763500Y+8214000D02*
X+6763283Y+8219247D01*
X+6761518Y+8229742D01*
X+6757826Y+8240237D01*
X+6751798Y+8250732D01*
X+6742576Y+8261112D01*
X+6732081Y+8268800D01*
X+6721586Y+8273718D01*
X+6711091Y+8276524D01*
X+6700596Y+8277497D01*
X+6700000Y+8277500D01*
X+6636500Y+8214000D02*
X+6636717Y+8219247D01*
X+6638482Y+8229742D01*
X+6642174Y+8240237D01*
X+6648202Y+8250732D01*
X+6657424Y+8261112D01*
X+6667919Y+8268800D01*
X+6678414Y+8273718D01*
X+6688909Y+8276524D01*
X+6699404Y+8277497D01*
X+6700000Y+8277500D01*
X+6636500Y+8214000D02*
X+6636717Y+8208753D01*
X+6638482Y+8198258D01*
X+6642174Y+8187763D01*
X+6648202Y+8177268D01*
X+6657424Y+8166888D01*
X+6667919Y+8159200D01*
X+6678414Y+8154282D01*
X+6688909Y+8151476D01*
X+6699404Y+8150503D01*
X+6700000Y+8150500D01*
X+6763500Y+8214000D02*
X+6763283Y+8208753D01*
X+6761518Y+8198258D01*
X+6757826Y+8187763D01*
X+6751798Y+8177268D01*
X+6742576Y+8166888D01*
X+6732081Y+8159200D01*
X+6721586Y+8154282D01*
X+6711091Y+8151476D01*
X+6700596Y+8150503D01*
X+6700000Y+8150500D01*
X+6700000Y+8277500D02*
X+6700000Y+8150500D01*
X+6636500Y+8214000D02*
X+6763500Y+8214000D01*
X+6763500Y+8722000D02*
X+6763283Y+8727247D01*
X+6761518Y+8737742D01*
X+6757826Y+8748237D01*
X+6751798Y+8758732D01*
X+6742576Y+8769112D01*
X+6732081Y+8776800D01*
X+6721586Y+8781718D01*
X+6711091Y+8784524D01*
X+6700596Y+8785497D01*
X+6700000Y+8785500D01*
X+6636500Y+8722000D02*
X+6636717Y+8727247D01*
X+6638482Y+8737742D01*
X+6642174Y+8748237D01*
X+6648202Y+8758732D01*
X+6657424Y+8769112D01*
X+6667919Y+8776800D01*
X+6678414Y+8781718D01*
X+6688909Y+8784524D01*
X+6699404Y+8785497D01*
X+6700000Y+8785500D01*
X+6636500Y+8722000D02*
X+6636717Y+8716753D01*
X+6638482Y+8706258D01*
X+6642174Y+8695763D01*
X+6648202Y+8685268D01*
X+6657424Y+8674888D01*
X+6667919Y+8667200D01*
X+6678414Y+8662282D01*
X+6688909Y+8659476D01*
X+6699404Y+8658503D01*
X+6700000Y+8658500D01*
X+6763500Y+8722000D02*
X+6763283Y+8716753D01*
X+6761518Y+8706258D01*
X+6757826Y+8695763D01*
X+6751798Y+8685268D01*
X+6742576Y+8674888D01*
X+6732081Y+8667200D01*
X+6721586Y+8662282D01*
X+6711091Y+8659476D01*
X+6700596Y+8658503D01*
X+6700000Y+8658500D01*
X+6700000Y+8785500D02*
X+6700000Y+8658500D01*
X+6636500Y+8722000D02*
X+6763500Y+8722000D01*
X+6763500Y+9230000D02*
X+6763283Y+9235247D01*
X+6761518Y+9245742D01*
X+6757826Y+9256237D01*
X+6751798Y+9266732D01*
X+6742576Y+9277112D01*
X+6732081Y+9284800D01*
X+6721586Y+9289718D01*
X+6711091Y+9292524D01*
X+6700596Y+9293497D01*
X+6700000Y+9293500D01*
X+6636500Y+9230000D02*
X+6636717Y+9235247D01*
X+6638482Y+9245742D01*
X+6642174Y+9256237D01*
X+6648202Y+9266732D01*
X+6657424Y+9277112D01*
X+6667919Y+9284800D01*
X+6678414Y+9289718D01*
X+6688909Y+9292524D01*
X+6699404Y+9293497D01*
X+6700000Y+9293500D01*
X+6636500Y+9230000D02*
X+6636717Y+9224753D01*
X+6638482Y+9214258D01*
X+6642174Y+9203763D01*
X+6648202Y+9193268D01*
X+6657424Y+9182888D01*
X+6667919Y+9175200D01*
X+6678414Y+9170282D01*
X+6688909Y+9167476D01*
X+6699404Y+9166503D01*
X+6700000Y+9166500D01*
X+6763500Y+9230000D02*
X+6763283Y+9224753D01*
X+6761518Y+9214258D01*
X+6757826Y+9203763D01*
X+6751798Y+9193268D01*
X+6742576Y+9182888D01*
X+6732081Y+9175200D01*
X+6721586Y+9170282D01*
X+6711091Y+9167476D01*
X+6700596Y+9166503D01*
X+6700000Y+9166500D01*
X+6700000Y+9293500D02*
X+6700000Y+9166500D01*
X+6636500Y+9230000D02*
X+6763500Y+9230000D01*
X+7855099Y+6374901D02*
X+7944901Y+6285099D01*
X+7855099Y+6285099D02*
X+7944901Y+6374901D01*
X+8871099Y+6374901D02*
X+8960901Y+6285099D01*
X+8871099Y+6285099D02*
X+8960901Y+6374901D01*
X+9800000Y+6393500D02*
X+9800000Y+6266500D01*
X+9736500Y+6330000D02*
X+9863500Y+6330000D01*
X+9755099Y+6374901D02*
X+9844901Y+6285099D01*
X+9755099Y+6285099D02*
X+9844901Y+6374901D01*
X+9800000Y+6647500D02*
X+9800000Y+6520500D01*
X+9736500Y+6584000D02*
X+9863500Y+6584000D01*
X+9755099Y+6628901D02*
X+9844901Y+6539099D01*
X+9755099Y+6539099D02*
X+9844901Y+6628901D01*
X+9800000Y+8893500D02*
X+9800000Y+8766500D01*
X+9736500Y+8830000D02*
X+9863500Y+8830000D01*
X+9755099Y+8874901D02*
X+9844901Y+8785099D01*
X+9755099Y+8785099D02*
X+9844901Y+8874901D01*
X+9800000Y+8639500D02*
X+9800000Y+8512500D01*
X+9736500Y+8576000D02*
X+9863500Y+8576000D01*
X+9755099Y+8620901D02*
X+9844901Y+8531099D01*
X+9755099Y+8531099D02*
X+9844901Y+8620901D01*
X+9800000Y+8385500D02*
X+9800000Y+8258500D01*
X+9736500Y+8322000D02*
X+9863500Y+8322000D01*
X+9755099Y+8366901D02*
X+9844901Y+8277099D01*
X+9755099Y+8277099D02*
X+9844901Y+8366901D01*
X+9800000Y+8131500D02*
X+9800000Y+8004500D01*
X+9736500Y+8068000D02*
X+9863500Y+8068000D01*
X+9755099Y+8112901D02*
X+9844901Y+8023099D01*
X+9755099Y+8023099D02*
X+9844901Y+8112901D01*
X+9800000Y+7877500D02*
X+9800000Y+7750500D01*
X+9736500Y+7814000D02*
X+9863500Y+7814000D01*
X+9755099Y+7858901D02*
X+9844901Y+7769099D01*
X+9755099Y+7769099D02*
X+9844901Y+7858901D01*
X+9800000Y+7623500D02*
X+9800000Y+7496500D01*
X+9736500Y+7560000D02*
X+9863500Y+7560000D01*
X+9755099Y+7604901D02*
X+9844901Y+7515099D01*
X+9755099Y+7515099D02*
X+9844901Y+7604901D01*
X+3800000Y+8863500D02*
X+3800000Y+8736500D01*
X+3736500Y+8800000D02*
X+3863500Y+8800000D01*
X+3755099Y+8844901D02*
X+3844901Y+8755099D01*
X+3755099Y+8755099D02*
X+3844901Y+8844901D01*
X+3800000Y+8609500D02*
X+3800000Y+8482500D01*
X+3736500Y+8546000D02*
X+3863500Y+8546000D01*
X+3755099Y+8590901D02*
X+3844901Y+8501099D01*
X+3755099Y+8501099D02*
X+3844901Y+8590901D01*
X+3800000Y+8355500D02*
X+3800000Y+8228500D01*
X+3736500Y+8292000D02*
X+3863500Y+8292000D01*
X+3755099Y+8336901D02*
X+3844901Y+8247099D01*
X+3755099Y+8247099D02*
X+3844901Y+8336901D01*
X+3800000Y+8101500D02*
X+3800000Y+7974500D01*
X+3736500Y+8038000D02*
X+3863500Y+8038000D01*
X+3755099Y+8082901D02*
X+3844901Y+7993099D01*
X+3755099Y+7993099D02*
X+3844901Y+8082901D01*
X+3800000Y+7847500D02*
X+3800000Y+7720500D01*
X+3736500Y+7784000D02*
X+3863500Y+7784000D01*
X+3755099Y+7828901D02*
X+3844901Y+7739099D01*
X+3755099Y+7739099D02*
X+3844901Y+7828901D01*
X+3800000Y+7593500D02*
X+3800000Y+7466500D01*
X+3736500Y+7530000D02*
X+3863500Y+7530000D01*
X+3755099Y+7574901D02*
X+3844901Y+7485099D01*
X+3755099Y+7485099D02*
X+3844901Y+7574901D01*
X+3655099Y+9390901D02*
X+3744901Y+9301099D01*
X+3655099Y+9301099D02*
X+3744901Y+9390901D01*
X+3909099Y+9390901D02*
X+3998901Y+9301099D01*
X+3909099Y+9301099D02*
X+3998901Y+9390901D01*
X+9755099Y+9274901D02*
X+9844901Y+9185099D01*
X+9755099Y+9185099D02*
X+9844901Y+9274901D01*
X+9755099Y+9528901D02*
X+9844901Y+9439099D01*
X+9755099Y+9439099D02*
X+9844901Y+9528901D01*
X+1855099Y+6344901D02*
X+1944901Y+6255099D01*
X+1855099Y+6255099D02*
X+1944901Y+6344901D01*
X+2871099Y+6344901D02*
X+2960901Y+6255099D01*
X+2871099Y+6255099D02*
X+2960901Y+6344901D01*
X+3800000Y+6717500D02*
X+3800000Y+6590500D01*
X+3736500Y+6654000D02*
X+3863500Y+6654000D01*
X+3755099Y+6698901D02*
X+3844901Y+6609099D01*
X+3755099Y+6609099D02*
X+3844901Y+6698901D01*
X+3800000Y+6463500D02*
X+3800000Y+6336500D01*
X+3736500Y+6400000D02*
X+3863500Y+6400000D01*
X+3755099Y+6444901D02*
X+3844901Y+6355099D01*
X+3755099Y+6355099D02*
X+3844901Y+6444901D01*
X+563500Y+10300000D02*
X+563283Y+10305247D01*
X+561518Y+10315742D01*
X+557826Y+10326237D01*
X+551798Y+10336732D01*
X+542576Y+10347112D01*
X+532081Y+10354800D01*
X+521586Y+10359718D01*
X+511091Y+10362524D01*
X+500596Y+10363497D01*
X+500000Y+10363500D01*
X+436500Y+10300000D02*
X+436717Y+10305247D01*
X+438482Y+10315742D01*
X+442174Y+10326237D01*
X+448202Y+10336732D01*
X+457424Y+10347112D01*
X+467919Y+10354800D01*
X+478414Y+10359718D01*
X+488909Y+10362524D01*
X+499404Y+10363497D01*
X+500000Y+10363500D01*
X+436500Y+10300000D02*
X+436717Y+10294753D01*
X+438482Y+10284258D01*
X+442174Y+10273763D01*
X+448202Y+10263268D01*
X+457424Y+10252888D01*
X+467919Y+10245200D01*
X+478414Y+10240282D01*
X+488909Y+10237476D01*
X+499404Y+10236503D01*
X+500000Y+10236500D01*
X+563500Y+10300000D02*
X+563283Y+10294753D01*
X+561518Y+10284258D01*
X+557826Y+10273763D01*
X+551798Y+10263268D01*
X+542576Y+10252888D01*
X+532081Y+10245200D01*
X+521586Y+10240282D01*
X+511091Y+10237476D01*
X+500596Y+10236503D01*
X+500000Y+10236500D01*
X+455099Y+10344901D02*
X+544901Y+10255099D01*
X+455099Y+10255099D02*
X+544901Y+10344901D01*
X+563500Y+6100000D02*
X+563283Y+6105247D01*
X+561518Y+6115742D01*
X+557826Y+6126237D01*
X+551798Y+6136732D01*
X+542576Y+6147112D01*
X+532081Y+6154800D01*
X+521586Y+6159718D01*
X+511091Y+6162524D01*
X+500596Y+6163497D01*
X+500000Y+6163500D01*
X+436500Y+6100000D02*
X+436717Y+6105247D01*
X+438482Y+6115742D01*
X+442174Y+6126237D01*
X+448202Y+6136732D01*
X+457424Y+6147112D01*
X+467919Y+6154800D01*
X+478414Y+6159718D01*
X+488909Y+6162524D01*
X+499404Y+6163497D01*
X+500000Y+6163500D01*
X+436500Y+6100000D02*
X+436717Y+6094753D01*
X+438482Y+6084258D01*
X+442174Y+6073763D01*
X+448202Y+6063268D01*
X+457424Y+6052888D01*
X+467919Y+6045200D01*
X+478414Y+6040282D01*
X+488909Y+6037476D01*
X+499404Y+6036503D01*
X+500000Y+6036500D01*
X+563500Y+6100000D02*
X+563283Y+6094753D01*
X+561518Y+6084258D01*
X+557826Y+6073763D01*
X+551798Y+6063268D01*
X+542576Y+6052888D01*
X+532081Y+6045200D01*
X+521586Y+6040282D01*
X+511091Y+6037476D01*
X+500596Y+6036503D01*
X+500000Y+6036500D01*
X+455099Y+6144901D02*
X+544901Y+6055099D01*
X+455099Y+6055099D02*
X+544901Y+6144901D01*
X+5063500Y+6100000D02*
X+5063283Y+6105247D01*
X+5061518Y+6115742D01*
X+5057826Y+6126237D01*
X+5051798Y+6136732D01*
X+5042576Y+6147112D01*
X+5032081Y+6154800D01*
X+5021586Y+6159718D01*
X+5011091Y+6162524D01*
X+5000596Y+6163497D01*
X+5000000Y+6163500D01*
X+4936500Y+6100000D02*
X+4936717Y+6105247D01*
X+4938482Y+6115742D01*
X+4942174Y+6126237D01*
X+4948202Y+6136732D01*
X+4957424Y+6147112D01*
X+4967919Y+6154800D01*
X+4978414Y+6159718D01*
X+4988909Y+6162524D01*
X+4999404Y+6163497D01*
X+5000000Y+6163500D01*
X+4936500Y+6100000D02*
X+4936717Y+6094753D01*
X+4938482Y+6084258D01*
X+4942174Y+6073763D01*
X+4948202Y+6063268D01*
X+4957424Y+6052888D01*
X+4967919Y+6045200D01*
X+4978414Y+6040282D01*
X+4988909Y+6037476D01*
X+4999404Y+6036503D01*
X+5000000Y+6036500D01*
X+5063500Y+6100000D02*
X+5063283Y+6094753D01*
X+5061518Y+6084258D01*
X+5057826Y+6073763D01*
X+5051798Y+6063268D01*
X+5042576Y+6052888D01*
X+5032081Y+6045200D01*
X+5021586Y+6040282D01*
X+5011091Y+6037476D01*
X+5000596Y+6036503D01*
X+5000000Y+6036500D01*
X+4955099Y+6144901D02*
X+5044901Y+6055099D01*
X+4955099Y+6055099D02*
X+5044901Y+6144901D01*
X+5063500Y+10300000D02*
X+5063283Y+10305247D01*
X+5061518Y+10315742D01*
X+5057826Y+10326237D01*
X+5051798Y+10336732D01*
X+5042576Y+10347112D01*
X+5032081Y+10354800D01*
X+5021586Y+10359718D01*
X+5011091Y+10362524D01*
X+5000596Y+10363497D01*
X+5000000Y+10363500D01*
X+4936500Y+10300000D02*
X+4936717Y+10305247D01*
X+4938482Y+10315742D01*
X+4942174Y+10326237D01*
X+4948202Y+10336732D01*
X+4957424Y+10347112D01*
X+4967919Y+10354800D01*
X+4978414Y+10359718D01*
X+4988909Y+10362524D01*
X+4999404Y+10363497D01*
X+5000000Y+10363500D01*
X+4936500Y+10300000D02*
X+4936717Y+10294753D01*
X+4938482Y+10284258D01*
X+4942174Y+10273763D01*
X+4948202Y+10263268D01*
X+4957424Y+10252888D01*
X+4967919Y+10245200D01*
X+4978414Y+10240282D01*
X+4988909Y+10237476D01*
X+4999404Y+10236503D01*
X+5000000Y+10236500D01*
X+5063500Y+10300000D02*
X+5063283Y+10294753D01*
X+5061518Y+10284258D01*
X+5057826Y+10273763D01*
X+5051798Y+10263268D01*
X+5042576Y+10252888D01*
X+5032081Y+10245200D01*
X+5021586Y+10240282D01*
X+5011091Y+10237476D01*
X+5000596Y+10236503D01*
X+5000000Y+10236500D01*
X+4955099Y+10344901D02*
X+5044901Y+10255099D01*
X+4955099Y+10255099D02*
X+5044901Y+10344901D01*
X+6563500Y+10300000D02*
X+6563283Y+10305247D01*
X+6561518Y+10315742D01*
X+6557826Y+10326237D01*
X+6551798Y+10336732D01*
X+6542576Y+10347112D01*
X+6532081Y+10354800D01*
X+6521586Y+10359718D01*
X+6511091Y+10362524D01*
X+6500596Y+10363497D01*
X+6500000Y+10363500D01*
X+6436500Y+10300000D02*
X+6436717Y+10305247D01*
X+6438482Y+10315742D01*
X+6442174Y+10326237D01*
X+6448202Y+10336732D01*
X+6457424Y+10347112D01*
X+6467919Y+10354800D01*
X+6478414Y+10359718D01*
X+6488909Y+10362524D01*
X+6499404Y+10363497D01*
X+6500000Y+10363500D01*
X+6436500Y+10300000D02*
X+6436717Y+10294753D01*
X+6438482Y+10284258D01*
X+6442174Y+10273763D01*
X+6448202Y+10263268D01*
X+6457424Y+10252888D01*
X+6467919Y+10245200D01*
X+6478414Y+10240282D01*
X+6488909Y+10237476D01*
X+6499404Y+10236503D01*
X+6500000Y+10236500D01*
X+6563500Y+10300000D02*
X+6563283Y+10294753D01*
X+6561518Y+10284258D01*
X+6557826Y+10273763D01*
X+6551798Y+10263268D01*
X+6542576Y+10252888D01*
X+6532081Y+10245200D01*
X+6521586Y+10240282D01*
X+6511091Y+10237476D01*
X+6500596Y+10236503D01*
X+6500000Y+10236500D01*
X+6455099Y+10344901D02*
X+6544901Y+10255099D01*
X+6455099Y+10255099D02*
X+6544901Y+10344901D01*
X+6563500Y+6100000D02*
X+6563283Y+6105247D01*
X+6561518Y+6115742D01*
X+6557826Y+6126237D01*
X+6551798Y+6136732D01*
X+6542576Y+6147112D01*
X+6532081Y+6154800D01*
X+6521586Y+6159718D01*
X+6511091Y+6162524D01*
X+6500596Y+6163497D01*
X+6500000Y+6163500D01*
X+6436500Y+6100000D02*
X+6436717Y+6105247D01*
X+6438482Y+6115742D01*
X+6442174Y+6126237D01*
X+6448202Y+6136732D01*
X+6457424Y+6147112D01*
X+6467919Y+6154800D01*
X+6478414Y+6159718D01*
X+6488909Y+6162524D01*
X+6499404Y+6163497D01*
X+6500000Y+6163500D01*
X+6436500Y+6100000D02*
X+6436717Y+6094753D01*
X+6438482Y+6084258D01*
X+6442174Y+6073763D01*
X+6448202Y+6063268D01*
X+6457424Y+6052888D01*
X+6467919Y+6045200D01*
X+6478414Y+6040282D01*
X+6488909Y+6037476D01*
X+6499404Y+6036503D01*
X+6500000Y+6036500D01*
X+6563500Y+6100000D02*
X+6563283Y+6094753D01*
X+6561518Y+6084258D01*
X+6557826Y+6073763D01*
X+6551798Y+6063268D01*
X+6542576Y+6052888D01*
X+6532081Y+6045200D01*
X+6521586Y+6040282D01*
X+6511091Y+6037476D01*
X+6500596Y+6036503D01*
X+6500000Y+6036500D01*
X+6455099Y+6144901D02*
X+6544901Y+6055099D01*
X+6455099Y+6055099D02*
X+6544901Y+6144901D01*
X+10663500Y+6100000D02*
X+10663283Y+6105247D01*
X+10661518Y+6115742D01*
X+10657826Y+6126237D01*
X+10651798Y+6136732D01*
X+10642576Y+6147112D01*
X+10632081Y+6154800D01*
X+10621586Y+6159718D01*
X+10611091Y+6162524D01*
X+10600596Y+6163497D01*
X+10600000Y+6163500D01*
X+10536500Y+6100000D02*
X+10536717Y+6105247D01*
X+10538482Y+6115742D01*
X+10542174Y+6126237D01*
X+10548202Y+6136732D01*
X+10557424Y+6147112D01*
X+10567919Y+6154800D01*
X+10578414Y+6159718D01*
X+10588909Y+6162524D01*
X+10599404Y+6163497D01*
X+10600000Y+6163500D01*
X+10536500Y+6100000D02*
X+10536717Y+6094753D01*
X+10538482Y+6084258D01*
X+10542174Y+6073763D01*
X+10548202Y+6063268D01*
X+10557424Y+6052888D01*
X+10567919Y+6045200D01*
X+10578414Y+6040282D01*
X+10588909Y+6037476D01*
X+10599404Y+6036503D01*
X+10600000Y+6036500D01*
X+10663500Y+6100000D02*
X+10663283Y+6094753D01*
X+10661518Y+6084258D01*
X+10657826Y+6073763D01*
X+10651798Y+6063268D01*
X+10642576Y+6052888D01*
X+10632081Y+6045200D01*
X+10621586Y+6040282D01*
X+10611091Y+6037476D01*
X+10600596Y+6036503D01*
X+10600000Y+6036500D01*
X+10555099Y+6144901D02*
X+10644901Y+6055099D01*
X+10555099Y+6055099D02*
X+10644901Y+6144901D01*
X+10663500Y+10300000D02*
X+10663283Y+10305247D01*
X+10661518Y+10315742D01*
X+10657826Y+10326237D01*
X+10651798Y+10336732D01*
X+10642576Y+10347112D01*
X+10632081Y+10354800D01*
X+10621586Y+10359718D01*
X+10611091Y+10362524D01*
X+10600596Y+10363497D01*
X+10600000Y+10363500D01*
X+10536500Y+10300000D02*
X+10536717Y+10305247D01*
X+10538482Y+10315742D01*
X+10542174Y+10326237D01*
X+10548202Y+10336732D01*
X+10557424Y+10347112D01*
X+10567919Y+10354800D01*
X+10578414Y+10359718D01*
X+10588909Y+10362524D01*
X+10599404Y+10363497D01*
X+10600000Y+10363500D01*
X+10536500Y+10300000D02*
X+10536717Y+10294753D01*
X+10538482Y+10284258D01*
X+10542174Y+10273763D01*
X+10548202Y+10263268D01*
X+10557424Y+10252888D01*
X+10567919Y+10245200D01*
X+10578414Y+10240282D01*
X+10588909Y+10237476D01*
X+10599404Y+10236503D01*
X+10600000Y+10236500D01*
X+10663500Y+10300000D02*
X+10663283Y+10294753D01*
X+10661518Y+10284258D01*
X+10657826Y+10273763D01*
X+10651798Y+10263268D01*
X+10642576Y+10252888D01*
X+10632081Y+10245200D01*
X+10621586Y+10240282D01*
X+10611091Y+10237476D01*
X+10600596Y+10236503D01*
X+10600000Y+10236500D01*
X+10555099Y+10344901D02*
X+10644901Y+10255099D01*
X+10555099Y+10255099D02*
X+10644901Y+10344901D01*
X+9055099Y+15274901D02*
X+9144901Y+15185099D01*
X+9055099Y+15185099D02*
X+9144901Y+15274901D01*
X+7755099Y+15274901D02*
X+7844901Y+15185099D01*
X+7755099Y+15185099D02*
X+7844901Y+15274901D01*
X+9055099Y+12374901D02*
X+9144901Y+12285099D01*
X+9055099Y+12285099D02*
X+9144901Y+12374901D01*
X+7755099Y+12374901D02*
X+7844901Y+12285099D01*
X+7755099Y+12285099D02*
X+7844901Y+12374901D01*
X+763500Y+12800000D02*
X+763283Y+12805247D01*
X+761518Y+12815742D01*
X+757826Y+12826237D01*
X+751798Y+12836732D01*
X+742576Y+12847112D01*
X+732081Y+12854800D01*
X+721586Y+12859718D01*
X+711091Y+12862524D01*
X+700596Y+12863497D01*
X+700000Y+12863500D01*
X+636500Y+12800000D02*
X+636717Y+12805247D01*
X+638482Y+12815742D01*
X+642174Y+12826237D01*
X+648202Y+12836732D01*
X+657424Y+12847112D01*
X+667919Y+12854800D01*
X+678414Y+12859718D01*
X+688909Y+12862524D01*
X+699404Y+12863497D01*
X+700000Y+12863500D01*
X+636500Y+12800000D02*
X+636717Y+12794753D01*
X+638482Y+12784258D01*
X+642174Y+12773763D01*
X+648202Y+12763268D01*
X+657424Y+12752888D01*
X+667919Y+12745200D01*
X+678414Y+12740282D01*
X+688909Y+12737476D01*
X+699404Y+12736503D01*
X+700000Y+12736500D01*
X+763500Y+12800000D02*
X+763283Y+12794753D01*
X+761518Y+12784258D01*
X+757826Y+12773763D01*
X+751798Y+12763268D01*
X+742576Y+12752888D01*
X+732081Y+12745200D01*
X+721586Y+12740282D01*
X+711091Y+12737476D01*
X+700596Y+12736503D01*
X+700000Y+12736500D01*
X+700000Y+12863500D02*
X+700000Y+12736500D01*
X+636500Y+12800000D02*
X+763500Y+12800000D01*
X+763500Y+13308000D02*
X+763283Y+13313247D01*
X+761518Y+13323742D01*
X+757826Y+13334237D01*
X+751798Y+13344732D01*
X+742576Y+13355112D01*
X+732081Y+13362800D01*
X+721586Y+13367718D01*
X+711091Y+13370524D01*
X+700596Y+13371497D01*
X+700000Y+13371500D01*
X+636500Y+13308000D02*
X+636717Y+13313247D01*
X+638482Y+13323742D01*
X+642174Y+13334237D01*
X+648202Y+13344732D01*
X+657424Y+13355112D01*
X+667919Y+13362800D01*
X+678414Y+13367718D01*
X+688909Y+13370524D01*
X+699404Y+13371497D01*
X+700000Y+13371500D01*
X+636500Y+13308000D02*
X+636717Y+13302753D01*
X+638482Y+13292258D01*
X+642174Y+13281763D01*
X+648202Y+13271268D01*
X+657424Y+13260888D01*
X+667919Y+13253200D01*
X+678414Y+13248282D01*
X+688909Y+13245476D01*
X+699404Y+13244503D01*
X+700000Y+13244500D01*
X+763500Y+13308000D02*
X+763283Y+13302753D01*
X+761518Y+13292258D01*
X+757826Y+13281763D01*
X+751798Y+13271268D01*
X+742576Y+13260888D01*
X+732081Y+13253200D01*
X+721586Y+13248282D01*
X+711091Y+13245476D01*
X+700596Y+13244503D01*
X+700000Y+13244500D01*
X+700000Y+13371500D02*
X+700000Y+13244500D01*
X+636500Y+13308000D02*
X+763500Y+13308000D01*
X+763500Y+13816000D02*
X+763283Y+13821247D01*
X+761518Y+13831742D01*
X+757826Y+13842237D01*
X+751798Y+13852732D01*
X+742576Y+13863112D01*
X+732081Y+13870800D01*
X+721586Y+13875718D01*
X+711091Y+13878524D01*
X+700596Y+13879497D01*
X+700000Y+13879500D01*
X+636500Y+13816000D02*
X+636717Y+13821247D01*
X+638482Y+13831742D01*
X+642174Y+13842237D01*
X+648202Y+13852732D01*
X+657424Y+13863112D01*
X+667919Y+13870800D01*
X+678414Y+13875718D01*
X+688909Y+13878524D01*
X+699404Y+13879497D01*
X+700000Y+13879500D01*
X+636500Y+13816000D02*
X+636717Y+13810753D01*
X+638482Y+13800258D01*
X+642174Y+13789763D01*
X+648202Y+13779268D01*
X+657424Y+13768888D01*
X+667919Y+13761200D01*
X+678414Y+13756282D01*
X+688909Y+13753476D01*
X+699404Y+13752503D01*
X+700000Y+13752500D01*
X+763500Y+13816000D02*
X+763283Y+13810753D01*
X+761518Y+13800258D01*
X+757826Y+13789763D01*
X+751798Y+13779268D01*
X+742576Y+13768888D01*
X+732081Y+13761200D01*
X+721586Y+13756282D01*
X+711091Y+13753476D01*
X+700596Y+13752503D01*
X+700000Y+13752500D01*
X+700000Y+13879500D02*
X+700000Y+13752500D01*
X+636500Y+13816000D02*
X+763500Y+13816000D01*
X+763500Y+14324000D02*
X+763283Y+14329247D01*
X+761518Y+14339742D01*
X+757826Y+14350237D01*
X+751798Y+14360732D01*
X+742576Y+14371112D01*
X+732081Y+14378800D01*
X+721586Y+14383718D01*
X+711091Y+14386524D01*
X+700596Y+14387497D01*
X+700000Y+14387500D01*
X+636500Y+14324000D02*
X+636717Y+14329247D01*
X+638482Y+14339742D01*
X+642174Y+14350237D01*
X+648202Y+14360732D01*
X+657424Y+14371112D01*
X+667919Y+14378800D01*
X+678414Y+14383718D01*
X+688909Y+14386524D01*
X+699404Y+14387497D01*
X+700000Y+14387500D01*
X+636500Y+14324000D02*
X+636717Y+14318753D01*
X+638482Y+14308258D01*
X+642174Y+14297763D01*
X+648202Y+14287268D01*
X+657424Y+14276888D01*
X+667919Y+14269200D01*
X+678414Y+14264282D01*
X+688909Y+14261476D01*
X+699404Y+14260503D01*
X+700000Y+14260500D01*
X+763500Y+14324000D02*
X+763283Y+14318753D01*
X+761518Y+14308258D01*
X+757826Y+14297763D01*
X+751798Y+14287268D01*
X+742576Y+14276888D01*
X+732081Y+14269200D01*
X+721586Y+14264282D01*
X+711091Y+14261476D01*
X+700596Y+14260503D01*
X+700000Y+14260500D01*
X+700000Y+14387500D02*
X+700000Y+14260500D01*
X+636500Y+14324000D02*
X+763500Y+14324000D01*
X+763500Y+14832000D02*
X+763283Y+14837247D01*
X+761518Y+14847742D01*
X+757826Y+14858237D01*
X+751798Y+14868732D01*
X+742576Y+14879112D01*
X+732081Y+14886800D01*
X+721586Y+14891718D01*
X+711091Y+14894524D01*
X+700596Y+14895497D01*
X+700000Y+14895500D01*
X+636500Y+14832000D02*
X+636717Y+14837247D01*
X+638482Y+14847742D01*
X+642174Y+14858237D01*
X+648202Y+14868732D01*
X+657424Y+14879112D01*
X+667919Y+14886800D01*
X+678414Y+14891718D01*
X+688909Y+14894524D01*
X+699404Y+14895497D01*
X+700000Y+14895500D01*
X+636500Y+14832000D02*
X+636717Y+14826753D01*
X+638482Y+14816258D01*
X+642174Y+14805763D01*
X+648202Y+14795268D01*
X+657424Y+14784888D01*
X+667919Y+14777200D01*
X+678414Y+14772282D01*
X+688909Y+14769476D01*
X+699404Y+14768503D01*
X+700000Y+14768500D01*
X+763500Y+14832000D02*
X+763283Y+14826753D01*
X+761518Y+14816258D01*
X+757826Y+14805763D01*
X+751798Y+14795268D01*
X+742576Y+14784888D01*
X+732081Y+14777200D01*
X+721586Y+14772282D01*
X+711091Y+14769476D01*
X+700596Y+14768503D01*
X+700000Y+14768500D01*
X+700000Y+14895500D02*
X+700000Y+14768500D01*
X+636500Y+14832000D02*
X+763500Y+14832000D01*
X+3055099Y+15244901D02*
X+3144901Y+15155099D01*
X+3055099Y+15155099D02*
X+3144901Y+15244901D01*
X+1755099Y+15244901D02*
X+1844901Y+15155099D01*
X+1755099Y+15155099D02*
X+1844901Y+15244901D01*
X+3055099Y+12344901D02*
X+3144901Y+12255099D01*
X+3055099Y+12255099D02*
X+3144901Y+12344901D01*
X+1755099Y+12344901D02*
X+1844901Y+12255099D01*
X+1755099Y+12255099D02*
X+1844901Y+12344901D01*
X+4863500Y+12798000D02*
X+4863283Y+12803247D01*
X+4861518Y+12813742D01*
X+4857826Y+12824237D01*
X+4851798Y+12834732D01*
X+4842576Y+12845112D01*
X+4832081Y+12852800D01*
X+4821586Y+12857718D01*
X+4811091Y+12860524D01*
X+4800596Y+12861497D01*
X+4800000Y+12861500D01*
X+4736500Y+12798000D02*
X+4736717Y+12803247D01*
X+4738482Y+12813742D01*
X+4742174Y+12824237D01*
X+4748202Y+12834732D01*
X+4757424Y+12845112D01*
X+4767919Y+12852800D01*
X+4778414Y+12857718D01*
X+4788909Y+12860524D01*
X+4799404Y+12861497D01*
X+4800000Y+12861500D01*
X+4736500Y+12798000D02*
X+4736717Y+12792753D01*
X+4738482Y+12782258D01*
X+4742174Y+12771763D01*
X+4748202Y+12761268D01*
X+4757424Y+12750888D01*
X+4767919Y+12743200D01*
X+4778414Y+12738282D01*
X+4788909Y+12735476D01*
X+4799404Y+12734503D01*
X+4800000Y+12734500D01*
X+4863500Y+12798000D02*
X+4863283Y+12792753D01*
X+4861518Y+12782258D01*
X+4857826Y+12771763D01*
X+4851798Y+12761268D01*
X+4842576Y+12750888D01*
X+4832081Y+12743200D01*
X+4821586Y+12738282D01*
X+4811091Y+12735476D01*
X+4800596Y+12734503D01*
X+4800000Y+12734500D01*
X+4800000Y+12861500D02*
X+4800000Y+12734500D01*
X+4736500Y+12798000D02*
X+4863500Y+12798000D01*
X+4863500Y+13306000D02*
X+4863283Y+13311247D01*
X+4861518Y+13321742D01*
X+4857826Y+13332237D01*
X+4851798Y+13342732D01*
X+4842576Y+13353112D01*
X+4832081Y+13360800D01*
X+4821586Y+13365718D01*
X+4811091Y+13368524D01*
X+4800596Y+13369497D01*
X+4800000Y+13369500D01*
X+4736500Y+13306000D02*
X+4736717Y+13311247D01*
X+4738482Y+13321742D01*
X+4742174Y+13332237D01*
X+4748202Y+13342732D01*
X+4757424Y+13353112D01*
X+4767919Y+13360800D01*
X+4778414Y+13365718D01*
X+4788909Y+13368524D01*
X+4799404Y+13369497D01*
X+4800000Y+13369500D01*
X+4736500Y+13306000D02*
X+4736717Y+13300753D01*
X+4738482Y+13290258D01*
X+4742174Y+13279763D01*
X+4748202Y+13269268D01*
X+4757424Y+13258888D01*
X+4767919Y+13251200D01*
X+4778414Y+13246282D01*
X+4788909Y+13243476D01*
X+4799404Y+13242503D01*
X+4800000Y+13242500D01*
X+4863500Y+13306000D02*
X+4863283Y+13300753D01*
X+4861518Y+13290258D01*
X+4857826Y+13279763D01*
X+4851798Y+13269268D01*
X+4842576Y+13258888D01*
X+4832081Y+13251200D01*
X+4821586Y+13246282D01*
X+4811091Y+13243476D01*
X+4800596Y+13242503D01*
X+4800000Y+13242500D01*
X+4800000Y+13369500D02*
X+4800000Y+13242500D01*
X+4736500Y+13306000D02*
X+4863500Y+13306000D01*
X+4863500Y+13814000D02*
X+4863283Y+13819247D01*
X+4861518Y+13829742D01*
X+4857826Y+13840237D01*
X+4851798Y+13850732D01*
X+4842576Y+13861112D01*
X+4832081Y+13868800D01*
X+4821586Y+13873718D01*
X+4811091Y+13876524D01*
X+4800596Y+13877497D01*
X+4800000Y+13877500D01*
X+4736500Y+13814000D02*
X+4736717Y+13819247D01*
X+4738482Y+13829742D01*
X+4742174Y+13840237D01*
X+4748202Y+13850732D01*
X+4757424Y+13861112D01*
X+4767919Y+13868800D01*
X+4778414Y+13873718D01*
X+4788909Y+13876524D01*
X+4799404Y+13877497D01*
X+4800000Y+13877500D01*
X+4736500Y+13814000D02*
X+4736717Y+13808753D01*
X+4738482Y+13798258D01*
X+4742174Y+13787763D01*
X+4748202Y+13777268D01*
X+4757424Y+13766888D01*
X+4767919Y+13759200D01*
X+4778414Y+13754282D01*
X+4788909Y+13751476D01*
X+4799404Y+13750503D01*
X+4800000Y+13750500D01*
X+4863500Y+13814000D02*
X+4863283Y+13808753D01*
X+4861518Y+13798258D01*
X+4857826Y+13787763D01*
X+4851798Y+13777268D01*
X+4842576Y+13766888D01*
X+4832081Y+13759200D01*
X+4821586Y+13754282D01*
X+4811091Y+13751476D01*
X+4800596Y+13750503D01*
X+4800000Y+13750500D01*
X+4800000Y+13877500D02*
X+4800000Y+13750500D01*
X+4736500Y+13814000D02*
X+4863500Y+13814000D01*
X+4863500Y+14322000D02*
X+4863283Y+14327247D01*
X+4861518Y+14337742D01*
X+4857826Y+14348237D01*
X+4851798Y+14358732D01*
X+4842576Y+14369112D01*
X+4832081Y+14376800D01*
X+4821586Y+14381718D01*
X+4811091Y+14384524D01*
X+4800596Y+14385497D01*
X+4800000Y+14385500D01*
X+4736500Y+14322000D02*
X+4736717Y+14327247D01*
X+4738482Y+14337742D01*
X+4742174Y+14348237D01*
X+4748202Y+14358732D01*
X+4757424Y+14369112D01*
X+4767919Y+14376800D01*
X+4778414Y+14381718D01*
X+4788909Y+14384524D01*
X+4799404Y+14385497D01*
X+4800000Y+14385500D01*
X+4736500Y+14322000D02*
X+4736717Y+14316753D01*
X+4738482Y+14306258D01*
X+4742174Y+14295763D01*
X+4748202Y+14285268D01*
X+4757424Y+14274888D01*
X+4767919Y+14267200D01*
X+4778414Y+14262282D01*
X+4788909Y+14259476D01*
X+4799404Y+14258503D01*
X+4800000Y+14258500D01*
X+4863500Y+14322000D02*
X+4863283Y+14316753D01*
X+4861518Y+14306258D01*
X+4857826Y+14295763D01*
X+4851798Y+14285268D01*
X+4842576Y+14274888D01*
X+4832081Y+14267200D01*
X+4821586Y+14262282D01*
X+4811091Y+14259476D01*
X+4800596Y+14258503D01*
X+4800000Y+14258500D01*
X+4800000Y+14385500D02*
X+4800000Y+14258500D01*
X+4736500Y+14322000D02*
X+4863500Y+14322000D01*
X+4863500Y+14830000D02*
X+4863283Y+14835247D01*
X+4861518Y+14845742D01*
X+4857826Y+14856237D01*
X+4851798Y+14866732D01*
X+4842576Y+14877112D01*
X+4832081Y+14884800D01*
X+4821586Y+14889718D01*
X+4811091Y+14892524D01*
X+4800596Y+14893497D01*
X+4800000Y+14893500D01*
X+4736500Y+14830000D02*
X+4736717Y+14835247D01*
X+4738482Y+14845742D01*
X+4742174Y+14856237D01*
X+4748202Y+14866732D01*
X+4757424Y+14877112D01*
X+4767919Y+14884800D01*
X+4778414Y+14889718D01*
X+4788909Y+14892524D01*
X+4799404Y+14893497D01*
X+4800000Y+14893500D01*
X+4736500Y+14830000D02*
X+4736717Y+14824753D01*
X+4738482Y+14814258D01*
X+4742174Y+14803763D01*
X+4748202Y+14793268D01*
X+4757424Y+14782888D01*
X+4767919Y+14775200D01*
X+4778414Y+14770282D01*
X+4788909Y+14767476D01*
X+4799404Y+14766503D01*
X+4800000Y+14766500D01*
X+4863500Y+14830000D02*
X+4863283Y+14824753D01*
X+4861518Y+14814258D01*
X+4857826Y+14803763D01*
X+4851798Y+14793268D01*
X+4842576Y+14782888D01*
X+4832081Y+14775200D01*
X+4821586Y+14770282D01*
X+4811091Y+14767476D01*
X+4800596Y+14766503D01*
X+4800000Y+14766500D01*
X+4800000Y+14893500D02*
X+4800000Y+14766500D01*
X+4736500Y+14830000D02*
X+4863500Y+14830000D01*
X+6763500Y+12798000D02*
X+6763283Y+12803247D01*
X+6761518Y+12813742D01*
X+6757826Y+12824237D01*
X+6751798Y+12834732D01*
X+6742576Y+12845112D01*
X+6732081Y+12852800D01*
X+6721586Y+12857718D01*
X+6711091Y+12860524D01*
X+6700596Y+12861497D01*
X+6700000Y+12861500D01*
X+6636500Y+12798000D02*
X+6636717Y+12803247D01*
X+6638482Y+12813742D01*
X+6642174Y+12824237D01*
X+6648202Y+12834732D01*
X+6657424Y+12845112D01*
X+6667919Y+12852800D01*
X+6678414Y+12857718D01*
X+6688909Y+12860524D01*
X+6699404Y+12861497D01*
X+6700000Y+12861500D01*
X+6636500Y+12798000D02*
X+6636717Y+12792753D01*
X+6638482Y+12782258D01*
X+6642174Y+12771763D01*
X+6648202Y+12761268D01*
X+6657424Y+12750888D01*
X+6667919Y+12743200D01*
X+6678414Y+12738282D01*
X+6688909Y+12735476D01*
X+6699404Y+12734503D01*
X+6700000Y+12734500D01*
X+6763500Y+12798000D02*
X+6763283Y+12792753D01*
X+6761518Y+12782258D01*
X+6757826Y+12771763D01*
X+6751798Y+12761268D01*
X+6742576Y+12750888D01*
X+6732081Y+12743200D01*
X+6721586Y+12738282D01*
X+6711091Y+12735476D01*
X+6700596Y+12734503D01*
X+6700000Y+12734500D01*
X+6700000Y+12861500D02*
X+6700000Y+12734500D01*
X+6636500Y+12798000D02*
X+6763500Y+12798000D01*
X+6763500Y+13306000D02*
X+6763283Y+13311247D01*
X+6761518Y+13321742D01*
X+6757826Y+13332237D01*
X+6751798Y+13342732D01*
X+6742576Y+13353112D01*
X+6732081Y+13360800D01*
X+6721586Y+13365718D01*
X+6711091Y+13368524D01*
X+6700596Y+13369497D01*
X+6700000Y+13369500D01*
X+6636500Y+13306000D02*
X+6636717Y+13311247D01*
X+6638482Y+13321742D01*
X+6642174Y+13332237D01*
X+6648202Y+13342732D01*
X+6657424Y+13353112D01*
X+6667919Y+13360800D01*
X+6678414Y+13365718D01*
X+6688909Y+13368524D01*
X+6699404Y+13369497D01*
X+6700000Y+13369500D01*
X+6636500Y+13306000D02*
X+6636717Y+13300753D01*
X+6638482Y+13290258D01*
X+6642174Y+13279763D01*
X+6648202Y+13269268D01*
X+6657424Y+13258888D01*
X+6667919Y+13251200D01*
X+6678414Y+13246282D01*
X+6688909Y+13243476D01*
X+6699404Y+13242503D01*
X+6700000Y+13242500D01*
X+6763500Y+13306000D02*
X+6763283Y+13300753D01*
X+6761518Y+13290258D01*
X+6757826Y+13279763D01*
X+6751798Y+13269268D01*
X+6742576Y+13258888D01*
X+6732081Y+13251200D01*
X+6721586Y+13246282D01*
X+6711091Y+13243476D01*
X+6700596Y+13242503D01*
X+6700000Y+13242500D01*
X+6700000Y+13369500D02*
X+6700000Y+13242500D01*
X+6636500Y+13306000D02*
X+6763500Y+13306000D01*
X+6763500Y+13814000D02*
X+6763283Y+13819247D01*
X+6761518Y+13829742D01*
X+6757826Y+13840237D01*
X+6751798Y+13850732D01*
X+6742576Y+13861112D01*
X+6732081Y+13868800D01*
X+6721586Y+13873718D01*
X+6711091Y+13876524D01*
X+6700596Y+13877497D01*
X+6700000Y+13877500D01*
X+6636500Y+13814000D02*
X+6636717Y+13819247D01*
X+6638482Y+13829742D01*
X+6642174Y+13840237D01*
X+6648202Y+13850732D01*
X+6657424Y+13861112D01*
X+6667919Y+13868800D01*
X+6678414Y+13873718D01*
X+6688909Y+13876524D01*
X+6699404Y+13877497D01*
X+6700000Y+13877500D01*
X+6636500Y+13814000D02*
X+6636717Y+13808753D01*
X+6638482Y+13798258D01*
X+6642174Y+13787763D01*
X+6648202Y+13777268D01*
X+6657424Y+13766888D01*
X+6667919Y+13759200D01*
X+6678414Y+13754282D01*
X+6688909Y+13751476D01*
X+6699404Y+13750503D01*
X+6700000Y+13750500D01*
X+6763500Y+13814000D02*
X+6763283Y+13808753D01*
X+6761518Y+13798258D01*
X+6757826Y+13787763D01*
X+6751798Y+13777268D01*
X+6742576Y+13766888D01*
X+6732081Y+13759200D01*
X+6721586Y+13754282D01*
X+6711091Y+13751476D01*
X+6700596Y+13750503D01*
X+6700000Y+13750500D01*
X+6700000Y+13877500D02*
X+6700000Y+13750500D01*
X+6636500Y+13814000D02*
X+6763500Y+13814000D01*
X+6763500Y+14322000D02*
X+6763283Y+14327247D01*
X+6761518Y+14337742D01*
X+6757826Y+14348237D01*
X+6751798Y+14358732D01*
X+6742576Y+14369112D01*
X+6732081Y+14376800D01*
X+6721586Y+14381718D01*
X+6711091Y+14384524D01*
X+6700596Y+14385497D01*
X+6700000Y+14385500D01*
X+6636500Y+14322000D02*
X+6636717Y+14327247D01*
X+6638482Y+14337742D01*
X+6642174Y+14348237D01*
X+6648202Y+14358732D01*
X+6657424Y+14369112D01*
X+6667919Y+14376800D01*
X+6678414Y+14381718D01*
X+6688909Y+14384524D01*
X+6699404Y+14385497D01*
X+6700000Y+14385500D01*
X+6636500Y+14322000D02*
X+6636717Y+14316753D01*
X+6638482Y+14306258D01*
X+6642174Y+14295763D01*
X+6648202Y+14285268D01*
X+6657424Y+14274888D01*
X+6667919Y+14267200D01*
X+6678414Y+14262282D01*
X+6688909Y+14259476D01*
X+6699404Y+14258503D01*
X+6700000Y+14258500D01*
X+6763500Y+14322000D02*
X+6763283Y+14316753D01*
X+6761518Y+14306258D01*
X+6757826Y+14295763D01*
X+6751798Y+14285268D01*
X+6742576Y+14274888D01*
X+6732081Y+14267200D01*
X+6721586Y+14262282D01*
X+6711091Y+14259476D01*
X+6700596Y+14258503D01*
X+6700000Y+14258500D01*
X+6700000Y+14385500D02*
X+6700000Y+14258500D01*
X+6636500Y+14322000D02*
X+6763500Y+14322000D01*
X+6763500Y+14830000D02*
X+6763283Y+14835247D01*
X+6761518Y+14845742D01*
X+6757826Y+14856237D01*
X+6751798Y+14866732D01*
X+6742576Y+14877112D01*
X+6732081Y+14884800D01*
X+6721586Y+14889718D01*
X+6711091Y+14892524D01*
X+6700596Y+14893497D01*
X+6700000Y+14893500D01*
X+6636500Y+14830000D02*
X+6636717Y+14835247D01*
X+6638482Y+14845742D01*
X+6642174Y+14856237D01*
X+6648202Y+14866732D01*
X+6657424Y+14877112D01*
X+6667919Y+14884800D01*
X+6678414Y+14889718D01*
X+6688909Y+14892524D01*
X+6699404Y+14893497D01*
X+6700000Y+14893500D01*
X+6636500Y+14830000D02*
X+6636717Y+14824753D01*
X+6638482Y+14814258D01*
X+6642174Y+14803763D01*
X+6648202Y+14793268D01*
X+6657424Y+14782888D01*
X+6667919Y+14775200D01*
X+6678414Y+14770282D01*
X+6688909Y+14767476D01*
X+6699404Y+14766503D01*
X+6700000Y+14766500D01*
X+6763500Y+14830000D02*
X+6763283Y+14824753D01*
X+6761518Y+14814258D01*
X+6757826Y+14803763D01*
X+6751798Y+14793268D01*
X+6742576Y+14782888D01*
X+6732081Y+14775200D01*
X+6721586Y+14770282D01*
X+6711091Y+14767476D01*
X+6700596Y+14766503D01*
X+6700000Y+14766500D01*
X+6700000Y+14893500D02*
X+6700000Y+14766500D01*
X+6636500Y+14830000D02*
X+6763500Y+14830000D01*
X+7855099Y+11974901D02*
X+7944901Y+11885099D01*
X+7855099Y+11885099D02*
X+7944901Y+11974901D01*
X+8871099Y+11974901D02*
X+8960901Y+11885099D01*
X+8871099Y+11885099D02*
X+8960901Y+11974901D01*
X+9800000Y+11993500D02*
X+9800000Y+11866500D01*
X+9736500Y+11930000D02*
X+9863500Y+11930000D01*
X+9755099Y+11974901D02*
X+9844901Y+11885099D01*
X+9755099Y+11885099D02*
X+9844901Y+11974901D01*
X+9800000Y+12247500D02*
X+9800000Y+12120500D01*
X+9736500Y+12184000D02*
X+9863500Y+12184000D01*
X+9755099Y+12228901D02*
X+9844901Y+12139099D01*
X+9755099Y+12139099D02*
X+9844901Y+12228901D01*
X+9800000Y+14493500D02*
X+9800000Y+14366500D01*
X+9736500Y+14430000D02*
X+9863500Y+14430000D01*
X+9755099Y+14474901D02*
X+9844901Y+14385099D01*
X+9755099Y+14385099D02*
X+9844901Y+14474901D01*
X+9800000Y+14239500D02*
X+9800000Y+14112500D01*
X+9736500Y+14176000D02*
X+9863500Y+14176000D01*
X+9755099Y+14220901D02*
X+9844901Y+14131099D01*
X+9755099Y+14131099D02*
X+9844901Y+14220901D01*
X+9800000Y+13985500D02*
X+9800000Y+13858500D01*
X+9736500Y+13922000D02*
X+9863500Y+13922000D01*
X+9755099Y+13966901D02*
X+9844901Y+13877099D01*
X+9755099Y+13877099D02*
X+9844901Y+13966901D01*
X+9800000Y+13731500D02*
X+9800000Y+13604500D01*
X+9736500Y+13668000D02*
X+9863500Y+13668000D01*
X+9755099Y+13712901D02*
X+9844901Y+13623099D01*
X+9755099Y+13623099D02*
X+9844901Y+13712901D01*
X+9800000Y+13477500D02*
X+9800000Y+13350500D01*
X+9736500Y+13414000D02*
X+9863500Y+13414000D01*
X+9755099Y+13458901D02*
X+9844901Y+13369099D01*
X+9755099Y+13369099D02*
X+9844901Y+13458901D01*
X+9800000Y+13223500D02*
X+9800000Y+13096500D01*
X+9736500Y+13160000D02*
X+9863500Y+13160000D01*
X+9755099Y+13204901D02*
X+9844901Y+13115099D01*
X+9755099Y+13115099D02*
X+9844901Y+13204901D01*
X+3800000Y+14463500D02*
X+3800000Y+14336500D01*
X+3736500Y+14400000D02*
X+3863500Y+14400000D01*
X+3755099Y+14444901D02*
X+3844901Y+14355099D01*
X+3755099Y+14355099D02*
X+3844901Y+14444901D01*
X+3800000Y+14209500D02*
X+3800000Y+14082500D01*
X+3736500Y+14146000D02*
X+3863500Y+14146000D01*
X+3755099Y+14190901D02*
X+3844901Y+14101099D01*
X+3755099Y+14101099D02*
X+3844901Y+14190901D01*
X+3800000Y+13955500D02*
X+3800000Y+13828500D01*
X+3736500Y+13892000D02*
X+3863500Y+13892000D01*
X+3755099Y+13936901D02*
X+3844901Y+13847099D01*
X+3755099Y+13847099D02*
X+3844901Y+13936901D01*
X+3800000Y+13701500D02*
X+3800000Y+13574500D01*
X+3736500Y+13638000D02*
X+3863500Y+13638000D01*
X+3755099Y+13682901D02*
X+3844901Y+13593099D01*
X+3755099Y+13593099D02*
X+3844901Y+13682901D01*
X+3800000Y+13447500D02*
X+3800000Y+13320500D01*
X+3736500Y+13384000D02*
X+3863500Y+13384000D01*
X+3755099Y+13428901D02*
X+3844901Y+13339099D01*
X+3755099Y+13339099D02*
X+3844901Y+13428901D01*
X+3800000Y+13193500D02*
X+3800000Y+13066500D01*
X+3736500Y+13130000D02*
X+3863500Y+13130000D01*
X+3755099Y+13174901D02*
X+3844901Y+13085099D01*
X+3755099Y+13085099D02*
X+3844901Y+13174901D01*
X+3655099Y+14990901D02*
X+3744901Y+14901099D01*
X+3655099Y+14901099D02*
X+3744901Y+14990901D01*
X+3909099Y+14990901D02*
X+3998901Y+14901099D01*
X+3909099Y+14901099D02*
X+3998901Y+14990901D01*
X+9755099Y+14874901D02*
X+9844901Y+14785099D01*
X+9755099Y+14785099D02*
X+9844901Y+14874901D01*
X+9755099Y+15128901D02*
X+9844901Y+15039099D01*
X+9755099Y+15039099D02*
X+9844901Y+15128901D01*
X+1855099Y+11944901D02*
X+1944901Y+11855099D01*
X+1855099Y+11855099D02*
X+1944901Y+11944901D01*
X+2871099Y+11944901D02*
X+2960901Y+11855099D01*
X+2871099Y+11855099D02*
X+2960901Y+11944901D01*
X+3800000Y+12317500D02*
X+3800000Y+12190500D01*
X+3736500Y+12254000D02*
X+3863500Y+12254000D01*
X+3755099Y+12298901D02*
X+3844901Y+12209099D01*
X+3755099Y+12209099D02*
X+3844901Y+12298901D01*
X+3800000Y+12063500D02*
X+3800000Y+11936500D01*
X+3736500Y+12000000D02*
X+3863500Y+12000000D01*
X+3755099Y+12044901D02*
X+3844901Y+11955099D01*
X+3755099Y+11955099D02*
X+3844901Y+12044901D01*
X+563500Y+15900000D02*
X+563283Y+15905247D01*
X+561518Y+15915742D01*
X+557826Y+15926237D01*
X+551798Y+15936732D01*
X+542576Y+15947112D01*
X+532081Y+15954800D01*
X+521586Y+15959718D01*
X+511091Y+15962524D01*
X+500596Y+15963497D01*
X+500000Y+15963500D01*
X+436500Y+15900000D02*
X+436717Y+15905247D01*
X+438482Y+15915742D01*
X+442174Y+15926237D01*
X+448202Y+15936732D01*
X+457424Y+15947112D01*
X+467919Y+15954800D01*
X+478414Y+15959718D01*
X+488909Y+15962524D01*
X+499404Y+15963497D01*
X+500000Y+15963500D01*
X+436500Y+15900000D02*
X+436717Y+15894753D01*
X+438482Y+15884258D01*
X+442174Y+15873763D01*
X+448202Y+15863268D01*
X+457424Y+15852888D01*
X+467919Y+15845200D01*
X+478414Y+15840282D01*
X+488909Y+15837476D01*
X+499404Y+15836503D01*
X+500000Y+15836500D01*
X+563500Y+15900000D02*
X+563283Y+15894753D01*
X+561518Y+15884258D01*
X+557826Y+15873763D01*
X+551798Y+15863268D01*
X+542576Y+15852888D01*
X+532081Y+15845200D01*
X+521586Y+15840282D01*
X+511091Y+15837476D01*
X+500596Y+15836503D01*
X+500000Y+15836500D01*
X+455099Y+15944901D02*
X+544901Y+15855099D01*
X+455099Y+15855099D02*
X+544901Y+15944901D01*
X+563500Y+11700000D02*
X+563283Y+11705247D01*
X+561518Y+11715742D01*
X+557826Y+11726237D01*
X+551798Y+11736732D01*
X+542576Y+11747112D01*
X+532081Y+11754800D01*
X+521586Y+11759718D01*
X+511091Y+11762524D01*
X+500596Y+11763497D01*
X+500000Y+11763500D01*
X+436500Y+11700000D02*
X+436717Y+11705247D01*
X+438482Y+11715742D01*
X+442174Y+11726237D01*
X+448202Y+11736732D01*
X+457424Y+11747112D01*
X+467919Y+11754800D01*
X+478414Y+11759718D01*
X+488909Y+11762524D01*
X+499404Y+11763497D01*
X+500000Y+11763500D01*
X+436500Y+11700000D02*
X+436717Y+11694753D01*
X+438482Y+11684258D01*
X+442174Y+11673763D01*
X+448202Y+11663268D01*
X+457424Y+11652888D01*
X+467919Y+11645200D01*
X+478414Y+11640282D01*
X+488909Y+11637476D01*
X+499404Y+11636503D01*
X+500000Y+11636500D01*
X+563500Y+11700000D02*
X+563283Y+11694753D01*
X+561518Y+11684258D01*
X+557826Y+11673763D01*
X+551798Y+11663268D01*
X+542576Y+11652888D01*
X+532081Y+11645200D01*
X+521586Y+11640282D01*
X+511091Y+11637476D01*
X+500596Y+11636503D01*
X+500000Y+11636500D01*
X+455099Y+11744901D02*
X+544901Y+11655099D01*
X+455099Y+11655099D02*
X+544901Y+11744901D01*
X+5063500Y+11700000D02*
X+5063283Y+11705247D01*
X+5061518Y+11715742D01*
X+5057826Y+11726237D01*
X+5051798Y+11736732D01*
X+5042576Y+11747112D01*
X+5032081Y+11754800D01*
X+5021586Y+11759718D01*
X+5011091Y+11762524D01*
X+5000596Y+11763497D01*
X+5000000Y+11763500D01*
X+4936500Y+11700000D02*
X+4936717Y+11705247D01*
X+4938482Y+11715742D01*
X+4942174Y+11726237D01*
X+4948202Y+11736732D01*
X+4957424Y+11747112D01*
X+4967919Y+11754800D01*
X+4978414Y+11759718D01*
X+4988909Y+11762524D01*
X+4999404Y+11763497D01*
X+5000000Y+11763500D01*
X+4936500Y+11700000D02*
X+4936717Y+11694753D01*
X+4938482Y+11684258D01*
X+4942174Y+11673763D01*
X+4948202Y+11663268D01*
X+4957424Y+11652888D01*
X+4967919Y+11645200D01*
X+4978414Y+11640282D01*
X+4988909Y+11637476D01*
X+4999404Y+11636503D01*
X+5000000Y+11636500D01*
X+5063500Y+11700000D02*
X+5063283Y+11694753D01*
X+5061518Y+11684258D01*
X+5057826Y+11673763D01*
X+5051798Y+11663268D01*
X+5042576Y+11652888D01*
X+5032081Y+11645200D01*
X+5021586Y+11640282D01*
X+5011091Y+11637476D01*
X+5000596Y+11636503D01*
X+5000000Y+11636500D01*
X+4955099Y+11744901D02*
X+5044901Y+11655099D01*
X+4955099Y+11655099D02*
X+5044901Y+11744901D01*
X+5063500Y+15900000D02*
X+5063283Y+15905247D01*
X+5061518Y+15915742D01*
X+5057826Y+15926237D01*
X+5051798Y+15936732D01*
X+5042576Y+15947112D01*
X+5032081Y+15954800D01*
X+5021586Y+15959718D01*
X+5011091Y+15962524D01*
X+5000596Y+15963497D01*
X+5000000Y+15963500D01*
X+4936500Y+15900000D02*
X+4936717Y+15905247D01*
X+4938482Y+15915742D01*
X+4942174Y+15926237D01*
X+4948202Y+15936732D01*
X+4957424Y+15947112D01*
X+4967919Y+15954800D01*
X+4978414Y+15959718D01*
X+4988909Y+15962524D01*
X+4999404Y+15963497D01*
X+5000000Y+15963500D01*
X+4936500Y+15900000D02*
X+4936717Y+15894753D01*
X+4938482Y+15884258D01*
X+4942174Y+15873763D01*
X+4948202Y+15863268D01*
X+4957424Y+15852888D01*
X+4967919Y+15845200D01*
X+4978414Y+15840282D01*
X+4988909Y+15837476D01*
X+4999404Y+15836503D01*
X+5000000Y+15836500D01*
X+5063500Y+15900000D02*
X+5063283Y+15894753D01*
X+5061518Y+15884258D01*
X+5057826Y+15873763D01*
X+5051798Y+15863268D01*
X+5042576Y+15852888D01*
X+5032081Y+15845200D01*
X+5021586Y+15840282D01*
X+5011091Y+15837476D01*
X+5000596Y+15836503D01*
X+5000000Y+15836500D01*
X+4955099Y+15944901D02*
X+5044901Y+15855099D01*
X+4955099Y+15855099D02*
X+5044901Y+15944901D01*
X+6563500Y+15900000D02*
X+6563283Y+15905247D01*
X+6561518Y+15915742D01*
X+6557826Y+15926237D01*
X+6551798Y+15936732D01*
X+6542576Y+15947112D01*
X+6532081Y+15954800D01*
X+6521586Y+15959718D01*
X+6511091Y+15962524D01*
X+6500596Y+15963497D01*
X+6500000Y+15963500D01*
X+6436500Y+15900000D02*
X+6436717Y+15905247D01*
X+6438482Y+15915742D01*
X+6442174Y+15926237D01*
X+6448202Y+15936732D01*
X+6457424Y+15947112D01*
X+6467919Y+15954800D01*
X+6478414Y+15959718D01*
X+6488909Y+15962524D01*
X+6499404Y+15963497D01*
X+6500000Y+15963500D01*
X+6436500Y+15900000D02*
X+6436717Y+15894753D01*
X+6438482Y+15884258D01*
X+6442174Y+15873763D01*
X+6448202Y+15863268D01*
X+6457424Y+15852888D01*
X+6467919Y+15845200D01*
X+6478414Y+15840282D01*
X+6488909Y+15837476D01*
X+6499404Y+15836503D01*
X+6500000Y+15836500D01*
X+6563500Y+15900000D02*
X+6563283Y+15894753D01*
X+6561518Y+15884258D01*
X+6557826Y+15873763D01*
X+6551798Y+15863268D01*
X+6542576Y+15852888D01*
X+6532081Y+15845200D01*
X+6521586Y+15840282D01*
X+6511091Y+15837476D01*
X+6500596Y+15836503D01*
X+6500000Y+15836500D01*
X+6455099Y+15944901D02*
X+6544901Y+15855099D01*
X+6455099Y+15855099D02*
X+6544901Y+15944901D01*
X+6563500Y+11700000D02*
X+6563283Y+11705247D01*
X+6561518Y+11715742D01*
X+6557826Y+11726237D01*
X+6551798Y+11736732D01*
X+6542576Y+11747112D01*
X+6532081Y+11754800D01*
X+6521586Y+11759718D01*
X+6511091Y+11762524D01*
X+6500596Y+11763497D01*
X+6500000Y+11763500D01*
X+6436500Y+11700000D02*
X+6436717Y+11705247D01*
X+6438482Y+11715742D01*
X+6442174Y+11726237D01*
X+6448202Y+11736732D01*
X+6457424Y+11747112D01*
X+6467919Y+11754800D01*
X+6478414Y+11759718D01*
X+6488909Y+11762524D01*
X+6499404Y+11763497D01*
X+6500000Y+11763500D01*
X+6436500Y+11700000D02*
X+6436717Y+11694753D01*
X+6438482Y+11684258D01*
X+6442174Y+11673763D01*
X+6448202Y+11663268D01*
X+6457424Y+11652888D01*
X+6467919Y+11645200D01*
X+6478414Y+11640282D01*
X+6488909Y+11637476D01*
X+6499404Y+11636503D01*
X+6500000Y+11636500D01*
X+6563500Y+11700000D02*
X+6563283Y+11694753D01*
X+6561518Y+11684258D01*
X+6557826Y+11673763D01*
X+6551798Y+11663268D01*
X+6542576Y+11652888D01*
X+6532081Y+11645200D01*
X+6521586Y+11640282D01*
X+6511091Y+11637476D01*
X+6500596Y+11636503D01*
X+6500000Y+11636500D01*
X+6455099Y+11744901D02*
X+6544901Y+11655099D01*
X+6455099Y+11655099D02*
X+6544901Y+11744901D01*
X+10663500Y+11700000D02*
X+10663283Y+11705247D01*
X+10661518Y+11715742D01*
X+10657826Y+11726237D01*
X+10651798Y+11736732D01*
X+10642576Y+11747112D01*
X+10632081Y+11754800D01*
X+10621586Y+11759718D01*
X+10611091Y+11762524D01*
X+10600596Y+11763497D01*
X+10600000Y+11763500D01*
X+10536500Y+11700000D02*
X+10536717Y+11705247D01*
X+10538482Y+11715742D01*
X+10542174Y+11726237D01*
X+10548202Y+11736732D01*
X+10557424Y+11747112D01*
X+10567919Y+11754800D01*
X+10578414Y+11759718D01*
X+10588909Y+11762524D01*
X+10599404Y+11763497D01*
X+10600000Y+11763500D01*
X+10536500Y+11700000D02*
X+10536717Y+11694753D01*
X+10538482Y+11684258D01*
X+10542174Y+11673763D01*
X+10548202Y+11663268D01*
X+10557424Y+11652888D01*
X+10567919Y+11645200D01*
X+10578414Y+11640282D01*
X+10588909Y+11637476D01*
X+10599404Y+11636503D01*
X+10600000Y+11636500D01*
X+10663500Y+11700000D02*
X+10663283Y+11694753D01*
X+10661518Y+11684258D01*
X+10657826Y+11673763D01*
X+10651798Y+11663268D01*
X+10642576Y+11652888D01*
X+10632081Y+11645200D01*
X+10621586Y+11640282D01*
X+10611091Y+11637476D01*
X+10600596Y+11636503D01*
X+10600000Y+11636500D01*
X+10555099Y+11744901D02*
X+10644901Y+11655099D01*
X+10555099Y+11655099D02*
X+10644901Y+11744901D01*
X+10663500Y+15900000D02*
X+10663283Y+15905247D01*
X+10661518Y+15915742D01*
X+10657826Y+15926237D01*
X+10651798Y+15936732D01*
X+10642576Y+15947112D01*
X+10632081Y+15954800D01*
X+10621586Y+15959718D01*
X+10611091Y+15962524D01*
X+10600596Y+15963497D01*
X+10600000Y+15963500D01*
X+10536500Y+15900000D02*
X+10536717Y+15905247D01*
X+10538482Y+15915742D01*
X+10542174Y+15926237D01*
X+10548202Y+15936732D01*
X+10557424Y+15947112D01*
X+10567919Y+15954800D01*
X+10578414Y+15959718D01*
X+10588909Y+15962524D01*
X+10599404Y+15963497D01*
X+10600000Y+15963500D01*
X+10536500Y+15900000D02*
X+10536717Y+15894753D01*
X+10538482Y+15884258D01*
X+10542174Y+15873763D01*
X+10548202Y+15863268D01*
X+10557424Y+15852888D01*
X+10567919Y+15845200D01*
X+10578414Y+15840282D01*
X+10588909Y+15837476D01*
X+10599404Y+15836503D01*
X+10600000Y+15836500D01*
X+10663500Y+15900000D02*
X+10663283Y+15894753D01*
X+10661518Y+15884258D01*
X+10657826Y+15873763D01*
X+10651798Y+15863268D01*
X+10642576Y+15852888D01*
X+10632081Y+15845200D01*
X+10621586Y+15840282D01*
X+10611091Y+15837476D01*
X+10600596Y+15836503D01*
X+10600000Y+15836500D01*
X+10555099Y+15944901D02*
X+10644901Y+15855099D01*
X+10555099Y+15855099D02*
X+10644901Y+15944901D01*
X+9055099Y+20874901D02*
X+9144901Y+20785099D01*
X+9055099Y+20785099D02*
X+9144901Y+20874901D01*
X+7755099Y+20874901D02*
X+7844901Y+20785099D01*
X+7755099Y+20785099D02*
X+7844901Y+20874901D01*
X+9055099Y+17974901D02*
X+9144901Y+17885099D01*
X+9055099Y+17885099D02*
X+9144901Y+17974901D01*
X+7755099Y+17974901D02*
X+7844901Y+17885099D01*
X+7755099Y+17885099D02*
X+7844901Y+17974901D01*
X+763500Y+18400000D02*
X+763283Y+18405247D01*
X+761518Y+18415742D01*
X+757826Y+18426237D01*
X+751798Y+18436732D01*
X+742576Y+18447112D01*
X+732081Y+18454800D01*
X+721586Y+18459718D01*
X+711091Y+18462524D01*
X+700596Y+18463497D01*
X+700000Y+18463500D01*
X+636500Y+18400000D02*
X+636717Y+18405247D01*
X+638482Y+18415742D01*
X+642174Y+18426237D01*
X+648202Y+18436732D01*
X+657424Y+18447112D01*
X+667919Y+18454800D01*
X+678414Y+18459718D01*
X+688909Y+18462524D01*
X+699404Y+18463497D01*
X+700000Y+18463500D01*
X+636500Y+18400000D02*
X+636717Y+18394753D01*
X+638482Y+18384258D01*
X+642174Y+18373763D01*
X+648202Y+18363268D01*
X+657424Y+18352888D01*
X+667919Y+18345200D01*
X+678414Y+18340282D01*
X+688909Y+18337476D01*
X+699404Y+18336503D01*
X+700000Y+18336500D01*
X+763500Y+18400000D02*
X+763283Y+18394753D01*
X+761518Y+18384258D01*
X+757826Y+18373763D01*
X+751798Y+18363268D01*
X+742576Y+18352888D01*
X+732081Y+18345200D01*
X+721586Y+18340282D01*
X+711091Y+18337476D01*
X+700596Y+18336503D01*
X+700000Y+18336500D01*
X+700000Y+18463500D02*
X+700000Y+18336500D01*
X+636500Y+18400000D02*
X+763500Y+18400000D01*
X+763500Y+18908000D02*
X+763283Y+18913247D01*
X+761518Y+18923742D01*
X+757826Y+18934237D01*
X+751798Y+18944732D01*
X+742576Y+18955112D01*
X+732081Y+18962800D01*
X+721586Y+18967718D01*
X+711091Y+18970524D01*
X+700596Y+18971497D01*
X+700000Y+18971500D01*
X+636500Y+18908000D02*
X+636717Y+18913247D01*
X+638482Y+18923742D01*
X+642174Y+18934237D01*
X+648202Y+18944732D01*
X+657424Y+18955112D01*
X+667919Y+18962800D01*
X+678414Y+18967718D01*
X+688909Y+18970524D01*
X+699404Y+18971497D01*
X+700000Y+18971500D01*
X+636500Y+18908000D02*
X+636717Y+18902753D01*
X+638482Y+18892258D01*
X+642174Y+18881763D01*
X+648202Y+18871268D01*
X+657424Y+18860888D01*
X+667919Y+18853200D01*
X+678414Y+18848282D01*
X+688909Y+18845476D01*
X+699404Y+18844503D01*
X+700000Y+18844500D01*
X+763500Y+18908000D02*
X+763283Y+18902753D01*
X+761518Y+18892258D01*
X+757826Y+18881763D01*
X+751798Y+18871268D01*
X+742576Y+18860888D01*
X+732081Y+18853200D01*
X+721586Y+18848282D01*
X+711091Y+18845476D01*
X+700596Y+18844503D01*
X+700000Y+18844500D01*
X+700000Y+18971500D02*
X+700000Y+18844500D01*
X+636500Y+18908000D02*
X+763500Y+18908000D01*
X+763500Y+19416000D02*
X+763283Y+19421247D01*
X+761518Y+19431742D01*
X+757826Y+19442237D01*
X+751798Y+19452732D01*
X+742576Y+19463112D01*
X+732081Y+19470800D01*
X+721586Y+19475718D01*
X+711091Y+19478524D01*
X+700596Y+19479497D01*
X+700000Y+19479500D01*
X+636500Y+19416000D02*
X+636717Y+19421247D01*
X+638482Y+19431742D01*
X+642174Y+19442237D01*
X+648202Y+19452732D01*
X+657424Y+19463112D01*
X+667919Y+19470800D01*
X+678414Y+19475718D01*
X+688909Y+19478524D01*
X+699404Y+19479497D01*
X+700000Y+19479500D01*
X+636500Y+19416000D02*
X+636717Y+19410753D01*
X+638482Y+19400258D01*
X+642174Y+19389763D01*
X+648202Y+19379268D01*
X+657424Y+19368888D01*
X+667919Y+19361200D01*
X+678414Y+19356282D01*
X+688909Y+19353476D01*
X+699404Y+19352503D01*
X+700000Y+19352500D01*
X+763500Y+19416000D02*
X+763283Y+19410753D01*
X+761518Y+19400258D01*
X+757826Y+19389763D01*
X+751798Y+19379268D01*
X+742576Y+19368888D01*
X+732081Y+19361200D01*
X+721586Y+19356282D01*
X+711091Y+19353476D01*
X+700596Y+19352503D01*
X+700000Y+19352500D01*
X+700000Y+19479500D02*
X+700000Y+19352500D01*
X+636500Y+19416000D02*
X+763500Y+19416000D01*
X+763500Y+19924000D02*
X+763283Y+19929247D01*
X+761518Y+19939742D01*
X+757826Y+19950237D01*
X+751798Y+19960732D01*
X+742576Y+19971112D01*
X+732081Y+19978800D01*
X+721586Y+19983718D01*
X+711091Y+19986524D01*
X+700596Y+19987497D01*
X+700000Y+19987500D01*
X+636500Y+19924000D02*
X+636717Y+19929247D01*
X+638482Y+19939742D01*
X+642174Y+19950237D01*
X+648202Y+19960732D01*
X+657424Y+19971112D01*
X+667919Y+19978800D01*
X+678414Y+19983718D01*
X+688909Y+19986524D01*
X+699404Y+19987497D01*
X+700000Y+19987500D01*
X+636500Y+19924000D02*
X+636717Y+19918753D01*
X+638482Y+19908258D01*
X+642174Y+19897763D01*
X+648202Y+19887268D01*
X+657424Y+19876888D01*
X+667919Y+19869200D01*
X+678414Y+19864282D01*
X+688909Y+19861476D01*
X+699404Y+19860503D01*
X+700000Y+19860500D01*
X+763500Y+19924000D02*
X+763283Y+19918753D01*
X+761518Y+19908258D01*
X+757826Y+19897763D01*
X+751798Y+19887268D01*
X+742576Y+19876888D01*
X+732081Y+19869200D01*
X+721586Y+19864282D01*
X+711091Y+19861476D01*
X+700596Y+19860503D01*
X+700000Y+19860500D01*
X+700000Y+19987500D02*
X+700000Y+19860500D01*
X+636500Y+19924000D02*
X+763500Y+19924000D01*
X+763500Y+20432000D02*
X+763283Y+20437247D01*
X+761518Y+20447742D01*
X+757826Y+20458237D01*
X+751798Y+20468732D01*
X+742576Y+20479112D01*
X+732081Y+20486800D01*
X+721586Y+20491718D01*
X+711091Y+20494524D01*
X+700596Y+20495497D01*
X+700000Y+20495500D01*
X+636500Y+20432000D02*
X+636717Y+20437247D01*
X+638482Y+20447742D01*
X+642174Y+20458237D01*
X+648202Y+20468732D01*
X+657424Y+20479112D01*
X+667919Y+20486800D01*
X+678414Y+20491718D01*
X+688909Y+20494524D01*
X+699404Y+20495497D01*
X+700000Y+20495500D01*
X+636500Y+20432000D02*
X+636717Y+20426753D01*
X+638482Y+20416258D01*
X+642174Y+20405763D01*
X+648202Y+20395268D01*
X+657424Y+20384888D01*
X+667919Y+20377200D01*
X+678414Y+20372282D01*
X+688909Y+20369476D01*
X+699404Y+20368503D01*
X+700000Y+20368500D01*
X+763500Y+20432000D02*
X+763283Y+20426753D01*
X+761518Y+20416258D01*
X+757826Y+20405763D01*
X+751798Y+20395268D01*
X+742576Y+20384888D01*
X+732081Y+20377200D01*
X+721586Y+20372282D01*
X+711091Y+20369476D01*
X+700596Y+20368503D01*
X+700000Y+20368500D01*
X+700000Y+20495500D02*
X+700000Y+20368500D01*
X+636500Y+20432000D02*
X+763500Y+20432000D01*
X+3055099Y+20844901D02*
X+3144901Y+20755099D01*
X+3055099Y+20755099D02*
X+3144901Y+20844901D01*
X+1755099Y+20844901D02*
X+1844901Y+20755099D01*
X+1755099Y+20755099D02*
X+1844901Y+20844901D01*
X+3055099Y+17944901D02*
X+3144901Y+17855099D01*
X+3055099Y+17855099D02*
X+3144901Y+17944901D01*
X+1755099Y+17944901D02*
X+1844901Y+17855099D01*
X+1755099Y+17855099D02*
X+1844901Y+17944901D01*
X+4863500Y+18398000D02*
X+4863283Y+18403247D01*
X+4861518Y+18413742D01*
X+4857826Y+18424237D01*
X+4851798Y+18434732D01*
X+4842576Y+18445112D01*
X+4832081Y+18452800D01*
X+4821586Y+18457718D01*
X+4811091Y+18460524D01*
X+4800596Y+18461497D01*
X+4800000Y+18461500D01*
X+4736500Y+18398000D02*
X+4736717Y+18403247D01*
X+4738482Y+18413742D01*
X+4742174Y+18424237D01*
X+4748202Y+18434732D01*
X+4757424Y+18445112D01*
X+4767919Y+18452800D01*
X+4778414Y+18457718D01*
X+4788909Y+18460524D01*
X+4799404Y+18461497D01*
X+4800000Y+18461500D01*
X+4736500Y+18398000D02*
X+4736717Y+18392753D01*
X+4738482Y+18382258D01*
X+4742174Y+18371763D01*
X+4748202Y+18361268D01*
X+4757424Y+18350888D01*
X+4767919Y+18343200D01*
X+4778414Y+18338282D01*
X+4788909Y+18335476D01*
X+4799404Y+18334503D01*
X+4800000Y+18334500D01*
X+4863500Y+18398000D02*
X+4863283Y+18392753D01*
X+4861518Y+18382258D01*
X+4857826Y+18371763D01*
X+4851798Y+18361268D01*
X+4842576Y+18350888D01*
X+4832081Y+18343200D01*
X+4821586Y+18338282D01*
X+4811091Y+18335476D01*
X+4800596Y+18334503D01*
X+4800000Y+18334500D01*
X+4800000Y+18461500D02*
X+4800000Y+18334500D01*
X+4736500Y+18398000D02*
X+4863500Y+18398000D01*
X+4863500Y+18906000D02*
X+4863283Y+18911247D01*
X+4861518Y+18921742D01*
X+4857826Y+18932237D01*
X+4851798Y+18942732D01*
X+4842576Y+18953112D01*
X+4832081Y+18960800D01*
X+4821586Y+18965718D01*
X+4811091Y+18968524D01*
X+4800596Y+18969497D01*
X+4800000Y+18969500D01*
X+4736500Y+18906000D02*
X+4736717Y+18911247D01*
X+4738482Y+18921742D01*
X+4742174Y+18932237D01*
X+4748202Y+18942732D01*
X+4757424Y+18953112D01*
X+4767919Y+18960800D01*
X+4778414Y+18965718D01*
X+4788909Y+18968524D01*
X+4799404Y+18969497D01*
X+4800000Y+18969500D01*
X+4736500Y+18906000D02*
X+4736717Y+18900753D01*
X+4738482Y+18890258D01*
X+4742174Y+18879763D01*
X+4748202Y+18869268D01*
X+4757424Y+18858888D01*
X+4767919Y+18851200D01*
X+4778414Y+18846282D01*
X+4788909Y+18843476D01*
X+4799404Y+18842503D01*
X+4800000Y+18842500D01*
X+4863500Y+18906000D02*
X+4863283Y+18900753D01*
X+4861518Y+18890258D01*
X+4857826Y+18879763D01*
X+4851798Y+18869268D01*
X+4842576Y+18858888D01*
X+4832081Y+18851200D01*
X+4821586Y+18846282D01*
X+4811091Y+18843476D01*
X+4800596Y+18842503D01*
X+4800000Y+18842500D01*
X+4800000Y+18969500D02*
X+4800000Y+18842500D01*
X+4736500Y+18906000D02*
X+4863500Y+18906000D01*
X+4863500Y+19414000D02*
X+4863283Y+19419247D01*
X+4861518Y+19429742D01*
X+4857826Y+19440237D01*
X+4851798Y+19450732D01*
X+4842576Y+19461112D01*
X+4832081Y+19468800D01*
X+4821586Y+19473718D01*
X+4811091Y+19476524D01*
X+4800596Y+19477497D01*
X+4800000Y+19477500D01*
X+4736500Y+19414000D02*
X+4736717Y+19419247D01*
X+4738482Y+19429742D01*
X+4742174Y+19440237D01*
X+4748202Y+19450732D01*
X+4757424Y+19461112D01*
X+4767919Y+19468800D01*
X+4778414Y+19473718D01*
X+4788909Y+19476524D01*
X+4799404Y+19477497D01*
X+4800000Y+19477500D01*
X+4736500Y+19414000D02*
X+4736717Y+19408753D01*
X+4738482Y+19398258D01*
X+4742174Y+19387763D01*
X+4748202Y+19377268D01*
X+4757424Y+19366888D01*
X+4767919Y+19359200D01*
X+4778414Y+19354282D01*
X+4788909Y+19351476D01*
X+4799404Y+19350503D01*
X+4800000Y+19350500D01*
X+4863500Y+19414000D02*
X+4863283Y+19408753D01*
X+4861518Y+19398258D01*
X+4857826Y+19387763D01*
X+4851798Y+19377268D01*
X+4842576Y+19366888D01*
X+4832081Y+19359200D01*
X+4821586Y+19354282D01*
X+4811091Y+19351476D01*
X+4800596Y+19350503D01*
X+4800000Y+19350500D01*
X+4800000Y+19477500D02*
X+4800000Y+19350500D01*
X+4736500Y+19414000D02*
X+4863500Y+19414000D01*
X+4863500Y+19922000D02*
X+4863283Y+19927247D01*
X+4861518Y+19937742D01*
X+4857826Y+19948237D01*
X+4851798Y+19958732D01*
X+4842576Y+19969112D01*
X+4832081Y+19976800D01*
X+4821586Y+19981718D01*
X+4811091Y+19984524D01*
X+4800596Y+19985497D01*
X+4800000Y+19985500D01*
X+4736500Y+19922000D02*
X+4736717Y+19927247D01*
X+4738482Y+19937742D01*
X+4742174Y+19948237D01*
X+4748202Y+19958732D01*
X+4757424Y+19969112D01*
X+4767919Y+19976800D01*
X+4778414Y+19981718D01*
X+4788909Y+19984524D01*
X+4799404Y+19985497D01*
X+4800000Y+19985500D01*
X+4736500Y+19922000D02*
X+4736717Y+19916753D01*
X+4738482Y+19906258D01*
X+4742174Y+19895763D01*
X+4748202Y+19885268D01*
X+4757424Y+19874888D01*
X+4767919Y+19867200D01*
X+4778414Y+19862282D01*
X+4788909Y+19859476D01*
X+4799404Y+19858503D01*
X+4800000Y+19858500D01*
X+4863500Y+19922000D02*
X+4863283Y+19916753D01*
X+4861518Y+19906258D01*
X+4857826Y+19895763D01*
X+4851798Y+19885268D01*
X+4842576Y+19874888D01*
X+4832081Y+19867200D01*
X+4821586Y+19862282D01*
X+4811091Y+19859476D01*
X+4800596Y+19858503D01*
X+4800000Y+19858500D01*
X+4800000Y+19985500D02*
X+4800000Y+19858500D01*
X+4736500Y+19922000D02*
X+4863500Y+19922000D01*
X+4863500Y+20430000D02*
X+4863283Y+20435247D01*
X+4861518Y+20445742D01*
X+4857826Y+20456237D01*
X+4851798Y+20466732D01*
X+4842576Y+20477112D01*
X+4832081Y+20484800D01*
X+4821586Y+20489718D01*
X+4811091Y+20492524D01*
X+4800596Y+20493497D01*
X+4800000Y+20493500D01*
X+4736500Y+20430000D02*
X+4736717Y+20435247D01*
X+4738482Y+20445742D01*
X+4742174Y+20456237D01*
X+4748202Y+20466732D01*
X+4757424Y+20477112D01*
X+4767919Y+20484800D01*
X+4778414Y+20489718D01*
X+4788909Y+20492524D01*
X+4799404Y+20493497D01*
X+4800000Y+20493500D01*
X+4736500Y+20430000D02*
X+4736717Y+20424753D01*
X+4738482Y+20414258D01*
X+4742174Y+20403763D01*
X+4748202Y+20393268D01*
X+4757424Y+20382888D01*
X+4767919Y+20375200D01*
X+4778414Y+20370282D01*
X+4788909Y+20367476D01*
X+4799404Y+20366503D01*
X+4800000Y+20366500D01*
X+4863500Y+20430000D02*
X+4863283Y+20424753D01*
X+4861518Y+20414258D01*
X+4857826Y+20403763D01*
X+4851798Y+20393268D01*
X+4842576Y+20382888D01*
X+4832081Y+20375200D01*
X+4821586Y+20370282D01*
X+4811091Y+20367476D01*
X+4800596Y+20366503D01*
X+4800000Y+20366500D01*
X+4800000Y+20493500D02*
X+4800000Y+20366500D01*
X+4736500Y+20430000D02*
X+4863500Y+20430000D01*
X+6763500Y+18398000D02*
X+6763283Y+18403247D01*
X+6761518Y+18413742D01*
X+6757826Y+18424237D01*
X+6751798Y+18434732D01*
X+6742576Y+18445112D01*
X+6732081Y+18452800D01*
X+6721586Y+18457718D01*
X+6711091Y+18460524D01*
X+6700596Y+18461497D01*
X+6700000Y+18461500D01*
X+6636500Y+18398000D02*
X+6636717Y+18403247D01*
X+6638482Y+18413742D01*
X+6642174Y+18424237D01*
X+6648202Y+18434732D01*
X+6657424Y+18445112D01*
X+6667919Y+18452800D01*
X+6678414Y+18457718D01*
X+6688909Y+18460524D01*
X+6699404Y+18461497D01*
X+6700000Y+18461500D01*
X+6636500Y+18398000D02*
X+6636717Y+18392753D01*
X+6638482Y+18382258D01*
X+6642174Y+18371763D01*
X+6648202Y+18361268D01*
X+6657424Y+18350888D01*
X+6667919Y+18343200D01*
X+6678414Y+18338282D01*
X+6688909Y+18335476D01*
X+6699404Y+18334503D01*
X+6700000Y+18334500D01*
X+6763500Y+18398000D02*
X+6763283Y+18392753D01*
X+6761518Y+18382258D01*
X+6757826Y+18371763D01*
X+6751798Y+18361268D01*
X+6742576Y+18350888D01*
X+6732081Y+18343200D01*
X+6721586Y+18338282D01*
X+6711091Y+18335476D01*
X+6700596Y+18334503D01*
X+6700000Y+18334500D01*
X+6700000Y+18461500D02*
X+6700000Y+18334500D01*
X+6636500Y+18398000D02*
X+6763500Y+18398000D01*
X+6763500Y+18906000D02*
X+6763283Y+18911247D01*
X+6761518Y+18921742D01*
X+6757826Y+18932237D01*
X+6751798Y+18942732D01*
X+6742576Y+18953112D01*
X+6732081Y+18960800D01*
X+6721586Y+18965718D01*
X+6711091Y+18968524D01*
X+6700596Y+18969497D01*
X+6700000Y+18969500D01*
X+6636500Y+18906000D02*
X+6636717Y+18911247D01*
X+6638482Y+18921742D01*
X+6642174Y+18932237D01*
X+6648202Y+18942732D01*
X+6657424Y+18953112D01*
X+6667919Y+18960800D01*
X+6678414Y+18965718D01*
X+6688909Y+18968524D01*
X+6699404Y+18969497D01*
X+6700000Y+18969500D01*
X+6636500Y+18906000D02*
X+6636717Y+18900753D01*
X+6638482Y+18890258D01*
X+6642174Y+18879763D01*
X+6648202Y+18869268D01*
X+6657424Y+18858888D01*
X+6667919Y+18851200D01*
X+6678414Y+18846282D01*
X+6688909Y+18843476D01*
X+6699404Y+18842503D01*
X+6700000Y+18842500D01*
X+6763500Y+18906000D02*
X+6763283Y+18900753D01*
X+6761518Y+18890258D01*
X+6757826Y+18879763D01*
X+6751798Y+18869268D01*
X+6742576Y+18858888D01*
X+6732081Y+18851200D01*
X+6721586Y+18846282D01*
X+6711091Y+18843476D01*
X+6700596Y+18842503D01*
X+6700000Y+18842500D01*
X+6700000Y+18969500D02*
X+6700000Y+18842500D01*
X+6636500Y+18906000D02*
X+6763500Y+18906000D01*
X+6763500Y+19414000D02*
X+6763283Y+19419247D01*
X+6761518Y+19429742D01*
X+6757826Y+19440237D01*
X+6751798Y+19450732D01*
X+6742576Y+19461112D01*
X+6732081Y+19468800D01*
X+6721586Y+19473718D01*
X+6711091Y+19476524D01*
X+6700596Y+19477497D01*
X+6700000Y+19477500D01*
X+6636500Y+19414000D02*
X+6636717Y+19419247D01*
X+6638482Y+19429742D01*
X+6642174Y+19440237D01*
X+6648202Y+19450732D01*
X+6657424Y+19461112D01*
X+6667919Y+19468800D01*
X+6678414Y+19473718D01*
X+6688909Y+19476524D01*
X+6699404Y+19477497D01*
X+6700000Y+19477500D01*
X+6636500Y+19414000D02*
X+6636717Y+19408753D01*
X+6638482Y+19398258D01*
X+6642174Y+19387763D01*
X+6648202Y+19377268D01*
X+6657424Y+19366888D01*
X+6667919Y+19359200D01*
X+6678414Y+19354282D01*
X+6688909Y+19351476D01*
X+6699404Y+19350503D01*
X+6700000Y+19350500D01*
X+6763500Y+19414000D02*
X+6763283Y+19408753D01*
X+6761518Y+19398258D01*
X+6757826Y+19387763D01*
X+6751798Y+19377268D01*
X+6742576Y+19366888D01*
X+6732081Y+19359200D01*
X+6721586Y+19354282D01*
X+6711091Y+19351476D01*
X+6700596Y+19350503D01*
X+6700000Y+19350500D01*
X+6700000Y+19477500D02*
X+6700000Y+19350500D01*
X+6636500Y+19414000D02*
X+6763500Y+19414000D01*
X+6763500Y+19922000D02*
X+6763283Y+19927247D01*
X+6761518Y+19937742D01*
X+6757826Y+19948237D01*
X+6751798Y+19958732D01*
X+6742576Y+19969112D01*
X+6732081Y+19976800D01*
X+6721586Y+19981718D01*
X+6711091Y+19984524D01*
X+6700596Y+19985497D01*
X+6700000Y+19985500D01*
X+6636500Y+19922000D02*
X+6636717Y+19927247D01*
X+6638482Y+19937742D01*
X+6642174Y+19948237D01*
X+6648202Y+19958732D01*
X+6657424Y+19969112D01*
X+6667919Y+19976800D01*
X+6678414Y+19981718D01*
X+6688909Y+19984524D01*
X+6699404Y+19985497D01*
X+6700000Y+19985500D01*
X+6636500Y+19922000D02*
X+6636717Y+19916753D01*
X+6638482Y+19906258D01*
X+6642174Y+19895763D01*
X+6648202Y+19885268D01*
X+6657424Y+19874888D01*
X+6667919Y+19867200D01*
X+6678414Y+19862282D01*
X+6688909Y+19859476D01*
X+6699404Y+19858503D01*
X+6700000Y+19858500D01*
X+6763500Y+19922000D02*
X+6763283Y+19916753D01*
X+6761518Y+19906258D01*
X+6757826Y+19895763D01*
X+6751798Y+19885268D01*
X+6742576Y+19874888D01*
X+6732081Y+19867200D01*
X+6721586Y+19862282D01*
X+6711091Y+19859476D01*
X+6700596Y+19858503D01*
X+6700000Y+19858500D01*
X+6700000Y+19985500D02*
X+6700000Y+19858500D01*
X+6636500Y+19922000D02*
X+6763500Y+19922000D01*
X+6763500Y+20430000D02*
X+6763283Y+20435247D01*
X+6761518Y+20445742D01*
X+6757826Y+20456237D01*
X+6751798Y+20466732D01*
X+6742576Y+20477112D01*
X+6732081Y+20484800D01*
X+6721586Y+20489718D01*
X+6711091Y+20492524D01*
X+6700596Y+20493497D01*
X+6700000Y+20493500D01*
X+6636500Y+20430000D02*
X+6636717Y+20435247D01*
X+6638482Y+20445742D01*
X+6642174Y+20456237D01*
X+6648202Y+20466732D01*
X+6657424Y+20477112D01*
X+6667919Y+20484800D01*
X+6678414Y+20489718D01*
X+6688909Y+20492524D01*
X+6699404Y+20493497D01*
X+6700000Y+20493500D01*
X+6636500Y+20430000D02*
X+6636717Y+20424753D01*
X+6638482Y+20414258D01*
X+6642174Y+20403763D01*
X+6648202Y+20393268D01*
X+6657424Y+20382888D01*
X+6667919Y+20375200D01*
X+6678414Y+20370282D01*
X+6688909Y+20367476D01*
X+6699404Y+20366503D01*
X+6700000Y+20366500D01*
X+6763500Y+20430000D02*
X+6763283Y+20424753D01*
X+6761518Y+20414258D01*
X+6757826Y+20403763D01*
X+6751798Y+20393268D01*
X+6742576Y+20382888D01*
X+6732081Y+20375200D01*
X+6721586Y+20370282D01*
X+6711091Y+20367476D01*
X+6700596Y+20366503D01*
X+6700000Y+20366500D01*
X+6700000Y+20493500D02*
X+6700000Y+20366500D01*
X+6636500Y+20430000D02*
X+6763500Y+20430000D01*
X+7855099Y+17574901D02*
X+7944901Y+17485099D01*
X+7855099Y+17485099D02*
X+7944901Y+17574901D01*
X+8871099Y+17574901D02*
X+8960901Y+17485099D01*
X+8871099Y+17485099D02*
X+8960901Y+17574901D01*
X+9800000Y+17593500D02*
X+9800000Y+17466500D01*
X+9736500Y+17530000D02*
X+9863500Y+17530000D01*
X+9755099Y+17574901D02*
X+9844901Y+17485099D01*
X+9755099Y+17485099D02*
X+9844901Y+17574901D01*
X+9800000Y+17847500D02*
X+9800000Y+17720500D01*
X+9736500Y+17784000D02*
X+9863500Y+17784000D01*
X+9755099Y+17828901D02*
X+9844901Y+17739099D01*
X+9755099Y+17739099D02*
X+9844901Y+17828901D01*
X+9800000Y+20093500D02*
X+9800000Y+19966500D01*
X+9736500Y+20030000D02*
X+9863500Y+20030000D01*
X+9755099Y+20074901D02*
X+9844901Y+19985099D01*
X+9755099Y+19985099D02*
X+9844901Y+20074901D01*
X+9800000Y+19839500D02*
X+9800000Y+19712500D01*
X+9736500Y+19776000D02*
X+9863500Y+19776000D01*
X+9755099Y+19820901D02*
X+9844901Y+19731099D01*
X+9755099Y+19731099D02*
X+9844901Y+19820901D01*
X+9800000Y+19585500D02*
X+9800000Y+19458500D01*
X+9736500Y+19522000D02*
X+9863500Y+19522000D01*
X+9755099Y+19566901D02*
X+9844901Y+19477099D01*
X+9755099Y+19477099D02*
X+9844901Y+19566901D01*
X+9800000Y+19331500D02*
X+9800000Y+19204500D01*
X+9736500Y+19268000D02*
X+9863500Y+19268000D01*
X+9755099Y+19312901D02*
X+9844901Y+19223099D01*
X+9755099Y+19223099D02*
X+9844901Y+19312901D01*
X+9800000Y+19077500D02*
X+9800000Y+18950500D01*
X+9736500Y+19014000D02*
X+9863500Y+19014000D01*
X+9755099Y+19058901D02*
X+9844901Y+18969099D01*
X+9755099Y+18969099D02*
X+9844901Y+19058901D01*
X+9800000Y+18823500D02*
X+9800000Y+18696500D01*
X+9736500Y+18760000D02*
X+9863500Y+18760000D01*
X+9755099Y+18804901D02*
X+9844901Y+18715099D01*
X+9755099Y+18715099D02*
X+9844901Y+18804901D01*
X+3800000Y+20063500D02*
X+3800000Y+19936500D01*
X+3736500Y+20000000D02*
X+3863500Y+20000000D01*
X+3755099Y+20044901D02*
X+3844901Y+19955099D01*
X+3755099Y+19955099D02*
X+3844901Y+20044901D01*
X+3800000Y+19809500D02*
X+3800000Y+19682500D01*
X+3736500Y+19746000D02*
X+3863500Y+19746000D01*
X+3755099Y+19790901D02*
X+3844901Y+19701099D01*
X+3755099Y+19701099D02*
X+3844901Y+19790901D01*
X+3800000Y+19555500D02*
X+3800000Y+19428500D01*
X+3736500Y+19492000D02*
X+3863500Y+19492000D01*
X+3755099Y+19536901D02*
X+3844901Y+19447099D01*
X+3755099Y+19447099D02*
X+3844901Y+19536901D01*
X+3800000Y+19301500D02*
X+3800000Y+19174500D01*
X+3736500Y+19238000D02*
X+3863500Y+19238000D01*
X+3755099Y+19282901D02*
X+3844901Y+19193099D01*
X+3755099Y+19193099D02*
X+3844901Y+19282901D01*
X+3800000Y+19047500D02*
X+3800000Y+18920500D01*
X+3736500Y+18984000D02*
X+3863500Y+18984000D01*
X+3755099Y+19028901D02*
X+3844901Y+18939099D01*
X+3755099Y+18939099D02*
X+3844901Y+19028901D01*
X+3800000Y+18793500D02*
X+3800000Y+18666500D01*
X+3736500Y+18730000D02*
X+3863500Y+18730000D01*
X+3755099Y+18774901D02*
X+3844901Y+18685099D01*
X+3755099Y+18685099D02*
X+3844901Y+18774901D01*
X+3655099Y+20590901D02*
X+3744901Y+20501099D01*
X+3655099Y+20501099D02*
X+3744901Y+20590901D01*
X+3909099Y+20590901D02*
X+3998901Y+20501099D01*
X+3909099Y+20501099D02*
X+3998901Y+20590901D01*
X+9755099Y+20474901D02*
X+9844901Y+20385099D01*
X+9755099Y+20385099D02*
X+9844901Y+20474901D01*
X+9755099Y+20728901D02*
X+9844901Y+20639099D01*
X+9755099Y+20639099D02*
X+9844901Y+20728901D01*
X+1855099Y+17544901D02*
X+1944901Y+17455099D01*
X+1855099Y+17455099D02*
X+1944901Y+17544901D01*
X+2871099Y+17544901D02*
X+2960901Y+17455099D01*
X+2871099Y+17455099D02*
X+2960901Y+17544901D01*
X+3800000Y+17917500D02*
X+3800000Y+17790500D01*
X+3736500Y+17854000D02*
X+3863500Y+17854000D01*
X+3755099Y+17898901D02*
X+3844901Y+17809099D01*
X+3755099Y+17809099D02*
X+3844901Y+17898901D01*
X+3800000Y+17663500D02*
X+3800000Y+17536500D01*
X+3736500Y+17600000D02*
X+3863500Y+17600000D01*
X+3755099Y+17644901D02*
X+3844901Y+17555099D01*
X+3755099Y+17555099D02*
X+3844901Y+17644901D01*
X+563500Y+21500000D02*
X+563283Y+21505247D01*
X+561518Y+21515742D01*
X+557826Y+21526237D01*
X+551798Y+21536732D01*
X+542576Y+21547112D01*
X+532081Y+21554800D01*
X+521586Y+21559718D01*
X+511091Y+21562524D01*
X+500596Y+21563497D01*
X+500000Y+21563500D01*
X+436500Y+21500000D02*
X+436717Y+21505247D01*
X+438482Y+21515742D01*
X+442174Y+21526237D01*
X+448202Y+21536732D01*
X+457424Y+21547112D01*
X+467919Y+21554800D01*
X+478414Y+21559718D01*
X+488909Y+21562524D01*
X+499404Y+21563497D01*
X+500000Y+21563500D01*
X+436500Y+21500000D02*
X+436717Y+21494753D01*
X+438482Y+21484258D01*
X+442174Y+21473763D01*
X+448202Y+21463268D01*
X+457424Y+21452888D01*
X+467919Y+21445200D01*
X+478414Y+21440282D01*
X+488909Y+21437476D01*
X+499404Y+21436503D01*
X+500000Y+21436500D01*
X+563500Y+21500000D02*
X+563283Y+21494753D01*
X+561518Y+21484258D01*
X+557826Y+21473763D01*
X+551798Y+21463268D01*
X+542576Y+21452888D01*
X+532081Y+21445200D01*
X+521586Y+21440282D01*
X+511091Y+21437476D01*
X+500596Y+21436503D01*
X+500000Y+21436500D01*
X+455099Y+21544901D02*
X+544901Y+21455099D01*
X+455099Y+21455099D02*
X+544901Y+21544901D01*
X+563500Y+17300000D02*
X+563283Y+17305247D01*
X+561518Y+17315742D01*
X+557826Y+17326237D01*
X+551798Y+17336732D01*
X+542576Y+17347112D01*
X+532081Y+17354800D01*
X+521586Y+17359718D01*
X+511091Y+17362524D01*
X+500596Y+17363497D01*
X+500000Y+17363500D01*
X+436500Y+17300000D02*
X+436717Y+17305247D01*
X+438482Y+17315742D01*
X+442174Y+17326237D01*
X+448202Y+17336732D01*
X+457424Y+17347112D01*
X+467919Y+17354800D01*
X+478414Y+17359718D01*
X+488909Y+17362524D01*
X+499404Y+17363497D01*
X+500000Y+17363500D01*
X+436500Y+17300000D02*
X+436717Y+17294753D01*
X+438482Y+17284258D01*
X+442174Y+17273763D01*
X+448202Y+17263268D01*
X+457424Y+17252888D01*
X+467919Y+17245200D01*
X+478414Y+17240282D01*
X+488909Y+17237476D01*
X+499404Y+17236503D01*
X+500000Y+17236500D01*
X+563500Y+17300000D02*
X+563283Y+17294753D01*
X+561518Y+17284258D01*
X+557826Y+17273763D01*
X+551798Y+17263268D01*
X+542576Y+17252888D01*
X+532081Y+17245200D01*
X+521586Y+17240282D01*
X+511091Y+17237476D01*
X+500596Y+17236503D01*
X+500000Y+17236500D01*
X+455099Y+17344901D02*
X+544901Y+17255099D01*
X+455099Y+17255099D02*
X+544901Y+17344901D01*
X+5063500Y+17300000D02*
X+5063283Y+17305247D01*
X+5061518Y+17315742D01*
X+5057826Y+17326237D01*
X+5051798Y+17336732D01*
X+5042576Y+17347112D01*
X+5032081Y+17354800D01*
X+5021586Y+17359718D01*
X+5011091Y+17362524D01*
X+5000596Y+17363497D01*
X+5000000Y+17363500D01*
X+4936500Y+17300000D02*
X+4936717Y+17305247D01*
X+4938482Y+17315742D01*
X+4942174Y+17326237D01*
X+4948202Y+17336732D01*
X+4957424Y+17347112D01*
X+4967919Y+17354800D01*
X+4978414Y+17359718D01*
X+4988909Y+17362524D01*
X+4999404Y+17363497D01*
X+5000000Y+17363500D01*
X+4936500Y+17300000D02*
X+4936717Y+17294753D01*
X+4938482Y+17284258D01*
X+4942174Y+17273763D01*
X+4948202Y+17263268D01*
X+4957424Y+17252888D01*
X+4967919Y+17245200D01*
X+4978414Y+17240282D01*
X+4988909Y+17237476D01*
X+4999404Y+17236503D01*
X+5000000Y+17236500D01*
X+5063500Y+17300000D02*
X+5063283Y+17294753D01*
X+5061518Y+17284258D01*
X+5057826Y+17273763D01*
X+5051798Y+17263268D01*
X+5042576Y+17252888D01*
X+5032081Y+17245200D01*
X+5021586Y+17240282D01*
X+5011091Y+17237476D01*
X+5000596Y+17236503D01*
X+5000000Y+17236500D01*
X+4955099Y+17344901D02*
X+5044901Y+17255099D01*
X+4955099Y+17255099D02*
X+5044901Y+17344901D01*
X+5063500Y+21500000D02*
X+5063283Y+21505247D01*
X+5061518Y+21515742D01*
X+5057826Y+21526237D01*
X+5051798Y+21536732D01*
X+5042576Y+21547112D01*
X+5032081Y+21554800D01*
X+5021586Y+21559718D01*
X+5011091Y+21562524D01*
X+5000596Y+21563497D01*
X+5000000Y+21563500D01*
X+4936500Y+21500000D02*
X+4936717Y+21505247D01*
X+4938482Y+21515742D01*
X+4942174Y+21526237D01*
X+4948202Y+21536732D01*
X+4957424Y+21547112D01*
X+4967919Y+21554800D01*
X+4978414Y+21559718D01*
X+4988909Y+21562524D01*
X+4999404Y+21563497D01*
X+5000000Y+21563500D01*
X+4936500Y+21500000D02*
X+4936717Y+21494753D01*
X+4938482Y+21484258D01*
X+4942174Y+21473763D01*
X+4948202Y+21463268D01*
X+4957424Y+21452888D01*
X+4967919Y+21445200D01*
X+4978414Y+21440282D01*
X+4988909Y+21437476D01*
X+4999404Y+21436503D01*
X+5000000Y+21436500D01*
X+5063500Y+21500000D02*
X+5063283Y+21494753D01*
X+5061518Y+21484258D01*
X+5057826Y+21473763D01*
X+5051798Y+21463268D01*
X+5042576Y+21452888D01*
X+5032081Y+21445200D01*
X+5021586Y+21440282D01*
X+5011091Y+21437476D01*
X+5000596Y+21436503D01*
X+5000000Y+21436500D01*
X+4955099Y+21544901D02*
X+5044901Y+21455099D01*
X+4955099Y+21455099D02*
X+5044901Y+21544901D01*
X+6563500Y+21500000D02*
X+6563283Y+21505247D01*
X+6561518Y+21515742D01*
X+6557826Y+21526237D01*
X+6551798Y+21536732D01*
X+6542576Y+21547112D01*
X+6532081Y+21554800D01*
X+6521586Y+21559718D01*
X+6511091Y+21562524D01*
X+6500596Y+21563497D01*
X+6500000Y+21563500D01*
X+6436500Y+21500000D02*
X+6436717Y+21505247D01*
X+6438482Y+21515742D01*
X+6442174Y+21526237D01*
X+6448202Y+21536732D01*
X+6457424Y+21547112D01*
X+6467919Y+21554800D01*
X+6478414Y+21559718D01*
X+6488909Y+21562524D01*
X+6499404Y+21563497D01*
X+6500000Y+21563500D01*
X+6436500Y+21500000D02*
X+6436717Y+21494753D01*
X+6438482Y+21484258D01*
X+6442174Y+21473763D01*
X+6448202Y+21463268D01*
X+6457424Y+21452888D01*
X+6467919Y+21445200D01*
X+6478414Y+21440282D01*
X+6488909Y+21437476D01*
X+6499404Y+21436503D01*
X+6500000Y+21436500D01*
X+6563500Y+21500000D02*
X+6563283Y+21494753D01*
X+6561518Y+21484258D01*
X+6557826Y+21473763D01*
X+6551798Y+21463268D01*
X+6542576Y+21452888D01*
X+6532081Y+21445200D01*
X+6521586Y+21440282D01*
X+6511091Y+21437476D01*
X+6500596Y+21436503D01*
X+6500000Y+21436500D01*
X+6455099Y+21544901D02*
X+6544901Y+21455099D01*
X+6455099Y+21455099D02*
X+6544901Y+21544901D01*
X+6563500Y+17300000D02*
X+6563283Y+17305247D01*
X+6561518Y+17315742D01*
X+6557826Y+17326237D01*
X+6551798Y+17336732D01*
X+6542576Y+17347112D01*
X+6532081Y+17354800D01*
X+6521586Y+17359718D01*
X+6511091Y+17362524D01*
X+6500596Y+17363497D01*
X+6500000Y+17363500D01*
X+6436500Y+17300000D02*
X+6436717Y+17305247D01*
X+6438482Y+17315742D01*
X+6442174Y+17326237D01*
X+6448202Y+17336732D01*
X+6457424Y+17347112D01*
X+6467919Y+17354800D01*
X+6478414Y+17359718D01*
X+6488909Y+17362524D01*
X+6499404Y+17363497D01*
X+6500000Y+17363500D01*
X+6436500Y+17300000D02*
X+6436717Y+17294753D01*
X+6438482Y+17284258D01*
X+6442174Y+17273763D01*
X+6448202Y+17263268D01*
X+6457424Y+17252888D01*
X+6467919Y+17245200D01*
X+6478414Y+17240282D01*
X+6488909Y+17237476D01*
X+6499404Y+17236503D01*
X+6500000Y+17236500D01*
X+6563500Y+17300000D02*
X+6563283Y+17294753D01*
X+6561518Y+17284258D01*
X+6557826Y+17273763D01*
X+6551798Y+17263268D01*
X+6542576Y+17252888D01*
X+6532081Y+17245200D01*
X+6521586Y+17240282D01*
X+6511091Y+17237476D01*
X+6500596Y+17236503D01*
X+6500000Y+17236500D01*
X+6455099Y+17344901D02*
X+6544901Y+17255099D01*
X+6455099Y+17255099D02*
X+6544901Y+17344901D01*
X+10663500Y+17300000D02*
X+10663283Y+17305247D01*
X+10661518Y+17315742D01*
X+10657826Y+17326237D01*
X+10651798Y+17336732D01*
X+10642576Y+17347112D01*
X+10632081Y+17354800D01*
X+10621586Y+17359718D01*
X+10611091Y+17362524D01*
X+10600596Y+17363497D01*
X+10600000Y+17363500D01*
X+10536500Y+17300000D02*
X+10536717Y+17305247D01*
X+10538482Y+17315742D01*
X+10542174Y+17326237D01*
X+10548202Y+17336732D01*
X+10557424Y+17347112D01*
X+10567919Y+17354800D01*
X+10578414Y+17359718D01*
X+10588909Y+17362524D01*
X+10599404Y+17363497D01*
X+10600000Y+17363500D01*
X+10536500Y+17300000D02*
X+10536717Y+17294753D01*
X+10538482Y+17284258D01*
X+10542174Y+17273763D01*
X+10548202Y+17263268D01*
X+10557424Y+17252888D01*
X+10567919Y+17245200D01*
X+10578414Y+17240282D01*
X+10588909Y+17237476D01*
X+10599404Y+17236503D01*
X+10600000Y+17236500D01*
X+10663500Y+17300000D02*
X+10663283Y+17294753D01*
X+10661518Y+17284258D01*
X+10657826Y+17273763D01*
X+10651798Y+17263268D01*
X+10642576Y+17252888D01*
X+10632081Y+17245200D01*
X+10621586Y+17240282D01*
X+10611091Y+17237476D01*
X+10600596Y+17236503D01*
X+10600000Y+17236500D01*
X+10555099Y+17344901D02*
X+10644901Y+17255099D01*
X+10555099Y+17255099D02*
X+10644901Y+17344901D01*
X+10663500Y+21500000D02*
X+10663283Y+21505247D01*
X+10661518Y+21515742D01*
X+10657826Y+21526237D01*
X+10651798Y+21536732D01*
X+10642576Y+21547112D01*
X+10632081Y+21554800D01*
X+10621586Y+21559718D01*
X+10611091Y+21562524D01*
X+10600596Y+21563497D01*
X+10600000Y+21563500D01*
X+10536500Y+21500000D02*
X+10536717Y+21505247D01*
X+10538482Y+21515742D01*
X+10542174Y+21526237D01*
X+10548202Y+21536732D01*
X+10557424Y+21547112D01*
X+10567919Y+21554800D01*
X+10578414Y+21559718D01*
X+10588909Y+21562524D01*
X+10599404Y+21563497D01*
X+10600000Y+21563500D01*
X+10536500Y+21500000D02*
X+10536717Y+21494753D01*
X+10538482Y+21484258D01*
X+10542174Y+21473763D01*
X+10548202Y+21463268D01*
X+10557424Y+21452888D01*
X+10567919Y+21445200D01*
X+10578414Y+21440282D01*
X+10588909Y+21437476D01*
X+10599404Y+21436503D01*
X+10600000Y+21436500D01*
X+10663500Y+21500000D02*
X+10663283Y+21494753D01*
X+10661518Y+21484258D01*
X+10657826Y+21473763D01*
X+10651798Y+21463268D01*
X+10642576Y+21452888D01*
X+10632081Y+21445200D01*
X+10621586Y+21440282D01*
X+10611091Y+21437476D01*
X+10600596Y+21436503D01*
X+10600000Y+21436500D01*
X+10555099Y+21544901D02*
X+10644901Y+21455099D01*
X+10555099Y+21455099D02*
X+10644901Y+21544901D01*
X+0Y+0D02*
X+5500000Y+0D01*
X+5500000Y+5200000D01*
X+0Y+5200000D01*
X+0Y+0D01*
X+6000000Y+0D02*
X+11100000Y+0D01*
X+11100000Y+5200000D01*
X+6000000Y+5200000D01*
X+6000000Y+0D01*
X+0Y+5600000D02*
X+5500000Y+5600000D01*
X+5500000Y+10800000D01*
X+0Y+10800000D01*
X+0Y+5600000D01*
X+6000000Y+5600000D02*
X+11100000Y+5600000D01*
X+11100000Y+10800000D01*
X+6000000Y+10800000D01*
X+6000000Y+5600000D01*
X+0Y+11200000D02*
X+5500000Y+11200000D01*
X+5500000Y+16400000D01*
X+0Y+16400000D01*
X+0Y+11200000D01*
X+6000000Y+11200000D02*
X+11100000Y+11200000D01*
X+11100000Y+16400000D01*
X+6000000Y+16400000D01*
X+6000000Y+11200000D01*
X+0Y+16800000D02*
X+5500000Y+16800000D01*
X+5500000Y+22000000D01*
X+0Y+22000000D01*
X+0Y+16800000D01*
X+6000000Y+16800000D02*
X+11100000Y+16800000D01*
X+11100000Y+22000000D01*
X+6000000Y+22000000D01*
X+6000000Y+16800000D01*
D18*
X-572720Y-2277060D02*
X+2071420Y-2277060D01*
X+2071420Y-791160D01*
X-572720Y-791160D01*
X-572720Y-2277060D01*
D19*
X-105358Y-791160D02*
X-105358Y-2277060D01*
X+707442Y-791160D02*
X+707442Y-2277060D01*
X+1540562Y-791160D02*
X+1540562Y-2277060D01*
X-572720Y-1064210D02*
X+2071420Y-1064210D01*
X-572720Y-1305510D02*
X+2071420Y-1305510D01*
X-572720Y-1546810D02*
X+2071420Y-1546810D01*
X-572720Y-1788110D02*
X+2071420Y-1788110D01*
X-572720Y-2029410D02*
X+2071420Y-2029410D01*
D18*
X-515570Y-954990D02*
X-500330Y-970230D01*
X-439370Y-970230D01*
X-424130Y-954990D01*
X-424130Y-939750D01*
X-439370Y-924510D01*
X-500330Y-924510D01*
X-515570Y-909270D01*
X-515570Y-894030D01*
X-500330Y-878790D01*
X-439370Y-878790D01*
X-424130Y-894030D01*
X-302210Y-878790D02*
X-393650Y-970230D01*
X-393650Y-878790D02*
X-347930Y-924510D01*
X-271730Y-970230D02*
X-271730Y-878790D01*
X-226010Y-924510D01*
X-180290Y-878790D01*
X-180290Y-970230D01*
X-48210Y-954990D02*
X-32970Y-970230D01*
X+27990Y-970230D01*
X+43230Y-954990D01*
X+43230Y-939750D01*
X+27990Y-924510D01*
X-32970Y-924510D01*
X-48210Y-909270D01*
X-48210Y-894030D01*
X-32970Y-878790D01*
X+27990Y-878790D01*
X+43230Y-894030D01*
X+88950Y-878790D02*
X+149910Y-878790D01*
X+119430Y-878790D02*
X+119430Y-970230D01*
X+88950Y-970230D02*
X+149910Y-970230D01*
X+195630Y-878790D02*
X+287070Y-878790D01*
X+195630Y-970230D01*
X+287070Y-970230D01*
X+408990Y-970230D02*
X+317550Y-970230D01*
X+317550Y-878790D01*
X+408990Y-878790D01*
X+317550Y-924510D02*
X+378510Y-924510D01*
X+764590Y-970230D02*
X+764590Y-878790D01*
X+840790Y-878790D01*
X+856030Y-894030D01*
X+856030Y-909270D01*
X+840790Y-924510D01*
X+764590Y-924510D01*
X+886510Y-878790D02*
X+886510Y-970230D01*
X+977950Y-970230D01*
X+1008430Y-970230D02*
X+1008430Y-909270D01*
X+1038910Y-878790D01*
X+1069390Y-878790D01*
X+1099870Y-909270D01*
X+1099870Y-970230D01*
X+1008430Y-939750D02*
X+1099870Y-939750D01*
X+1130350Y-878790D02*
X+1221790Y-878790D01*
X+1176070Y-878790D02*
X+1176070Y-970230D01*
X+1343710Y-970230D02*
X+1252270Y-970230D01*
X+1252270Y-878790D01*
X+1343710Y-878790D01*
X+1252270Y-924510D02*
X+1313230Y-924510D01*
X+1374190Y-970230D02*
X+1374190Y-878790D01*
X+1435150Y-878790D01*
X+1465630Y-909270D01*
X+1465630Y-939750D01*
X+1435150Y-970230D01*
X+1374190Y-970230D01*
X+1597710Y-909270D02*
X+1628190Y-878790D01*
X+1658670Y-878790D01*
X+1689150Y-909270D01*
X+1689150Y-939750D01*
X+1658670Y-970230D01*
X+1628190Y-970230D01*
X+1597710Y-939750D01*
X+1597710Y-909270D01*
X+1658670Y-939750D02*
X+1689150Y-970230D01*
X+1719630Y-878790D02*
X+1811070Y-878790D01*
X+1765350Y-878790D02*
X+1765350Y-970230D01*
X+1932990Y-878790D02*
X+1841550Y-970230D01*
X+1841550Y-878790D02*
X+1887270Y-924510D01*
D17*
X-326340Y-1115010D02*
X-326340Y-1242010D01*
X-389840Y-1178510D02*
X-262840Y-1178510D01*
D18*
X-29160Y-1203910D02*
X-29160Y-1153110D01*
X-16460Y-1140410D01*
X+34340Y-1140410D01*
X+47040Y-1153110D01*
X+47040Y-1203910D01*
X+34340Y-1216610D01*
X-16460Y-1216610D01*
X-29160Y-1203910D01*
X-29160Y-1216610D02*
X+47040Y-1140410D01*
X+110540Y-1203910D02*
X+123240Y-1203910D01*
X+123240Y-1216610D01*
X+110540Y-1216610D01*
X+110540Y-1203910D01*
X+250240Y-1140410D02*
X+186740Y-1140410D01*
X+186740Y-1165810D01*
X+237540Y-1165810D01*
X+250240Y-1178510D01*
X+250240Y-1203910D01*
X+237540Y-1216610D01*
X+199440Y-1216610D01*
X+186740Y-1203910D01*
X+275640Y-1203910D02*
X+275640Y-1153110D01*
X+288340Y-1140410D01*
X+339140Y-1140410D01*
X+351840Y-1153110D01*
X+351840Y-1203910D01*
X+339140Y-1216610D01*
X+288340Y-1216610D01*
X+275640Y-1203910D01*
X+275640Y-1216610D02*
X+351840Y-1140410D01*
X+402640Y-1178510D02*
X+389940Y-1165810D01*
X+389940Y-1153110D01*
X+402640Y-1140410D01*
X+440740Y-1140410D01*
X+453440Y-1153110D01*
X+453440Y-1165810D01*
X+440740Y-1178510D01*
X+402640Y-1178510D01*
X+389940Y-1191210D01*
X+389940Y-1203910D01*
X+402640Y-1216610D01*
X+440740Y-1216610D01*
X+453440Y-1203910D01*
X+453440Y-1191210D01*
X+440740Y-1178510D01*
X+478840Y-1216610D02*
X+478840Y-1165810D01*
X+478840Y-1178510D02*
X+491540Y-1165810D01*
X+516940Y-1191210D01*
X+542340Y-1165810D01*
X+555040Y-1178510D01*
X+555040Y-1216610D01*
X+580440Y-1216610D02*
X+580440Y-1165810D01*
X+580440Y-1178510D02*
X+593140Y-1165810D01*
X+618540Y-1191210D01*
X+643940Y-1165810D01*
X+656640Y-1178510D01*
X+656640Y-1216610D01*
X+872540Y-1140410D02*
X+796340Y-1216610D01*
X+796340Y-1140410D02*
X+834440Y-1178510D01*
X+974140Y-1216610D02*
X+897940Y-1216610D01*
X+897940Y-1140410D01*
X+974140Y-1140410D01*
X+897940Y-1178510D02*
X+948740Y-1178510D01*
X+999540Y-1203910D02*
X+1012240Y-1216610D01*
X+1063040Y-1216610D01*
X+1075740Y-1203910D01*
X+1075740Y-1191210D01*
X+1063040Y-1178510D01*
X+1012240Y-1178510D01*
X+999540Y-1165810D01*
X+999540Y-1153110D01*
X+1012240Y-1140410D01*
X+1063040Y-1140410D01*
X+1075740Y-1153110D01*
X+1667560Y-1178510D02*
X+1654860Y-1165810D01*
X+1654860Y-1153110D01*
X+1667560Y-1140410D01*
X+1705660Y-1140410D01*
X+1718360Y-1153110D01*
X+1718360Y-1165810D01*
X+1705660Y-1178510D01*
X+1667560Y-1178510D01*
X+1654860Y-1191210D01*
X+1654860Y-1203910D01*
X+1667560Y-1216610D01*
X+1705660Y-1216610D01*
X+1718360Y-1203910D01*
X+1718360Y-1191210D01*
X+1705660Y-1178510D01*
D17*
X-371241Y-1374909D02*
X-281439Y-1464711D01*
X-371241Y-1464711D02*
X-281439Y-1374909D01*
D18*
X-29160Y-1445210D02*
X-29160Y-1394410D01*
X-16460Y-1381710D01*
X+34340Y-1381710D01*
X+47040Y-1394410D01*
X+47040Y-1445210D01*
X+34340Y-1457910D01*
X-16460Y-1457910D01*
X-29160Y-1445210D01*
X-29160Y-1457910D02*
X+47040Y-1381710D01*
X+110540Y-1445210D02*
X+123240Y-1445210D01*
X+123240Y-1457910D01*
X+110540Y-1457910D01*
X+110540Y-1445210D01*
X+186740Y-1381710D02*
X+250240Y-1381710D01*
X+250240Y-1394410D01*
X+186740Y-1457910D01*
X+351840Y-1394410D02*
X+339140Y-1381710D01*
X+301040Y-1381710D01*
X+288340Y-1394410D01*
X+288340Y-1445210D01*
X+301040Y-1457910D01*
X+339140Y-1457910D01*
X+351840Y-1445210D01*
X+351840Y-1432510D01*
X+339140Y-1419810D01*
X+288340Y-1419810D01*
X+389940Y-1394410D02*
X+402640Y-1381710D01*
X+440740Y-1381710D01*
X+453440Y-1394410D01*
X+453440Y-1407110D01*
X+440740Y-1419810D01*
X+402640Y-1419810D01*
X+389940Y-1432510D01*
X+389940Y-1457910D01*
X+453440Y-1457910D01*
X+478840Y-1457910D02*
X+478840Y-1407110D01*
X+478840Y-1419810D02*
X+491540Y-1407110D01*
X+516940Y-1432510D01*
X+542340Y-1407110D01*
X+555040Y-1419810D01*
X+555040Y-1457910D01*
X+580440Y-1457910D02*
X+580440Y-1407110D01*
X+580440Y-1419810D02*
X+593140Y-1407110D01*
X+618540Y-1432510D01*
X+643940Y-1407110D01*
X+656640Y-1419810D01*
X+656640Y-1457910D01*
X+872540Y-1381710D02*
X+796340Y-1457910D01*
X+796340Y-1381710D02*
X+834440Y-1419810D01*
X+974140Y-1457910D02*
X+897940Y-1457910D01*
X+897940Y-1381710D01*
X+974140Y-1381710D01*
X+897940Y-1419810D02*
X+948740Y-1419810D01*
X+999540Y-1445210D02*
X+1012240Y-1457910D01*
X+1063040Y-1457910D01*
X+1075740Y-1445210D01*
X+1075740Y-1432510D01*
X+1063040Y-1419810D01*
X+1012240Y-1419810D01*
X+999540Y-1407110D01*
X+999540Y-1394410D01*
X+1012240Y-1381710D01*
X+1063040Y-1381710D01*
X+1075740Y-1394410D01*
X+1718360Y-1394410D02*
X+1705660Y-1381710D01*
X+1667560Y-1381710D01*
X+1654860Y-1394410D01*
X+1654860Y-1445210D01*
X+1667560Y-1457910D01*
X+1705660Y-1457910D01*
X+1718360Y-1445210D01*
X+1718360Y-1432510D01*
X+1705660Y-1419810D01*
X+1654860Y-1419810D01*
X+1819960Y-1432510D02*
X+1743760Y-1432510D01*
X+1794560Y-1381710D01*
X+1794560Y-1457910D01*
D17*
X-326340Y-1597610D02*
X-326340Y-1724610D01*
X-389840Y-1661110D02*
X-262840Y-1661110D01*
X-371241Y-1616209D02*
X-281439Y-1706011D01*
X-371241Y-1706011D02*
X-281439Y-1616209D01*
D18*
X-3760Y-1648410D02*
X+21640Y-1623010D01*
X+21640Y-1699210D01*
X+110540Y-1686510D02*
X+123240Y-1686510D01*
X+123240Y-1699210D01*
X+110540Y-1699210D01*
X+110540Y-1686510D01*
X+174040Y-1686510D02*
X+174040Y-1635710D01*
X+186740Y-1623010D01*
X+237540Y-1623010D01*
X+250240Y-1635710D01*
X+250240Y-1686510D01*
X+237540Y-1699210D01*
X+186740Y-1699210D01*
X+174040Y-1686510D01*
X+174040Y-1699210D02*
X+250240Y-1623010D01*
X+301040Y-1648410D02*
X+326440Y-1623010D01*
X+326440Y-1699210D01*
X+453440Y-1635710D02*
X+440740Y-1623010D01*
X+402640Y-1623010D01*
X+389940Y-1635710D01*
X+389940Y-1686510D01*
X+402640Y-1699210D01*
X+440740Y-1699210D01*
X+453440Y-1686510D01*
X+453440Y-1673810D01*
X+440740Y-1661110D01*
X+389940Y-1661110D01*
X+478840Y-1699210D02*
X+478840Y-1648410D01*
X+478840Y-1661110D02*
X+491540Y-1648410D01*
X+516940Y-1673810D01*
X+542340Y-1648410D01*
X+555040Y-1661110D01*
X+555040Y-1699210D01*
X+580440Y-1699210D02*
X+580440Y-1648410D01*
X+580440Y-1661110D02*
X+593140Y-1648410D01*
X+618540Y-1673810D01*
X+643940Y-1648410D01*
X+656640Y-1661110D01*
X+656640Y-1699210D01*
X+872540Y-1623010D02*
X+796340Y-1699210D01*
X+796340Y-1623010D02*
X+834440Y-1661110D01*
X+974140Y-1699210D02*
X+897940Y-1699210D01*
X+897940Y-1623010D01*
X+974140Y-1623010D01*
X+897940Y-1661110D02*
X+948740Y-1661110D01*
X+999540Y-1686510D02*
X+1012240Y-1699210D01*
X+1063040Y-1699210D01*
X+1075740Y-1686510D01*
X+1075740Y-1673810D01*
X+1063040Y-1661110D01*
X+1012240Y-1661110D01*
X+999540Y-1648410D01*
X+999540Y-1635710D01*
X+1012240Y-1623010D01*
X+1063040Y-1623010D01*
X+1075740Y-1635710D01*
X+1718360Y-1635710D02*
X+1705660Y-1623010D01*
X+1667560Y-1623010D01*
X+1654860Y-1635710D01*
X+1654860Y-1686510D01*
X+1667560Y-1699210D01*
X+1705660Y-1699210D01*
X+1718360Y-1686510D01*
X+1718360Y-1673810D01*
X+1705660Y-1661110D01*
X+1654860Y-1661110D01*
X+1819960Y-1673810D02*
X+1743760Y-1673810D01*
X+1794560Y-1623010D01*
X+1794560Y-1699210D01*
D17*
X-262840Y-1902410D02*
X-263057Y-1897163D01*
X-264822Y-1886668D01*
X-268514Y-1876173D01*
X-274542Y-1865678D01*
X-283764Y-1855298D01*
X-294259Y-1847610D01*
X-304754Y-1842692D01*
X-315249Y-1839886D01*
X-325744Y-1838913D01*
X-326340Y-1838910D01*
X-389840Y-1902410D02*
X-389623Y-1897163D01*
X-387858Y-1886668D01*
X-384166Y-1876173D01*
X-378138Y-1865678D01*
X-368916Y-1855298D01*
X-358421Y-1847610D01*
X-347926Y-1842692D01*
X-337431Y-1839886D01*
X-326936Y-1838913D01*
X-326340Y-1838910D01*
X-389840Y-1902410D02*
X-389623Y-1907657D01*
X-387858Y-1918152D01*
X-384166Y-1928647D01*
X-378138Y-1939142D01*
X-368916Y-1949522D01*
X-358421Y-1957210D01*
X-347926Y-1962128D01*
X-337431Y-1964934D01*
X-326936Y-1965907D01*
X-326340Y-1965910D01*
X-262840Y-1902410D02*
X-263057Y-1907657D01*
X-264822Y-1918152D01*
X-268514Y-1928647D01*
X-274542Y-1939142D01*
X-283764Y-1949522D01*
X-294259Y-1957210D01*
X-304754Y-1962128D01*
X-315249Y-1964934D01*
X-325744Y-1965907D01*
X-326340Y-1965910D01*
X-326340Y-1838910D02*
X-326340Y-1965910D01*
X-389840Y-1902410D02*
X-262840Y-1902410D01*
D18*
X-3760Y-1889710D02*
X+21640Y-1864310D01*
X+21640Y-1940510D01*
X+110540Y-1927810D02*
X+123240Y-1927810D01*
X+123240Y-1940510D01*
X+110540Y-1940510D01*
X+110540Y-1927810D01*
X+250240Y-1864310D02*
X+186740Y-1864310D01*
X+186740Y-1889710D01*
X+237540Y-1889710D01*
X+250240Y-1902410D01*
X+250240Y-1927810D01*
X+237540Y-1940510D01*
X+199440Y-1940510D01*
X+186740Y-1927810D01*
X+288340Y-1877010D02*
X+301040Y-1864310D01*
X+339140Y-1864310D01*
X+351840Y-1877010D01*
X+351840Y-1889710D01*
X+339140Y-1902410D01*
X+301040Y-1902410D01*
X+288340Y-1915110D01*
X+288340Y-1940510D01*
X+351840Y-1940510D01*
X+453440Y-1915110D02*
X+377240Y-1915110D01*
X+428040Y-1864310D01*
X+428040Y-1940510D01*
X+478840Y-1940510D02*
X+478840Y-1889710D01*
X+478840Y-1902410D02*
X+491540Y-1889710D01*
X+516940Y-1915110D01*
X+542340Y-1889710D01*
X+555040Y-1902410D01*
X+555040Y-1940510D01*
X+580440Y-1940510D02*
X+580440Y-1889710D01*
X+580440Y-1902410D02*
X+593140Y-1889710D01*
X+618540Y-1915110D01*
X+643940Y-1889710D01*
X+656640Y-1902410D01*
X+656640Y-1940510D01*
X+872540Y-1864310D02*
X+796340Y-1940510D01*
X+796340Y-1864310D02*
X+834440Y-1902410D01*
X+974140Y-1940510D02*
X+897940Y-1940510D01*
X+897940Y-1864310D01*
X+974140Y-1864310D01*
X+897940Y-1902410D02*
X+948740Y-1902410D01*
X+999540Y-1927810D02*
X+1012240Y-1940510D01*
X+1063040Y-1940510D01*
X+1075740Y-1927810D01*
X+1075740Y-1915110D01*
X+1063040Y-1902410D01*
X+1012240Y-1902410D01*
X+999540Y-1889710D01*
X+999540Y-1877010D01*
X+1012240Y-1864310D01*
X+1063040Y-1864310D01*
X+1075740Y-1877010D01*
X+1718360Y-1877010D02*
X+1705660Y-1864310D01*
X+1667560Y-1864310D01*
X+1654860Y-1877010D01*
X+1654860Y-1927810D01*
X+1667560Y-1940510D01*
X+1705660Y-1940510D01*
X+1718360Y-1927810D01*
X+1718360Y-1915110D01*
X+1705660Y-1902410D01*
X+1654860Y-1902410D01*
X+1743760Y-1927810D02*
X+1743760Y-1877010D01*
X+1756460Y-1864310D01*
X+1807260Y-1864310D01*
X+1819960Y-1877010D01*
X+1819960Y-1927810D01*
X+1807260Y-1940510D01*
X+1756460Y-1940510D01*
X+1743760Y-1927810D01*
X+1743760Y-1940510D02*
X+1819960Y-1864310D01*
D17*
X-262840Y-2143710D02*
X-263057Y-2138463D01*
X-264822Y-2127968D01*
X-268514Y-2117473D01*
X-274542Y-2106978D01*
X-283764Y-2096598D01*
X-294259Y-2088910D01*
X-304754Y-2083992D01*
X-315249Y-2081186D01*
X-325744Y-2080213D01*
X-326340Y-2080210D01*
X-389840Y-2143710D02*
X-389623Y-2138463D01*
X-387858Y-2127968D01*
X-384166Y-2117473D01*
X-378138Y-2106978D01*
X-368916Y-2096598D01*
X-358421Y-2088910D01*
X-347926Y-2083992D01*
X-337431Y-2081186D01*
X-326936Y-2080213D01*
X-326340Y-2080210D01*
X-389840Y-2143710D02*
X-389623Y-2148957D01*
X-387858Y-2159452D01*
X-384166Y-2169947D01*
X-378138Y-2180442D01*
X-368916Y-2190822D01*
X-358421Y-2198510D01*
X-347926Y-2203428D01*
X-337431Y-2206234D01*
X-326936Y-2207207D01*
X-326340Y-2207210D01*
X-262840Y-2143710D02*
X-263057Y-2148957D01*
X-264822Y-2159452D01*
X-268514Y-2169947D01*
X-274542Y-2180442D01*
X-283764Y-2190822D01*
X-294259Y-2198510D01*
X-304754Y-2203428D01*
X-315249Y-2206234D01*
X-325744Y-2207207D01*
X-326340Y-2207210D01*
X-371241Y-2098809D02*
X-281439Y-2188611D01*
X-371241Y-2188611D02*
X-281439Y-2098809D01*
D18*
X-16460Y-2118310D02*
X-3760Y-2105610D01*
X+34340Y-2105610D01*
X+47040Y-2118310D01*
X+47040Y-2131010D01*
X+34340Y-2143710D01*
X+47040Y-2156410D01*
X+47040Y-2169110D01*
X+34340Y-2181810D01*
X-3760Y-2181810D01*
X-16460Y-2169110D01*
X+8940Y-2143710D02*
X+34340Y-2143710D01*
X+72440Y-2181810D02*
X+72440Y-2131010D01*
X+72440Y-2143710D02*
X+85140Y-2131010D01*
X+110540Y-2156410D01*
X+135940Y-2131010D01*
X+148640Y-2143710D01*
X+148640Y-2181810D01*
X+174040Y-2181810D02*
X+174040Y-2131010D01*
X+174040Y-2143710D02*
X+186740Y-2131010D01*
X+212140Y-2156410D01*
X+237540Y-2131010D01*
X+250240Y-2143710D01*
X+250240Y-2181810D01*
X+872540Y-2105610D02*
X+796340Y-2181810D01*
X+796340Y-2105610D02*
X+834440Y-2143710D01*
X+974140Y-2181810D02*
X+897940Y-2181810D01*
X+897940Y-2105610D01*
X+974140Y-2105610D01*
X+897940Y-2143710D02*
X+948740Y-2143710D01*
X+999540Y-2169110D02*
X+1012240Y-2181810D01*
X+1063040Y-2181810D01*
X+1075740Y-2169110D01*
X+1075740Y-2156410D01*
X+1063040Y-2143710D01*
X+1012240Y-2143710D01*
X+999540Y-2131010D01*
X+999540Y-2118310D01*
X+1012240Y-2105610D01*
X+1063040Y-2105610D01*
X+1075740Y-2118310D01*
X+1654860Y-2118310D02*
X+1667560Y-2105610D01*
X+1705660Y-2105610D01*
X+1718360Y-2118310D01*
X+1718360Y-2131010D01*
X+1705660Y-2143710D01*
X+1718360Y-2156410D01*
X+1718360Y-2169110D01*
X+1705660Y-2181810D01*
X+1667560Y-2181810D01*
X+1654860Y-2169110D01*
X+1680260Y-2143710D02*
X+1705660Y-2143710D01*
X+1756460Y-2118310D02*
X+1769160Y-2105610D01*
X+1807260Y-2105610D01*
X+1819960Y-2118310D01*
X+1819960Y-2131010D01*
X+1807260Y-2143710D01*
X+1769160Y-2143710D01*
X+1756460Y-2156410D01*
X+1756460Y-2181810D01*
X+1819960Y-2181810D01*
M02*
