M48
METRIC,TZ
T01C0.5080
T02C0.7620
T03C1.5240
T04C1.0160
T05C4.0000
T06C1.1430
%
T01
X+14648Y+42352
X+14586Y+33606
X+17444Y+40482
X+17365Y+33701
X+30529Y+46036
X+30520Y+57077
X+14648Y+130352
X+14586Y+121606
X+17444Y+128482
X+17365Y+121701
X+30529Y+134036
X+30520Y+145077
X+101648Y+42352
X+101586Y+33606
X+104444Y+40482
X+104365Y+33701
X+117529Y+46036
X+117520Y+57077
X+101648Y+130352
X+101586Y+121606
X+104444Y+128482
X+104365Y+121701
X+117529Y+134036
X+117520Y+145077
X+14648Y+217352
X+14586Y+208606
X+17444Y+215482
X+17365Y+208701
X+30529Y+221036
X+30520Y+232077
X+101648Y+217352
X+101586Y+208606
X+104444Y+215482
X+104365Y+208701
X+117529Y+221036
X+117520Y+232077
T02
X+26570Y+63970
X+26570Y+61430
X+26570Y+56350
X+26570Y+53810
X+26570Y+51270
X+26570Y+48730
X+26570Y+46190
X+26570Y+43650
X+26570Y+41110
X+26570Y+38570
X+26570Y+36030
X+26570Y+33490
X+26570Y+28410
X+26570Y+25870
X+26570Y+23330
X+26570Y+20790
X+26570Y+18250
X+26570Y+15710
X+26570Y+13170
X+26570Y+10630
X+49430Y+63970
X+49430Y+61430
X+49430Y+58890
X+49430Y+56350
X+49430Y+53810
X+49430Y+51270
X+49430Y+48730
X+49430Y+46190
X+49430Y+43650
X+49430Y+41110
X+49430Y+36030
X+49430Y+33490
X+49430Y+30950
X+49430Y+28410
X+49430Y+25870
X+49430Y+23330
X+49430Y+20790
X+57000Y+64000
X+67900Y+64000
X+56800Y+45300
X+68000Y+45300
X+31000Y+10500
X+31000Y+13040
X+26570Y+151970
X+26570Y+149430
X+26570Y+144350
X+26570Y+141810
X+26570Y+139270
X+26570Y+136730
X+26570Y+134190
X+26570Y+131650
X+26570Y+129110
X+26570Y+126570
X+26570Y+124030
X+26570Y+121490
X+26570Y+116410
X+26570Y+113870
X+26570Y+111330
X+26570Y+108790
X+26570Y+106250
X+26570Y+103710
X+26570Y+101170
X+26570Y+98630
X+49430Y+151970
X+49430Y+149430
X+49430Y+146890
X+49430Y+144350
X+49430Y+141810
X+49430Y+139270
X+49430Y+136730
X+49430Y+134190
X+49430Y+131650
X+49430Y+129110
X+49430Y+124030
X+49430Y+121490
X+49430Y+118950
X+49430Y+116410
X+49430Y+113870
X+49430Y+111330
X+49430Y+108790
X+57000Y+152000
X+67900Y+152000
X+56800Y+133300
X+68000Y+133300
X+31000Y+98500
X+31000Y+101040
X+113570Y+63970
X+113570Y+61430
X+113570Y+56350
X+113570Y+53810
X+113570Y+51270
X+113570Y+48730
X+113570Y+46190
X+113570Y+43650
X+113570Y+41110
X+113570Y+38570
X+113570Y+36030
X+113570Y+33490
X+113570Y+28410
X+113570Y+25870
X+113570Y+23330
X+113570Y+20790
X+113570Y+18250
X+113570Y+15710
X+113570Y+13170
X+113570Y+10630
X+136430Y+63970
X+136430Y+61430
X+136430Y+58890
X+136430Y+56350
X+136430Y+53810
X+136430Y+51270
X+136430Y+48730
X+136430Y+46190
X+136430Y+43650
X+136430Y+41110
X+136430Y+36030
X+136430Y+33490
X+136430Y+30950
X+136430Y+28410
X+136430Y+25870
X+136430Y+23330
X+136430Y+20790
X+144000Y+64000
X+154900Y+64000
X+143800Y+45300
X+155000Y+45300
X+118000Y+10500
X+118000Y+13040
X+113570Y+151970
X+113570Y+149430
X+113570Y+144350
X+113570Y+141810
X+113570Y+139270
X+113570Y+136730
X+113570Y+134190
X+113570Y+131650
X+113570Y+129110
X+113570Y+126570
X+113570Y+124030
X+113570Y+121490
X+113570Y+116410
X+113570Y+113870
X+113570Y+111330
X+113570Y+108790
X+113570Y+106250
X+113570Y+103710
X+113570Y+101170
X+113570Y+98630
X+136430Y+151970
X+136430Y+149430
X+136430Y+146890
X+136430Y+144350
X+136430Y+141810
X+136430Y+139270
X+136430Y+136730
X+136430Y+134190
X+136430Y+131650
X+136430Y+129110
X+136430Y+124030
X+136430Y+121490
X+136430Y+118950
X+136430Y+116410
X+136430Y+113870
X+136430Y+111330
X+136430Y+108790
X+144000Y+152000
X+154900Y+152000
X+143800Y+133300
X+155000Y+133300
X+118000Y+98500
X+118000Y+101040
X+26570Y+238970
X+26570Y+236430
X+26570Y+231350
X+26570Y+228810
X+26570Y+226270
X+26570Y+223730
X+26570Y+221190
X+26570Y+218650
X+26570Y+216110
X+26570Y+213570
X+26570Y+211030
X+26570Y+208490
X+26570Y+203410
X+26570Y+200870
X+26570Y+198330
X+26570Y+195790
X+26570Y+193250
X+26570Y+190710
X+26570Y+188170
X+26570Y+185630
X+49430Y+238970
X+49430Y+236430
X+49430Y+233890
X+49430Y+231350
X+49430Y+228810
X+49430Y+226270
X+49430Y+223730
X+49430Y+221190
X+49430Y+218650
X+49430Y+216110
X+49430Y+211030
X+49430Y+208490
X+49430Y+205950
X+49430Y+203410
X+49430Y+200870
X+49430Y+198330
X+49430Y+195790
X+57000Y+239000
X+67900Y+239000
X+56800Y+220300
X+68000Y+220300
X+31000Y+185500
X+31000Y+188040
X+113570Y+238970
X+113570Y+236430
X+113570Y+231350
X+113570Y+228810
X+113570Y+226270
X+113570Y+223730
X+113570Y+221190
X+113570Y+218650
X+113570Y+216110
X+113570Y+213570
X+113570Y+211030
X+113570Y+208490
X+113570Y+203410
X+113570Y+200870
X+113570Y+198330
X+113570Y+195790
X+113570Y+193250
X+113570Y+190710
X+113570Y+188170
X+113570Y+185630
X+136430Y+238970
X+136430Y+236430
X+136430Y+233890
X+136430Y+231350
X+136430Y+228810
X+136430Y+226270
X+136430Y+223730
X+136430Y+221190
X+136430Y+218650
X+136430Y+216110
X+136430Y+211030
X+136430Y+208490
X+136430Y+205950
X+136430Y+203410
X+136430Y+200870
X+136430Y+198330
X+136430Y+195790
X+144000Y+239000
X+154900Y+239000
X+143800Y+220300
X+155000Y+220300
X+118000Y+185500
X+118000Y+188040
T03
X+62080Y+76000
X+57000Y+76000
X+49920Y+76000
X+44840Y+76000
X+16000Y+76000
X+21080Y+76000
X+62080Y+164000
X+57000Y+164000
X+49920Y+164000
X+44840Y+164000
X+16000Y+164000
X+21080Y+164000
X+149080Y+76000
X+144000Y+76000
X+136920Y+76000
X+131840Y+76000
X+103000Y+76000
X+108080Y+76000
X+149080Y+164000
X+144000Y+164000
X+136920Y+164000
X+131840Y+164000
X+103000Y+164000
X+108080Y+164000
X+62080Y+251000
X+57000Y+251000
X+49920Y+251000
X+44840Y+251000
X+16000Y+251000
X+21080Y+251000
X+149080Y+251000
X+144000Y+251000
X+136920Y+251000
X+131840Y+251000
X+103000Y+251000
X+108080Y+251000
T04
X+21840Y+28700
X+21840Y+26160
X+21840Y+23620
X+21840Y+21080
X+21840Y+18540
X+21840Y+16000
X+57000Y+40000
X+59540Y+40000
X+62080Y+40000
X+64620Y+40000
X+67160Y+40000
X+69700Y+40000
X+60000Y+5000
X+62540Y+5000
X+65080Y+5000
X+67620Y+5000
X+7840Y+64000
X+10380Y+64000
X+12920Y+64000
X+15460Y+64000
X+18000Y+64000
X+20540Y+64000
X+21340Y+36000
X+21340Y+38540
X+21340Y+41080
X+21340Y+51240
X+21340Y+53780
X+21340Y+56320
X+28000Y+76000
X+30540Y+76000
X+33080Y+76000
X+35620Y+76000
X+38160Y+76000
X+21840Y+116700
X+21840Y+114160
X+21840Y+111620
X+21840Y+109080
X+21840Y+106540
X+21840Y+104000
X+57000Y+128000
X+59540Y+128000
X+62080Y+128000
X+64620Y+128000
X+67160Y+128000
X+69700Y+128000
X+60000Y+93000
X+62540Y+93000
X+65080Y+93000
X+67620Y+93000
X+7840Y+152000
X+10380Y+152000
X+12920Y+152000
X+15460Y+152000
X+18000Y+152000
X+20540Y+152000
X+21340Y+124000
X+21340Y+126540
X+21340Y+129080
X+21340Y+139240
X+21340Y+141780
X+21340Y+144320
X+28000Y+164000
X+30540Y+164000
X+33080Y+164000
X+35620Y+164000
X+38160Y+164000
X+108840Y+28700
X+108840Y+26160
X+108840Y+23620
X+108840Y+21080
X+108840Y+18540
X+108840Y+16000
X+144000Y+40000
X+146540Y+40000
X+149080Y+40000
X+151620Y+40000
X+154160Y+40000
X+156700Y+40000
X+147000Y+5000
X+149540Y+5000
X+152080Y+5000
X+154620Y+5000
X+94840Y+64000
X+97380Y+64000
X+99920Y+64000
X+102460Y+64000
X+105000Y+64000
X+107540Y+64000
X+108340Y+36000
X+108340Y+38540
X+108340Y+41080
X+108340Y+51240
X+108340Y+53780
X+108340Y+56320
X+115000Y+76000
X+117540Y+76000
X+120080Y+76000
X+122620Y+76000
X+125160Y+76000
X+108840Y+116700
X+108840Y+114160
X+108840Y+111620
X+108840Y+109080
X+108840Y+106540
X+108840Y+104000
X+144000Y+128000
X+146540Y+128000
X+149080Y+128000
X+151620Y+128000
X+154160Y+128000
X+156700Y+128000
X+147000Y+93000
X+149540Y+93000
X+152080Y+93000
X+154620Y+93000
X+94840Y+152000
X+97380Y+152000
X+99920Y+152000
X+102460Y+152000
X+105000Y+152000
X+107540Y+152000
X+108340Y+124000
X+108340Y+126540
X+108340Y+129080
X+108340Y+139240
X+108340Y+141780
X+108340Y+144320
X+115000Y+164000
X+117540Y+164000
X+120080Y+164000
X+122620Y+164000
X+125160Y+164000
X+21840Y+203700
X+21840Y+201160
X+21840Y+198620
X+21840Y+196080
X+21840Y+193540
X+21840Y+191000
X+57000Y+215000
X+59540Y+215000
X+62080Y+215000
X+64620Y+215000
X+67160Y+215000
X+69700Y+215000
X+60000Y+180000
X+62540Y+180000
X+65080Y+180000
X+67620Y+180000
X+7840Y+239000
X+10380Y+239000
X+12920Y+239000
X+15460Y+239000
X+18000Y+239000
X+20540Y+239000
X+21340Y+211000
X+21340Y+213540
X+21340Y+216080
X+21340Y+226240
X+21340Y+228780
X+21340Y+231320
X+28000Y+251000
X+30540Y+251000
X+33080Y+251000
X+35620Y+251000
X+38160Y+251000
X+108840Y+203700
X+108840Y+201160
X+108840Y+198620
X+108840Y+196080
X+108840Y+193540
X+108840Y+191000
X+144000Y+215000
X+146540Y+215000
X+149080Y+215000
X+151620Y+215000
X+154160Y+215000
X+156700Y+215000
X+147000Y+180000
X+149540Y+180000
X+152080Y+180000
X+154620Y+180000
X+94840Y+239000
X+97380Y+239000
X+99920Y+239000
X+102460Y+239000
X+105000Y+239000
X+107540Y+239000
X+108340Y+211000
X+108340Y+213540
X+108340Y+216080
X+108340Y+226240
X+108340Y+228780
X+108340Y+231320
X+115000Y+251000
X+117540Y+251000
X+120080Y+251000
X+122620Y+251000
X+125160Y+251000
T05
X+73000Y+5000
X+5000Y+5000
X+5000Y+77000
X+73000Y+77000
X+73000Y+93000
X+5000Y+93000
X+5000Y+165000
X+73000Y+165000
X+160000Y+5000
X+92000Y+5000
X+92000Y+77000
X+160000Y+77000
X+160000Y+93000
X+92000Y+93000
X+92000Y+165000
X+160000Y+165000
X+73000Y+180000
X+5000Y+180000
X+5000Y+252000
X+73000Y+252000
X+160000Y+180000
X+92000Y+180000
X+92000Y+252000
X+160000Y+252000
T06
X+18000Y+10080
X+18000Y+5000
X+18000Y+98080
X+18000Y+93000
X+105000Y+10080
X+105000Y+5000
X+105000Y+98080
X+105000Y+93000
X+18000Y+185080
X+18000Y+180000
X+105000Y+185080
X+105000Y+180000
M30
