M48
METRIC,TZ
T01C0.5080
T02C0.7620
T03C1.5240
T04C1.0160
T05C3.0000
%
T01
X+34757Y+37508
X+34718Y+42212
X+34757Y+93508
X+34718Y+98212
X+34757Y+149508
X+34718Y+154212
X+34757Y+205508
X+34718Y+210212
T02
X+91000Y+40300
X+78000Y+40300
X+91000Y+11300
X+78000Y+11300
X+31000Y+40000
X+18000Y+40000
X+31000Y+11000
X+18000Y+11000
X+79000Y+7300
X+89160Y+7300
X+37000Y+37460
X+39540Y+37460
X+98000Y+36300
X+98000Y+38840
X+19000Y+7000
X+29160Y+7000
X+91000Y+96300
X+78000Y+96300
X+91000Y+67300
X+78000Y+67300
X+31000Y+96000
X+18000Y+96000
X+31000Y+67000
X+18000Y+67000
X+79000Y+63300
X+89160Y+63300
X+37000Y+93460
X+39540Y+93460
X+98000Y+92300
X+98000Y+94840
X+19000Y+63000
X+29160Y+63000
X+91000Y+152300
X+78000Y+152300
X+91000Y+123300
X+78000Y+123300
X+31000Y+152000
X+18000Y+152000
X+31000Y+123000
X+18000Y+123000
X+79000Y+119300
X+89160Y+119300
X+37000Y+149460
X+39540Y+149460
X+98000Y+148300
X+98000Y+150840
X+19000Y+119000
X+29160Y+119000
X+91000Y+208300
X+78000Y+208300
X+91000Y+179300
X+78000Y+179300
X+31000Y+208000
X+18000Y+208000
X+31000Y+179000
X+18000Y+179000
X+79000Y+175300
X+89160Y+175300
X+37000Y+205460
X+39540Y+205460
X+98000Y+204300
X+98000Y+206840
X+19000Y+175000
X+29160Y+175000
T03
X+7000Y+16000
X+7000Y+21080
X+7000Y+26160
X+7000Y+31240
X+7000Y+36320
X+48000Y+15980
X+48000Y+21060
X+48000Y+26140
X+48000Y+31220
X+48000Y+36300
X+67000Y+15980
X+67000Y+21060
X+67000Y+26140
X+67000Y+31220
X+67000Y+36300
X+7000Y+72000
X+7000Y+77080
X+7000Y+82160
X+7000Y+87240
X+7000Y+92320
X+48000Y+71980
X+48000Y+77060
X+48000Y+82140
X+48000Y+87220
X+48000Y+92300
X+67000Y+71980
X+67000Y+77060
X+67000Y+82140
X+67000Y+87220
X+67000Y+92300
X+7000Y+128000
X+7000Y+133080
X+7000Y+138160
X+7000Y+143240
X+7000Y+148320
X+48000Y+127980
X+48000Y+133060
X+48000Y+138140
X+48000Y+143220
X+48000Y+148300
X+67000Y+127980
X+67000Y+133060
X+67000Y+138140
X+67000Y+143220
X+67000Y+148300
X+7000Y+184000
X+7000Y+189080
X+7000Y+194160
X+7000Y+199240
X+7000Y+204320
X+48000Y+183980
X+48000Y+189060
X+48000Y+194140
X+48000Y+199220
X+48000Y+204300
X+67000Y+183980
X+67000Y+189060
X+67000Y+194140
X+67000Y+199220
X+67000Y+204300
T04
X+98000Y+7300
X+98000Y+9840
X+98000Y+32300
X+98000Y+29760
X+98000Y+27220
X+98000Y+24680
X+98000Y+22140
X+98000Y+19600
X+38000Y+32000
X+38000Y+29460
X+38000Y+26920
X+38000Y+24380
X+38000Y+21840
X+38000Y+19300
X+38000Y+10540
X+38000Y+8000
X+98000Y+63300
X+98000Y+65840
X+98000Y+88300
X+98000Y+85760
X+98000Y+83220
X+98000Y+80680
X+98000Y+78140
X+98000Y+75600
X+38000Y+88000
X+38000Y+85460
X+38000Y+82920
X+38000Y+80380
X+38000Y+77840
X+38000Y+75300
X+38000Y+66540
X+38000Y+64000
X+98000Y+119300
X+98000Y+121840
X+98000Y+144300
X+98000Y+141760
X+98000Y+139220
X+98000Y+136680
X+98000Y+134140
X+98000Y+131600
X+38000Y+144000
X+38000Y+141460
X+38000Y+138920
X+38000Y+136380
X+38000Y+133840
X+38000Y+131300
X+38000Y+122540
X+38000Y+120000
X+98000Y+175300
X+98000Y+177840
X+98000Y+200300
X+98000Y+197760
X+98000Y+195220
X+98000Y+192680
X+98000Y+190140
X+98000Y+187600
X+38000Y+200000
X+38000Y+197460
X+38000Y+194920
X+38000Y+192380
X+38000Y+189840
X+38000Y+187300
X+38000Y+178540
X+38000Y+176000
T05
X+5000Y+47000
X+5000Y+5000
X+50000Y+5000
X+50000Y+47000
X+65000Y+47000
X+65000Y+5000
X+106000Y+5000
X+106000Y+47000
X+5000Y+103000
X+5000Y+61000
X+50000Y+61000
X+50000Y+103000
X+65000Y+103000
X+65000Y+61000
X+106000Y+61000
X+106000Y+103000
X+5000Y+159000
X+5000Y+117000
X+50000Y+117000
X+50000Y+159000
X+65000Y+159000
X+65000Y+117000
X+106000Y+117000
X+106000Y+159000
X+5000Y+215000
X+5000Y+173000
X+50000Y+173000
X+50000Y+215000
X+65000Y+215000
X+65000Y+173000
X+106000Y+173000
X+106000Y+215000
M30
