G04 PROTEUS RS274X GERBER FILE*
%FSLAX45Y45*%
%MOMM*%
G01*
%ADD10C,1.270000*%
%ADD11C,1.270000*%
%ADD12C,2.032000*%
%ADD13C,3.048000*%
%ADD14C,1.778000*%
%ADD15R,2.032000X2.032000*%
%ADD16C,6.350000*%
%ADD17C,0.203200*%
D10*
X+700000Y+1600000D02*
X+2274714Y+1600000D01*
X+2858714Y+2184000D01*
X+3800000Y+2184000D01*
X+3800000Y+2438000D02*
X+2642923Y+2438000D01*
X+2314604Y+2109681D01*
X+701681Y+2109681D01*
X+700000Y+2108000D01*
X+3800000Y+2692000D02*
X+2192238Y+2692000D01*
X+2120424Y+2620186D01*
X+704186Y+2620186D01*
X+700000Y+2616000D01*
X+3800000Y+2184000D02*
X+4072816Y+2184000D01*
X+4088334Y+2168482D01*
X+4187112Y+2069704D01*
X+4187112Y+1942704D01*
X+4187112Y+1721629D01*
X+4323518Y+1585223D01*
X+4787223Y+1585223D01*
X+4800000Y+1598000D01*
X+3800000Y+2438000D02*
X+4256260Y+2438000D01*
X+4361148Y+2333112D01*
X+4361148Y+2238852D01*
X+4400000Y+2200000D01*
X+4494000Y+2106000D01*
X+4800000Y+2106000D01*
X+3800000Y+2692000D02*
X+4408000Y+2692000D01*
X+4500000Y+2600000D01*
X+4514000Y+2614000D01*
X+4800000Y+2614000D01*
X+4647600Y+3146851D02*
X+4775149Y+3146851D01*
X+4800000Y+3122000D01*
X+3800000Y+2946000D02*
X+2286445Y+2946000D01*
X+2111624Y+3120821D01*
X+1839525Y+3392920D01*
X+1800000Y+3392920D01*
X+1800000Y+3898400D01*
X+1800000Y+4000000D01*
X+700000Y+3124000D02*
X+1531080Y+3124000D01*
X+1800000Y+3392920D01*
X+1800000Y+3898400D01*
X+1800000Y+4000000D01*
X+6700000Y+2614000D02*
X+8084000Y+2614000D01*
X+8200000Y+2730000D01*
X+9792000Y+2730000D01*
X+9800000Y+2722000D01*
X+6700000Y+2106000D02*
X+8168092Y+2106000D01*
X+8519280Y+2457188D01*
X+9789188Y+2457188D01*
X+9800000Y+2468000D01*
X+6700000Y+1598000D02*
X+8137612Y+1598000D01*
X+8692000Y+2152388D01*
X+8753612Y+2214000D01*
X+9800000Y+2214000D01*
X+9800000Y+730000D02*
X+8916000Y+730000D01*
X+7800000Y+3330000D02*
X+7800000Y+3530000D01*
X+6700000Y+3122000D02*
X+7592000Y+3122000D01*
X+7800000Y+3330000D01*
X+7800000Y+3530000D02*
X+7800000Y+4030000D01*
X+9100000Y+4030000D02*
X+8835101Y+4294899D01*
X+7572825Y+4294899D01*
X+7543073Y+4265147D01*
X+7443615Y+4165689D01*
X+7443615Y+4089183D01*
X+7443615Y+3873615D01*
X+7200000Y+3630000D01*
X+6700000Y+3630000D01*
X+3800000Y+1930000D02*
X+3293633Y+1930000D01*
X+3105300Y+1741667D01*
X+3105300Y+1105300D01*
X+3100000Y+1100000D01*
X+700000Y+3124000D02*
X+448334Y+3124000D01*
X+323963Y+2999629D01*
X+323963Y+1306297D01*
X+455667Y+1174593D01*
X+530260Y+1100000D01*
X+1479274Y+1100000D01*
X+1500000Y+1100000D01*
X+1698400Y+1100000D01*
X+1900000Y+700000D02*
X+2200000Y+700000D01*
X+2500000Y+1000000D01*
X+2600000Y+1100000D01*
X+3100000Y+1100000D01*
X+2916000Y+700000D02*
X+3231799Y+700000D01*
X+3454342Y+922543D01*
X+3585799Y+1054000D01*
X+3800000Y+1054000D01*
X+1698400Y+1100000D02*
X+1800000Y+1100000D01*
X+1479274Y+1100000D02*
X+1500000Y+1100000D01*
X+1698400Y+1100000D01*
X+700000Y+3632000D02*
X+1332000Y+3632000D01*
X+1450000Y+3750000D01*
X+1450000Y+4135154D01*
X+1545683Y+4230837D01*
X+1601630Y+4286784D01*
X+2507974Y+4286784D01*
X+3000309Y+4286784D01*
X+3101014Y+4186079D01*
X+3101014Y+4150000D01*
X+3101014Y+4001014D01*
X+3100000Y+4000000D01*
X+9520979Y+1447718D02*
X+9800000Y+1726739D01*
X+9800000Y+1960000D01*
X+7800000Y+1130000D02*
X+8125687Y+1130000D01*
X+8443405Y+1447718D01*
X+9520979Y+1447718D01*
X+9550409Y+1418288D01*
X+9800000Y+1168697D01*
X+9800000Y+984000D01*
X+9800000Y+2976000D02*
X+9254000Y+2976000D01*
X+8900000Y+3330000D01*
X+8750000Y+3330000D01*
X+7800000Y+3330000D02*
X+8750000Y+3330000D01*
X+8900000Y+3330000D02*
X+9450000Y+3880000D01*
X+9454000Y+3884000D01*
X+9800000Y+3884000D01*
X+9800000Y+3258639D02*
X+9800000Y+3230000D01*
X+7900000Y+730000D02*
X+8282584Y+730000D01*
X+8658467Y+1105883D01*
X+8682584Y+1130000D01*
X+9100000Y+1130000D01*
X+9800000Y+3630000D02*
X+9800000Y+3258639D01*
X+9800000Y+2976000D02*
X+9998080Y+2976000D01*
X+10084058Y+2890022D01*
X+10084058Y+2014058D01*
X+10050000Y+1980000D01*
X+9820000Y+1980000D01*
X+9800000Y+1960000D01*
X+3700000Y+3746000D02*
X+3700000Y+3300000D01*
X+3800000Y+3200000D01*
X+3800000Y+2946000D02*
X+4301408Y+2946000D01*
X+4502259Y+3146851D01*
X+4800000Y+3630000D02*
X+4428986Y+4001014D01*
X+3201600Y+4001014D01*
X+3100000Y+4000000D01*
X+3954000Y+3746000D02*
X+4251716Y+3746000D01*
X+4435000Y+3562716D01*
X+4435000Y+3214110D01*
X+4502259Y+3146851D01*
X+4543556Y+3146851D01*
X+4647600Y+3146851D01*
X+4800000Y+3122000D01*
X+3700000Y+3746000D02*
X+3480552Y+3746000D01*
X+3475734Y+3750818D01*
X+3471814Y+4221188D02*
X+3471814Y+4271814D01*
X+3600000Y+4400000D01*
X+4500000Y+4400000D01*
X+5157307Y+3742693D01*
X+5157307Y+1345222D01*
X+5064862Y+1252777D01*
X+4206436Y+1252777D01*
X+3800000Y+1659213D01*
X+3800000Y+1930000D01*
X+3800000Y+800000D02*
X+3800000Y+550000D01*
X+3650000Y+400000D01*
X+1800000Y+400000D01*
X+1600000Y+600000D01*
X+1600000Y+1001600D01*
X+1698400Y+1100000D01*
X+7900000Y+730000D02*
X+7471436Y+730000D01*
X+7057292Y+1144144D01*
X+6492847Y+1144144D01*
X+6272362Y+1364629D01*
X+6272362Y+3825254D01*
X+6492848Y+4045740D01*
X+6925000Y+4045740D01*
X+7418889Y+4539629D01*
X+9660372Y+4539629D01*
X+10179375Y+4020626D01*
X+10179375Y+3742940D01*
X+10092160Y+3655725D01*
X+9825725Y+3655725D01*
X+9800000Y+3630000D01*
X+700000Y+7200000D02*
X+2274714Y+7200000D01*
X+2858714Y+7784000D01*
X+3800000Y+7784000D01*
X+3800000Y+8038000D02*
X+2642923Y+8038000D01*
X+2314604Y+7709681D01*
X+701681Y+7709681D01*
X+700000Y+7708000D01*
X+3800000Y+8292000D02*
X+2192238Y+8292000D01*
X+2120424Y+8220186D01*
X+704186Y+8220186D01*
X+700000Y+8216000D01*
X+3800000Y+7784000D02*
X+4072816Y+7784000D01*
X+4088334Y+7768482D01*
X+4187112Y+7669704D01*
X+4187112Y+7542704D01*
X+4187112Y+7321629D01*
X+4323518Y+7185223D01*
X+4787223Y+7185223D01*
X+4800000Y+7198000D01*
X+3800000Y+8038000D02*
X+4256260Y+8038000D01*
X+4361148Y+7933112D01*
X+4361148Y+7838852D01*
X+4400000Y+7800000D01*
X+4494000Y+7706000D01*
X+4800000Y+7706000D01*
X+3800000Y+8292000D02*
X+4408000Y+8292000D01*
X+4500000Y+8200000D01*
X+4514000Y+8214000D01*
X+4800000Y+8214000D01*
X+4647600Y+8746851D02*
X+4775149Y+8746851D01*
X+4800000Y+8722000D01*
X+3800000Y+8546000D02*
X+2286445Y+8546000D01*
X+2111624Y+8720821D01*
X+1839525Y+8992920D01*
X+1800000Y+8992920D01*
X+1800000Y+9498400D01*
X+1800000Y+9600000D01*
X+700000Y+8724000D02*
X+1531080Y+8724000D01*
X+1800000Y+8992920D01*
X+1800000Y+9498400D01*
X+1800000Y+9600000D01*
X+6700000Y+8214000D02*
X+8084000Y+8214000D01*
X+8200000Y+8330000D01*
X+9792000Y+8330000D01*
X+9800000Y+8322000D01*
X+6700000Y+7706000D02*
X+8168092Y+7706000D01*
X+8519280Y+8057188D01*
X+9789188Y+8057188D01*
X+9800000Y+8068000D01*
X+6700000Y+7198000D02*
X+8137612Y+7198000D01*
X+8692000Y+7752388D01*
X+8753612Y+7814000D01*
X+9800000Y+7814000D01*
X+9800000Y+6330000D02*
X+8916000Y+6330000D01*
X+7800000Y+8930000D02*
X+7800000Y+9130000D01*
X+6700000Y+8722000D02*
X+7592000Y+8722000D01*
X+7800000Y+8930000D01*
X+7800000Y+9130000D02*
X+7800000Y+9630000D01*
X+9100000Y+9630000D02*
X+8835101Y+9894899D01*
X+7572825Y+9894899D01*
X+7543073Y+9865147D01*
X+7443615Y+9765689D01*
X+7443615Y+9689183D01*
X+7443615Y+9473615D01*
X+7200000Y+9230000D01*
X+6700000Y+9230000D01*
X+3800000Y+7530000D02*
X+3293633Y+7530000D01*
X+3105300Y+7341667D01*
X+3105300Y+6705300D01*
X+3100000Y+6700000D01*
X+700000Y+8724000D02*
X+448334Y+8724000D01*
X+323963Y+8599629D01*
X+323963Y+6906297D01*
X+455667Y+6774593D01*
X+530260Y+6700000D01*
X+1479274Y+6700000D01*
X+1500000Y+6700000D01*
X+1698400Y+6700000D01*
X+1900000Y+6300000D02*
X+2200000Y+6300000D01*
X+2500000Y+6600000D01*
X+2600000Y+6700000D01*
X+3100000Y+6700000D01*
X+2916000Y+6300000D02*
X+3231799Y+6300000D01*
X+3454342Y+6522543D01*
X+3585799Y+6654000D01*
X+3800000Y+6654000D01*
X+1698400Y+6700000D02*
X+1800000Y+6700000D01*
X+1479274Y+6700000D02*
X+1500000Y+6700000D01*
X+1698400Y+6700000D01*
X+700000Y+9232000D02*
X+1332000Y+9232000D01*
X+1450000Y+9350000D01*
X+1450000Y+9735154D01*
X+1545683Y+9830837D01*
X+1601630Y+9886784D01*
X+2507974Y+9886784D01*
X+3000309Y+9886784D01*
X+3101014Y+9786079D01*
X+3101014Y+9750000D01*
X+3101014Y+9601014D01*
X+3100000Y+9600000D01*
X+9520979Y+7047718D02*
X+9800000Y+7326739D01*
X+9800000Y+7560000D01*
X+7800000Y+6730000D02*
X+8125687Y+6730000D01*
X+8443405Y+7047718D01*
X+9520979Y+7047718D01*
X+9550409Y+7018288D01*
X+9800000Y+6768697D01*
X+9800000Y+6584000D01*
X+9800000Y+8576000D02*
X+9254000Y+8576000D01*
X+8900000Y+8930000D01*
X+8750000Y+8930000D01*
X+7800000Y+8930000D02*
X+8750000Y+8930000D01*
X+8900000Y+8930000D02*
X+9450000Y+9480000D01*
X+9454000Y+9484000D01*
X+9800000Y+9484000D01*
X+9800000Y+8858639D02*
X+9800000Y+8830000D01*
X+7900000Y+6330000D02*
X+8282584Y+6330000D01*
X+8658467Y+6705883D01*
X+8682584Y+6730000D01*
X+9100000Y+6730000D01*
X+9800000Y+9230000D02*
X+9800000Y+8858639D01*
X+9800000Y+8576000D02*
X+9998080Y+8576000D01*
X+10084058Y+8490022D01*
X+10084058Y+7614058D01*
X+10050000Y+7580000D01*
X+9820000Y+7580000D01*
X+9800000Y+7560000D01*
X+3700000Y+9346000D02*
X+3700000Y+8900000D01*
X+3800000Y+8800000D01*
X+3800000Y+8546000D02*
X+4301408Y+8546000D01*
X+4502259Y+8746851D01*
X+4800000Y+9230000D02*
X+4428986Y+9601014D01*
X+3201600Y+9601014D01*
X+3100000Y+9600000D01*
X+3954000Y+9346000D02*
X+4251716Y+9346000D01*
X+4435000Y+9162716D01*
X+4435000Y+8814110D01*
X+4502259Y+8746851D01*
X+4543556Y+8746851D01*
X+4647600Y+8746851D01*
X+4800000Y+8722000D01*
X+3700000Y+9346000D02*
X+3480552Y+9346000D01*
X+3475734Y+9350818D01*
X+3471814Y+9821188D02*
X+3471814Y+9871814D01*
X+3600000Y+10000000D01*
X+4500000Y+10000000D01*
X+5157307Y+9342693D01*
X+5157307Y+6945222D01*
X+5064862Y+6852777D01*
X+4206436Y+6852777D01*
X+3800000Y+7259213D01*
X+3800000Y+7530000D01*
X+3800000Y+6400000D02*
X+3800000Y+6150000D01*
X+3650000Y+6000000D01*
X+1800000Y+6000000D01*
X+1600000Y+6200000D01*
X+1600000Y+6601600D01*
X+1698400Y+6700000D01*
X+7900000Y+6330000D02*
X+7471436Y+6330000D01*
X+7057292Y+6744144D01*
X+6492847Y+6744144D01*
X+6272362Y+6964629D01*
X+6272362Y+9425254D01*
X+6492848Y+9645740D01*
X+6925000Y+9645740D01*
X+7418889Y+10139629D01*
X+9660372Y+10139629D01*
X+10179375Y+9620626D01*
X+10179375Y+9342940D01*
X+10092160Y+9255725D01*
X+9825725Y+9255725D01*
X+9800000Y+9230000D01*
X+700000Y+12800000D02*
X+2274714Y+12800000D01*
X+2858714Y+13384000D01*
X+3800000Y+13384000D01*
X+3800000Y+13638000D02*
X+2642923Y+13638000D01*
X+2314604Y+13309681D01*
X+701681Y+13309681D01*
X+700000Y+13308000D01*
X+3800000Y+13892000D02*
X+2192238Y+13892000D01*
X+2120424Y+13820186D01*
X+704186Y+13820186D01*
X+700000Y+13816000D01*
X+3800000Y+13384000D02*
X+4072816Y+13384000D01*
X+4088334Y+13368482D01*
X+4187112Y+13269704D01*
X+4187112Y+13142704D01*
X+4187112Y+12921629D01*
X+4323518Y+12785223D01*
X+4787223Y+12785223D01*
X+4800000Y+12798000D01*
X+3800000Y+13638000D02*
X+4256260Y+13638000D01*
X+4361148Y+13533112D01*
X+4361148Y+13438852D01*
X+4400000Y+13400000D01*
X+4494000Y+13306000D01*
X+4800000Y+13306000D01*
X+3800000Y+13892000D02*
X+4408000Y+13892000D01*
X+4500000Y+13800000D01*
X+4514000Y+13814000D01*
X+4800000Y+13814000D01*
X+4647600Y+14346851D02*
X+4775149Y+14346851D01*
X+4800000Y+14322000D01*
X+3800000Y+14146000D02*
X+2286445Y+14146000D01*
X+2111624Y+14320821D01*
X+1839525Y+14592920D01*
X+1800000Y+14592920D01*
X+1800000Y+15098400D01*
X+1800000Y+15200000D01*
X+700000Y+14324000D02*
X+1531080Y+14324000D01*
X+1800000Y+14592920D01*
X+1800000Y+15098400D01*
X+1800000Y+15200000D01*
X+6700000Y+13814000D02*
X+8084000Y+13814000D01*
X+8200000Y+13930000D01*
X+9792000Y+13930000D01*
X+9800000Y+13922000D01*
X+6700000Y+13306000D02*
X+8168092Y+13306000D01*
X+8519280Y+13657188D01*
X+9789188Y+13657188D01*
X+9800000Y+13668000D01*
X+6700000Y+12798000D02*
X+8137612Y+12798000D01*
X+8692000Y+13352388D01*
X+8753612Y+13414000D01*
X+9800000Y+13414000D01*
X+9800000Y+11930000D02*
X+8916000Y+11930000D01*
X+7800000Y+14530000D02*
X+7800000Y+14730000D01*
X+6700000Y+14322000D02*
X+7592000Y+14322000D01*
X+7800000Y+14530000D01*
X+7800000Y+14730000D02*
X+7800000Y+15230000D01*
X+9100000Y+15230000D02*
X+8835101Y+15494899D01*
X+7572825Y+15494899D01*
X+7543073Y+15465147D01*
X+7443615Y+15365689D01*
X+7443615Y+15289183D01*
X+7443615Y+15073615D01*
X+7200000Y+14830000D01*
X+6700000Y+14830000D01*
X+3800000Y+13130000D02*
X+3293633Y+13130000D01*
X+3105300Y+12941667D01*
X+3105300Y+12305300D01*
X+3100000Y+12300000D01*
X+700000Y+14324000D02*
X+448334Y+14324000D01*
X+323963Y+14199629D01*
X+323963Y+12506297D01*
X+455667Y+12374593D01*
X+530260Y+12300000D01*
X+1479274Y+12300000D01*
X+1500000Y+12300000D01*
X+1698400Y+12300000D01*
X+1900000Y+11900000D02*
X+2200000Y+11900000D01*
X+2500000Y+12200000D01*
X+2600000Y+12300000D01*
X+3100000Y+12300000D01*
X+2916000Y+11900000D02*
X+3231799Y+11900000D01*
X+3454342Y+12122543D01*
X+3585799Y+12254000D01*
X+3800000Y+12254000D01*
X+1698400Y+12300000D02*
X+1800000Y+12300000D01*
X+1479274Y+12300000D02*
X+1500000Y+12300000D01*
X+1698400Y+12300000D01*
X+700000Y+14832000D02*
X+1332000Y+14832000D01*
X+1450000Y+14950000D01*
X+1450000Y+15335154D01*
X+1545683Y+15430837D01*
X+1601630Y+15486784D01*
X+2507974Y+15486784D01*
X+3000309Y+15486784D01*
X+3101014Y+15386079D01*
X+3101014Y+15350000D01*
X+3101014Y+15201014D01*
X+3100000Y+15200000D01*
X+9520979Y+12647718D02*
X+9800000Y+12926739D01*
X+9800000Y+13160000D01*
X+7800000Y+12330000D02*
X+8125687Y+12330000D01*
X+8443405Y+12647718D01*
X+9520979Y+12647718D01*
X+9550409Y+12618288D01*
X+9800000Y+12368697D01*
X+9800000Y+12184000D01*
X+9800000Y+14176000D02*
X+9254000Y+14176000D01*
X+8900000Y+14530000D01*
X+8750000Y+14530000D01*
X+7800000Y+14530000D02*
X+8750000Y+14530000D01*
X+8900000Y+14530000D02*
X+9450000Y+15080000D01*
X+9454000Y+15084000D01*
X+9800000Y+15084000D01*
X+9800000Y+14458639D02*
X+9800000Y+14430000D01*
X+7900000Y+11930000D02*
X+8282584Y+11930000D01*
X+8658467Y+12305883D01*
X+8682584Y+12330000D01*
X+9100000Y+12330000D01*
X+9800000Y+14830000D02*
X+9800000Y+14458639D01*
X+9800000Y+14176000D02*
X+9998080Y+14176000D01*
X+10084058Y+14090022D01*
X+10084058Y+13214058D01*
X+10050000Y+13180000D01*
X+9820000Y+13180000D01*
X+9800000Y+13160000D01*
X+3700000Y+14946000D02*
X+3700000Y+14500000D01*
X+3800000Y+14400000D01*
X+3800000Y+14146000D02*
X+4301408Y+14146000D01*
X+4502259Y+14346851D01*
X+4800000Y+14830000D02*
X+4428986Y+15201014D01*
X+3201600Y+15201014D01*
X+3100000Y+15200000D01*
X+3954000Y+14946000D02*
X+4251716Y+14946000D01*
X+4435000Y+14762716D01*
X+4435000Y+14414110D01*
X+4502259Y+14346851D01*
X+4543556Y+14346851D01*
X+4647600Y+14346851D01*
X+4800000Y+14322000D01*
X+3700000Y+14946000D02*
X+3480552Y+14946000D01*
X+3475734Y+14950818D01*
X+3471814Y+15421188D02*
X+3471814Y+15471814D01*
X+3600000Y+15600000D01*
X+4500000Y+15600000D01*
X+5157307Y+14942693D01*
X+5157307Y+12545222D01*
X+5064862Y+12452777D01*
X+4206436Y+12452777D01*
X+3800000Y+12859213D01*
X+3800000Y+13130000D01*
X+3800000Y+12000000D02*
X+3800000Y+11750000D01*
X+3650000Y+11600000D01*
X+1800000Y+11600000D01*
X+1600000Y+11800000D01*
X+1600000Y+12201600D01*
X+1698400Y+12300000D01*
X+7900000Y+11930000D02*
X+7471436Y+11930000D01*
X+7057292Y+12344144D01*
X+6492847Y+12344144D01*
X+6272362Y+12564629D01*
X+6272362Y+15025254D01*
X+6492848Y+15245740D01*
X+6925000Y+15245740D01*
X+7418889Y+15739629D01*
X+9660372Y+15739629D01*
X+10179375Y+15220626D01*
X+10179375Y+14942940D01*
X+10092160Y+14855725D01*
X+9825725Y+14855725D01*
X+9800000Y+14830000D01*
X+700000Y+18400000D02*
X+2274714Y+18400000D01*
X+2858714Y+18984000D01*
X+3800000Y+18984000D01*
X+3800000Y+19238000D02*
X+2642923Y+19238000D01*
X+2314604Y+18909681D01*
X+701681Y+18909681D01*
X+700000Y+18908000D01*
X+3800000Y+19492000D02*
X+2192238Y+19492000D01*
X+2120424Y+19420186D01*
X+704186Y+19420186D01*
X+700000Y+19416000D01*
X+3800000Y+18984000D02*
X+4072816Y+18984000D01*
X+4088334Y+18968482D01*
X+4187112Y+18869704D01*
X+4187112Y+18742704D01*
X+4187112Y+18521629D01*
X+4323518Y+18385223D01*
X+4787223Y+18385223D01*
X+4800000Y+18398000D01*
X+3800000Y+19238000D02*
X+4256260Y+19238000D01*
X+4361148Y+19133112D01*
X+4361148Y+19038852D01*
X+4400000Y+19000000D01*
X+4494000Y+18906000D01*
X+4800000Y+18906000D01*
X+3800000Y+19492000D02*
X+4408000Y+19492000D01*
X+4500000Y+19400000D01*
X+4514000Y+19414000D01*
X+4800000Y+19414000D01*
X+4647600Y+19946851D02*
X+4775149Y+19946851D01*
X+4800000Y+19922000D01*
X+3800000Y+19746000D02*
X+2286445Y+19746000D01*
X+2111624Y+19920821D01*
X+1839525Y+20192920D01*
X+1800000Y+20192920D01*
X+1800000Y+20698400D01*
X+1800000Y+20800000D01*
X+700000Y+19924000D02*
X+1531080Y+19924000D01*
X+1800000Y+20192920D01*
X+1800000Y+20698400D01*
X+1800000Y+20800000D01*
X+6700000Y+19414000D02*
X+8084000Y+19414000D01*
X+8200000Y+19530000D01*
X+9792000Y+19530000D01*
X+9800000Y+19522000D01*
X+6700000Y+18906000D02*
X+8168092Y+18906000D01*
X+8519280Y+19257188D01*
X+9789188Y+19257188D01*
X+9800000Y+19268000D01*
X+6700000Y+18398000D02*
X+8137612Y+18398000D01*
X+8692000Y+18952388D01*
X+8753612Y+19014000D01*
X+9800000Y+19014000D01*
X+9800000Y+17530000D02*
X+8916000Y+17530000D01*
X+7800000Y+20130000D02*
X+7800000Y+20330000D01*
X+6700000Y+19922000D02*
X+7592000Y+19922000D01*
X+7800000Y+20130000D01*
X+7800000Y+20330000D02*
X+7800000Y+20830000D01*
X+9100000Y+20830000D02*
X+8835101Y+21094899D01*
X+7572825Y+21094899D01*
X+7543073Y+21065147D01*
X+7443615Y+20965689D01*
X+7443615Y+20889183D01*
X+7443615Y+20673615D01*
X+7200000Y+20430000D01*
X+6700000Y+20430000D01*
X+3800000Y+18730000D02*
X+3293633Y+18730000D01*
X+3105300Y+18541667D01*
X+3105300Y+17905300D01*
X+3100000Y+17900000D01*
X+700000Y+19924000D02*
X+448334Y+19924000D01*
X+323963Y+19799629D01*
X+323963Y+18106297D01*
X+455667Y+17974593D01*
X+530260Y+17900000D01*
X+1479274Y+17900000D01*
X+1500000Y+17900000D01*
X+1698400Y+17900000D01*
X+1900000Y+17500000D02*
X+2200000Y+17500000D01*
X+2500000Y+17800000D01*
X+2600000Y+17900000D01*
X+3100000Y+17900000D01*
X+2916000Y+17500000D02*
X+3231799Y+17500000D01*
X+3454342Y+17722543D01*
X+3585799Y+17854000D01*
X+3800000Y+17854000D01*
X+1698400Y+17900000D02*
X+1800000Y+17900000D01*
X+1479274Y+17900000D02*
X+1500000Y+17900000D01*
X+1698400Y+17900000D01*
X+700000Y+20432000D02*
X+1332000Y+20432000D01*
X+1450000Y+20550000D01*
X+1450000Y+20935154D01*
X+1545683Y+21030837D01*
X+1601630Y+21086784D01*
X+2507974Y+21086784D01*
X+3000309Y+21086784D01*
X+3101014Y+20986079D01*
X+3101014Y+20950000D01*
X+3101014Y+20801014D01*
X+3100000Y+20800000D01*
X+9520979Y+18247718D02*
X+9800000Y+18526739D01*
X+9800000Y+18760000D01*
X+7800000Y+17930000D02*
X+8125687Y+17930000D01*
X+8443405Y+18247718D01*
X+9520979Y+18247718D01*
X+9550409Y+18218288D01*
X+9800000Y+17968697D01*
X+9800000Y+17784000D01*
X+9800000Y+19776000D02*
X+9254000Y+19776000D01*
X+8900000Y+20130000D01*
X+8750000Y+20130000D01*
X+7800000Y+20130000D02*
X+8750000Y+20130000D01*
X+8900000Y+20130000D02*
X+9450000Y+20680000D01*
X+9454000Y+20684000D01*
X+9800000Y+20684000D01*
X+9800000Y+20058639D02*
X+9800000Y+20030000D01*
X+7900000Y+17530000D02*
X+8282584Y+17530000D01*
X+8658467Y+17905883D01*
X+8682584Y+17930000D01*
X+9100000Y+17930000D01*
X+9800000Y+20430000D02*
X+9800000Y+20058639D01*
X+9800000Y+19776000D02*
X+9998080Y+19776000D01*
X+10084058Y+19690022D01*
X+10084058Y+18814058D01*
X+10050000Y+18780000D01*
X+9820000Y+18780000D01*
X+9800000Y+18760000D01*
X+3700000Y+20546000D02*
X+3700000Y+20100000D01*
X+3800000Y+20000000D01*
X+3800000Y+19746000D02*
X+4301408Y+19746000D01*
X+4502259Y+19946851D01*
X+4800000Y+20430000D02*
X+4428986Y+20801014D01*
X+3201600Y+20801014D01*
X+3100000Y+20800000D01*
X+3954000Y+20546000D02*
X+4251716Y+20546000D01*
X+4435000Y+20362716D01*
X+4435000Y+20014110D01*
X+4502259Y+19946851D01*
X+4543556Y+19946851D01*
X+4647600Y+19946851D01*
X+4800000Y+19922000D01*
X+3700000Y+20546000D02*
X+3480552Y+20546000D01*
X+3475734Y+20550818D01*
X+3471814Y+21021188D02*
X+3471814Y+21071814D01*
X+3600000Y+21200000D01*
X+4500000Y+21200000D01*
X+5157307Y+20542693D01*
X+5157307Y+18145222D01*
X+5064862Y+18052777D01*
X+4206436Y+18052777D01*
X+3800000Y+18459213D01*
X+3800000Y+18730000D01*
X+3800000Y+17600000D02*
X+3800000Y+17350000D01*
X+3650000Y+17200000D01*
X+1800000Y+17200000D01*
X+1600000Y+17400000D01*
X+1600000Y+17801600D01*
X+1698400Y+17900000D01*
X+7900000Y+17530000D02*
X+7471436Y+17530000D01*
X+7057292Y+17944144D01*
X+6492847Y+17944144D01*
X+6272362Y+18164629D01*
X+6272362Y+20625254D01*
X+6492848Y+20845740D01*
X+6925000Y+20845740D01*
X+7418889Y+21339629D01*
X+9660372Y+21339629D01*
X+10179375Y+20820626D01*
X+10179375Y+20542940D01*
X+10092160Y+20455725D01*
X+9825725Y+20455725D01*
X+9800000Y+20430000D01*
D11*
X+3475734Y+3750818D03*
X+3471814Y+4221188D03*
X+3475734Y+9350818D03*
X+3471814Y+9821188D03*
X+3475734Y+14950818D03*
X+3471814Y+15421188D03*
X+3475734Y+20550818D03*
X+3471814Y+21021188D03*
D12*
X+9100000Y+4030000D03*
X+7800000Y+4030000D03*
X+9100000Y+1130000D03*
X+7800000Y+1130000D03*
D13*
X+700000Y+1600000D03*
X+700000Y+2108000D03*
X+700000Y+2616000D03*
X+700000Y+3124000D03*
X+700000Y+3632000D03*
D12*
X+3100000Y+4000000D03*
X+1800000Y+4000000D03*
X+3100000Y+1100000D03*
X+1800000Y+1100000D03*
D13*
X+4800000Y+1598000D03*
X+4800000Y+2106000D03*
X+4800000Y+2614000D03*
X+4800000Y+3122000D03*
X+4800000Y+3630000D03*
X+6700000Y+1598000D03*
X+6700000Y+2106000D03*
X+6700000Y+2614000D03*
X+6700000Y+3122000D03*
X+6700000Y+3630000D03*
D14*
X+7900000Y+730000D03*
X+8916000Y+730000D03*
D15*
X+9800000Y+730000D03*
X+9800000Y+984000D03*
X+9800000Y+3230000D03*
X+9800000Y+2976000D03*
X+9800000Y+2722000D03*
X+9800000Y+2468000D03*
X+9800000Y+2214000D03*
X+9800000Y+1960000D03*
X+3800000Y+3200000D03*
X+3800000Y+2946000D03*
X+3800000Y+2692000D03*
X+3800000Y+2438000D03*
X+3800000Y+2184000D03*
X+3800000Y+1930000D03*
D14*
X+3700000Y+3746000D03*
X+3954000Y+3746000D03*
X+9800000Y+3630000D03*
X+9800000Y+3884000D03*
X+1900000Y+700000D03*
X+2916000Y+700000D03*
D15*
X+3800000Y+1054000D03*
X+3800000Y+800000D03*
D16*
X+500000Y+4700000D03*
X+500000Y+500000D03*
X+5000000Y+500000D03*
X+5000000Y+4700000D03*
X+6500000Y+4700000D03*
X+6500000Y+500000D03*
X+10600000Y+500000D03*
X+10600000Y+4700000D03*
D12*
X+9100000Y+9630000D03*
X+7800000Y+9630000D03*
X+9100000Y+6730000D03*
X+7800000Y+6730000D03*
D13*
X+700000Y+7200000D03*
X+700000Y+7708000D03*
X+700000Y+8216000D03*
X+700000Y+8724000D03*
X+700000Y+9232000D03*
D12*
X+3100000Y+9600000D03*
X+1800000Y+9600000D03*
X+3100000Y+6700000D03*
X+1800000Y+6700000D03*
D13*
X+4800000Y+7198000D03*
X+4800000Y+7706000D03*
X+4800000Y+8214000D03*
X+4800000Y+8722000D03*
X+4800000Y+9230000D03*
X+6700000Y+7198000D03*
X+6700000Y+7706000D03*
X+6700000Y+8214000D03*
X+6700000Y+8722000D03*
X+6700000Y+9230000D03*
D14*
X+7900000Y+6330000D03*
X+8916000Y+6330000D03*
D15*
X+9800000Y+6330000D03*
X+9800000Y+6584000D03*
X+9800000Y+8830000D03*
X+9800000Y+8576000D03*
X+9800000Y+8322000D03*
X+9800000Y+8068000D03*
X+9800000Y+7814000D03*
X+9800000Y+7560000D03*
X+3800000Y+8800000D03*
X+3800000Y+8546000D03*
X+3800000Y+8292000D03*
X+3800000Y+8038000D03*
X+3800000Y+7784000D03*
X+3800000Y+7530000D03*
D14*
X+3700000Y+9346000D03*
X+3954000Y+9346000D03*
X+9800000Y+9230000D03*
X+9800000Y+9484000D03*
X+1900000Y+6300000D03*
X+2916000Y+6300000D03*
D15*
X+3800000Y+6654000D03*
X+3800000Y+6400000D03*
D16*
X+500000Y+10300000D03*
X+500000Y+6100000D03*
X+5000000Y+6100000D03*
X+5000000Y+10300000D03*
X+6500000Y+10300000D03*
X+6500000Y+6100000D03*
X+10600000Y+6100000D03*
X+10600000Y+10300000D03*
D12*
X+9100000Y+15230000D03*
X+7800000Y+15230000D03*
X+9100000Y+12330000D03*
X+7800000Y+12330000D03*
D13*
X+700000Y+12800000D03*
X+700000Y+13308000D03*
X+700000Y+13816000D03*
X+700000Y+14324000D03*
X+700000Y+14832000D03*
D12*
X+3100000Y+15200000D03*
X+1800000Y+15200000D03*
X+3100000Y+12300000D03*
X+1800000Y+12300000D03*
D13*
X+4800000Y+12798000D03*
X+4800000Y+13306000D03*
X+4800000Y+13814000D03*
X+4800000Y+14322000D03*
X+4800000Y+14830000D03*
X+6700000Y+12798000D03*
X+6700000Y+13306000D03*
X+6700000Y+13814000D03*
X+6700000Y+14322000D03*
X+6700000Y+14830000D03*
D14*
X+7900000Y+11930000D03*
X+8916000Y+11930000D03*
D15*
X+9800000Y+11930000D03*
X+9800000Y+12184000D03*
X+9800000Y+14430000D03*
X+9800000Y+14176000D03*
X+9800000Y+13922000D03*
X+9800000Y+13668000D03*
X+9800000Y+13414000D03*
X+9800000Y+13160000D03*
X+3800000Y+14400000D03*
X+3800000Y+14146000D03*
X+3800000Y+13892000D03*
X+3800000Y+13638000D03*
X+3800000Y+13384000D03*
X+3800000Y+13130000D03*
D14*
X+3700000Y+14946000D03*
X+3954000Y+14946000D03*
X+9800000Y+14830000D03*
X+9800000Y+15084000D03*
X+1900000Y+11900000D03*
X+2916000Y+11900000D03*
D15*
X+3800000Y+12254000D03*
X+3800000Y+12000000D03*
D16*
X+500000Y+15900000D03*
X+500000Y+11700000D03*
X+5000000Y+11700000D03*
X+5000000Y+15900000D03*
X+6500000Y+15900000D03*
X+6500000Y+11700000D03*
X+10600000Y+11700000D03*
X+10600000Y+15900000D03*
D12*
X+9100000Y+20830000D03*
X+7800000Y+20830000D03*
X+9100000Y+17930000D03*
X+7800000Y+17930000D03*
D13*
X+700000Y+18400000D03*
X+700000Y+18908000D03*
X+700000Y+19416000D03*
X+700000Y+19924000D03*
X+700000Y+20432000D03*
D12*
X+3100000Y+20800000D03*
X+1800000Y+20800000D03*
X+3100000Y+17900000D03*
X+1800000Y+17900000D03*
D13*
X+4800000Y+18398000D03*
X+4800000Y+18906000D03*
X+4800000Y+19414000D03*
X+4800000Y+19922000D03*
X+4800000Y+20430000D03*
X+6700000Y+18398000D03*
X+6700000Y+18906000D03*
X+6700000Y+19414000D03*
X+6700000Y+19922000D03*
X+6700000Y+20430000D03*
D14*
X+7900000Y+17530000D03*
X+8916000Y+17530000D03*
D15*
X+9800000Y+17530000D03*
X+9800000Y+17784000D03*
X+9800000Y+20030000D03*
X+9800000Y+19776000D03*
X+9800000Y+19522000D03*
X+9800000Y+19268000D03*
X+9800000Y+19014000D03*
X+9800000Y+18760000D03*
X+3800000Y+20000000D03*
X+3800000Y+19746000D03*
X+3800000Y+19492000D03*
X+3800000Y+19238000D03*
X+3800000Y+18984000D03*
X+3800000Y+18730000D03*
D14*
X+3700000Y+20546000D03*
X+3954000Y+20546000D03*
X+9800000Y+20430000D03*
X+9800000Y+20684000D03*
X+1900000Y+17500000D03*
X+2916000Y+17500000D03*
D15*
X+3800000Y+17854000D03*
X+3800000Y+17600000D03*
D16*
X+500000Y+21500000D03*
X+500000Y+17300000D03*
X+5000000Y+17300000D03*
X+5000000Y+21500000D03*
X+6500000Y+21500000D03*
X+6500000Y+17300000D03*
X+10600000Y+17300000D03*
X+10600000Y+21500000D03*
D17*
X+0Y+0D02*
X+5500000Y+0D01*
X+5500000Y+5200000D01*
X+0Y+5200000D01*
X+0Y+0D01*
X+6000000Y+0D02*
X+11100000Y+0D01*
X+11100000Y+5200000D01*
X+6000000Y+5200000D01*
X+6000000Y+0D01*
X+0Y+5600000D02*
X+5500000Y+5600000D01*
X+5500000Y+10800000D01*
X+0Y+10800000D01*
X+0Y+5600000D01*
X+6000000Y+5600000D02*
X+11100000Y+5600000D01*
X+11100000Y+10800000D01*
X+6000000Y+10800000D01*
X+6000000Y+5600000D01*
X+0Y+11200000D02*
X+5500000Y+11200000D01*
X+5500000Y+16400000D01*
X+0Y+16400000D01*
X+0Y+11200000D01*
X+6000000Y+11200000D02*
X+11100000Y+11200000D01*
X+11100000Y+16400000D01*
X+6000000Y+16400000D01*
X+6000000Y+11200000D01*
X+0Y+16800000D02*
X+5500000Y+16800000D01*
X+5500000Y+22000000D01*
X+0Y+22000000D01*
X+0Y+16800000D01*
X+6000000Y+16800000D02*
X+11100000Y+16800000D01*
X+11100000Y+22000000D01*
X+6000000Y+22000000D01*
X+6000000Y+16800000D01*
M02*
