M48
METRIC,TZ
T01C0.5080
T02C1.5240
T03C1.1430
T04C0.7620
T05C1.0160
T06C3.0000
%
T01
X+23745Y+27602
X+23701Y+20282
T02
X+6000Y+42000
X+6000Y+47080
T03
X+18000Y+47080
X+18000Y+42000
T04
X+23540Y+52000
X+21000Y+52000
X+12000Y+7000
X+22160Y+7000
T05
X+27300Y+45520
X+27300Y+42980
X+27300Y+40440
X+27300Y+37900
X+27300Y+35360
X+27300Y+27740
X+27300Y+25200
X+27300Y+22660
X+27300Y+20120
X+27300Y+17580
X+27300Y+15040
X+27300Y+12500
X+27300Y+9960
X+52700Y+9960
X+52700Y+12500
X+52700Y+15040
X+52700Y+17580
X+52700Y+20120
X+52700Y+22660
X+52700Y+25200
X+52700Y+27740
X+52700Y+30280
X+52700Y+32820
X+52700Y+40440
X+52700Y+45520
X+60800Y+48000
X+63340Y+48000
X+65880Y+48000
X+68420Y+48000
X+70960Y+48000
X+73500Y+48000
X+63800Y+13000
X+66340Y+13000
X+68880Y+13000
X+71420Y+13000
X+20000Y+32700
X+20000Y+30160
X+20000Y+27620
X+20000Y+25080
X+20000Y+22540
X+20000Y+20000
X+11540Y+13000
X+9000Y+13000
T06
X+5000Y+56000
X+76000Y+56000
X+5000Y+5000
X+76000Y+5000
M30
