G04 PROTEUS RS274X GERBER FILE*
%FSLAX45Y45*%
%MOMM*%
G01*
%ADD10C,1.270000*%
%ADD11C,1.778000*%
%ADD12C,1.524000*%
%ADD13C,2.032000*%
%ADD14C,2.540000*%
%ADD15C,1.270000*%
%ADD16R,2.680000X2.680000*%
%ADD17C,3.048000*%
%ADD18R,2.032000X2.032000*%
%ADD19R,2.000000X2.000000*%
%ADD70C,2.000000*%
%ADD71C,1.524000*%
%ADD20C,2.032000*%
%ADD21C,1.778000*%
%ADD22C,6.350000*%
%ADD23C,5.080000*%
%ADD24C,0.203200*%
D10*
X+2650000Y+5346000D02*
X+2909847Y+5346000D01*
X+3026704Y+5462857D01*
X+3037847Y+5474000D01*
X+3680000Y+5474000D01*
X+2650000Y+4584000D02*
X+3034000Y+4584000D01*
X+3416000Y+4966000D01*
X+3680000Y+4966000D01*
X+2650000Y+4838000D02*
X+2988000Y+4838000D01*
X+3366300Y+5216300D01*
X+3676300Y+5216300D01*
X+3680000Y+5220000D01*
X+2650000Y+5092000D02*
X+2942000Y+5092000D01*
X+2950000Y+5100000D01*
X+2946895Y+4359943D02*
X+2946895Y+3892738D01*
X+3052073Y+3787560D01*
X+3143633Y+3696000D01*
X+3680000Y+3696000D01*
X+7450000Y+2308000D02*
X+7308000Y+2450000D01*
X+6350000Y+2450000D01*
X+6096000Y+2450000D02*
X+6096000Y+2172637D01*
X+6199603Y+2069034D01*
X+6214637Y+2054000D01*
X+7450000Y+2054000D01*
X+5842000Y+2450000D02*
X+5842000Y+2022546D01*
X+6105796Y+1758750D01*
X+7408750Y+1758750D01*
X+7450000Y+1800000D01*
X+2650000Y+4330000D02*
X+2650000Y+1811057D01*
X+3093230Y+1367827D01*
X+3107057Y+1354000D01*
X+3550000Y+1354000D01*
X+3550000Y+2116000D02*
X+4264272Y+2116000D01*
X+4450000Y+2301728D01*
X+4450000Y+5100000D01*
X+4824000Y+5474000D01*
X+6220000Y+5474000D01*
X+3550000Y+1862000D02*
X+4341444Y+1862000D01*
X+4685277Y+2205833D01*
X+4685277Y+4907392D01*
X+4960452Y+5182567D01*
X+4997885Y+5220000D01*
X+6220000Y+5220000D01*
X+3550000Y+1608000D02*
X+4496992Y+1608000D01*
X+4960583Y+2071591D01*
X+4960583Y+4661370D01*
X+5165586Y+4866373D01*
X+5265213Y+4966000D01*
X+6220000Y+4966000D01*
X+6220000Y+5982000D02*
X+6768000Y+5982000D01*
X+6850000Y+5900000D01*
X+6850000Y+5606374D01*
X+6985556Y+5470818D01*
X+7447182Y+5470818D01*
X+7450000Y+5468000D01*
X+7450000Y+5976000D02*
X+7713239Y+5976000D01*
X+7869356Y+5819883D01*
X+7869356Y+5032632D01*
X+7720818Y+4884094D01*
X+7234094Y+4884094D01*
X+6850000Y+4500000D01*
X+6808000Y+4458000D01*
X+6220000Y+4458000D01*
X+6220000Y+5728000D02*
X+5963403Y+5728000D01*
X+5789825Y+5901578D01*
X+5789825Y+6109531D01*
X+5886375Y+6206081D01*
X+5906025Y+6225731D01*
X+6199512Y+6225731D01*
X+6556004Y+6225731D01*
X+6788713Y+6458440D01*
X+6814273Y+6484000D01*
X+7450000Y+6484000D01*
X+3680000Y+7252000D02*
X+3254771Y+7252000D01*
X+3152350Y+7149579D01*
X+3152350Y+6743574D01*
X+2993910Y+6585134D01*
X+2172000Y+6585134D01*
X+2038316Y+6451450D01*
X+2038316Y+5711684D01*
X+2050000Y+5700000D01*
X+2150000Y+5600000D01*
X+2650000Y+5600000D01*
X+2150000Y+5600000D02*
X+2050000Y+5500000D01*
X+2050000Y+3400000D01*
X+2393712Y+3056288D01*
X+2393712Y+1706260D01*
X+2999972Y+1100000D01*
X+3550000Y+1100000D01*
X+3680000Y+6998000D02*
X+3515704Y+6998000D01*
X+3399914Y+6882210D01*
X+3399914Y+6580183D01*
X+3157302Y+6337571D01*
X+2384904Y+6337571D01*
X+2290830Y+6243497D01*
X+2290830Y+5889839D01*
X+2286948Y+5885957D01*
X+2280339Y+5324206D02*
X+2280339Y+4478718D01*
X+2408741Y+4350316D01*
X+2429057Y+4330000D01*
X+2650000Y+4330000D01*
X+792750Y+10974850D02*
X+792750Y+8996712D01*
X+1912276Y+7877186D01*
X+2650000Y+13446000D02*
X+2933826Y+13446000D01*
X+3055398Y+13567572D01*
X+3673572Y+13567572D01*
X+3680000Y+13574000D01*
X+2650000Y+12938000D02*
X+3088000Y+12938000D01*
X+3450000Y+13300000D01*
X+3470000Y+13320000D01*
X+3680000Y+13320000D01*
X+2650000Y+12684000D02*
X+3164829Y+12684000D01*
X+3515314Y+13034485D01*
X+3546829Y+13066000D01*
X+3680000Y+13066000D01*
X+2650000Y+13192000D02*
X+2996890Y+13192000D01*
X+3006618Y+13201728D01*
X+3010103Y+12463072D02*
X+3010103Y+12034510D01*
X+3220026Y+11824587D01*
X+3248613Y+11796000D01*
X+3680000Y+11796000D01*
X+7450000Y+10408000D02*
X+7308000Y+10550000D01*
X+6350000Y+10550000D01*
X+6096000Y+10550000D02*
X+6096000Y+10272637D01*
X+6199603Y+10169034D01*
X+6214637Y+10154000D01*
X+7450000Y+10154000D01*
X+5842000Y+10550000D02*
X+5842000Y+10122546D01*
X+6105796Y+9858750D01*
X+7408750Y+9858750D01*
X+7450000Y+9900000D01*
X+3550000Y+9962000D02*
X+4332551Y+9962000D01*
X+4626481Y+10255930D01*
X+4626481Y+12976481D01*
X+4950000Y+13300000D01*
X+4970000Y+13320000D01*
X+6220000Y+13320000D01*
X+3550000Y+9708000D02*
X+4414605Y+9708000D01*
X+4873148Y+10166543D01*
X+4873148Y+12818820D01*
X+5122556Y+13068228D01*
X+6217772Y+13068228D01*
X+6220000Y+13066000D01*
X+3550000Y+10216000D02*
X+4229415Y+10216000D01*
X+4336420Y+10323005D01*
X+4336420Y+13086420D01*
X+4824000Y+13574000D01*
X+6220000Y+13574000D01*
X+6220000Y+14082000D02*
X+6756451Y+14082000D01*
X+6917226Y+13921225D01*
X+6917226Y+13667226D01*
X+7015548Y+13568904D01*
X+7449096Y+13568904D01*
X+7450000Y+13568000D01*
X+6220000Y+13828000D02*
X+5995348Y+13828000D01*
X+5895375Y+13927973D01*
X+5895375Y+14266774D01*
X+5981164Y+14352563D01*
X+6764808Y+14352563D01*
X+6861830Y+14449585D01*
X+6996245Y+14584000D01*
X+7450000Y+14584000D01*
X+7450000Y+14076000D02*
X+7728412Y+14076000D01*
X+7852616Y+13951796D01*
X+7852616Y+13202616D01*
X+7750000Y+13100000D01*
X+6927606Y+13100000D01*
X+6754391Y+12926785D01*
X+6754391Y+12735300D01*
X+6591065Y+12571974D01*
X+6577091Y+12558000D01*
X+6220000Y+12558000D01*
X+2050000Y+13700000D02*
X+1928501Y+13578501D01*
X+1928501Y+13363418D01*
X+1928501Y+9621499D01*
X+2350000Y+9200000D01*
X+3550000Y+9200000D01*
X+2050000Y+13700000D02*
X+2650000Y+13700000D01*
X+3680000Y+15098000D02*
X+3548000Y+15098000D01*
X+3450000Y+15000000D01*
X+3450000Y+14500001D01*
X+3149999Y+14200000D01*
X+2750000Y+14200000D01*
X+2546361Y+13996361D01*
X+2224880Y+13996357D01*
X+2219292Y+13445884D02*
X+2219292Y+12584722D01*
X+2367089Y+12436925D01*
X+2643075Y+12436925D01*
X+2650000Y+12430000D01*
X+3680000Y+15352000D02*
X+3401999Y+15352000D01*
X+3150000Y+15100001D01*
X+3150000Y+14700000D01*
X+2950000Y+14500000D01*
X+2350000Y+14500000D01*
X+1929062Y+14079062D01*
X+1929062Y+13820938D01*
X+2050000Y+13700000D01*
X+2650000Y+12430000D02*
X+2450000Y+12430000D01*
X+2450000Y+11032100D01*
X+2507250Y+10974850D01*
X+3550000Y+9454000D02*
X+2642089Y+9454000D01*
X+2509823Y+9586266D01*
X+2509823Y+10972277D01*
X+2507250Y+10974850D01*
X+6928666Y+6992000D02*
X+7399202Y+6992000D01*
X+7450494Y+7043292D01*
X+7450000Y+6992000D01*
X+7399202Y+6992000D02*
X+7450000Y+6992000D01*
X+12950000Y+3812000D02*
X+13592184Y+3812000D01*
X+13750000Y+3969816D01*
X+13750000Y+6865207D01*
X+14107361Y+7222568D01*
X+15717432Y+7222568D01*
X+15720000Y+7220000D01*
X+12950000Y+3558000D02*
X+13717094Y+3558000D01*
X+13950000Y+3790906D01*
X+13950000Y+6643559D01*
X+14277873Y+6971432D01*
X+15714568Y+6971432D01*
X+15720000Y+6966000D01*
X+12950000Y+3304000D02*
X+13873000Y+3304000D01*
X+14150000Y+3581000D01*
X+14150000Y+6358798D01*
X+14501841Y+6710639D01*
X+15718639Y+6710639D01*
X+15720000Y+6712000D01*
X+12150000Y+7292000D02*
X+12766574Y+7292000D01*
X+12833925Y+7224649D01*
X+13175351Y+7224649D01*
X+13180000Y+7220000D01*
X+12150000Y+6784000D02*
X+12788000Y+6784000D01*
X+12950000Y+6946000D01*
X+13160000Y+6946000D01*
X+13180000Y+6966000D01*
X+12150000Y+6530000D02*
X+12862691Y+6530000D01*
X+13021476Y+6688785D01*
X+13044691Y+6712000D01*
X+13180000Y+6712000D01*
X+12150000Y+7038000D02*
X+12470399Y+7038000D01*
X+12470399Y+6303499D02*
X+12470399Y+5670307D01*
X+12698706Y+5442000D01*
X+13180000Y+5442000D01*
X+16950000Y+4054000D02*
X+16858000Y+4146000D01*
X+15750000Y+4146000D01*
X+15496000Y+4146000D02*
X+15496000Y+3982423D01*
X+15654530Y+3823893D01*
X+15678423Y+3800000D01*
X+16950000Y+3800000D01*
X+16950000Y+3546000D02*
X+15402782Y+3546000D01*
X+15233095Y+3715687D01*
X+15233095Y+4137095D01*
X+15242000Y+4146000D01*
D11*
X+7450000Y+15600000D02*
X+7850000Y+15600000D01*
X+8144943Y+15305057D01*
X+8144943Y+9556734D01*
X+7450000Y+8861791D01*
X+7450000Y+7500000D01*
X+17450000Y+9246000D02*
X+16950000Y+9246000D01*
X+17450000Y+9246000D02*
X+17650000Y+9446000D01*
X+17650000Y+17279827D01*
X+17489336Y+17440491D01*
X+17483827Y+17446000D01*
X+16950000Y+17446000D01*
D10*
X+6704294Y+15092000D02*
X+6950000Y+15092000D01*
X+7450000Y+15092000D02*
X+6950000Y+15092000D01*
X+6704294Y+15092000D02*
X+6566050Y+14953756D01*
X+6566050Y+14729771D01*
X+6422699Y+14586420D01*
X+4397867Y+14586420D01*
X+4281394Y+14702893D01*
X+4281394Y+14968606D01*
X+4150000Y+15100000D01*
X+3682000Y+15100000D01*
X+3680000Y+15098000D01*
X+13180000Y+8998000D02*
X+12407943Y+8998000D01*
X+12272682Y+8862739D01*
X+12134638Y+8724695D01*
X+11499638Y+8724695D01*
X+11333986Y+8559043D01*
X+11315580Y+8559043D01*
X+11315580Y+7680420D01*
X+11450000Y+7546000D01*
X+12150000Y+7546000D01*
X+13180000Y+8744000D02*
X+12537398Y+8744000D01*
X+12271659Y+8478261D01*
X+12206216Y+8412818D01*
X+11789018Y+8412818D01*
X+11654042Y+8277842D01*
X+11654042Y+7850042D01*
X+11650000Y+7846000D01*
X+11645862Y+7304381D02*
X+11645862Y+6429083D01*
X+11789018Y+6285927D01*
X+11798945Y+6276000D01*
X+12150000Y+6276000D01*
X+15720000Y+7728000D02*
X+16323754Y+7728000D01*
X+16468470Y+7583284D01*
X+16468470Y+7420222D01*
X+16675432Y+7213260D01*
X+17007826Y+7213260D01*
X+17032913Y+7188173D01*
X+16950000Y+7214000D01*
X+16950000Y+7722000D02*
X+17151333Y+7722000D01*
X+17321407Y+7551926D01*
X+17321407Y+7012568D01*
X+17227333Y+6918494D01*
X+17089358Y+6780519D01*
X+16901209Y+6780519D01*
X+16443384Y+6780519D01*
X+16261507Y+6598642D01*
X+16261507Y+6366593D01*
X+16104717Y+6209803D01*
X+16098914Y+6204000D01*
X+15720000Y+6204000D01*
X+15720000Y+7474000D02*
X+15398692Y+7474000D01*
X+15314494Y+7558198D01*
X+15314494Y+7810494D01*
X+15500000Y+7996000D01*
X+16680494Y+7996000D01*
X+16797600Y+8113106D01*
X+16950000Y+8230000D01*
X+11916050Y+4612050D02*
X+12007250Y+4520850D01*
X+12031678Y+4496422D01*
X+12031678Y+3197633D01*
X+12179311Y+3050000D01*
X+12950000Y+3050000D01*
X+11798945Y+6276000D02*
X+11728229Y+6205284D01*
X+11728229Y+5076296D01*
X+11728229Y+4799871D01*
X+11916050Y+4612050D01*
X+12950000Y+2796000D02*
X+11913031Y+2796000D01*
X+11706428Y+3002603D01*
X+11706428Y+4289572D01*
X+11450000Y+4546000D01*
X+11450000Y+5947233D01*
X+11350000Y+6047233D01*
X+11350000Y+7446000D01*
X+11450000Y+7546000D01*
X+12150000Y+15462000D02*
X+12734000Y+15462000D01*
X+12750000Y+15446000D01*
X+12776000Y+15420000D01*
X+13180000Y+15420000D01*
X+12150000Y+15716000D02*
X+11550000Y+15716000D01*
X+11782920Y+15981918D02*
X+11782920Y+16703880D01*
X+11979820Y+16900780D01*
X+12023040Y+16944000D01*
X+13180000Y+16944000D01*
X+16950000Y+12254000D02*
X+16858000Y+12346000D01*
X+15750000Y+12346000D01*
X+15496000Y+12346000D02*
X+15496000Y+12182423D01*
X+15654530Y+12023893D01*
X+15678423Y+12000000D01*
X+16950000Y+12000000D01*
X+16950000Y+11746000D02*
X+15402782Y+11746000D01*
X+15233095Y+11915687D01*
X+15233095Y+12337095D01*
X+15242000Y+12346000D01*
X+12150000Y+14954000D02*
X+12504000Y+14954000D01*
X+12716000Y+15166000D01*
X+13180000Y+15166000D01*
X+12150000Y+14700000D02*
X+12650001Y+14700000D01*
X+12862001Y+14912000D01*
X+13180000Y+14912000D01*
X+13180000Y+14658000D02*
X+12982866Y+14658000D01*
X+12841334Y+14516468D01*
X+12267823Y+13942957D01*
X+10486234Y+13942957D01*
X+10321076Y+13942957D01*
X+10121749Y+13743630D01*
X+10088000Y+13709881D01*
X+10088000Y+12900000D01*
X+10342000Y+12900000D02*
X+10342000Y+13547772D01*
X+10489282Y+13695054D01*
X+12445054Y+13695054D01*
X+12650000Y+13900000D01*
X+13176000Y+13900000D01*
X+13180000Y+13896000D01*
X+9580000Y+12900000D02*
X+9580000Y+13753892D01*
X+10087059Y+14260951D01*
X+11466502Y+14260951D01*
X+11789484Y+14583933D01*
X+11789484Y+14800000D01*
X+12150000Y+14446000D02*
X+11927417Y+14446000D01*
X+11789484Y+14583933D01*
X+11789484Y+14800000D02*
X+11789484Y+15437163D01*
X+11350000Y+15846000D02*
X+11350000Y+16033466D01*
X+11550000Y+15716000D02*
X+11480000Y+15716000D01*
X+11350000Y+15846000D01*
X+11350000Y+16033466D02*
X+11350000Y+16946000D01*
X+11550000Y+17146000D01*
X+11602000Y+17198000D01*
X+13180000Y+17198000D01*
X+13180000Y+16182000D02*
X+13378180Y+16182000D01*
X+13650000Y+15910180D01*
X+13650000Y+13200000D01*
X+13176607Y+12726607D01*
X+11976607Y+12726607D01*
X+11750000Y+12500000D01*
X+10715928Y+12500000D01*
X+10598507Y+12617421D01*
X+10598507Y+12897493D01*
X+10596000Y+12900000D01*
X+12950000Y+12012000D02*
X+13601625Y+12012000D01*
X+13850000Y+12260375D01*
X+13850000Y+15163075D01*
X+14106925Y+15420000D01*
X+15720000Y+15420000D01*
X+12950000Y+11758000D02*
X+13690481Y+11758000D01*
X+14050000Y+12117519D01*
X+14050000Y+14905566D01*
X+14310434Y+15166000D01*
X+15720000Y+15166000D01*
X+12950000Y+11504000D02*
X+13846292Y+11504000D01*
X+14250000Y+11907708D01*
X+14250000Y+14672530D01*
X+14489470Y+14912000D01*
X+15720000Y+14912000D01*
X+13180000Y+13642000D02*
X+13356688Y+13642000D01*
X+13435053Y+13720365D01*
X+13435053Y+15639956D01*
X+13421170Y+15653839D01*
X+13375009Y+15700000D01*
X+13250000Y+15700000D01*
X+13232205Y+15682205D01*
X+12451586Y+15682205D01*
X+12454165Y+15256723D02*
X+12405442Y+15208000D01*
X+12150000Y+15208000D01*
X+15720000Y+15928000D02*
X+16399706Y+15928000D01*
X+16507248Y+15820458D01*
X+16507248Y+15587431D01*
X+16606285Y+15488394D01*
X+16680679Y+15414000D01*
X+16950000Y+15414000D01*
X+16950000Y+15922000D02*
X+17163045Y+15922000D01*
X+17346146Y+15738899D01*
X+17346146Y+14696101D01*
X+17089816Y+14439771D01*
X+17054045Y+14404000D01*
X+15720000Y+14404000D01*
X+9761338Y+12548887D02*
X+9761338Y+11221737D01*
X+9903640Y+11079435D01*
X+9987075Y+10996000D01*
X+12950000Y+10996000D01*
X+9834000Y+12900000D02*
X+9834000Y+12621549D01*
X+9761338Y+12548887D01*
X+9375442Y+12548887D01*
X+9317846Y+12606483D01*
X+9317846Y+15467846D01*
X+9550000Y+15700000D01*
X+11204000Y+15700000D01*
X+11350000Y+15846000D01*
X+13980584Y+8746000D02*
X+13280000Y+8746000D01*
X+13180000Y+8744000D01*
X+16950000Y+8738000D02*
X+16513112Y+8738000D01*
X+16021112Y+8246000D01*
X+14480584Y+8246000D01*
X+13980584Y+8746000D01*
X+13280000Y+8746000D02*
X+13182000Y+8746000D01*
X+13180000Y+8744000D01*
X+10807250Y+4974850D02*
X+10807250Y+2869961D01*
X+11290724Y+2386487D01*
X+13250152Y+2386487D01*
X+13304581Y+2440916D01*
X+13409407Y+2545742D01*
X+13409407Y+2916661D01*
X+13276068Y+3050000D01*
X+12950000Y+3050000D01*
D12*
X+9092750Y+7280972D02*
X+9092750Y+7055910D01*
X+9092750Y+4974850D02*
X+9092750Y+7055910D01*
D11*
X+9092750Y+7280972D02*
X+8827778Y+7545944D01*
X+7495944Y+7545944D01*
X+7450000Y+7500000D01*
D10*
X+7450000Y+16300000D02*
X+7450000Y+15600000D01*
X+8466000Y+16300000D02*
X+9050000Y+16300000D01*
X+9304000Y+17300000D02*
X+9304000Y+16300000D01*
X+6220000Y+15352000D02*
X+6220000Y+16611332D01*
X+6608668Y+17000000D01*
X+7450000Y+17000000D01*
X+8466000Y+17000000D02*
X+8466000Y+17076014D01*
X+8689986Y+17300000D01*
X+9050000Y+17300000D01*
X+7450000Y+17000000D02*
X+7450000Y+17392239D01*
X+7757761Y+17700000D01*
X+15496350Y+17700000D01*
X+15721750Y+17474600D01*
X+15721750Y+17199750D01*
X+15720000Y+17198000D01*
X+15720000Y+15674000D02*
X+15476000Y+15674000D01*
X+15350000Y+15800000D01*
X+15350000Y+16024680D01*
X+15501011Y+16175691D01*
X+16172357Y+16175691D01*
X+16369057Y+16372391D01*
X+16426666Y+16430000D01*
X+16950000Y+16430000D01*
X+16950000Y+16938000D02*
X+16486048Y+16938000D01*
X+16097037Y+16548989D01*
X+15985859Y+16437811D01*
X+15819091Y+16437811D01*
X+13712189Y+16437811D01*
X+13650000Y+16500000D01*
X+13650000Y+16759717D01*
X+13465717Y+16944000D01*
X+13280000Y+16944000D01*
X+13180000Y+16944000D01*
X+13280000Y+16944000D01*
X+13465717Y+16944000D01*
X+13602475Y+17080758D01*
X+13602475Y+17292424D01*
X+13448536Y+17446363D01*
X+11396363Y+17446363D01*
X+11250000Y+17300000D01*
X+9304000Y+17300000D01*
X+7450000Y+6992000D02*
X+8230989Y+6992000D01*
X+8491725Y+6731264D01*
X+8491725Y+4716782D01*
X+8812874Y+4395633D01*
X+9425978Y+4395633D01*
X+9922299Y+4891954D01*
X+10005195Y+4974850D01*
X+10807250Y+4974850D01*
X+8950000Y+15856865D02*
X+8950000Y+11393175D01*
X+9771001Y+10572174D01*
X+13322174Y+10572174D01*
X+13450000Y+10700000D01*
X+13450000Y+11118341D01*
X+13390458Y+11177883D01*
X+13318341Y+11250000D01*
X+12950000Y+11250000D01*
X+6704294Y+15092000D02*
X+6565423Y+15230871D01*
X+6565423Y+15338757D01*
X+6565423Y+16419204D01*
X+6767612Y+16621393D01*
X+7772238Y+16621393D01*
X+8050248Y+16343383D01*
X+8050248Y+16046417D01*
X+8239800Y+15856865D01*
X+8950000Y+15856865D01*
X+9137014Y+15856865D01*
X+9288656Y+16008507D01*
X+9304000Y+16023851D01*
X+9304000Y+16300000D01*
D11*
X+16950000Y+9246000D02*
X+16544507Y+9246000D01*
X+16090507Y+9700000D01*
X+11781087Y+9700000D01*
X+10898841Y+8817754D01*
X+10898841Y+7704203D01*
X+10802721Y+7608083D01*
X+9419861Y+7608083D01*
X+9092750Y+7280972D01*
D10*
X+15720000Y+8998000D02*
X+15720000Y+9264569D01*
X+15645591Y+9338978D01*
X+12195669Y+9338978D01*
X+12194484Y+9337793D01*
X+12194484Y+10072694D02*
X+8922694Y+10072694D01*
X+8650000Y+9800000D01*
X+8650000Y+9436211D01*
X+8003715Y+8789926D01*
X+7809231Y+8595442D01*
X+7808496Y+8595442D01*
X+5367126Y+7580599D02*
X+5698714Y+7912187D01*
X+5698714Y+8123292D01*
X+5698714Y+8355893D01*
X+5922010Y+8579189D01*
X+7062571Y+8579189D01*
X+7069588Y+8586206D01*
X+1912276Y+7877186D02*
X+2208863Y+7580599D01*
X+5367126Y+7580599D01*
X+5716946Y+7230779D01*
X+6198779Y+7230779D01*
X+6220000Y+7252000D01*
X+3550000Y+9454000D02*
X+4324750Y+9454000D01*
X+4593389Y+9185361D01*
X+4593389Y+7869905D01*
X+4597981Y+7865313D01*
X+4597981Y+7333035D02*
X+4597981Y+7007339D01*
X+4607320Y+6998000D01*
X+4750000Y+6998000D01*
X+3680000Y+6998000D02*
X+4607320Y+6998000D01*
X+4750000Y+6998000D02*
X+5385333Y+6998000D01*
X+5870000Y+6513333D01*
X+5880000Y+6503333D01*
X+6390000Y+6503333D01*
X+6439999Y+6503333D01*
X+6696666Y+6760000D01*
X+6928666Y+6992000D01*
X+792750Y+10974850D02*
X+792750Y+13815601D01*
X+1743320Y+14766172D01*
X+2796053Y+14766172D01*
X+2899087Y+14869206D01*
X+2899087Y+15267900D01*
X+3269783Y+15638596D01*
X+4256441Y+15638596D01*
X+4543037Y+15352000D01*
X+6220000Y+15352000D01*
D13*
X+1550000Y+1400000D02*
X+2206340Y+743660D01*
X+7593660Y+743660D01*
X+8494443Y+1644443D01*
X+10505557Y+1644443D01*
X+10807250Y+1342750D01*
X+10807250Y+1025150D01*
X+1042000Y+1400000D02*
X+1042000Y+1208000D01*
X+1939542Y+310458D01*
X+7860244Y+310458D01*
X+8574936Y+1025150D01*
X+9092750Y+1025150D01*
X+2507250Y+7025150D02*
X+1825150Y+7025150D01*
X+1550000Y+6750000D01*
X+1550000Y+1400000D01*
X+792750Y+7025150D02*
X+800000Y+7025150D01*
X+800000Y+2750000D01*
X+1050000Y+2500000D01*
X+1050000Y+1400000D01*
X+1042000Y+1400000D01*
D14*
X+2000000Y+21750000D02*
X+2000000Y+20796297D01*
X+2296297Y+20500000D01*
X+2550000Y+20500000D01*
X+2750000Y+21750000D02*
X+2750000Y+21352880D01*
X+2966996Y+21135884D01*
X+3058000Y+21044880D01*
X+3058000Y+20500000D01*
X+3058000Y+20166857D01*
X+3165597Y+20059260D01*
X+3280577Y+19944280D01*
X+6761316Y+19944280D01*
X+6949464Y+19944280D01*
X+7058000Y+20052816D01*
X+7058000Y+20500000D01*
X+11088413Y+20163589D02*
X+11252002Y+20000000D01*
X+14750000Y+20000000D01*
X+14986564Y+20000000D01*
X+15058000Y+20071436D01*
X+15058000Y+20500000D01*
X+7058000Y+20052816D02*
X+7136151Y+19974665D01*
X+10930975Y+19974665D01*
X+11088413Y+20132103D01*
X+11088413Y+20163589D01*
X+11088413Y+20469587D01*
X+11058000Y+20500000D01*
D13*
X+4250000Y+21750000D02*
X+4250000Y+21307149D01*
X+4073851Y+21131000D01*
X+4073851Y+20500149D01*
X+4074000Y+20500000D01*
X+5000000Y+21750000D02*
X+5000000Y+21266927D01*
X+4798221Y+21065148D01*
X+4582000Y+20848927D01*
X+4582000Y+20500000D01*
X+6750000Y+21750000D02*
X+6750000Y+21265999D01*
X+6877944Y+21138055D01*
X+7322444Y+21138055D01*
X+7498833Y+20961666D01*
X+7566000Y+20894499D01*
X+7566000Y+20500000D01*
X+7500000Y+21750000D02*
X+7500000Y+21553165D01*
X+7682277Y+21370888D01*
X+8074000Y+20979165D01*
X+8074000Y+20500000D01*
X+8250000Y+21750000D02*
X+8582000Y+21418000D01*
X+8582000Y+20500000D01*
X+10750000Y+21750000D02*
X+10750000Y+21220833D01*
X+10808556Y+21162277D01*
X+10963778Y+21007055D01*
X+11443556Y+21007055D01*
X+11542333Y+20908278D01*
X+11542333Y+20523667D01*
X+11566000Y+20500000D01*
X+11500000Y+21750000D02*
X+11500000Y+21585610D01*
X+11873944Y+21211666D01*
X+12074000Y+21011610D01*
X+12074000Y+20500000D01*
X+12250000Y+21750000D02*
X+12582000Y+21418000D01*
X+12582000Y+20500000D01*
X+15500000Y+21750000D02*
X+15500000Y+21612764D01*
X+16048481Y+21064283D01*
X+16048481Y+20525519D01*
X+16074000Y+20500000D01*
X+16250000Y+21750000D02*
X+16582000Y+21418000D01*
X+16582000Y+20500000D01*
X+3500000Y+21750000D02*
X+3500000Y+21179507D01*
X+3577754Y+21101753D01*
X+3577754Y+20511754D01*
X+3566000Y+20500000D01*
D14*
X+6037389Y+21915110D02*
X+6037389Y+21371833D01*
X+6418389Y+20990833D01*
X+6550000Y+20859222D01*
X+6550000Y+20500000D01*
D13*
X+1900000Y+24500000D02*
X+1900000Y+23800000D01*
X+2300000Y+23400000D01*
X+2900000Y+24500000D02*
X+2900000Y+23492000D01*
X+2808000Y+23400000D01*
X+3900000Y+24500000D02*
X+3900000Y+23550000D01*
X+4050000Y+23400000D01*
X+4900000Y+24500000D02*
X+4900000Y+23742000D01*
X+4558000Y+23400000D01*
X+5900000Y+24500000D02*
X+5900000Y+23800000D01*
X+6300000Y+23400000D01*
X+6900000Y+24500000D02*
X+6900000Y+23492000D01*
X+6808000Y+23400000D01*
X+7900000Y+24500000D02*
X+7900000Y+23550000D01*
X+8050000Y+23400000D01*
X+8900000Y+24500000D02*
X+8900000Y+23742000D01*
X+8558000Y+23400000D01*
X+9900000Y+24500000D02*
X+9900000Y+23800000D01*
X+10300000Y+23400000D01*
X+10900000Y+24500000D02*
X+10900000Y+23492000D01*
X+10808000Y+23400000D01*
X+11900000Y+24500000D02*
X+11900000Y+23550000D01*
X+12050000Y+23400000D01*
X+12900000Y+24500000D02*
X+12900000Y+23742000D01*
X+12558000Y+23400000D01*
X+13900000Y+24500000D02*
X+13900000Y+23800000D01*
X+14300000Y+23400000D01*
X+14900000Y+24500000D02*
X+14900000Y+23492000D01*
X+14808000Y+23400000D01*
X+15900000Y+24500000D02*
X+15900000Y+23550000D01*
X+16050000Y+23400000D01*
X+16900000Y+24500000D02*
X+16900000Y+23742000D01*
X+16558000Y+23400000D01*
D14*
X+2000000Y+21750000D02*
X+2000000Y+22111054D01*
X+2388946Y+22500000D01*
X+5452499Y+22500000D01*
X+6037389Y+21915110D01*
X+6622279Y+22500000D01*
X+9692887Y+22500000D01*
X+10143722Y+22049165D01*
X+10143722Y+20856278D01*
X+10500000Y+20500000D01*
X+10550000Y+20500000D01*
X+10143722Y+22049165D02*
X+10594557Y+22500000D01*
X+13673985Y+22500000D01*
X+14091306Y+22082679D01*
X+14091306Y+20908695D01*
X+14500001Y+20500000D01*
X+14550000Y+20500000D01*
D13*
X+14750000Y+21750000D02*
X+14750000Y+21500000D01*
X+15317420Y+20932580D01*
X+15430728Y+20932580D01*
X+15566000Y+20797308D01*
X+15566000Y+20500000D01*
D15*
X+2950000Y+5100000D03*
X+2946895Y+4359943D03*
X+2286948Y+5885957D03*
X+2280339Y+5324206D03*
X+3006618Y+13201728D03*
X+3010103Y+12463072D03*
X+2224880Y+13996357D03*
X+2219292Y+13445884D03*
X+12470399Y+7038000D03*
X+12470399Y+6303499D03*
X+11650000Y+7846000D03*
X+11645862Y+7304381D03*
X+11789484Y+15437163D03*
X+11782920Y+15981918D03*
X+12451586Y+15682205D03*
X+12454165Y+15256723D03*
X+12194484Y+9337793D03*
X+12194484Y+10072694D03*
X+7808496Y+8595442D03*
X+7069588Y+8586206D03*
X+4597981Y+7865313D03*
X+4597981Y+7333035D03*
D16*
X+792750Y+7025150D03*
X+2507250Y+7025150D03*
X+792750Y+10974850D03*
X+2507250Y+10974850D03*
X+9092750Y+1025150D03*
X+10807250Y+1025150D03*
X+9092750Y+4974850D03*
X+10807250Y+4974850D03*
D17*
X+1550000Y+1400000D03*
X+1042000Y+1400000D03*
D18*
X+12150000Y+15716000D03*
X+12150000Y+15462000D03*
X+12150000Y+15208000D03*
X+12150000Y+14954000D03*
X+12150000Y+14700000D03*
X+12150000Y+14446000D03*
D19*
X+13180000Y+17198000D03*
D70*
X+13180000Y+16944000D03*
X+13180000Y+16690000D03*
X+13180000Y+16436000D03*
X+13180000Y+16182000D03*
X+13180000Y+15928000D03*
X+13180000Y+15420000D03*
X+13180000Y+15166000D03*
X+13180000Y+14912000D03*
X+13180000Y+14658000D03*
X+13180000Y+14404000D03*
X+13180000Y+14150000D03*
X+13180000Y+13896000D03*
X+13180000Y+13642000D03*
X+15720000Y+13642000D03*
X+15720000Y+13896000D03*
X+15720000Y+14150000D03*
X+15720000Y+14404000D03*
X+15720000Y+14658000D03*
X+15720000Y+14912000D03*
X+15720000Y+15166000D03*
X+15720000Y+15420000D03*
X+15720000Y+15674000D03*
X+15720000Y+15928000D03*
X+15720000Y+16690000D03*
X+15720000Y+16944000D03*
X+15720000Y+17198000D03*
D71*
X+13222000Y+13299000D03*
X+15673010Y+13299000D03*
X+15673010Y+17993000D03*
X+13222000Y+17993000D03*
D18*
X+12950000Y+10996000D03*
X+12950000Y+11250000D03*
X+12950000Y+11504000D03*
X+12950000Y+11758000D03*
X+12950000Y+12012000D03*
X+12950000Y+12266000D03*
X+15750000Y+12346000D03*
X+15496000Y+12346000D03*
X+15242000Y+12346000D03*
X+14988000Y+12346000D03*
X+14734000Y+12346000D03*
D17*
X+16950000Y+17446000D03*
X+16950000Y+16938000D03*
X+16950000Y+16430000D03*
X+16950000Y+15922000D03*
X+16950000Y+15414000D03*
D19*
X+13180000Y+8998000D03*
D70*
X+13180000Y+8744000D03*
X+13180000Y+8490000D03*
X+13180000Y+8236000D03*
X+13180000Y+7982000D03*
X+13180000Y+7728000D03*
X+13180000Y+7474000D03*
X+13180000Y+7220000D03*
X+13180000Y+6966000D03*
X+13180000Y+6712000D03*
X+13180000Y+6458000D03*
X+13180000Y+6204000D03*
X+13180000Y+5950000D03*
X+13180000Y+5696000D03*
X+13180000Y+5442000D03*
X+15720000Y+5442000D03*
X+15720000Y+5696000D03*
X+15720000Y+5950000D03*
X+15720000Y+6204000D03*
X+15720000Y+6458000D03*
X+15720000Y+6712000D03*
X+15720000Y+6966000D03*
X+15720000Y+7220000D03*
X+15720000Y+7474000D03*
X+15720000Y+7728000D03*
X+15720000Y+8490000D03*
X+15720000Y+8744000D03*
X+15720000Y+8998000D03*
D71*
X+13222000Y+5099000D03*
X+15673010Y+5099000D03*
D19*
X+3680000Y+15352000D03*
D70*
X+3680000Y+15098000D03*
X+3680000Y+14844000D03*
X+3680000Y+14590000D03*
X+3680000Y+14336000D03*
X+3680000Y+14082000D03*
X+3680000Y+13828000D03*
X+3680000Y+13574000D03*
X+3680000Y+13320000D03*
X+3680000Y+13066000D03*
X+3680000Y+12812000D03*
X+3680000Y+12558000D03*
X+3680000Y+12304000D03*
X+3680000Y+12050000D03*
X+3680000Y+11796000D03*
X+6220000Y+11796000D03*
X+6220000Y+12050000D03*
X+6220000Y+12304000D03*
X+6220000Y+12558000D03*
X+6220000Y+12812000D03*
X+6220000Y+13066000D03*
X+6220000Y+13320000D03*
X+6220000Y+13574000D03*
X+6220000Y+13828000D03*
X+6220000Y+14082000D03*
X+6220000Y+14844000D03*
X+6220000Y+15098000D03*
X+6220000Y+15352000D03*
D71*
X+3722000Y+11453000D03*
X+6173010Y+11453000D03*
D19*
X+3680000Y+7252000D03*
D70*
X+3680000Y+6998000D03*
X+3680000Y+6744000D03*
X+3680000Y+6490000D03*
X+3680000Y+6236000D03*
X+3680000Y+5982000D03*
X+3680000Y+5728000D03*
X+3680000Y+5474000D03*
X+3680000Y+5220000D03*
X+3680000Y+4966000D03*
X+3680000Y+4712000D03*
X+3680000Y+4458000D03*
X+3680000Y+4204000D03*
X+3680000Y+3950000D03*
X+3680000Y+3696000D03*
X+6220000Y+3696000D03*
X+6220000Y+3950000D03*
X+6220000Y+4204000D03*
X+6220000Y+4458000D03*
X+6220000Y+4712000D03*
X+6220000Y+4966000D03*
X+6220000Y+5220000D03*
X+6220000Y+5474000D03*
X+6220000Y+5728000D03*
X+6220000Y+5982000D03*
X+6220000Y+6744000D03*
X+6220000Y+6998000D03*
X+6220000Y+7252000D03*
D71*
X+3722000Y+3353000D03*
X+6173010Y+3353000D03*
X+6173010Y+8047000D03*
X+3722000Y+8047000D03*
D18*
X+12950000Y+2796000D03*
X+12950000Y+3050000D03*
X+12950000Y+3304000D03*
X+12950000Y+3558000D03*
X+12950000Y+3812000D03*
X+12950000Y+4066000D03*
X+15750000Y+4146000D03*
X+15496000Y+4146000D03*
X+15242000Y+4146000D03*
X+14988000Y+4146000D03*
X+14734000Y+4146000D03*
X+14480000Y+4146000D03*
X+3550000Y+1100000D03*
X+3550000Y+1354000D03*
X+3550000Y+1608000D03*
X+3550000Y+1862000D03*
X+3550000Y+2116000D03*
X+3550000Y+2370000D03*
X+6350000Y+2450000D03*
X+6096000Y+2450000D03*
X+5842000Y+2450000D03*
X+5588000Y+2450000D03*
X+5334000Y+2450000D03*
X+3550000Y+9200000D03*
X+3550000Y+9454000D03*
X+3550000Y+9708000D03*
X+3550000Y+9962000D03*
X+3550000Y+10216000D03*
X+3550000Y+10470000D03*
X+6350000Y+10550000D03*
X+6096000Y+10550000D03*
X+5842000Y+10550000D03*
X+5588000Y+10550000D03*
X+5334000Y+10550000D03*
X+2650000Y+13700000D03*
X+2650000Y+13446000D03*
X+2650000Y+13192000D03*
X+2650000Y+12938000D03*
X+2650000Y+12684000D03*
X+2650000Y+12430000D03*
D17*
X+7450000Y+15600000D03*
X+7450000Y+15092000D03*
X+7450000Y+14584000D03*
X+7450000Y+14076000D03*
X+7450000Y+13568000D03*
D18*
X+2650000Y+5600000D03*
X+2650000Y+5346000D03*
X+2650000Y+5092000D03*
X+2650000Y+4838000D03*
X+2650000Y+4584000D03*
X+2650000Y+4330000D03*
D17*
X+7450000Y+7500000D03*
X+7450000Y+6992000D03*
X+7450000Y+6484000D03*
X+7450000Y+5976000D03*
X+7450000Y+5468000D03*
D18*
X+12150000Y+7546000D03*
X+12150000Y+7292000D03*
X+12150000Y+7038000D03*
X+12150000Y+6784000D03*
X+12150000Y+6530000D03*
X+12150000Y+6276000D03*
D17*
X+16950000Y+9246000D03*
X+16950000Y+8738000D03*
X+16950000Y+8230000D03*
X+16950000Y+7722000D03*
X+16950000Y+7214000D03*
D20*
X+7450000Y+1800000D03*
X+7450000Y+2054000D03*
X+7450000Y+2308000D03*
X+7450000Y+9900000D03*
X+7450000Y+10154000D03*
X+7450000Y+10408000D03*
X+16950000Y+3546000D03*
X+16950000Y+3800000D03*
X+16950000Y+4054000D03*
X+16950000Y+11746000D03*
X+16950000Y+12000000D03*
X+16950000Y+12254000D03*
D18*
X+9580000Y+12900000D03*
X+9834000Y+12900000D03*
X+10088000Y+12900000D03*
X+10342000Y+12900000D03*
X+10596000Y+12900000D03*
X+10850000Y+12900000D03*
X+9880000Y+9400000D03*
X+10134000Y+9400000D03*
X+10388000Y+9400000D03*
X+10642000Y+9400000D03*
D21*
X+7450000Y+16300000D03*
X+8466000Y+16300000D03*
X+7450000Y+17000000D03*
X+8466000Y+17000000D03*
D18*
X+9050000Y+16300000D03*
X+9304000Y+16300000D03*
X+9050000Y+17300000D03*
X+9304000Y+17300000D03*
D22*
X+14550000Y+750000D03*
X+16800000Y+5500000D03*
X+3550000Y+17750000D03*
X+16800000Y+10500000D03*
X+1050000Y+15250000D03*
X+7300000Y+11750000D03*
X+7300000Y+3750000D03*
X+16800000Y+13500000D03*
X+6800000Y+17750000D03*
X+11800000Y+750000D03*
D17*
X+2550000Y+20500000D03*
X+3058000Y+20500000D03*
X+3566000Y+20500000D03*
X+4074000Y+20500000D03*
X+4582000Y+20500000D03*
X+6550000Y+20500000D03*
X+7058000Y+20500000D03*
X+7566000Y+20500000D03*
X+8074000Y+20500000D03*
X+8582000Y+20500000D03*
X+10550000Y+20500000D03*
X+11058000Y+20500000D03*
X+11566000Y+20500000D03*
X+12074000Y+20500000D03*
X+12582000Y+20500000D03*
X+14550000Y+20500000D03*
X+15058000Y+20500000D03*
X+15566000Y+20500000D03*
X+16074000Y+20500000D03*
X+16582000Y+20500000D03*
X+2300000Y+23400000D03*
X+2808000Y+23400000D03*
X+4050000Y+23400000D03*
X+4558000Y+23400000D03*
X+6300000Y+23400000D03*
X+6808000Y+23400000D03*
X+8050000Y+23400000D03*
X+8558000Y+23400000D03*
X+10300000Y+23400000D03*
X+10808000Y+23400000D03*
X+12050000Y+23400000D03*
X+12558000Y+23400000D03*
X+14300000Y+23400000D03*
X+14808000Y+23400000D03*
X+16050000Y+23400000D03*
X+16558000Y+23400000D03*
D23*
X+2000000Y+21750000D03*
X+2750000Y+21750000D03*
X+3500000Y+21750000D03*
X+4250000Y+21750000D03*
X+5000000Y+21750000D03*
X+6750000Y+21750000D03*
X+7500000Y+21750000D03*
X+8250000Y+21750000D03*
X+10750000Y+21750000D03*
X+11500000Y+21750000D03*
X+12250000Y+21750000D03*
X+14750000Y+21750000D03*
X+15500000Y+21750000D03*
X+16250000Y+21750000D03*
X+1900000Y+24500000D03*
X+2900000Y+24500000D03*
X+3900000Y+24500000D03*
X+4900000Y+24500000D03*
X+5900000Y+24500000D03*
X+6900000Y+24500000D03*
X+7900000Y+24500000D03*
X+8900000Y+24500000D03*
X+9900000Y+24500000D03*
X+10900000Y+24500000D03*
X+11900000Y+24500000D03*
X+12900000Y+24500000D03*
X+13900000Y+24500000D03*
X+14900000Y+24500000D03*
X+15900000Y+24500000D03*
X+16900000Y+24500000D03*
D22*
X+750000Y+23500000D03*
X+750000Y+20250000D03*
X+18000000Y+23500000D03*
X+18000000Y+20500000D03*
D24*
X+0Y+0D02*
X+18100000Y+0D01*
X+18100000Y+18500000D01*
X+0Y+18500000D01*
X+0Y+0D01*
X+0Y+15250000D02*
X+3250000Y+18500000D01*
X+14850000Y+0D02*
X+18100000Y+3250000D01*
X+0Y+19500000D02*
X+18750000Y+19500000D01*
X+18750000Y+25250000D01*
X+0Y+25250000D01*
X+0Y+19500000D01*
M02*
