M48
METRIC,TZ
T01C0.5080
T02C1.5240
T03C1.0160
T04C2.9970
T05C0.7620
T06C3.0000
T07C2.0320
T08C4.0000
%
T01
X+29500Y+51000
X+29469Y+43599
X+22869Y+58860
X+22803Y+53242
X+30066Y+132017
X+30101Y+124631
X+22249Y+139964
X+22193Y+134459
X+124704Y+70380
X+124704Y+63035
X+116500Y+78460
X+116459Y+73044
X+117895Y+154372
X+117829Y+159819
X+124516Y+156822
X+124542Y+152567
X+121945Y+93378
X+121945Y+100727
X+78085Y+85954
X+70696Y+85862
X+45980Y+78653
X+45980Y+73330
T02
X+7928Y+70252
X+25072Y+70252
X+7928Y+109748
X+25072Y+109748
X+90928Y+10252
X+108072Y+10252
X+90928Y+49748
X+108072Y+49748
X+15500Y+14000
X+10420Y+14000
X+169500Y+174460
X+169500Y+169380
X+169500Y+164300
X+169500Y+159220
X+169500Y+154140
X+74500Y+156000
X+74500Y+150920
X+74500Y+145840
X+74500Y+140760
X+74500Y+135680
X+74500Y+75000
X+74500Y+69920
X+74500Y+64840
X+74500Y+59760
X+74500Y+54680
X+169500Y+92460
X+169500Y+87380
X+169500Y+82300
X+169500Y+77220
X+169500Y+72140
X+25500Y+205000
X+30580Y+205000
X+35660Y+205000
X+40740Y+205000
X+45820Y+205000
X+65500Y+205000
X+70580Y+205000
X+75660Y+205000
X+80740Y+205000
X+85820Y+205000
X+105500Y+205000
X+110580Y+205000
X+115660Y+205000
X+120740Y+205000
X+125820Y+205000
X+145500Y+205000
X+150580Y+205000
X+155660Y+205000
X+160740Y+205000
X+165820Y+205000
X+23000Y+234000
X+28080Y+234000
X+40500Y+234000
X+45580Y+234000
X+63000Y+234000
X+68080Y+234000
X+80500Y+234000
X+85580Y+234000
X+103000Y+234000
X+108080Y+234000
X+120500Y+234000
X+125580Y+234000
X+143000Y+234000
X+148080Y+234000
X+160500Y+234000
X+165580Y+234000
T03
X+121500Y+157160
X+121500Y+154620
X+121500Y+152080
X+121500Y+149540
X+121500Y+147000
X+121500Y+144460
X+131800Y+171980
X+131800Y+169440
X+131800Y+166900
X+131800Y+164360
X+131800Y+161820
X+131800Y+159280
X+131800Y+154200
X+131800Y+151660
X+131800Y+149120
X+131800Y+146580
X+131800Y+144040
X+131800Y+141500
X+131800Y+138960
X+131800Y+136420
X+157200Y+136420
X+157200Y+138960
X+157200Y+141500
X+157200Y+144040
X+157200Y+146580
X+157200Y+149120
X+157200Y+151660
X+157200Y+154200
X+157200Y+156740
X+157200Y+159280
X+157200Y+166900
X+157200Y+169440
X+157200Y+171980
X+129500Y+109960
X+129500Y+112500
X+129500Y+115040
X+129500Y+117580
X+129500Y+120120
X+129500Y+122660
X+157500Y+123460
X+154960Y+123460
X+152420Y+123460
X+149880Y+123460
X+147340Y+123460
X+131800Y+89980
X+131800Y+87440
X+131800Y+84900
X+131800Y+82360
X+131800Y+79820
X+131800Y+77280
X+131800Y+74740
X+131800Y+72200
X+131800Y+69660
X+131800Y+67120
X+131800Y+64580
X+131800Y+62040
X+131800Y+59500
X+131800Y+56960
X+131800Y+54420
X+157200Y+54420
X+157200Y+56960
X+157200Y+59500
X+157200Y+62040
X+157200Y+64580
X+157200Y+67120
X+157200Y+69660
X+157200Y+72200
X+157200Y+74740
X+157200Y+77280
X+157200Y+84900
X+157200Y+87440
X+157200Y+89980
X+36800Y+153520
X+36800Y+150980
X+36800Y+148440
X+36800Y+145900
X+36800Y+143360
X+36800Y+140820
X+36800Y+138280
X+36800Y+135740
X+36800Y+133200
X+36800Y+130660
X+36800Y+128120
X+36800Y+125580
X+36800Y+123040
X+36800Y+120500
X+36800Y+117960
X+62200Y+117960
X+62200Y+120500
X+62200Y+123040
X+62200Y+125580
X+62200Y+128120
X+62200Y+130660
X+62200Y+133200
X+62200Y+135740
X+62200Y+138280
X+62200Y+140820
X+62200Y+148440
X+62200Y+150980
X+62200Y+153520
X+36800Y+72520
X+36800Y+69980
X+36800Y+67440
X+36800Y+64900
X+36800Y+62360
X+36800Y+59820
X+36800Y+57280
X+36800Y+54740
X+36800Y+52200
X+36800Y+49660
X+36800Y+47120
X+36800Y+44580
X+36800Y+42040
X+36800Y+39500
X+36800Y+36960
X+62200Y+36960
X+62200Y+39500
X+62200Y+42040
X+62200Y+44580
X+62200Y+47120
X+62200Y+49660
X+62200Y+52200
X+62200Y+54740
X+62200Y+57280
X+62200Y+59820
X+62200Y+67440
X+62200Y+69980
X+62200Y+72520
X+129500Y+27960
X+129500Y+30500
X+129500Y+33040
X+129500Y+35580
X+129500Y+38120
X+129500Y+40660
X+157500Y+41460
X+154960Y+41460
X+152420Y+41460
X+149880Y+41460
X+147340Y+41460
X+144800Y+41460
X+35500Y+11000
X+35500Y+13540
X+35500Y+16080
X+35500Y+18620
X+35500Y+21160
X+35500Y+23700
X+63500Y+24500
X+60960Y+24500
X+58420Y+24500
X+55880Y+24500
X+53340Y+24500
X+35500Y+92000
X+35500Y+94540
X+35500Y+97080
X+35500Y+99620
X+35500Y+102160
X+35500Y+104700
X+63500Y+105500
X+60960Y+105500
X+58420Y+105500
X+55880Y+105500
X+53340Y+105500
X+26500Y+137000
X+26500Y+134460
X+26500Y+131920
X+26500Y+129380
X+26500Y+126840
X+26500Y+124300
X+26500Y+56000
X+26500Y+53460
X+26500Y+50920
X+26500Y+48380
X+26500Y+45840
X+26500Y+43300
X+121500Y+75460
X+121500Y+72920
X+121500Y+70380
X+121500Y+67840
X+121500Y+65300
X+121500Y+62760
X+74500Y+18000
X+74500Y+20540
X+74500Y+23080
X+74500Y+99000
X+74500Y+101540
X+74500Y+104080
X+169500Y+35460
X+169500Y+38000
X+169500Y+40540
X+169500Y+117460
X+169500Y+120000
X+169500Y+122540
X+95800Y+129000
X+98340Y+129000
X+100880Y+129000
X+103420Y+129000
X+105960Y+129000
X+108500Y+129000
X+98800Y+94000
X+101340Y+94000
X+103880Y+94000
X+106420Y+94000
X+90500Y+163000
X+93040Y+163000
X+90500Y+173000
X+93040Y+173000
T04
X+132220Y+132990
X+156730Y+132990
X+156730Y+179930
X+132220Y+179930
X+132220Y+50990
X+156730Y+50990
X+37220Y+114530
X+61730Y+114530
X+37220Y+33530
X+61730Y+33530
X+61730Y+80470
X+37220Y+80470
T05
X+74500Y+163000
X+84660Y+163000
X+74500Y+170000
X+84660Y+170000
T06
X+145500Y+7500
X+168000Y+55000
X+35500Y+177500
X+168000Y+105000
X+10500Y+152500
X+73000Y+117500
X+73000Y+37500
X+168000Y+135000
X+68000Y+177500
X+118000Y+7500
T07
X+20000Y+217500
X+27500Y+217500
X+35000Y+217500
X+42500Y+217500
X+50000Y+217500
X+67500Y+217500
X+75000Y+217500
X+82500Y+217500
X+107500Y+217500
X+115000Y+217500
X+122500Y+217500
X+147500Y+217500
X+155000Y+217500
X+162500Y+217500
X+19000Y+245000
X+29000Y+245000
X+39000Y+245000
X+49000Y+245000
X+59000Y+245000
X+69000Y+245000
X+79000Y+245000
X+89000Y+245000
X+99000Y+245000
X+109000Y+245000
X+119000Y+245000
X+129000Y+245000
X+139000Y+245000
X+149000Y+245000
X+159000Y+245000
X+169000Y+245000
T08
X+7500Y+235000
X+7500Y+202500
X+180000Y+235000
X+180000Y+205000
M30
