G04 PROTEUS RS274X GERBER FILE*
%FSLAX45Y45*%
%MOMM*%
G01*
%ADD19C,0.203200*%
%ADD70C,0.127000*%
%ADD71C,0.063500*%
D19*
X+3309820Y+2773545D02*
X+3309820Y+2646545D01*
X+3246320Y+2710045D02*
X+3373320Y+2710045D01*
X+3311690Y+3701614D02*
X+3311690Y+3574614D01*
X+3248190Y+3638114D02*
X+3375190Y+3638114D01*
X+2327666Y+4939746D02*
X+2327666Y+4812746D01*
X+2264166Y+4876246D02*
X+2391166Y+4876246D01*
X+2324531Y+5381894D02*
X+2324531Y+5254894D01*
X+2261031Y+5318394D02*
X+2388031Y+5318394D01*
X+10109820Y+2773545D02*
X+10109820Y+2646545D01*
X+10046320Y+2710045D02*
X+10173320Y+2710045D01*
X+10111690Y+3701614D02*
X+10111690Y+3574614D01*
X+10048190Y+3638114D02*
X+10175190Y+3638114D01*
X+9127666Y+4939746D02*
X+9127666Y+4812746D01*
X+9064166Y+4876246D02*
X+9191166Y+4876246D01*
X+9124531Y+5381894D02*
X+9124531Y+5254894D01*
X+9061031Y+5318394D02*
X+9188031Y+5318394D01*
X+3309820Y+9973545D02*
X+3309820Y+9846545D01*
X+3246320Y+9910045D02*
X+3373320Y+9910045D01*
X+3311690Y+10901614D02*
X+3311690Y+10774614D01*
X+3248190Y+10838114D02*
X+3375190Y+10838114D01*
X+2327666Y+12139746D02*
X+2327666Y+12012746D01*
X+2264166Y+12076246D02*
X+2391166Y+12076246D01*
X+2324531Y+12581894D02*
X+2324531Y+12454894D01*
X+2261031Y+12518394D02*
X+2388031Y+12518394D01*
X+10109820Y+9973545D02*
X+10109820Y+9846545D01*
X+10046320Y+9910045D02*
X+10173320Y+9910045D01*
X+10111690Y+10901614D02*
X+10111690Y+10774614D01*
X+10048190Y+10838114D02*
X+10175190Y+10838114D01*
X+9127666Y+12139746D02*
X+9127666Y+12012746D01*
X+9064166Y+12076246D02*
X+9191166Y+12076246D01*
X+9124531Y+12581894D02*
X+9124531Y+12454894D01*
X+9061031Y+12518394D02*
X+9188031Y+12518394D01*
X+663500Y+4600000D02*
X+663283Y+4605247D01*
X+661518Y+4615742D01*
X+657826Y+4626237D01*
X+651798Y+4636732D01*
X+642576Y+4647112D01*
X+632081Y+4654800D01*
X+621586Y+4659718D01*
X+611091Y+4662524D01*
X+600596Y+4663497D01*
X+600000Y+4663500D01*
X+536500Y+4600000D02*
X+536717Y+4605247D01*
X+538482Y+4615742D01*
X+542174Y+4626237D01*
X+548202Y+4636732D01*
X+557424Y+4647112D01*
X+567919Y+4654800D01*
X+578414Y+4659718D01*
X+588909Y+4662524D01*
X+599404Y+4663497D01*
X+600000Y+4663500D01*
X+536500Y+4600000D02*
X+536717Y+4594753D01*
X+538482Y+4584258D01*
X+542174Y+4573763D01*
X+548202Y+4563268D01*
X+557424Y+4552888D01*
X+567919Y+4545200D01*
X+578414Y+4540282D01*
X+588909Y+4537476D01*
X+599404Y+4536503D01*
X+600000Y+4536500D01*
X+663500Y+4600000D02*
X+663283Y+4594753D01*
X+661518Y+4584258D01*
X+657826Y+4573763D01*
X+651798Y+4563268D01*
X+642576Y+4552888D01*
X+632081Y+4545200D01*
X+621586Y+4540282D01*
X+611091Y+4537476D01*
X+600596Y+4536503D01*
X+600000Y+4536500D01*
X+555099Y+4644901D02*
X+644901Y+4555099D01*
X+555099Y+4555099D02*
X+644901Y+4644901D01*
X+663500Y+5108000D02*
X+663283Y+5113247D01*
X+661518Y+5123742D01*
X+657826Y+5134237D01*
X+651798Y+5144732D01*
X+642576Y+5155112D01*
X+632081Y+5162800D01*
X+621586Y+5167718D01*
X+611091Y+5170524D01*
X+600596Y+5171497D01*
X+600000Y+5171500D01*
X+536500Y+5108000D02*
X+536717Y+5113247D01*
X+538482Y+5123742D01*
X+542174Y+5134237D01*
X+548202Y+5144732D01*
X+557424Y+5155112D01*
X+567919Y+5162800D01*
X+578414Y+5167718D01*
X+588909Y+5170524D01*
X+599404Y+5171497D01*
X+600000Y+5171500D01*
X+536500Y+5108000D02*
X+536717Y+5102753D01*
X+538482Y+5092258D01*
X+542174Y+5081763D01*
X+548202Y+5071268D01*
X+557424Y+5060888D01*
X+567919Y+5053200D01*
X+578414Y+5048282D01*
X+588909Y+5045476D01*
X+599404Y+5044503D01*
X+600000Y+5044500D01*
X+663500Y+5108000D02*
X+663283Y+5102753D01*
X+661518Y+5092258D01*
X+657826Y+5081763D01*
X+651798Y+5071268D01*
X+642576Y+5060888D01*
X+632081Y+5053200D01*
X+621586Y+5048282D01*
X+611091Y+5045476D01*
X+600596Y+5044503D01*
X+600000Y+5044500D01*
X+555099Y+5152901D02*
X+644901Y+5063099D01*
X+555099Y+5063099D02*
X+644901Y+5152901D01*
X+5613500Y+5108000D02*
X+5613283Y+5113247D01*
X+5611518Y+5123742D01*
X+5607826Y+5134237D01*
X+5601798Y+5144732D01*
X+5592576Y+5155112D01*
X+5582081Y+5162800D01*
X+5571586Y+5167718D01*
X+5561091Y+5170524D01*
X+5550596Y+5171497D01*
X+5550000Y+5171500D01*
X+5486500Y+5108000D02*
X+5486717Y+5113247D01*
X+5488482Y+5123742D01*
X+5492174Y+5134237D01*
X+5498202Y+5144732D01*
X+5507424Y+5155112D01*
X+5517919Y+5162800D01*
X+5528414Y+5167718D01*
X+5538909Y+5170524D01*
X+5549404Y+5171497D01*
X+5550000Y+5171500D01*
X+5486500Y+5108000D02*
X+5486717Y+5102753D01*
X+5488482Y+5092258D01*
X+5492174Y+5081763D01*
X+5498202Y+5071268D01*
X+5507424Y+5060888D01*
X+5517919Y+5053200D01*
X+5528414Y+5048282D01*
X+5538909Y+5045476D01*
X+5549404Y+5044503D01*
X+5550000Y+5044500D01*
X+5613500Y+5108000D02*
X+5613283Y+5102753D01*
X+5611518Y+5092258D01*
X+5607826Y+5081763D01*
X+5601798Y+5071268D01*
X+5592576Y+5060888D01*
X+5582081Y+5053200D01*
X+5571586Y+5048282D01*
X+5561091Y+5045476D01*
X+5550596Y+5044503D01*
X+5550000Y+5044500D01*
X+5550000Y+5171500D02*
X+5550000Y+5044500D01*
X+5486500Y+5108000D02*
X+5613500Y+5108000D01*
X+5613500Y+4600000D02*
X+5613283Y+4605247D01*
X+5611518Y+4615742D01*
X+5607826Y+4626237D01*
X+5601798Y+4636732D01*
X+5592576Y+4647112D01*
X+5582081Y+4654800D01*
X+5571586Y+4659718D01*
X+5561091Y+4662524D01*
X+5550596Y+4663497D01*
X+5550000Y+4663500D01*
X+5486500Y+4600000D02*
X+5486717Y+4605247D01*
X+5488482Y+4615742D01*
X+5492174Y+4626237D01*
X+5498202Y+4636732D01*
X+5507424Y+4647112D01*
X+5517919Y+4654800D01*
X+5528414Y+4659718D01*
X+5538909Y+4662524D01*
X+5549404Y+4663497D01*
X+5550000Y+4663500D01*
X+5486500Y+4600000D02*
X+5486717Y+4594753D01*
X+5488482Y+4584258D01*
X+5492174Y+4573763D01*
X+5498202Y+4563268D01*
X+5507424Y+4552888D01*
X+5517919Y+4545200D01*
X+5528414Y+4540282D01*
X+5538909Y+4537476D01*
X+5549404Y+4536503D01*
X+5550000Y+4536500D01*
X+5613500Y+4600000D02*
X+5613283Y+4594753D01*
X+5611518Y+4584258D01*
X+5607826Y+4573763D01*
X+5601798Y+4563268D01*
X+5592576Y+4552888D01*
X+5582081Y+4545200D01*
X+5571586Y+4540282D01*
X+5561091Y+4537476D01*
X+5550596Y+4536503D01*
X+5550000Y+4536500D01*
X+5550000Y+4663500D02*
X+5550000Y+4536500D01*
X+5486500Y+4600000D02*
X+5613500Y+4600000D01*
X+1655099Y+4390901D02*
X+1744901Y+4301099D01*
X+1655099Y+4301099D02*
X+1744901Y+4390901D01*
X+1655099Y+4644901D02*
X+1744901Y+4555099D01*
X+1655099Y+4555099D02*
X+1744901Y+4644901D01*
X+2230000Y+4715500D02*
X+2230000Y+4588500D01*
X+2166500Y+4652000D02*
X+2293500Y+4652000D01*
X+2185099Y+4696901D02*
X+2274901Y+4607099D01*
X+2185099Y+4607099D02*
X+2274901Y+4696901D01*
X+2230000Y+4461500D02*
X+2230000Y+4334500D01*
X+2166500Y+4398000D02*
X+2293500Y+4398000D01*
X+2185099Y+4442901D02*
X+2274901Y+4353099D01*
X+2185099Y+4353099D02*
X+2274901Y+4442901D01*
X+2230000Y+4207500D02*
X+2230000Y+4080500D01*
X+2166500Y+4144000D02*
X+2293500Y+4144000D01*
X+2185099Y+4188901D02*
X+2274901Y+4099099D01*
X+2185099Y+4099099D02*
X+2274901Y+4188901D01*
X+2230000Y+3953500D02*
X+2230000Y+3826500D01*
X+2166500Y+3890000D02*
X+2293500Y+3890000D01*
X+2185099Y+3934901D02*
X+2274901Y+3845099D01*
X+2185099Y+3845099D02*
X+2274901Y+3934901D01*
X+2230000Y+3699500D02*
X+2230000Y+3572500D01*
X+2166500Y+3636000D02*
X+2293500Y+3636000D01*
X+2185099Y+3680901D02*
X+2274901Y+3591099D01*
X+2185099Y+3591099D02*
X+2274901Y+3680901D01*
X+2230000Y+2683500D02*
X+2230000Y+2556500D01*
X+2166500Y+2620000D02*
X+2293500Y+2620000D01*
X+2185099Y+2664901D02*
X+2274901Y+2575099D01*
X+2185099Y+2575099D02*
X+2274901Y+2664901D01*
X+2230000Y+2429500D02*
X+2230000Y+2302500D01*
X+2166500Y+2366000D02*
X+2293500Y+2366000D01*
X+2185099Y+2410901D02*
X+2274901Y+2321099D01*
X+2185099Y+2321099D02*
X+2274901Y+2410901D01*
X+2230000Y+2175500D02*
X+2230000Y+2048500D01*
X+2166500Y+2112000D02*
X+2293500Y+2112000D01*
X+2185099Y+2156901D02*
X+2274901Y+2067099D01*
X+2185099Y+2067099D02*
X+2274901Y+2156901D01*
X+2230000Y+1921500D02*
X+2230000Y+1794500D01*
X+2166500Y+1858000D02*
X+2293500Y+1858000D01*
X+2185099Y+1902901D02*
X+2274901Y+1813099D01*
X+2185099Y+1813099D02*
X+2274901Y+1902901D01*
X+2230000Y+1667500D02*
X+2230000Y+1540500D01*
X+2166500Y+1604000D02*
X+2293500Y+1604000D01*
X+2185099Y+1648901D02*
X+2274901Y+1559099D01*
X+2185099Y+1559099D02*
X+2274901Y+1648901D01*
X+2230000Y+1413500D02*
X+2230000Y+1286500D01*
X+2166500Y+1350000D02*
X+2293500Y+1350000D01*
X+2185099Y+1394901D02*
X+2274901Y+1305099D01*
X+2185099Y+1305099D02*
X+2274901Y+1394901D01*
X+2230000Y+1159500D02*
X+2230000Y+1032500D01*
X+2166500Y+1096000D02*
X+2293500Y+1096000D01*
X+2185099Y+1140901D02*
X+2274901Y+1051099D01*
X+2185099Y+1051099D02*
X+2274901Y+1140901D01*
X+4770000Y+1159500D02*
X+4770000Y+1032500D01*
X+4706500Y+1096000D02*
X+4833500Y+1096000D01*
X+4725099Y+1140901D02*
X+4814901Y+1051099D01*
X+4725099Y+1051099D02*
X+4814901Y+1140901D01*
X+4770000Y+1413500D02*
X+4770000Y+1286500D01*
X+4706500Y+1350000D02*
X+4833500Y+1350000D01*
X+4725099Y+1394901D02*
X+4814901Y+1305099D01*
X+4725099Y+1305099D02*
X+4814901Y+1394901D01*
X+4770000Y+1921500D02*
X+4770000Y+1794500D01*
X+4706500Y+1858000D02*
X+4833500Y+1858000D01*
X+4725099Y+1902901D02*
X+4814901Y+1813099D01*
X+4725099Y+1813099D02*
X+4814901Y+1902901D01*
X+4770000Y+2175500D02*
X+4770000Y+2048500D01*
X+4706500Y+2112000D02*
X+4833500Y+2112000D01*
X+4725099Y+2156901D02*
X+4814901Y+2067099D01*
X+4725099Y+2067099D02*
X+4814901Y+2156901D01*
X+4770000Y+2429500D02*
X+4770000Y+2302500D01*
X+4706500Y+2366000D02*
X+4833500Y+2366000D01*
X+4725099Y+2410901D02*
X+4814901Y+2321099D01*
X+4725099Y+2321099D02*
X+4814901Y+2410901D01*
X+4770000Y+2683500D02*
X+4770000Y+2556500D01*
X+4706500Y+2620000D02*
X+4833500Y+2620000D01*
X+4725099Y+2664901D02*
X+4814901Y+2575099D01*
X+4725099Y+2575099D02*
X+4814901Y+2664901D01*
X+4770000Y+2937500D02*
X+4770000Y+2810500D01*
X+4706500Y+2874000D02*
X+4833500Y+2874000D01*
X+4725099Y+2918901D02*
X+4814901Y+2829099D01*
X+4725099Y+2829099D02*
X+4814901Y+2918901D01*
X+4770000Y+3191500D02*
X+4770000Y+3064500D01*
X+4706500Y+3128000D02*
X+4833500Y+3128000D01*
X+4725099Y+3172901D02*
X+4814901Y+3083099D01*
X+4725099Y+3083099D02*
X+4814901Y+3172901D01*
X+4770000Y+3445500D02*
X+4770000Y+3318500D01*
X+4706500Y+3382000D02*
X+4833500Y+3382000D01*
X+4725099Y+3426901D02*
X+4814901Y+3337099D01*
X+4725099Y+3337099D02*
X+4814901Y+3426901D01*
X+4770000Y+3953500D02*
X+4770000Y+3826500D01*
X+4706500Y+3890000D02*
X+4833500Y+3890000D01*
X+4725099Y+3934901D02*
X+4814901Y+3845099D01*
X+4725099Y+3845099D02*
X+4814901Y+3934901D01*
X+4770000Y+4207500D02*
X+4770000Y+4080500D01*
X+4706500Y+4144000D02*
X+4833500Y+4144000D01*
X+4725099Y+4188901D02*
X+4814901Y+4099099D01*
X+4725099Y+4099099D02*
X+4814901Y+4188901D01*
X+4770000Y+4715500D02*
X+4770000Y+4588500D01*
X+4706500Y+4652000D02*
X+4833500Y+4652000D01*
X+4725099Y+4696901D02*
X+4814901Y+4607099D01*
X+4725099Y+4607099D02*
X+4814901Y+4696901D01*
X+350000Y+3863500D02*
X+350000Y+3736500D01*
X+286500Y+3800000D02*
X+413500Y+3800000D01*
X+305099Y+3844901D02*
X+394901Y+3755099D01*
X+305099Y+3755099D02*
X+394901Y+3844901D01*
X+604000Y+3863500D02*
X+604000Y+3736500D01*
X+540500Y+3800000D02*
X+667500Y+3800000D01*
X+559099Y+3844901D02*
X+648901Y+3755099D01*
X+559099Y+3755099D02*
X+648901Y+3844901D01*
X+858000Y+3863500D02*
X+858000Y+3736500D01*
X+794500Y+3800000D02*
X+921500Y+3800000D01*
X+813099Y+3844901D02*
X+902901Y+3755099D01*
X+813099Y+3755099D02*
X+902901Y+3844901D01*
X+1112000Y+3863500D02*
X+1112000Y+3736500D01*
X+1048500Y+3800000D02*
X+1175500Y+3800000D01*
X+1067099Y+3844901D02*
X+1156901Y+3755099D01*
X+1067099Y+3755099D02*
X+1156901Y+3844901D01*
X+1366000Y+3863500D02*
X+1366000Y+3736500D01*
X+1302500Y+3800000D02*
X+1429500Y+3800000D01*
X+1321099Y+3844901D02*
X+1410901Y+3755099D01*
X+1321099Y+3755099D02*
X+1410901Y+3844901D01*
X+1620000Y+3863500D02*
X+1620000Y+3736500D01*
X+1556500Y+3800000D02*
X+1683500Y+3800000D01*
X+1575099Y+3844901D02*
X+1664901Y+3755099D01*
X+1575099Y+3755099D02*
X+1664901Y+3844901D01*
X+1700000Y+1063500D02*
X+1700000Y+936500D01*
X+1636500Y+1000000D02*
X+1763500Y+1000000D01*
X+1655099Y+1044901D02*
X+1744901Y+955099D01*
X+1655099Y+955099D02*
X+1744901Y+1044901D01*
X+1700000Y+1317500D02*
X+1700000Y+1190500D01*
X+1636500Y+1254000D02*
X+1763500Y+1254000D01*
X+1655099Y+1298901D02*
X+1744901Y+1209099D01*
X+1655099Y+1209099D02*
X+1744901Y+1298901D01*
X+1700000Y+1571500D02*
X+1700000Y+1444500D01*
X+1636500Y+1508000D02*
X+1763500Y+1508000D01*
X+1655099Y+1552901D02*
X+1744901Y+1463099D01*
X+1655099Y+1463099D02*
X+1744901Y+1552901D01*
X+1700000Y+1825500D02*
X+1700000Y+1698500D01*
X+1636500Y+1762000D02*
X+1763500Y+1762000D01*
X+1655099Y+1806901D02*
X+1744901Y+1717099D01*
X+1655099Y+1717099D02*
X+1744901Y+1806901D01*
X+1700000Y+2079500D02*
X+1700000Y+1952500D01*
X+1636500Y+2016000D02*
X+1763500Y+2016000D01*
X+1655099Y+2060901D02*
X+1744901Y+1971099D01*
X+1655099Y+1971099D02*
X+1744901Y+2060901D01*
X+1700000Y+2333500D02*
X+1700000Y+2206500D01*
X+1636500Y+2270000D02*
X+1763500Y+2270000D01*
X+1655099Y+2314901D02*
X+1744901Y+2225099D01*
X+1655099Y+2225099D02*
X+1744901Y+2314901D01*
X+1700000Y+2587500D02*
X+1700000Y+2460500D01*
X+1636500Y+2524000D02*
X+1763500Y+2524000D01*
X+1655099Y+2568901D02*
X+1744901Y+2479099D01*
X+1655099Y+2479099D02*
X+1744901Y+2568901D01*
X+5763500Y+3550000D02*
X+5763283Y+3555247D01*
X+5761518Y+3565742D01*
X+5757826Y+3576237D01*
X+5751798Y+3586732D01*
X+5742576Y+3597112D01*
X+5732081Y+3604800D01*
X+5721586Y+3609718D01*
X+5711091Y+3612524D01*
X+5700596Y+3613497D01*
X+5700000Y+3613500D01*
X+5636500Y+3550000D02*
X+5636717Y+3555247D01*
X+5638482Y+3565742D01*
X+5642174Y+3576237D01*
X+5648202Y+3586732D01*
X+5657424Y+3597112D01*
X+5667919Y+3604800D01*
X+5678414Y+3609718D01*
X+5688909Y+3612524D01*
X+5699404Y+3613497D01*
X+5700000Y+3613500D01*
X+5636500Y+3550000D02*
X+5636717Y+3544753D01*
X+5638482Y+3534258D01*
X+5642174Y+3523763D01*
X+5648202Y+3513268D01*
X+5657424Y+3502888D01*
X+5667919Y+3495200D01*
X+5678414Y+3490282D01*
X+5688909Y+3487476D01*
X+5699404Y+3486503D01*
X+5700000Y+3486500D01*
X+5763500Y+3550000D02*
X+5763283Y+3544753D01*
X+5761518Y+3534258D01*
X+5757826Y+3523763D01*
X+5751798Y+3513268D01*
X+5742576Y+3502888D01*
X+5732081Y+3495200D01*
X+5721586Y+3490282D01*
X+5711091Y+3487476D01*
X+5700596Y+3486503D01*
X+5700000Y+3486500D01*
X+5655099Y+3594901D02*
X+5744901Y+3505099D01*
X+5655099Y+3505099D02*
X+5744901Y+3594901D01*
X+5763500Y+3042000D02*
X+5763283Y+3047247D01*
X+5761518Y+3057742D01*
X+5757826Y+3068237D01*
X+5751798Y+3078732D01*
X+5742576Y+3089112D01*
X+5732081Y+3096800D01*
X+5721586Y+3101718D01*
X+5711091Y+3104524D01*
X+5700596Y+3105497D01*
X+5700000Y+3105500D01*
X+5636500Y+3042000D02*
X+5636717Y+3047247D01*
X+5638482Y+3057742D01*
X+5642174Y+3068237D01*
X+5648202Y+3078732D01*
X+5657424Y+3089112D01*
X+5667919Y+3096800D01*
X+5678414Y+3101718D01*
X+5688909Y+3104524D01*
X+5699404Y+3105497D01*
X+5700000Y+3105500D01*
X+5636500Y+3042000D02*
X+5636717Y+3036753D01*
X+5638482Y+3026258D01*
X+5642174Y+3015763D01*
X+5648202Y+3005268D01*
X+5657424Y+2994888D01*
X+5667919Y+2987200D01*
X+5678414Y+2982282D01*
X+5688909Y+2979476D01*
X+5699404Y+2978503D01*
X+5700000Y+2978500D01*
X+5763500Y+3042000D02*
X+5763283Y+3036753D01*
X+5761518Y+3026258D01*
X+5757826Y+3015763D01*
X+5751798Y+3005268D01*
X+5742576Y+2994888D01*
X+5732081Y+2987200D01*
X+5721586Y+2982282D01*
X+5711091Y+2979476D01*
X+5700596Y+2978503D01*
X+5700000Y+2978500D01*
X+5655099Y+3086901D02*
X+5744901Y+2997099D01*
X+5655099Y+2997099D02*
X+5744901Y+3086901D01*
X+5763500Y+2534000D02*
X+5763283Y+2539247D01*
X+5761518Y+2549742D01*
X+5757826Y+2560237D01*
X+5751798Y+2570732D01*
X+5742576Y+2581112D01*
X+5732081Y+2588800D01*
X+5721586Y+2593718D01*
X+5711091Y+2596524D01*
X+5700596Y+2597497D01*
X+5700000Y+2597500D01*
X+5636500Y+2534000D02*
X+5636717Y+2539247D01*
X+5638482Y+2549742D01*
X+5642174Y+2560237D01*
X+5648202Y+2570732D01*
X+5657424Y+2581112D01*
X+5667919Y+2588800D01*
X+5678414Y+2593718D01*
X+5688909Y+2596524D01*
X+5699404Y+2597497D01*
X+5700000Y+2597500D01*
X+5636500Y+2534000D02*
X+5636717Y+2528753D01*
X+5638482Y+2518258D01*
X+5642174Y+2507763D01*
X+5648202Y+2497268D01*
X+5657424Y+2486888D01*
X+5667919Y+2479200D01*
X+5678414Y+2474282D01*
X+5688909Y+2471476D01*
X+5699404Y+2470503D01*
X+5700000Y+2470500D01*
X+5763500Y+2534000D02*
X+5763283Y+2528753D01*
X+5761518Y+2518258D01*
X+5757826Y+2507763D01*
X+5751798Y+2497268D01*
X+5742576Y+2486888D01*
X+5732081Y+2479200D01*
X+5721586Y+2474282D01*
X+5711091Y+2471476D01*
X+5700596Y+2470503D01*
X+5700000Y+2470500D01*
X+5655099Y+2578901D02*
X+5744901Y+2489099D01*
X+5655099Y+2489099D02*
X+5744901Y+2578901D01*
X+5763500Y+2026000D02*
X+5763283Y+2031247D01*
X+5761518Y+2041742D01*
X+5757826Y+2052237D01*
X+5751798Y+2062732D01*
X+5742576Y+2073112D01*
X+5732081Y+2080800D01*
X+5721586Y+2085718D01*
X+5711091Y+2088524D01*
X+5700596Y+2089497D01*
X+5700000Y+2089500D01*
X+5636500Y+2026000D02*
X+5636717Y+2031247D01*
X+5638482Y+2041742D01*
X+5642174Y+2052237D01*
X+5648202Y+2062732D01*
X+5657424Y+2073112D01*
X+5667919Y+2080800D01*
X+5678414Y+2085718D01*
X+5688909Y+2088524D01*
X+5699404Y+2089497D01*
X+5700000Y+2089500D01*
X+5636500Y+2026000D02*
X+5636717Y+2020753D01*
X+5638482Y+2010258D01*
X+5642174Y+1999763D01*
X+5648202Y+1989268D01*
X+5657424Y+1978888D01*
X+5667919Y+1971200D01*
X+5678414Y+1966282D01*
X+5688909Y+1963476D01*
X+5699404Y+1962503D01*
X+5700000Y+1962500D01*
X+5763500Y+2026000D02*
X+5763283Y+2020753D01*
X+5761518Y+2010258D01*
X+5757826Y+1999763D01*
X+5751798Y+1989268D01*
X+5742576Y+1978888D01*
X+5732081Y+1971200D01*
X+5721586Y+1966282D01*
X+5711091Y+1963476D01*
X+5700596Y+1962503D01*
X+5700000Y+1962500D01*
X+5655099Y+2070901D02*
X+5744901Y+1981099D01*
X+5655099Y+1981099D02*
X+5744901Y+2070901D01*
X+5763500Y+1518000D02*
X+5763283Y+1523247D01*
X+5761518Y+1533742D01*
X+5757826Y+1544237D01*
X+5751798Y+1554732D01*
X+5742576Y+1565112D01*
X+5732081Y+1572800D01*
X+5721586Y+1577718D01*
X+5711091Y+1580524D01*
X+5700596Y+1581497D01*
X+5700000Y+1581500D01*
X+5636500Y+1518000D02*
X+5636717Y+1523247D01*
X+5638482Y+1533742D01*
X+5642174Y+1544237D01*
X+5648202Y+1554732D01*
X+5657424Y+1565112D01*
X+5667919Y+1572800D01*
X+5678414Y+1577718D01*
X+5688909Y+1580524D01*
X+5699404Y+1581497D01*
X+5700000Y+1581500D01*
X+5636500Y+1518000D02*
X+5636717Y+1512753D01*
X+5638482Y+1502258D01*
X+5642174Y+1491763D01*
X+5648202Y+1481268D01*
X+5657424Y+1470888D01*
X+5667919Y+1463200D01*
X+5678414Y+1458282D01*
X+5688909Y+1455476D01*
X+5699404Y+1454503D01*
X+5700000Y+1454500D01*
X+5763500Y+1518000D02*
X+5763283Y+1512753D01*
X+5761518Y+1502258D01*
X+5757826Y+1491763D01*
X+5751798Y+1481268D01*
X+5742576Y+1470888D01*
X+5732081Y+1463200D01*
X+5721586Y+1458282D01*
X+5711091Y+1455476D01*
X+5700596Y+1454503D01*
X+5700000Y+1454500D01*
X+5655099Y+1562901D02*
X+5744901Y+1473099D01*
X+5655099Y+1473099D02*
X+5744901Y+1562901D01*
X+563500Y+6000000D02*
X+563283Y+6005247D01*
X+561518Y+6015742D01*
X+557826Y+6026237D01*
X+551798Y+6036732D01*
X+542576Y+6047112D01*
X+532081Y+6054800D01*
X+521586Y+6059718D01*
X+511091Y+6062524D01*
X+500596Y+6063497D01*
X+500000Y+6063500D01*
X+436500Y+6000000D02*
X+436717Y+6005247D01*
X+438482Y+6015742D01*
X+442174Y+6026237D01*
X+448202Y+6036732D01*
X+457424Y+6047112D01*
X+467919Y+6054800D01*
X+478414Y+6059718D01*
X+488909Y+6062524D01*
X+499404Y+6063497D01*
X+500000Y+6063500D01*
X+436500Y+6000000D02*
X+436717Y+5994753D01*
X+438482Y+5984258D01*
X+442174Y+5973763D01*
X+448202Y+5963268D01*
X+457424Y+5952888D01*
X+467919Y+5945200D01*
X+478414Y+5940282D01*
X+488909Y+5937476D01*
X+499404Y+5936503D01*
X+500000Y+5936500D01*
X+563500Y+6000000D02*
X+563283Y+5994753D01*
X+561518Y+5984258D01*
X+557826Y+5973763D01*
X+551798Y+5963268D01*
X+542576Y+5952888D01*
X+532081Y+5945200D01*
X+521586Y+5940282D01*
X+511091Y+5937476D01*
X+500596Y+5936503D01*
X+500000Y+5936500D01*
X+500000Y+6063500D02*
X+500000Y+5936500D01*
X+436500Y+6000000D02*
X+563500Y+6000000D01*
X+563283Y+6005247D01*
X+561518Y+6015742D01*
X+557826Y+6026237D01*
X+551798Y+6036732D01*
X+542576Y+6047112D01*
X+532081Y+6054800D01*
X+521586Y+6059718D01*
X+511091Y+6062524D01*
X+500596Y+6063497D01*
X+500000Y+6063500D01*
X+436500Y+6000000D02*
X+436717Y+6005247D01*
X+438482Y+6015742D01*
X+442174Y+6026237D01*
X+448202Y+6036732D01*
X+457424Y+6047112D01*
X+467919Y+6054800D01*
X+478414Y+6059718D01*
X+488909Y+6062524D01*
X+499404Y+6063497D01*
X+500000Y+6063500D01*
X+436500Y+6000000D02*
X+436717Y+5994753D01*
X+438482Y+5984258D01*
X+442174Y+5973763D01*
X+448202Y+5963268D01*
X+457424Y+5952888D01*
X+467919Y+5945200D01*
X+478414Y+5940282D01*
X+488909Y+5937476D01*
X+499404Y+5936503D01*
X+500000Y+5936500D01*
X+563500Y+6000000D02*
X+563283Y+5994753D01*
X+561518Y+5984258D01*
X+557826Y+5973763D01*
X+551798Y+5963268D01*
X+542576Y+5952888D01*
X+532081Y+5945200D01*
X+521586Y+5940282D01*
X+511091Y+5937476D01*
X+500596Y+5936503D01*
X+500000Y+5936500D01*
X+455099Y+6044901D02*
X+544901Y+5955099D01*
X+455099Y+5955099D02*
X+544901Y+6044901D01*
X+5763500Y+6000000D02*
X+5763283Y+6005247D01*
X+5761518Y+6015742D01*
X+5757826Y+6026237D01*
X+5751798Y+6036732D01*
X+5742576Y+6047112D01*
X+5732081Y+6054800D01*
X+5721586Y+6059718D01*
X+5711091Y+6062524D01*
X+5700596Y+6063497D01*
X+5700000Y+6063500D01*
X+5636500Y+6000000D02*
X+5636717Y+6005247D01*
X+5638482Y+6015742D01*
X+5642174Y+6026237D01*
X+5648202Y+6036732D01*
X+5657424Y+6047112D01*
X+5667919Y+6054800D01*
X+5678414Y+6059718D01*
X+5688909Y+6062524D01*
X+5699404Y+6063497D01*
X+5700000Y+6063500D01*
X+5636500Y+6000000D02*
X+5636717Y+5994753D01*
X+5638482Y+5984258D01*
X+5642174Y+5973763D01*
X+5648202Y+5963268D01*
X+5657424Y+5952888D01*
X+5667919Y+5945200D01*
X+5678414Y+5940282D01*
X+5688909Y+5937476D01*
X+5699404Y+5936503D01*
X+5700000Y+5936500D01*
X+5763500Y+6000000D02*
X+5763283Y+5994753D01*
X+5761518Y+5984258D01*
X+5757826Y+5973763D01*
X+5751798Y+5963268D01*
X+5742576Y+5952888D01*
X+5732081Y+5945200D01*
X+5721586Y+5940282D01*
X+5711091Y+5937476D01*
X+5700596Y+5936503D01*
X+5700000Y+5936500D01*
X+5700000Y+6063500D02*
X+5700000Y+5936500D01*
X+5636500Y+6000000D02*
X+5763500Y+6000000D01*
X+5763283Y+6005247D01*
X+5761518Y+6015742D01*
X+5757826Y+6026237D01*
X+5751798Y+6036732D01*
X+5742576Y+6047112D01*
X+5732081Y+6054800D01*
X+5721586Y+6059718D01*
X+5711091Y+6062524D01*
X+5700596Y+6063497D01*
X+5700000Y+6063500D01*
X+5636500Y+6000000D02*
X+5636717Y+6005247D01*
X+5638482Y+6015742D01*
X+5642174Y+6026237D01*
X+5648202Y+6036732D01*
X+5657424Y+6047112D01*
X+5667919Y+6054800D01*
X+5678414Y+6059718D01*
X+5688909Y+6062524D01*
X+5699404Y+6063497D01*
X+5700000Y+6063500D01*
X+5636500Y+6000000D02*
X+5636717Y+5994753D01*
X+5638482Y+5984258D01*
X+5642174Y+5973763D01*
X+5648202Y+5963268D01*
X+5657424Y+5952888D01*
X+5667919Y+5945200D01*
X+5678414Y+5940282D01*
X+5688909Y+5937476D01*
X+5699404Y+5936503D01*
X+5700000Y+5936500D01*
X+5763500Y+6000000D02*
X+5763283Y+5994753D01*
X+5761518Y+5984258D01*
X+5757826Y+5973763D01*
X+5751798Y+5963268D01*
X+5742576Y+5952888D01*
X+5732081Y+5945200D01*
X+5721586Y+5940282D01*
X+5711091Y+5937476D01*
X+5700596Y+5936503D01*
X+5700000Y+5936500D01*
X+5655099Y+6044901D02*
X+5744901Y+5955099D01*
X+5655099Y+5955099D02*
X+5744901Y+6044901D01*
X+5763500Y+500000D02*
X+5763283Y+505247D01*
X+5761518Y+515742D01*
X+5757826Y+526237D01*
X+5751798Y+536732D01*
X+5742576Y+547112D01*
X+5732081Y+554800D01*
X+5721586Y+559718D01*
X+5711091Y+562524D01*
X+5700596Y+563497D01*
X+5700000Y+563500D01*
X+5636500Y+500000D02*
X+5636717Y+505247D01*
X+5638482Y+515742D01*
X+5642174Y+526237D01*
X+5648202Y+536732D01*
X+5657424Y+547112D01*
X+5667919Y+554800D01*
X+5678414Y+559718D01*
X+5688909Y+562524D01*
X+5699404Y+563497D01*
X+5700000Y+563500D01*
X+5636500Y+500000D02*
X+5636717Y+494753D01*
X+5638482Y+484258D01*
X+5642174Y+473763D01*
X+5648202Y+463268D01*
X+5657424Y+452888D01*
X+5667919Y+445200D01*
X+5678414Y+440282D01*
X+5688909Y+437476D01*
X+5699404Y+436503D01*
X+5700000Y+436500D01*
X+5763500Y+500000D02*
X+5763283Y+494753D01*
X+5761518Y+484258D01*
X+5757826Y+473763D01*
X+5751798Y+463268D01*
X+5742576Y+452888D01*
X+5732081Y+445200D01*
X+5721586Y+440282D01*
X+5711091Y+437476D01*
X+5700596Y+436503D01*
X+5700000Y+436500D01*
X+5700000Y+563500D02*
X+5700000Y+436500D01*
X+5636500Y+500000D02*
X+5763500Y+500000D01*
X+5763283Y+505247D01*
X+5761518Y+515742D01*
X+5757826Y+526237D01*
X+5751798Y+536732D01*
X+5742576Y+547112D01*
X+5732081Y+554800D01*
X+5721586Y+559718D01*
X+5711091Y+562524D01*
X+5700596Y+563497D01*
X+5700000Y+563500D01*
X+5636500Y+500000D02*
X+5636717Y+505247D01*
X+5638482Y+515742D01*
X+5642174Y+526237D01*
X+5648202Y+536732D01*
X+5657424Y+547112D01*
X+5667919Y+554800D01*
X+5678414Y+559718D01*
X+5688909Y+562524D01*
X+5699404Y+563497D01*
X+5700000Y+563500D01*
X+5636500Y+500000D02*
X+5636717Y+494753D01*
X+5638482Y+484258D01*
X+5642174Y+473763D01*
X+5648202Y+463268D01*
X+5657424Y+452888D01*
X+5667919Y+445200D01*
X+5678414Y+440282D01*
X+5688909Y+437476D01*
X+5699404Y+436503D01*
X+5700000Y+436500D01*
X+5763500Y+500000D02*
X+5763283Y+494753D01*
X+5761518Y+484258D01*
X+5757826Y+473763D01*
X+5751798Y+463268D01*
X+5742576Y+452888D01*
X+5732081Y+445200D01*
X+5721586Y+440282D01*
X+5711091Y+437476D01*
X+5700596Y+436503D01*
X+5700000Y+436500D01*
X+5655099Y+544901D02*
X+5744901Y+455099D01*
X+5655099Y+455099D02*
X+5744901Y+544901D01*
X+563500Y+500000D02*
X+563283Y+505247D01*
X+561518Y+515742D01*
X+557826Y+526237D01*
X+551798Y+536732D01*
X+542576Y+547112D01*
X+532081Y+554800D01*
X+521586Y+559718D01*
X+511091Y+562524D01*
X+500596Y+563497D01*
X+500000Y+563500D01*
X+436500Y+500000D02*
X+436717Y+505247D01*
X+438482Y+515742D01*
X+442174Y+526237D01*
X+448202Y+536732D01*
X+457424Y+547112D01*
X+467919Y+554800D01*
X+478414Y+559718D01*
X+488909Y+562524D01*
X+499404Y+563497D01*
X+500000Y+563500D01*
X+436500Y+500000D02*
X+436717Y+494753D01*
X+438482Y+484258D01*
X+442174Y+473763D01*
X+448202Y+463268D01*
X+457424Y+452888D01*
X+467919Y+445200D01*
X+478414Y+440282D01*
X+488909Y+437476D01*
X+499404Y+436503D01*
X+500000Y+436500D01*
X+563500Y+500000D02*
X+563283Y+494753D01*
X+561518Y+484258D01*
X+557826Y+473763D01*
X+551798Y+463268D01*
X+542576Y+452888D01*
X+532081Y+445200D01*
X+521586Y+440282D01*
X+511091Y+437476D01*
X+500596Y+436503D01*
X+500000Y+436500D01*
X+500000Y+563500D02*
X+500000Y+436500D01*
X+436500Y+500000D02*
X+563500Y+500000D01*
X+563283Y+505247D01*
X+561518Y+515742D01*
X+557826Y+526237D01*
X+551798Y+536732D01*
X+542576Y+547112D01*
X+532081Y+554800D01*
X+521586Y+559718D01*
X+511091Y+562524D01*
X+500596Y+563497D01*
X+500000Y+563500D01*
X+436500Y+500000D02*
X+436717Y+505247D01*
X+438482Y+515742D01*
X+442174Y+526237D01*
X+448202Y+536732D01*
X+457424Y+547112D01*
X+467919Y+554800D01*
X+478414Y+559718D01*
X+488909Y+562524D01*
X+499404Y+563497D01*
X+500000Y+563500D01*
X+436500Y+500000D02*
X+436717Y+494753D01*
X+438482Y+484258D01*
X+442174Y+473763D01*
X+448202Y+463268D01*
X+457424Y+452888D01*
X+467919Y+445200D01*
X+478414Y+440282D01*
X+488909Y+437476D01*
X+499404Y+436503D01*
X+500000Y+436500D01*
X+563500Y+500000D02*
X+563283Y+494753D01*
X+561518Y+484258D01*
X+557826Y+473763D01*
X+551798Y+463268D01*
X+542576Y+452888D01*
X+532081Y+445200D01*
X+521586Y+440282D01*
X+511091Y+437476D01*
X+500596Y+436503D01*
X+500000Y+436500D01*
X+455099Y+544901D02*
X+544901Y+455099D01*
X+455099Y+455099D02*
X+544901Y+544901D01*
X+4055099Y+4044901D02*
X+4144901Y+3955099D01*
X+4055099Y+3955099D02*
X+4144901Y+4044901D01*
X+4055099Y+5060901D02*
X+4144901Y+4971099D01*
X+4055099Y+4971099D02*
X+4144901Y+5060901D01*
X+1300000Y+6063500D02*
X+1300000Y+5936500D01*
X+1236500Y+6000000D02*
X+1363500Y+6000000D01*
X+1255099Y+6044901D02*
X+1344901Y+5955099D01*
X+1255099Y+5955099D02*
X+1344901Y+6044901D01*
X+1554000Y+6063500D02*
X+1554000Y+5936500D01*
X+1490500Y+6000000D02*
X+1617500Y+6000000D01*
X+1509099Y+6044901D02*
X+1598901Y+5955099D01*
X+1509099Y+5955099D02*
X+1598901Y+6044901D01*
X+7463500Y+4600000D02*
X+7463283Y+4605247D01*
X+7461518Y+4615742D01*
X+7457826Y+4626237D01*
X+7451798Y+4636732D01*
X+7442576Y+4647112D01*
X+7432081Y+4654800D01*
X+7421586Y+4659718D01*
X+7411091Y+4662524D01*
X+7400596Y+4663497D01*
X+7400000Y+4663500D01*
X+7336500Y+4600000D02*
X+7336717Y+4605247D01*
X+7338482Y+4615742D01*
X+7342174Y+4626237D01*
X+7348202Y+4636732D01*
X+7357424Y+4647112D01*
X+7367919Y+4654800D01*
X+7378414Y+4659718D01*
X+7388909Y+4662524D01*
X+7399404Y+4663497D01*
X+7400000Y+4663500D01*
X+7336500Y+4600000D02*
X+7336717Y+4594753D01*
X+7338482Y+4584258D01*
X+7342174Y+4573763D01*
X+7348202Y+4563268D01*
X+7357424Y+4552888D01*
X+7367919Y+4545200D01*
X+7378414Y+4540282D01*
X+7388909Y+4537476D01*
X+7399404Y+4536503D01*
X+7400000Y+4536500D01*
X+7463500Y+4600000D02*
X+7463283Y+4594753D01*
X+7461518Y+4584258D01*
X+7457826Y+4573763D01*
X+7451798Y+4563268D01*
X+7442576Y+4552888D01*
X+7432081Y+4545200D01*
X+7421586Y+4540282D01*
X+7411091Y+4537476D01*
X+7400596Y+4536503D01*
X+7400000Y+4536500D01*
X+7355099Y+4644901D02*
X+7444901Y+4555099D01*
X+7355099Y+4555099D02*
X+7444901Y+4644901D01*
X+7463500Y+5108000D02*
X+7463283Y+5113247D01*
X+7461518Y+5123742D01*
X+7457826Y+5134237D01*
X+7451798Y+5144732D01*
X+7442576Y+5155112D01*
X+7432081Y+5162800D01*
X+7421586Y+5167718D01*
X+7411091Y+5170524D01*
X+7400596Y+5171497D01*
X+7400000Y+5171500D01*
X+7336500Y+5108000D02*
X+7336717Y+5113247D01*
X+7338482Y+5123742D01*
X+7342174Y+5134237D01*
X+7348202Y+5144732D01*
X+7357424Y+5155112D01*
X+7367919Y+5162800D01*
X+7378414Y+5167718D01*
X+7388909Y+5170524D01*
X+7399404Y+5171497D01*
X+7400000Y+5171500D01*
X+7336500Y+5108000D02*
X+7336717Y+5102753D01*
X+7338482Y+5092258D01*
X+7342174Y+5081763D01*
X+7348202Y+5071268D01*
X+7357424Y+5060888D01*
X+7367919Y+5053200D01*
X+7378414Y+5048282D01*
X+7388909Y+5045476D01*
X+7399404Y+5044503D01*
X+7400000Y+5044500D01*
X+7463500Y+5108000D02*
X+7463283Y+5102753D01*
X+7461518Y+5092258D01*
X+7457826Y+5081763D01*
X+7451798Y+5071268D01*
X+7442576Y+5060888D01*
X+7432081Y+5053200D01*
X+7421586Y+5048282D01*
X+7411091Y+5045476D01*
X+7400596Y+5044503D01*
X+7400000Y+5044500D01*
X+7355099Y+5152901D02*
X+7444901Y+5063099D01*
X+7355099Y+5063099D02*
X+7444901Y+5152901D01*
X+12413500Y+5108000D02*
X+12413283Y+5113247D01*
X+12411518Y+5123742D01*
X+12407826Y+5134237D01*
X+12401798Y+5144732D01*
X+12392576Y+5155112D01*
X+12382081Y+5162800D01*
X+12371586Y+5167718D01*
X+12361091Y+5170524D01*
X+12350596Y+5171497D01*
X+12350000Y+5171500D01*
X+12286500Y+5108000D02*
X+12286717Y+5113247D01*
X+12288482Y+5123742D01*
X+12292174Y+5134237D01*
X+12298202Y+5144732D01*
X+12307424Y+5155112D01*
X+12317919Y+5162800D01*
X+12328414Y+5167718D01*
X+12338909Y+5170524D01*
X+12349404Y+5171497D01*
X+12350000Y+5171500D01*
X+12286500Y+5108000D02*
X+12286717Y+5102753D01*
X+12288482Y+5092258D01*
X+12292174Y+5081763D01*
X+12298202Y+5071268D01*
X+12307424Y+5060888D01*
X+12317919Y+5053200D01*
X+12328414Y+5048282D01*
X+12338909Y+5045476D01*
X+12349404Y+5044503D01*
X+12350000Y+5044500D01*
X+12413500Y+5108000D02*
X+12413283Y+5102753D01*
X+12411518Y+5092258D01*
X+12407826Y+5081763D01*
X+12401798Y+5071268D01*
X+12392576Y+5060888D01*
X+12382081Y+5053200D01*
X+12371586Y+5048282D01*
X+12361091Y+5045476D01*
X+12350596Y+5044503D01*
X+12350000Y+5044500D01*
X+12350000Y+5171500D02*
X+12350000Y+5044500D01*
X+12286500Y+5108000D02*
X+12413500Y+5108000D01*
X+12413500Y+4600000D02*
X+12413283Y+4605247D01*
X+12411518Y+4615742D01*
X+12407826Y+4626237D01*
X+12401798Y+4636732D01*
X+12392576Y+4647112D01*
X+12382081Y+4654800D01*
X+12371586Y+4659718D01*
X+12361091Y+4662524D01*
X+12350596Y+4663497D01*
X+12350000Y+4663500D01*
X+12286500Y+4600000D02*
X+12286717Y+4605247D01*
X+12288482Y+4615742D01*
X+12292174Y+4626237D01*
X+12298202Y+4636732D01*
X+12307424Y+4647112D01*
X+12317919Y+4654800D01*
X+12328414Y+4659718D01*
X+12338909Y+4662524D01*
X+12349404Y+4663497D01*
X+12350000Y+4663500D01*
X+12286500Y+4600000D02*
X+12286717Y+4594753D01*
X+12288482Y+4584258D01*
X+12292174Y+4573763D01*
X+12298202Y+4563268D01*
X+12307424Y+4552888D01*
X+12317919Y+4545200D01*
X+12328414Y+4540282D01*
X+12338909Y+4537476D01*
X+12349404Y+4536503D01*
X+12350000Y+4536500D01*
X+12413500Y+4600000D02*
X+12413283Y+4594753D01*
X+12411518Y+4584258D01*
X+12407826Y+4573763D01*
X+12401798Y+4563268D01*
X+12392576Y+4552888D01*
X+12382081Y+4545200D01*
X+12371586Y+4540282D01*
X+12361091Y+4537476D01*
X+12350596Y+4536503D01*
X+12350000Y+4536500D01*
X+12350000Y+4663500D02*
X+12350000Y+4536500D01*
X+12286500Y+4600000D02*
X+12413500Y+4600000D01*
X+8455099Y+4390901D02*
X+8544901Y+4301099D01*
X+8455099Y+4301099D02*
X+8544901Y+4390901D01*
X+8455099Y+4644901D02*
X+8544901Y+4555099D01*
X+8455099Y+4555099D02*
X+8544901Y+4644901D01*
X+9030000Y+4715500D02*
X+9030000Y+4588500D01*
X+8966500Y+4652000D02*
X+9093500Y+4652000D01*
X+8985099Y+4696901D02*
X+9074901Y+4607099D01*
X+8985099Y+4607099D02*
X+9074901Y+4696901D01*
X+9030000Y+4461500D02*
X+9030000Y+4334500D01*
X+8966500Y+4398000D02*
X+9093500Y+4398000D01*
X+8985099Y+4442901D02*
X+9074901Y+4353099D01*
X+8985099Y+4353099D02*
X+9074901Y+4442901D01*
X+9030000Y+4207500D02*
X+9030000Y+4080500D01*
X+8966500Y+4144000D02*
X+9093500Y+4144000D01*
X+8985099Y+4188901D02*
X+9074901Y+4099099D01*
X+8985099Y+4099099D02*
X+9074901Y+4188901D01*
X+9030000Y+3953500D02*
X+9030000Y+3826500D01*
X+8966500Y+3890000D02*
X+9093500Y+3890000D01*
X+8985099Y+3934901D02*
X+9074901Y+3845099D01*
X+8985099Y+3845099D02*
X+9074901Y+3934901D01*
X+9030000Y+3699500D02*
X+9030000Y+3572500D01*
X+8966500Y+3636000D02*
X+9093500Y+3636000D01*
X+8985099Y+3680901D02*
X+9074901Y+3591099D01*
X+8985099Y+3591099D02*
X+9074901Y+3680901D01*
X+9030000Y+2683500D02*
X+9030000Y+2556500D01*
X+8966500Y+2620000D02*
X+9093500Y+2620000D01*
X+8985099Y+2664901D02*
X+9074901Y+2575099D01*
X+8985099Y+2575099D02*
X+9074901Y+2664901D01*
X+9030000Y+2429500D02*
X+9030000Y+2302500D01*
X+8966500Y+2366000D02*
X+9093500Y+2366000D01*
X+8985099Y+2410901D02*
X+9074901Y+2321099D01*
X+8985099Y+2321099D02*
X+9074901Y+2410901D01*
X+9030000Y+2175500D02*
X+9030000Y+2048500D01*
X+8966500Y+2112000D02*
X+9093500Y+2112000D01*
X+8985099Y+2156901D02*
X+9074901Y+2067099D01*
X+8985099Y+2067099D02*
X+9074901Y+2156901D01*
X+9030000Y+1921500D02*
X+9030000Y+1794500D01*
X+8966500Y+1858000D02*
X+9093500Y+1858000D01*
X+8985099Y+1902901D02*
X+9074901Y+1813099D01*
X+8985099Y+1813099D02*
X+9074901Y+1902901D01*
X+9030000Y+1667500D02*
X+9030000Y+1540500D01*
X+8966500Y+1604000D02*
X+9093500Y+1604000D01*
X+8985099Y+1648901D02*
X+9074901Y+1559099D01*
X+8985099Y+1559099D02*
X+9074901Y+1648901D01*
X+9030000Y+1413500D02*
X+9030000Y+1286500D01*
X+8966500Y+1350000D02*
X+9093500Y+1350000D01*
X+8985099Y+1394901D02*
X+9074901Y+1305099D01*
X+8985099Y+1305099D02*
X+9074901Y+1394901D01*
X+9030000Y+1159500D02*
X+9030000Y+1032500D01*
X+8966500Y+1096000D02*
X+9093500Y+1096000D01*
X+8985099Y+1140901D02*
X+9074901Y+1051099D01*
X+8985099Y+1051099D02*
X+9074901Y+1140901D01*
X+11570000Y+1159500D02*
X+11570000Y+1032500D01*
X+11506500Y+1096000D02*
X+11633500Y+1096000D01*
X+11525099Y+1140901D02*
X+11614901Y+1051099D01*
X+11525099Y+1051099D02*
X+11614901Y+1140901D01*
X+11570000Y+1413500D02*
X+11570000Y+1286500D01*
X+11506500Y+1350000D02*
X+11633500Y+1350000D01*
X+11525099Y+1394901D02*
X+11614901Y+1305099D01*
X+11525099Y+1305099D02*
X+11614901Y+1394901D01*
X+11570000Y+1921500D02*
X+11570000Y+1794500D01*
X+11506500Y+1858000D02*
X+11633500Y+1858000D01*
X+11525099Y+1902901D02*
X+11614901Y+1813099D01*
X+11525099Y+1813099D02*
X+11614901Y+1902901D01*
X+11570000Y+2175500D02*
X+11570000Y+2048500D01*
X+11506500Y+2112000D02*
X+11633500Y+2112000D01*
X+11525099Y+2156901D02*
X+11614901Y+2067099D01*
X+11525099Y+2067099D02*
X+11614901Y+2156901D01*
X+11570000Y+2429500D02*
X+11570000Y+2302500D01*
X+11506500Y+2366000D02*
X+11633500Y+2366000D01*
X+11525099Y+2410901D02*
X+11614901Y+2321099D01*
X+11525099Y+2321099D02*
X+11614901Y+2410901D01*
X+11570000Y+2683500D02*
X+11570000Y+2556500D01*
X+11506500Y+2620000D02*
X+11633500Y+2620000D01*
X+11525099Y+2664901D02*
X+11614901Y+2575099D01*
X+11525099Y+2575099D02*
X+11614901Y+2664901D01*
X+11570000Y+2937500D02*
X+11570000Y+2810500D01*
X+11506500Y+2874000D02*
X+11633500Y+2874000D01*
X+11525099Y+2918901D02*
X+11614901Y+2829099D01*
X+11525099Y+2829099D02*
X+11614901Y+2918901D01*
X+11570000Y+3191500D02*
X+11570000Y+3064500D01*
X+11506500Y+3128000D02*
X+11633500Y+3128000D01*
X+11525099Y+3172901D02*
X+11614901Y+3083099D01*
X+11525099Y+3083099D02*
X+11614901Y+3172901D01*
X+11570000Y+3445500D02*
X+11570000Y+3318500D01*
X+11506500Y+3382000D02*
X+11633500Y+3382000D01*
X+11525099Y+3426901D02*
X+11614901Y+3337099D01*
X+11525099Y+3337099D02*
X+11614901Y+3426901D01*
X+11570000Y+3953500D02*
X+11570000Y+3826500D01*
X+11506500Y+3890000D02*
X+11633500Y+3890000D01*
X+11525099Y+3934901D02*
X+11614901Y+3845099D01*
X+11525099Y+3845099D02*
X+11614901Y+3934901D01*
X+11570000Y+4207500D02*
X+11570000Y+4080500D01*
X+11506500Y+4144000D02*
X+11633500Y+4144000D01*
X+11525099Y+4188901D02*
X+11614901Y+4099099D01*
X+11525099Y+4099099D02*
X+11614901Y+4188901D01*
X+11570000Y+4715500D02*
X+11570000Y+4588500D01*
X+11506500Y+4652000D02*
X+11633500Y+4652000D01*
X+11525099Y+4696901D02*
X+11614901Y+4607099D01*
X+11525099Y+4607099D02*
X+11614901Y+4696901D01*
X+7150000Y+3863500D02*
X+7150000Y+3736500D01*
X+7086500Y+3800000D02*
X+7213500Y+3800000D01*
X+7105099Y+3844901D02*
X+7194901Y+3755099D01*
X+7105099Y+3755099D02*
X+7194901Y+3844901D01*
X+7404000Y+3863500D02*
X+7404000Y+3736500D01*
X+7340500Y+3800000D02*
X+7467500Y+3800000D01*
X+7359099Y+3844901D02*
X+7448901Y+3755099D01*
X+7359099Y+3755099D02*
X+7448901Y+3844901D01*
X+7658000Y+3863500D02*
X+7658000Y+3736500D01*
X+7594500Y+3800000D02*
X+7721500Y+3800000D01*
X+7613099Y+3844901D02*
X+7702901Y+3755099D01*
X+7613099Y+3755099D02*
X+7702901Y+3844901D01*
X+7912000Y+3863500D02*
X+7912000Y+3736500D01*
X+7848500Y+3800000D02*
X+7975500Y+3800000D01*
X+7867099Y+3844901D02*
X+7956901Y+3755099D01*
X+7867099Y+3755099D02*
X+7956901Y+3844901D01*
X+8166000Y+3863500D02*
X+8166000Y+3736500D01*
X+8102500Y+3800000D02*
X+8229500Y+3800000D01*
X+8121099Y+3844901D02*
X+8210901Y+3755099D01*
X+8121099Y+3755099D02*
X+8210901Y+3844901D01*
X+8420000Y+3863500D02*
X+8420000Y+3736500D01*
X+8356500Y+3800000D02*
X+8483500Y+3800000D01*
X+8375099Y+3844901D02*
X+8464901Y+3755099D01*
X+8375099Y+3755099D02*
X+8464901Y+3844901D01*
X+8500000Y+1063500D02*
X+8500000Y+936500D01*
X+8436500Y+1000000D02*
X+8563500Y+1000000D01*
X+8455099Y+1044901D02*
X+8544901Y+955099D01*
X+8455099Y+955099D02*
X+8544901Y+1044901D01*
X+8500000Y+1317500D02*
X+8500000Y+1190500D01*
X+8436500Y+1254000D02*
X+8563500Y+1254000D01*
X+8455099Y+1298901D02*
X+8544901Y+1209099D01*
X+8455099Y+1209099D02*
X+8544901Y+1298901D01*
X+8500000Y+1571500D02*
X+8500000Y+1444500D01*
X+8436500Y+1508000D02*
X+8563500Y+1508000D01*
X+8455099Y+1552901D02*
X+8544901Y+1463099D01*
X+8455099Y+1463099D02*
X+8544901Y+1552901D01*
X+8500000Y+1825500D02*
X+8500000Y+1698500D01*
X+8436500Y+1762000D02*
X+8563500Y+1762000D01*
X+8455099Y+1806901D02*
X+8544901Y+1717099D01*
X+8455099Y+1717099D02*
X+8544901Y+1806901D01*
X+8500000Y+2079500D02*
X+8500000Y+1952500D01*
X+8436500Y+2016000D02*
X+8563500Y+2016000D01*
X+8455099Y+2060901D02*
X+8544901Y+1971099D01*
X+8455099Y+1971099D02*
X+8544901Y+2060901D01*
X+8500000Y+2333500D02*
X+8500000Y+2206500D01*
X+8436500Y+2270000D02*
X+8563500Y+2270000D01*
X+8455099Y+2314901D02*
X+8544901Y+2225099D01*
X+8455099Y+2225099D02*
X+8544901Y+2314901D01*
X+8500000Y+2587500D02*
X+8500000Y+2460500D01*
X+8436500Y+2524000D02*
X+8563500Y+2524000D01*
X+8455099Y+2568901D02*
X+8544901Y+2479099D01*
X+8455099Y+2479099D02*
X+8544901Y+2568901D01*
X+12563500Y+3550000D02*
X+12563283Y+3555247D01*
X+12561518Y+3565742D01*
X+12557826Y+3576237D01*
X+12551798Y+3586732D01*
X+12542576Y+3597112D01*
X+12532081Y+3604800D01*
X+12521586Y+3609718D01*
X+12511091Y+3612524D01*
X+12500596Y+3613497D01*
X+12500000Y+3613500D01*
X+12436500Y+3550000D02*
X+12436717Y+3555247D01*
X+12438482Y+3565742D01*
X+12442174Y+3576237D01*
X+12448202Y+3586732D01*
X+12457424Y+3597112D01*
X+12467919Y+3604800D01*
X+12478414Y+3609718D01*
X+12488909Y+3612524D01*
X+12499404Y+3613497D01*
X+12500000Y+3613500D01*
X+12436500Y+3550000D02*
X+12436717Y+3544753D01*
X+12438482Y+3534258D01*
X+12442174Y+3523763D01*
X+12448202Y+3513268D01*
X+12457424Y+3502888D01*
X+12467919Y+3495200D01*
X+12478414Y+3490282D01*
X+12488909Y+3487476D01*
X+12499404Y+3486503D01*
X+12500000Y+3486500D01*
X+12563500Y+3550000D02*
X+12563283Y+3544753D01*
X+12561518Y+3534258D01*
X+12557826Y+3523763D01*
X+12551798Y+3513268D01*
X+12542576Y+3502888D01*
X+12532081Y+3495200D01*
X+12521586Y+3490282D01*
X+12511091Y+3487476D01*
X+12500596Y+3486503D01*
X+12500000Y+3486500D01*
X+12455099Y+3594901D02*
X+12544901Y+3505099D01*
X+12455099Y+3505099D02*
X+12544901Y+3594901D01*
X+12563500Y+3042000D02*
X+12563283Y+3047247D01*
X+12561518Y+3057742D01*
X+12557826Y+3068237D01*
X+12551798Y+3078732D01*
X+12542576Y+3089112D01*
X+12532081Y+3096800D01*
X+12521586Y+3101718D01*
X+12511091Y+3104524D01*
X+12500596Y+3105497D01*
X+12500000Y+3105500D01*
X+12436500Y+3042000D02*
X+12436717Y+3047247D01*
X+12438482Y+3057742D01*
X+12442174Y+3068237D01*
X+12448202Y+3078732D01*
X+12457424Y+3089112D01*
X+12467919Y+3096800D01*
X+12478414Y+3101718D01*
X+12488909Y+3104524D01*
X+12499404Y+3105497D01*
X+12500000Y+3105500D01*
X+12436500Y+3042000D02*
X+12436717Y+3036753D01*
X+12438482Y+3026258D01*
X+12442174Y+3015763D01*
X+12448202Y+3005268D01*
X+12457424Y+2994888D01*
X+12467919Y+2987200D01*
X+12478414Y+2982282D01*
X+12488909Y+2979476D01*
X+12499404Y+2978503D01*
X+12500000Y+2978500D01*
X+12563500Y+3042000D02*
X+12563283Y+3036753D01*
X+12561518Y+3026258D01*
X+12557826Y+3015763D01*
X+12551798Y+3005268D01*
X+12542576Y+2994888D01*
X+12532081Y+2987200D01*
X+12521586Y+2982282D01*
X+12511091Y+2979476D01*
X+12500596Y+2978503D01*
X+12500000Y+2978500D01*
X+12455099Y+3086901D02*
X+12544901Y+2997099D01*
X+12455099Y+2997099D02*
X+12544901Y+3086901D01*
X+12563500Y+2534000D02*
X+12563283Y+2539247D01*
X+12561518Y+2549742D01*
X+12557826Y+2560237D01*
X+12551798Y+2570732D01*
X+12542576Y+2581112D01*
X+12532081Y+2588800D01*
X+12521586Y+2593718D01*
X+12511091Y+2596524D01*
X+12500596Y+2597497D01*
X+12500000Y+2597500D01*
X+12436500Y+2534000D02*
X+12436717Y+2539247D01*
X+12438482Y+2549742D01*
X+12442174Y+2560237D01*
X+12448202Y+2570732D01*
X+12457424Y+2581112D01*
X+12467919Y+2588800D01*
X+12478414Y+2593718D01*
X+12488909Y+2596524D01*
X+12499404Y+2597497D01*
X+12500000Y+2597500D01*
X+12436500Y+2534000D02*
X+12436717Y+2528753D01*
X+12438482Y+2518258D01*
X+12442174Y+2507763D01*
X+12448202Y+2497268D01*
X+12457424Y+2486888D01*
X+12467919Y+2479200D01*
X+12478414Y+2474282D01*
X+12488909Y+2471476D01*
X+12499404Y+2470503D01*
X+12500000Y+2470500D01*
X+12563500Y+2534000D02*
X+12563283Y+2528753D01*
X+12561518Y+2518258D01*
X+12557826Y+2507763D01*
X+12551798Y+2497268D01*
X+12542576Y+2486888D01*
X+12532081Y+2479200D01*
X+12521586Y+2474282D01*
X+12511091Y+2471476D01*
X+12500596Y+2470503D01*
X+12500000Y+2470500D01*
X+12455099Y+2578901D02*
X+12544901Y+2489099D01*
X+12455099Y+2489099D02*
X+12544901Y+2578901D01*
X+12563500Y+2026000D02*
X+12563283Y+2031247D01*
X+12561518Y+2041742D01*
X+12557826Y+2052237D01*
X+12551798Y+2062732D01*
X+12542576Y+2073112D01*
X+12532081Y+2080800D01*
X+12521586Y+2085718D01*
X+12511091Y+2088524D01*
X+12500596Y+2089497D01*
X+12500000Y+2089500D01*
X+12436500Y+2026000D02*
X+12436717Y+2031247D01*
X+12438482Y+2041742D01*
X+12442174Y+2052237D01*
X+12448202Y+2062732D01*
X+12457424Y+2073112D01*
X+12467919Y+2080800D01*
X+12478414Y+2085718D01*
X+12488909Y+2088524D01*
X+12499404Y+2089497D01*
X+12500000Y+2089500D01*
X+12436500Y+2026000D02*
X+12436717Y+2020753D01*
X+12438482Y+2010258D01*
X+12442174Y+1999763D01*
X+12448202Y+1989268D01*
X+12457424Y+1978888D01*
X+12467919Y+1971200D01*
X+12478414Y+1966282D01*
X+12488909Y+1963476D01*
X+12499404Y+1962503D01*
X+12500000Y+1962500D01*
X+12563500Y+2026000D02*
X+12563283Y+2020753D01*
X+12561518Y+2010258D01*
X+12557826Y+1999763D01*
X+12551798Y+1989268D01*
X+12542576Y+1978888D01*
X+12532081Y+1971200D01*
X+12521586Y+1966282D01*
X+12511091Y+1963476D01*
X+12500596Y+1962503D01*
X+12500000Y+1962500D01*
X+12455099Y+2070901D02*
X+12544901Y+1981099D01*
X+12455099Y+1981099D02*
X+12544901Y+2070901D01*
X+12563500Y+1518000D02*
X+12563283Y+1523247D01*
X+12561518Y+1533742D01*
X+12557826Y+1544237D01*
X+12551798Y+1554732D01*
X+12542576Y+1565112D01*
X+12532081Y+1572800D01*
X+12521586Y+1577718D01*
X+12511091Y+1580524D01*
X+12500596Y+1581497D01*
X+12500000Y+1581500D01*
X+12436500Y+1518000D02*
X+12436717Y+1523247D01*
X+12438482Y+1533742D01*
X+12442174Y+1544237D01*
X+12448202Y+1554732D01*
X+12457424Y+1565112D01*
X+12467919Y+1572800D01*
X+12478414Y+1577718D01*
X+12488909Y+1580524D01*
X+12499404Y+1581497D01*
X+12500000Y+1581500D01*
X+12436500Y+1518000D02*
X+12436717Y+1512753D01*
X+12438482Y+1502258D01*
X+12442174Y+1491763D01*
X+12448202Y+1481268D01*
X+12457424Y+1470888D01*
X+12467919Y+1463200D01*
X+12478414Y+1458282D01*
X+12488909Y+1455476D01*
X+12499404Y+1454503D01*
X+12500000Y+1454500D01*
X+12563500Y+1518000D02*
X+12563283Y+1512753D01*
X+12561518Y+1502258D01*
X+12557826Y+1491763D01*
X+12551798Y+1481268D01*
X+12542576Y+1470888D01*
X+12532081Y+1463200D01*
X+12521586Y+1458282D01*
X+12511091Y+1455476D01*
X+12500596Y+1454503D01*
X+12500000Y+1454500D01*
X+12455099Y+1562901D02*
X+12544901Y+1473099D01*
X+12455099Y+1473099D02*
X+12544901Y+1562901D01*
X+7363500Y+6000000D02*
X+7363283Y+6005247D01*
X+7361518Y+6015742D01*
X+7357826Y+6026237D01*
X+7351798Y+6036732D01*
X+7342576Y+6047112D01*
X+7332081Y+6054800D01*
X+7321586Y+6059718D01*
X+7311091Y+6062524D01*
X+7300596Y+6063497D01*
X+7300000Y+6063500D01*
X+7236500Y+6000000D02*
X+7236717Y+6005247D01*
X+7238482Y+6015742D01*
X+7242174Y+6026237D01*
X+7248202Y+6036732D01*
X+7257424Y+6047112D01*
X+7267919Y+6054800D01*
X+7278414Y+6059718D01*
X+7288909Y+6062524D01*
X+7299404Y+6063497D01*
X+7300000Y+6063500D01*
X+7236500Y+6000000D02*
X+7236717Y+5994753D01*
X+7238482Y+5984258D01*
X+7242174Y+5973763D01*
X+7248202Y+5963268D01*
X+7257424Y+5952888D01*
X+7267919Y+5945200D01*
X+7278414Y+5940282D01*
X+7288909Y+5937476D01*
X+7299404Y+5936503D01*
X+7300000Y+5936500D01*
X+7363500Y+6000000D02*
X+7363283Y+5994753D01*
X+7361518Y+5984258D01*
X+7357826Y+5973763D01*
X+7351798Y+5963268D01*
X+7342576Y+5952888D01*
X+7332081Y+5945200D01*
X+7321586Y+5940282D01*
X+7311091Y+5937476D01*
X+7300596Y+5936503D01*
X+7300000Y+5936500D01*
X+7300000Y+6063500D02*
X+7300000Y+5936500D01*
X+7236500Y+6000000D02*
X+7363500Y+6000000D01*
X+7363283Y+6005247D01*
X+7361518Y+6015742D01*
X+7357826Y+6026237D01*
X+7351798Y+6036732D01*
X+7342576Y+6047112D01*
X+7332081Y+6054800D01*
X+7321586Y+6059718D01*
X+7311091Y+6062524D01*
X+7300596Y+6063497D01*
X+7300000Y+6063500D01*
X+7236500Y+6000000D02*
X+7236717Y+6005247D01*
X+7238482Y+6015742D01*
X+7242174Y+6026237D01*
X+7248202Y+6036732D01*
X+7257424Y+6047112D01*
X+7267919Y+6054800D01*
X+7278414Y+6059718D01*
X+7288909Y+6062524D01*
X+7299404Y+6063497D01*
X+7300000Y+6063500D01*
X+7236500Y+6000000D02*
X+7236717Y+5994753D01*
X+7238482Y+5984258D01*
X+7242174Y+5973763D01*
X+7248202Y+5963268D01*
X+7257424Y+5952888D01*
X+7267919Y+5945200D01*
X+7278414Y+5940282D01*
X+7288909Y+5937476D01*
X+7299404Y+5936503D01*
X+7300000Y+5936500D01*
X+7363500Y+6000000D02*
X+7363283Y+5994753D01*
X+7361518Y+5984258D01*
X+7357826Y+5973763D01*
X+7351798Y+5963268D01*
X+7342576Y+5952888D01*
X+7332081Y+5945200D01*
X+7321586Y+5940282D01*
X+7311091Y+5937476D01*
X+7300596Y+5936503D01*
X+7300000Y+5936500D01*
X+7255099Y+6044901D02*
X+7344901Y+5955099D01*
X+7255099Y+5955099D02*
X+7344901Y+6044901D01*
X+12563500Y+6000000D02*
X+12563283Y+6005247D01*
X+12561518Y+6015742D01*
X+12557826Y+6026237D01*
X+12551798Y+6036732D01*
X+12542576Y+6047112D01*
X+12532081Y+6054800D01*
X+12521586Y+6059718D01*
X+12511091Y+6062524D01*
X+12500596Y+6063497D01*
X+12500000Y+6063500D01*
X+12436500Y+6000000D02*
X+12436717Y+6005247D01*
X+12438482Y+6015742D01*
X+12442174Y+6026237D01*
X+12448202Y+6036732D01*
X+12457424Y+6047112D01*
X+12467919Y+6054800D01*
X+12478414Y+6059718D01*
X+12488909Y+6062524D01*
X+12499404Y+6063497D01*
X+12500000Y+6063500D01*
X+12436500Y+6000000D02*
X+12436717Y+5994753D01*
X+12438482Y+5984258D01*
X+12442174Y+5973763D01*
X+12448202Y+5963268D01*
X+12457424Y+5952888D01*
X+12467919Y+5945200D01*
X+12478414Y+5940282D01*
X+12488909Y+5937476D01*
X+12499404Y+5936503D01*
X+12500000Y+5936500D01*
X+12563500Y+6000000D02*
X+12563283Y+5994753D01*
X+12561518Y+5984258D01*
X+12557826Y+5973763D01*
X+12551798Y+5963268D01*
X+12542576Y+5952888D01*
X+12532081Y+5945200D01*
X+12521586Y+5940282D01*
X+12511091Y+5937476D01*
X+12500596Y+5936503D01*
X+12500000Y+5936500D01*
X+12500000Y+6063500D02*
X+12500000Y+5936500D01*
X+12436500Y+6000000D02*
X+12563500Y+6000000D01*
X+12563283Y+6005247D01*
X+12561518Y+6015742D01*
X+12557826Y+6026237D01*
X+12551798Y+6036732D01*
X+12542576Y+6047112D01*
X+12532081Y+6054800D01*
X+12521586Y+6059718D01*
X+12511091Y+6062524D01*
X+12500596Y+6063497D01*
X+12500000Y+6063500D01*
X+12436500Y+6000000D02*
X+12436717Y+6005247D01*
X+12438482Y+6015742D01*
X+12442174Y+6026237D01*
X+12448202Y+6036732D01*
X+12457424Y+6047112D01*
X+12467919Y+6054800D01*
X+12478414Y+6059718D01*
X+12488909Y+6062524D01*
X+12499404Y+6063497D01*
X+12500000Y+6063500D01*
X+12436500Y+6000000D02*
X+12436717Y+5994753D01*
X+12438482Y+5984258D01*
X+12442174Y+5973763D01*
X+12448202Y+5963268D01*
X+12457424Y+5952888D01*
X+12467919Y+5945200D01*
X+12478414Y+5940282D01*
X+12488909Y+5937476D01*
X+12499404Y+5936503D01*
X+12500000Y+5936500D01*
X+12563500Y+6000000D02*
X+12563283Y+5994753D01*
X+12561518Y+5984258D01*
X+12557826Y+5973763D01*
X+12551798Y+5963268D01*
X+12542576Y+5952888D01*
X+12532081Y+5945200D01*
X+12521586Y+5940282D01*
X+12511091Y+5937476D01*
X+12500596Y+5936503D01*
X+12500000Y+5936500D01*
X+12455099Y+6044901D02*
X+12544901Y+5955099D01*
X+12455099Y+5955099D02*
X+12544901Y+6044901D01*
X+12563500Y+500000D02*
X+12563283Y+505247D01*
X+12561518Y+515742D01*
X+12557826Y+526237D01*
X+12551798Y+536732D01*
X+12542576Y+547112D01*
X+12532081Y+554800D01*
X+12521586Y+559718D01*
X+12511091Y+562524D01*
X+12500596Y+563497D01*
X+12500000Y+563500D01*
X+12436500Y+500000D02*
X+12436717Y+505247D01*
X+12438482Y+515742D01*
X+12442174Y+526237D01*
X+12448202Y+536732D01*
X+12457424Y+547112D01*
X+12467919Y+554800D01*
X+12478414Y+559718D01*
X+12488909Y+562524D01*
X+12499404Y+563497D01*
X+12500000Y+563500D01*
X+12436500Y+500000D02*
X+12436717Y+494753D01*
X+12438482Y+484258D01*
X+12442174Y+473763D01*
X+12448202Y+463268D01*
X+12457424Y+452888D01*
X+12467919Y+445200D01*
X+12478414Y+440282D01*
X+12488909Y+437476D01*
X+12499404Y+436503D01*
X+12500000Y+436500D01*
X+12563500Y+500000D02*
X+12563283Y+494753D01*
X+12561518Y+484258D01*
X+12557826Y+473763D01*
X+12551798Y+463268D01*
X+12542576Y+452888D01*
X+12532081Y+445200D01*
X+12521586Y+440282D01*
X+12511091Y+437476D01*
X+12500596Y+436503D01*
X+12500000Y+436500D01*
X+12500000Y+563500D02*
X+12500000Y+436500D01*
X+12436500Y+500000D02*
X+12563500Y+500000D01*
X+12563283Y+505247D01*
X+12561518Y+515742D01*
X+12557826Y+526237D01*
X+12551798Y+536732D01*
X+12542576Y+547112D01*
X+12532081Y+554800D01*
X+12521586Y+559718D01*
X+12511091Y+562524D01*
X+12500596Y+563497D01*
X+12500000Y+563500D01*
X+12436500Y+500000D02*
X+12436717Y+505247D01*
X+12438482Y+515742D01*
X+12442174Y+526237D01*
X+12448202Y+536732D01*
X+12457424Y+547112D01*
X+12467919Y+554800D01*
X+12478414Y+559718D01*
X+12488909Y+562524D01*
X+12499404Y+563497D01*
X+12500000Y+563500D01*
X+12436500Y+500000D02*
X+12436717Y+494753D01*
X+12438482Y+484258D01*
X+12442174Y+473763D01*
X+12448202Y+463268D01*
X+12457424Y+452888D01*
X+12467919Y+445200D01*
X+12478414Y+440282D01*
X+12488909Y+437476D01*
X+12499404Y+436503D01*
X+12500000Y+436500D01*
X+12563500Y+500000D02*
X+12563283Y+494753D01*
X+12561518Y+484258D01*
X+12557826Y+473763D01*
X+12551798Y+463268D01*
X+12542576Y+452888D01*
X+12532081Y+445200D01*
X+12521586Y+440282D01*
X+12511091Y+437476D01*
X+12500596Y+436503D01*
X+12500000Y+436500D01*
X+12455099Y+544901D02*
X+12544901Y+455099D01*
X+12455099Y+455099D02*
X+12544901Y+544901D01*
X+7363500Y+500000D02*
X+7363283Y+505247D01*
X+7361518Y+515742D01*
X+7357826Y+526237D01*
X+7351798Y+536732D01*
X+7342576Y+547112D01*
X+7332081Y+554800D01*
X+7321586Y+559718D01*
X+7311091Y+562524D01*
X+7300596Y+563497D01*
X+7300000Y+563500D01*
X+7236500Y+500000D02*
X+7236717Y+505247D01*
X+7238482Y+515742D01*
X+7242174Y+526237D01*
X+7248202Y+536732D01*
X+7257424Y+547112D01*
X+7267919Y+554800D01*
X+7278414Y+559718D01*
X+7288909Y+562524D01*
X+7299404Y+563497D01*
X+7300000Y+563500D01*
X+7236500Y+500000D02*
X+7236717Y+494753D01*
X+7238482Y+484258D01*
X+7242174Y+473763D01*
X+7248202Y+463268D01*
X+7257424Y+452888D01*
X+7267919Y+445200D01*
X+7278414Y+440282D01*
X+7288909Y+437476D01*
X+7299404Y+436503D01*
X+7300000Y+436500D01*
X+7363500Y+500000D02*
X+7363283Y+494753D01*
X+7361518Y+484258D01*
X+7357826Y+473763D01*
X+7351798Y+463268D01*
X+7342576Y+452888D01*
X+7332081Y+445200D01*
X+7321586Y+440282D01*
X+7311091Y+437476D01*
X+7300596Y+436503D01*
X+7300000Y+436500D01*
X+7300000Y+563500D02*
X+7300000Y+436500D01*
X+7236500Y+500000D02*
X+7363500Y+500000D01*
X+7363283Y+505247D01*
X+7361518Y+515742D01*
X+7357826Y+526237D01*
X+7351798Y+536732D01*
X+7342576Y+547112D01*
X+7332081Y+554800D01*
X+7321586Y+559718D01*
X+7311091Y+562524D01*
X+7300596Y+563497D01*
X+7300000Y+563500D01*
X+7236500Y+500000D02*
X+7236717Y+505247D01*
X+7238482Y+515742D01*
X+7242174Y+526237D01*
X+7248202Y+536732D01*
X+7257424Y+547112D01*
X+7267919Y+554800D01*
X+7278414Y+559718D01*
X+7288909Y+562524D01*
X+7299404Y+563497D01*
X+7300000Y+563500D01*
X+7236500Y+500000D02*
X+7236717Y+494753D01*
X+7238482Y+484258D01*
X+7242174Y+473763D01*
X+7248202Y+463268D01*
X+7257424Y+452888D01*
X+7267919Y+445200D01*
X+7278414Y+440282D01*
X+7288909Y+437476D01*
X+7299404Y+436503D01*
X+7300000Y+436500D01*
X+7363500Y+500000D02*
X+7363283Y+494753D01*
X+7361518Y+484258D01*
X+7357826Y+473763D01*
X+7351798Y+463268D01*
X+7342576Y+452888D01*
X+7332081Y+445200D01*
X+7321586Y+440282D01*
X+7311091Y+437476D01*
X+7300596Y+436503D01*
X+7300000Y+436500D01*
X+7255099Y+544901D02*
X+7344901Y+455099D01*
X+7255099Y+455099D02*
X+7344901Y+544901D01*
X+10855099Y+4044901D02*
X+10944901Y+3955099D01*
X+10855099Y+3955099D02*
X+10944901Y+4044901D01*
X+10855099Y+5060901D02*
X+10944901Y+4971099D01*
X+10855099Y+4971099D02*
X+10944901Y+5060901D01*
X+8100000Y+6063500D02*
X+8100000Y+5936500D01*
X+8036500Y+6000000D02*
X+8163500Y+6000000D01*
X+8055099Y+6044901D02*
X+8144901Y+5955099D01*
X+8055099Y+5955099D02*
X+8144901Y+6044901D01*
X+8354000Y+6063500D02*
X+8354000Y+5936500D01*
X+8290500Y+6000000D02*
X+8417500Y+6000000D01*
X+8309099Y+6044901D02*
X+8398901Y+5955099D01*
X+8309099Y+5955099D02*
X+8398901Y+6044901D01*
X+663500Y+11800000D02*
X+663283Y+11805247D01*
X+661518Y+11815742D01*
X+657826Y+11826237D01*
X+651798Y+11836732D01*
X+642576Y+11847112D01*
X+632081Y+11854800D01*
X+621586Y+11859718D01*
X+611091Y+11862524D01*
X+600596Y+11863497D01*
X+600000Y+11863500D01*
X+536500Y+11800000D02*
X+536717Y+11805247D01*
X+538482Y+11815742D01*
X+542174Y+11826237D01*
X+548202Y+11836732D01*
X+557424Y+11847112D01*
X+567919Y+11854800D01*
X+578414Y+11859718D01*
X+588909Y+11862524D01*
X+599404Y+11863497D01*
X+600000Y+11863500D01*
X+536500Y+11800000D02*
X+536717Y+11794753D01*
X+538482Y+11784258D01*
X+542174Y+11773763D01*
X+548202Y+11763268D01*
X+557424Y+11752888D01*
X+567919Y+11745200D01*
X+578414Y+11740282D01*
X+588909Y+11737476D01*
X+599404Y+11736503D01*
X+600000Y+11736500D01*
X+663500Y+11800000D02*
X+663283Y+11794753D01*
X+661518Y+11784258D01*
X+657826Y+11773763D01*
X+651798Y+11763268D01*
X+642576Y+11752888D01*
X+632081Y+11745200D01*
X+621586Y+11740282D01*
X+611091Y+11737476D01*
X+600596Y+11736503D01*
X+600000Y+11736500D01*
X+555099Y+11844901D02*
X+644901Y+11755099D01*
X+555099Y+11755099D02*
X+644901Y+11844901D01*
X+663500Y+12308000D02*
X+663283Y+12313247D01*
X+661518Y+12323742D01*
X+657826Y+12334237D01*
X+651798Y+12344732D01*
X+642576Y+12355112D01*
X+632081Y+12362800D01*
X+621586Y+12367718D01*
X+611091Y+12370524D01*
X+600596Y+12371497D01*
X+600000Y+12371500D01*
X+536500Y+12308000D02*
X+536717Y+12313247D01*
X+538482Y+12323742D01*
X+542174Y+12334237D01*
X+548202Y+12344732D01*
X+557424Y+12355112D01*
X+567919Y+12362800D01*
X+578414Y+12367718D01*
X+588909Y+12370524D01*
X+599404Y+12371497D01*
X+600000Y+12371500D01*
X+536500Y+12308000D02*
X+536717Y+12302753D01*
X+538482Y+12292258D01*
X+542174Y+12281763D01*
X+548202Y+12271268D01*
X+557424Y+12260888D01*
X+567919Y+12253200D01*
X+578414Y+12248282D01*
X+588909Y+12245476D01*
X+599404Y+12244503D01*
X+600000Y+12244500D01*
X+663500Y+12308000D02*
X+663283Y+12302753D01*
X+661518Y+12292258D01*
X+657826Y+12281763D01*
X+651798Y+12271268D01*
X+642576Y+12260888D01*
X+632081Y+12253200D01*
X+621586Y+12248282D01*
X+611091Y+12245476D01*
X+600596Y+12244503D01*
X+600000Y+12244500D01*
X+555099Y+12352901D02*
X+644901Y+12263099D01*
X+555099Y+12263099D02*
X+644901Y+12352901D01*
X+5613500Y+12308000D02*
X+5613283Y+12313247D01*
X+5611518Y+12323742D01*
X+5607826Y+12334237D01*
X+5601798Y+12344732D01*
X+5592576Y+12355112D01*
X+5582081Y+12362800D01*
X+5571586Y+12367718D01*
X+5561091Y+12370524D01*
X+5550596Y+12371497D01*
X+5550000Y+12371500D01*
X+5486500Y+12308000D02*
X+5486717Y+12313247D01*
X+5488482Y+12323742D01*
X+5492174Y+12334237D01*
X+5498202Y+12344732D01*
X+5507424Y+12355112D01*
X+5517919Y+12362800D01*
X+5528414Y+12367718D01*
X+5538909Y+12370524D01*
X+5549404Y+12371497D01*
X+5550000Y+12371500D01*
X+5486500Y+12308000D02*
X+5486717Y+12302753D01*
X+5488482Y+12292258D01*
X+5492174Y+12281763D01*
X+5498202Y+12271268D01*
X+5507424Y+12260888D01*
X+5517919Y+12253200D01*
X+5528414Y+12248282D01*
X+5538909Y+12245476D01*
X+5549404Y+12244503D01*
X+5550000Y+12244500D01*
X+5613500Y+12308000D02*
X+5613283Y+12302753D01*
X+5611518Y+12292258D01*
X+5607826Y+12281763D01*
X+5601798Y+12271268D01*
X+5592576Y+12260888D01*
X+5582081Y+12253200D01*
X+5571586Y+12248282D01*
X+5561091Y+12245476D01*
X+5550596Y+12244503D01*
X+5550000Y+12244500D01*
X+5550000Y+12371500D02*
X+5550000Y+12244500D01*
X+5486500Y+12308000D02*
X+5613500Y+12308000D01*
X+5613500Y+11800000D02*
X+5613283Y+11805247D01*
X+5611518Y+11815742D01*
X+5607826Y+11826237D01*
X+5601798Y+11836732D01*
X+5592576Y+11847112D01*
X+5582081Y+11854800D01*
X+5571586Y+11859718D01*
X+5561091Y+11862524D01*
X+5550596Y+11863497D01*
X+5550000Y+11863500D01*
X+5486500Y+11800000D02*
X+5486717Y+11805247D01*
X+5488482Y+11815742D01*
X+5492174Y+11826237D01*
X+5498202Y+11836732D01*
X+5507424Y+11847112D01*
X+5517919Y+11854800D01*
X+5528414Y+11859718D01*
X+5538909Y+11862524D01*
X+5549404Y+11863497D01*
X+5550000Y+11863500D01*
X+5486500Y+11800000D02*
X+5486717Y+11794753D01*
X+5488482Y+11784258D01*
X+5492174Y+11773763D01*
X+5498202Y+11763268D01*
X+5507424Y+11752888D01*
X+5517919Y+11745200D01*
X+5528414Y+11740282D01*
X+5538909Y+11737476D01*
X+5549404Y+11736503D01*
X+5550000Y+11736500D01*
X+5613500Y+11800000D02*
X+5613283Y+11794753D01*
X+5611518Y+11784258D01*
X+5607826Y+11773763D01*
X+5601798Y+11763268D01*
X+5592576Y+11752888D01*
X+5582081Y+11745200D01*
X+5571586Y+11740282D01*
X+5561091Y+11737476D01*
X+5550596Y+11736503D01*
X+5550000Y+11736500D01*
X+5550000Y+11863500D02*
X+5550000Y+11736500D01*
X+5486500Y+11800000D02*
X+5613500Y+11800000D01*
X+1655099Y+11590901D02*
X+1744901Y+11501099D01*
X+1655099Y+11501099D02*
X+1744901Y+11590901D01*
X+1655099Y+11844901D02*
X+1744901Y+11755099D01*
X+1655099Y+11755099D02*
X+1744901Y+11844901D01*
X+2230000Y+11915500D02*
X+2230000Y+11788500D01*
X+2166500Y+11852000D02*
X+2293500Y+11852000D01*
X+2185099Y+11896901D02*
X+2274901Y+11807099D01*
X+2185099Y+11807099D02*
X+2274901Y+11896901D01*
X+2230000Y+11661500D02*
X+2230000Y+11534500D01*
X+2166500Y+11598000D02*
X+2293500Y+11598000D01*
X+2185099Y+11642901D02*
X+2274901Y+11553099D01*
X+2185099Y+11553099D02*
X+2274901Y+11642901D01*
X+2230000Y+11407500D02*
X+2230000Y+11280500D01*
X+2166500Y+11344000D02*
X+2293500Y+11344000D01*
X+2185099Y+11388901D02*
X+2274901Y+11299099D01*
X+2185099Y+11299099D02*
X+2274901Y+11388901D01*
X+2230000Y+11153500D02*
X+2230000Y+11026500D01*
X+2166500Y+11090000D02*
X+2293500Y+11090000D01*
X+2185099Y+11134901D02*
X+2274901Y+11045099D01*
X+2185099Y+11045099D02*
X+2274901Y+11134901D01*
X+2230000Y+10899500D02*
X+2230000Y+10772500D01*
X+2166500Y+10836000D02*
X+2293500Y+10836000D01*
X+2185099Y+10880901D02*
X+2274901Y+10791099D01*
X+2185099Y+10791099D02*
X+2274901Y+10880901D01*
X+2230000Y+9883500D02*
X+2230000Y+9756500D01*
X+2166500Y+9820000D02*
X+2293500Y+9820000D01*
X+2185099Y+9864901D02*
X+2274901Y+9775099D01*
X+2185099Y+9775099D02*
X+2274901Y+9864901D01*
X+2230000Y+9629500D02*
X+2230000Y+9502500D01*
X+2166500Y+9566000D02*
X+2293500Y+9566000D01*
X+2185099Y+9610901D02*
X+2274901Y+9521099D01*
X+2185099Y+9521099D02*
X+2274901Y+9610901D01*
X+2230000Y+9375500D02*
X+2230000Y+9248500D01*
X+2166500Y+9312000D02*
X+2293500Y+9312000D01*
X+2185099Y+9356901D02*
X+2274901Y+9267099D01*
X+2185099Y+9267099D02*
X+2274901Y+9356901D01*
X+2230000Y+9121500D02*
X+2230000Y+8994500D01*
X+2166500Y+9058000D02*
X+2293500Y+9058000D01*
X+2185099Y+9102901D02*
X+2274901Y+9013099D01*
X+2185099Y+9013099D02*
X+2274901Y+9102901D01*
X+2230000Y+8867500D02*
X+2230000Y+8740500D01*
X+2166500Y+8804000D02*
X+2293500Y+8804000D01*
X+2185099Y+8848901D02*
X+2274901Y+8759099D01*
X+2185099Y+8759099D02*
X+2274901Y+8848901D01*
X+2230000Y+8613500D02*
X+2230000Y+8486500D01*
X+2166500Y+8550000D02*
X+2293500Y+8550000D01*
X+2185099Y+8594901D02*
X+2274901Y+8505099D01*
X+2185099Y+8505099D02*
X+2274901Y+8594901D01*
X+2230000Y+8359500D02*
X+2230000Y+8232500D01*
X+2166500Y+8296000D02*
X+2293500Y+8296000D01*
X+2185099Y+8340901D02*
X+2274901Y+8251099D01*
X+2185099Y+8251099D02*
X+2274901Y+8340901D01*
X+4770000Y+8359500D02*
X+4770000Y+8232500D01*
X+4706500Y+8296000D02*
X+4833500Y+8296000D01*
X+4725099Y+8340901D02*
X+4814901Y+8251099D01*
X+4725099Y+8251099D02*
X+4814901Y+8340901D01*
X+4770000Y+8613500D02*
X+4770000Y+8486500D01*
X+4706500Y+8550000D02*
X+4833500Y+8550000D01*
X+4725099Y+8594901D02*
X+4814901Y+8505099D01*
X+4725099Y+8505099D02*
X+4814901Y+8594901D01*
X+4770000Y+9121500D02*
X+4770000Y+8994500D01*
X+4706500Y+9058000D02*
X+4833500Y+9058000D01*
X+4725099Y+9102901D02*
X+4814901Y+9013099D01*
X+4725099Y+9013099D02*
X+4814901Y+9102901D01*
X+4770000Y+9375500D02*
X+4770000Y+9248500D01*
X+4706500Y+9312000D02*
X+4833500Y+9312000D01*
X+4725099Y+9356901D02*
X+4814901Y+9267099D01*
X+4725099Y+9267099D02*
X+4814901Y+9356901D01*
X+4770000Y+9629500D02*
X+4770000Y+9502500D01*
X+4706500Y+9566000D02*
X+4833500Y+9566000D01*
X+4725099Y+9610901D02*
X+4814901Y+9521099D01*
X+4725099Y+9521099D02*
X+4814901Y+9610901D01*
X+4770000Y+9883500D02*
X+4770000Y+9756500D01*
X+4706500Y+9820000D02*
X+4833500Y+9820000D01*
X+4725099Y+9864901D02*
X+4814901Y+9775099D01*
X+4725099Y+9775099D02*
X+4814901Y+9864901D01*
X+4770000Y+10137500D02*
X+4770000Y+10010500D01*
X+4706500Y+10074000D02*
X+4833500Y+10074000D01*
X+4725099Y+10118901D02*
X+4814901Y+10029099D01*
X+4725099Y+10029099D02*
X+4814901Y+10118901D01*
X+4770000Y+10391500D02*
X+4770000Y+10264500D01*
X+4706500Y+10328000D02*
X+4833500Y+10328000D01*
X+4725099Y+10372901D02*
X+4814901Y+10283099D01*
X+4725099Y+10283099D02*
X+4814901Y+10372901D01*
X+4770000Y+10645500D02*
X+4770000Y+10518500D01*
X+4706500Y+10582000D02*
X+4833500Y+10582000D01*
X+4725099Y+10626901D02*
X+4814901Y+10537099D01*
X+4725099Y+10537099D02*
X+4814901Y+10626901D01*
X+4770000Y+11153500D02*
X+4770000Y+11026500D01*
X+4706500Y+11090000D02*
X+4833500Y+11090000D01*
X+4725099Y+11134901D02*
X+4814901Y+11045099D01*
X+4725099Y+11045099D02*
X+4814901Y+11134901D01*
X+4770000Y+11407500D02*
X+4770000Y+11280500D01*
X+4706500Y+11344000D02*
X+4833500Y+11344000D01*
X+4725099Y+11388901D02*
X+4814901Y+11299099D01*
X+4725099Y+11299099D02*
X+4814901Y+11388901D01*
X+4770000Y+11915500D02*
X+4770000Y+11788500D01*
X+4706500Y+11852000D02*
X+4833500Y+11852000D01*
X+4725099Y+11896901D02*
X+4814901Y+11807099D01*
X+4725099Y+11807099D02*
X+4814901Y+11896901D01*
X+350000Y+11063500D02*
X+350000Y+10936500D01*
X+286500Y+11000000D02*
X+413500Y+11000000D01*
X+305099Y+11044901D02*
X+394901Y+10955099D01*
X+305099Y+10955099D02*
X+394901Y+11044901D01*
X+604000Y+11063500D02*
X+604000Y+10936500D01*
X+540500Y+11000000D02*
X+667500Y+11000000D01*
X+559099Y+11044901D02*
X+648901Y+10955099D01*
X+559099Y+10955099D02*
X+648901Y+11044901D01*
X+858000Y+11063500D02*
X+858000Y+10936500D01*
X+794500Y+11000000D02*
X+921500Y+11000000D01*
X+813099Y+11044901D02*
X+902901Y+10955099D01*
X+813099Y+10955099D02*
X+902901Y+11044901D01*
X+1112000Y+11063500D02*
X+1112000Y+10936500D01*
X+1048500Y+11000000D02*
X+1175500Y+11000000D01*
X+1067099Y+11044901D02*
X+1156901Y+10955099D01*
X+1067099Y+10955099D02*
X+1156901Y+11044901D01*
X+1366000Y+11063500D02*
X+1366000Y+10936500D01*
X+1302500Y+11000000D02*
X+1429500Y+11000000D01*
X+1321099Y+11044901D02*
X+1410901Y+10955099D01*
X+1321099Y+10955099D02*
X+1410901Y+11044901D01*
X+1620000Y+11063500D02*
X+1620000Y+10936500D01*
X+1556500Y+11000000D02*
X+1683500Y+11000000D01*
X+1575099Y+11044901D02*
X+1664901Y+10955099D01*
X+1575099Y+10955099D02*
X+1664901Y+11044901D01*
X+1700000Y+8263500D02*
X+1700000Y+8136500D01*
X+1636500Y+8200000D02*
X+1763500Y+8200000D01*
X+1655099Y+8244901D02*
X+1744901Y+8155099D01*
X+1655099Y+8155099D02*
X+1744901Y+8244901D01*
X+1700000Y+8517500D02*
X+1700000Y+8390500D01*
X+1636500Y+8454000D02*
X+1763500Y+8454000D01*
X+1655099Y+8498901D02*
X+1744901Y+8409099D01*
X+1655099Y+8409099D02*
X+1744901Y+8498901D01*
X+1700000Y+8771500D02*
X+1700000Y+8644500D01*
X+1636500Y+8708000D02*
X+1763500Y+8708000D01*
X+1655099Y+8752901D02*
X+1744901Y+8663099D01*
X+1655099Y+8663099D02*
X+1744901Y+8752901D01*
X+1700000Y+9025500D02*
X+1700000Y+8898500D01*
X+1636500Y+8962000D02*
X+1763500Y+8962000D01*
X+1655099Y+9006901D02*
X+1744901Y+8917099D01*
X+1655099Y+8917099D02*
X+1744901Y+9006901D01*
X+1700000Y+9279500D02*
X+1700000Y+9152500D01*
X+1636500Y+9216000D02*
X+1763500Y+9216000D01*
X+1655099Y+9260901D02*
X+1744901Y+9171099D01*
X+1655099Y+9171099D02*
X+1744901Y+9260901D01*
X+1700000Y+9533500D02*
X+1700000Y+9406500D01*
X+1636500Y+9470000D02*
X+1763500Y+9470000D01*
X+1655099Y+9514901D02*
X+1744901Y+9425099D01*
X+1655099Y+9425099D02*
X+1744901Y+9514901D01*
X+1700000Y+9787500D02*
X+1700000Y+9660500D01*
X+1636500Y+9724000D02*
X+1763500Y+9724000D01*
X+1655099Y+9768901D02*
X+1744901Y+9679099D01*
X+1655099Y+9679099D02*
X+1744901Y+9768901D01*
X+5763500Y+10750000D02*
X+5763283Y+10755247D01*
X+5761518Y+10765742D01*
X+5757826Y+10776237D01*
X+5751798Y+10786732D01*
X+5742576Y+10797112D01*
X+5732081Y+10804800D01*
X+5721586Y+10809718D01*
X+5711091Y+10812524D01*
X+5700596Y+10813497D01*
X+5700000Y+10813500D01*
X+5636500Y+10750000D02*
X+5636717Y+10755247D01*
X+5638482Y+10765742D01*
X+5642174Y+10776237D01*
X+5648202Y+10786732D01*
X+5657424Y+10797112D01*
X+5667919Y+10804800D01*
X+5678414Y+10809718D01*
X+5688909Y+10812524D01*
X+5699404Y+10813497D01*
X+5700000Y+10813500D01*
X+5636500Y+10750000D02*
X+5636717Y+10744753D01*
X+5638482Y+10734258D01*
X+5642174Y+10723763D01*
X+5648202Y+10713268D01*
X+5657424Y+10702888D01*
X+5667919Y+10695200D01*
X+5678414Y+10690282D01*
X+5688909Y+10687476D01*
X+5699404Y+10686503D01*
X+5700000Y+10686500D01*
X+5763500Y+10750000D02*
X+5763283Y+10744753D01*
X+5761518Y+10734258D01*
X+5757826Y+10723763D01*
X+5751798Y+10713268D01*
X+5742576Y+10702888D01*
X+5732081Y+10695200D01*
X+5721586Y+10690282D01*
X+5711091Y+10687476D01*
X+5700596Y+10686503D01*
X+5700000Y+10686500D01*
X+5655099Y+10794901D02*
X+5744901Y+10705099D01*
X+5655099Y+10705099D02*
X+5744901Y+10794901D01*
X+5763500Y+10242000D02*
X+5763283Y+10247247D01*
X+5761518Y+10257742D01*
X+5757826Y+10268237D01*
X+5751798Y+10278732D01*
X+5742576Y+10289112D01*
X+5732081Y+10296800D01*
X+5721586Y+10301718D01*
X+5711091Y+10304524D01*
X+5700596Y+10305497D01*
X+5700000Y+10305500D01*
X+5636500Y+10242000D02*
X+5636717Y+10247247D01*
X+5638482Y+10257742D01*
X+5642174Y+10268237D01*
X+5648202Y+10278732D01*
X+5657424Y+10289112D01*
X+5667919Y+10296800D01*
X+5678414Y+10301718D01*
X+5688909Y+10304524D01*
X+5699404Y+10305497D01*
X+5700000Y+10305500D01*
X+5636500Y+10242000D02*
X+5636717Y+10236753D01*
X+5638482Y+10226258D01*
X+5642174Y+10215763D01*
X+5648202Y+10205268D01*
X+5657424Y+10194888D01*
X+5667919Y+10187200D01*
X+5678414Y+10182282D01*
X+5688909Y+10179476D01*
X+5699404Y+10178503D01*
X+5700000Y+10178500D01*
X+5763500Y+10242000D02*
X+5763283Y+10236753D01*
X+5761518Y+10226258D01*
X+5757826Y+10215763D01*
X+5751798Y+10205268D01*
X+5742576Y+10194888D01*
X+5732081Y+10187200D01*
X+5721586Y+10182282D01*
X+5711091Y+10179476D01*
X+5700596Y+10178503D01*
X+5700000Y+10178500D01*
X+5655099Y+10286901D02*
X+5744901Y+10197099D01*
X+5655099Y+10197099D02*
X+5744901Y+10286901D01*
X+5763500Y+9734000D02*
X+5763283Y+9739247D01*
X+5761518Y+9749742D01*
X+5757826Y+9760237D01*
X+5751798Y+9770732D01*
X+5742576Y+9781112D01*
X+5732081Y+9788800D01*
X+5721586Y+9793718D01*
X+5711091Y+9796524D01*
X+5700596Y+9797497D01*
X+5700000Y+9797500D01*
X+5636500Y+9734000D02*
X+5636717Y+9739247D01*
X+5638482Y+9749742D01*
X+5642174Y+9760237D01*
X+5648202Y+9770732D01*
X+5657424Y+9781112D01*
X+5667919Y+9788800D01*
X+5678414Y+9793718D01*
X+5688909Y+9796524D01*
X+5699404Y+9797497D01*
X+5700000Y+9797500D01*
X+5636500Y+9734000D02*
X+5636717Y+9728753D01*
X+5638482Y+9718258D01*
X+5642174Y+9707763D01*
X+5648202Y+9697268D01*
X+5657424Y+9686888D01*
X+5667919Y+9679200D01*
X+5678414Y+9674282D01*
X+5688909Y+9671476D01*
X+5699404Y+9670503D01*
X+5700000Y+9670500D01*
X+5763500Y+9734000D02*
X+5763283Y+9728753D01*
X+5761518Y+9718258D01*
X+5757826Y+9707763D01*
X+5751798Y+9697268D01*
X+5742576Y+9686888D01*
X+5732081Y+9679200D01*
X+5721586Y+9674282D01*
X+5711091Y+9671476D01*
X+5700596Y+9670503D01*
X+5700000Y+9670500D01*
X+5655099Y+9778901D02*
X+5744901Y+9689099D01*
X+5655099Y+9689099D02*
X+5744901Y+9778901D01*
X+5763500Y+9226000D02*
X+5763283Y+9231247D01*
X+5761518Y+9241742D01*
X+5757826Y+9252237D01*
X+5751798Y+9262732D01*
X+5742576Y+9273112D01*
X+5732081Y+9280800D01*
X+5721586Y+9285718D01*
X+5711091Y+9288524D01*
X+5700596Y+9289497D01*
X+5700000Y+9289500D01*
X+5636500Y+9226000D02*
X+5636717Y+9231247D01*
X+5638482Y+9241742D01*
X+5642174Y+9252237D01*
X+5648202Y+9262732D01*
X+5657424Y+9273112D01*
X+5667919Y+9280800D01*
X+5678414Y+9285718D01*
X+5688909Y+9288524D01*
X+5699404Y+9289497D01*
X+5700000Y+9289500D01*
X+5636500Y+9226000D02*
X+5636717Y+9220753D01*
X+5638482Y+9210258D01*
X+5642174Y+9199763D01*
X+5648202Y+9189268D01*
X+5657424Y+9178888D01*
X+5667919Y+9171200D01*
X+5678414Y+9166282D01*
X+5688909Y+9163476D01*
X+5699404Y+9162503D01*
X+5700000Y+9162500D01*
X+5763500Y+9226000D02*
X+5763283Y+9220753D01*
X+5761518Y+9210258D01*
X+5757826Y+9199763D01*
X+5751798Y+9189268D01*
X+5742576Y+9178888D01*
X+5732081Y+9171200D01*
X+5721586Y+9166282D01*
X+5711091Y+9163476D01*
X+5700596Y+9162503D01*
X+5700000Y+9162500D01*
X+5655099Y+9270901D02*
X+5744901Y+9181099D01*
X+5655099Y+9181099D02*
X+5744901Y+9270901D01*
X+5763500Y+8718000D02*
X+5763283Y+8723247D01*
X+5761518Y+8733742D01*
X+5757826Y+8744237D01*
X+5751798Y+8754732D01*
X+5742576Y+8765112D01*
X+5732081Y+8772800D01*
X+5721586Y+8777718D01*
X+5711091Y+8780524D01*
X+5700596Y+8781497D01*
X+5700000Y+8781500D01*
X+5636500Y+8718000D02*
X+5636717Y+8723247D01*
X+5638482Y+8733742D01*
X+5642174Y+8744237D01*
X+5648202Y+8754732D01*
X+5657424Y+8765112D01*
X+5667919Y+8772800D01*
X+5678414Y+8777718D01*
X+5688909Y+8780524D01*
X+5699404Y+8781497D01*
X+5700000Y+8781500D01*
X+5636500Y+8718000D02*
X+5636717Y+8712753D01*
X+5638482Y+8702258D01*
X+5642174Y+8691763D01*
X+5648202Y+8681268D01*
X+5657424Y+8670888D01*
X+5667919Y+8663200D01*
X+5678414Y+8658282D01*
X+5688909Y+8655476D01*
X+5699404Y+8654503D01*
X+5700000Y+8654500D01*
X+5763500Y+8718000D02*
X+5763283Y+8712753D01*
X+5761518Y+8702258D01*
X+5757826Y+8691763D01*
X+5751798Y+8681268D01*
X+5742576Y+8670888D01*
X+5732081Y+8663200D01*
X+5721586Y+8658282D01*
X+5711091Y+8655476D01*
X+5700596Y+8654503D01*
X+5700000Y+8654500D01*
X+5655099Y+8762901D02*
X+5744901Y+8673099D01*
X+5655099Y+8673099D02*
X+5744901Y+8762901D01*
X+563500Y+13200000D02*
X+563283Y+13205247D01*
X+561518Y+13215742D01*
X+557826Y+13226237D01*
X+551798Y+13236732D01*
X+542576Y+13247112D01*
X+532081Y+13254800D01*
X+521586Y+13259718D01*
X+511091Y+13262524D01*
X+500596Y+13263497D01*
X+500000Y+13263500D01*
X+436500Y+13200000D02*
X+436717Y+13205247D01*
X+438482Y+13215742D01*
X+442174Y+13226237D01*
X+448202Y+13236732D01*
X+457424Y+13247112D01*
X+467919Y+13254800D01*
X+478414Y+13259718D01*
X+488909Y+13262524D01*
X+499404Y+13263497D01*
X+500000Y+13263500D01*
X+436500Y+13200000D02*
X+436717Y+13194753D01*
X+438482Y+13184258D01*
X+442174Y+13173763D01*
X+448202Y+13163268D01*
X+457424Y+13152888D01*
X+467919Y+13145200D01*
X+478414Y+13140282D01*
X+488909Y+13137476D01*
X+499404Y+13136503D01*
X+500000Y+13136500D01*
X+563500Y+13200000D02*
X+563283Y+13194753D01*
X+561518Y+13184258D01*
X+557826Y+13173763D01*
X+551798Y+13163268D01*
X+542576Y+13152888D01*
X+532081Y+13145200D01*
X+521586Y+13140282D01*
X+511091Y+13137476D01*
X+500596Y+13136503D01*
X+500000Y+13136500D01*
X+500000Y+13263500D02*
X+500000Y+13136500D01*
X+436500Y+13200000D02*
X+563500Y+13200000D01*
X+563283Y+13205247D01*
X+561518Y+13215742D01*
X+557826Y+13226237D01*
X+551798Y+13236732D01*
X+542576Y+13247112D01*
X+532081Y+13254800D01*
X+521586Y+13259718D01*
X+511091Y+13262524D01*
X+500596Y+13263497D01*
X+500000Y+13263500D01*
X+436500Y+13200000D02*
X+436717Y+13205247D01*
X+438482Y+13215742D01*
X+442174Y+13226237D01*
X+448202Y+13236732D01*
X+457424Y+13247112D01*
X+467919Y+13254800D01*
X+478414Y+13259718D01*
X+488909Y+13262524D01*
X+499404Y+13263497D01*
X+500000Y+13263500D01*
X+436500Y+13200000D02*
X+436717Y+13194753D01*
X+438482Y+13184258D01*
X+442174Y+13173763D01*
X+448202Y+13163268D01*
X+457424Y+13152888D01*
X+467919Y+13145200D01*
X+478414Y+13140282D01*
X+488909Y+13137476D01*
X+499404Y+13136503D01*
X+500000Y+13136500D01*
X+563500Y+13200000D02*
X+563283Y+13194753D01*
X+561518Y+13184258D01*
X+557826Y+13173763D01*
X+551798Y+13163268D01*
X+542576Y+13152888D01*
X+532081Y+13145200D01*
X+521586Y+13140282D01*
X+511091Y+13137476D01*
X+500596Y+13136503D01*
X+500000Y+13136500D01*
X+455099Y+13244901D02*
X+544901Y+13155099D01*
X+455099Y+13155099D02*
X+544901Y+13244901D01*
X+5763500Y+13200000D02*
X+5763283Y+13205247D01*
X+5761518Y+13215742D01*
X+5757826Y+13226237D01*
X+5751798Y+13236732D01*
X+5742576Y+13247112D01*
X+5732081Y+13254800D01*
X+5721586Y+13259718D01*
X+5711091Y+13262524D01*
X+5700596Y+13263497D01*
X+5700000Y+13263500D01*
X+5636500Y+13200000D02*
X+5636717Y+13205247D01*
X+5638482Y+13215742D01*
X+5642174Y+13226237D01*
X+5648202Y+13236732D01*
X+5657424Y+13247112D01*
X+5667919Y+13254800D01*
X+5678414Y+13259718D01*
X+5688909Y+13262524D01*
X+5699404Y+13263497D01*
X+5700000Y+13263500D01*
X+5636500Y+13200000D02*
X+5636717Y+13194753D01*
X+5638482Y+13184258D01*
X+5642174Y+13173763D01*
X+5648202Y+13163268D01*
X+5657424Y+13152888D01*
X+5667919Y+13145200D01*
X+5678414Y+13140282D01*
X+5688909Y+13137476D01*
X+5699404Y+13136503D01*
X+5700000Y+13136500D01*
X+5763500Y+13200000D02*
X+5763283Y+13194753D01*
X+5761518Y+13184258D01*
X+5757826Y+13173763D01*
X+5751798Y+13163268D01*
X+5742576Y+13152888D01*
X+5732081Y+13145200D01*
X+5721586Y+13140282D01*
X+5711091Y+13137476D01*
X+5700596Y+13136503D01*
X+5700000Y+13136500D01*
X+5700000Y+13263500D02*
X+5700000Y+13136500D01*
X+5636500Y+13200000D02*
X+5763500Y+13200000D01*
X+5763283Y+13205247D01*
X+5761518Y+13215742D01*
X+5757826Y+13226237D01*
X+5751798Y+13236732D01*
X+5742576Y+13247112D01*
X+5732081Y+13254800D01*
X+5721586Y+13259718D01*
X+5711091Y+13262524D01*
X+5700596Y+13263497D01*
X+5700000Y+13263500D01*
X+5636500Y+13200000D02*
X+5636717Y+13205247D01*
X+5638482Y+13215742D01*
X+5642174Y+13226237D01*
X+5648202Y+13236732D01*
X+5657424Y+13247112D01*
X+5667919Y+13254800D01*
X+5678414Y+13259718D01*
X+5688909Y+13262524D01*
X+5699404Y+13263497D01*
X+5700000Y+13263500D01*
X+5636500Y+13200000D02*
X+5636717Y+13194753D01*
X+5638482Y+13184258D01*
X+5642174Y+13173763D01*
X+5648202Y+13163268D01*
X+5657424Y+13152888D01*
X+5667919Y+13145200D01*
X+5678414Y+13140282D01*
X+5688909Y+13137476D01*
X+5699404Y+13136503D01*
X+5700000Y+13136500D01*
X+5763500Y+13200000D02*
X+5763283Y+13194753D01*
X+5761518Y+13184258D01*
X+5757826Y+13173763D01*
X+5751798Y+13163268D01*
X+5742576Y+13152888D01*
X+5732081Y+13145200D01*
X+5721586Y+13140282D01*
X+5711091Y+13137476D01*
X+5700596Y+13136503D01*
X+5700000Y+13136500D01*
X+5655099Y+13244901D02*
X+5744901Y+13155099D01*
X+5655099Y+13155099D02*
X+5744901Y+13244901D01*
X+5763500Y+7700000D02*
X+5763283Y+7705247D01*
X+5761518Y+7715742D01*
X+5757826Y+7726237D01*
X+5751798Y+7736732D01*
X+5742576Y+7747112D01*
X+5732081Y+7754800D01*
X+5721586Y+7759718D01*
X+5711091Y+7762524D01*
X+5700596Y+7763497D01*
X+5700000Y+7763500D01*
X+5636500Y+7700000D02*
X+5636717Y+7705247D01*
X+5638482Y+7715742D01*
X+5642174Y+7726237D01*
X+5648202Y+7736732D01*
X+5657424Y+7747112D01*
X+5667919Y+7754800D01*
X+5678414Y+7759718D01*
X+5688909Y+7762524D01*
X+5699404Y+7763497D01*
X+5700000Y+7763500D01*
X+5636500Y+7700000D02*
X+5636717Y+7694753D01*
X+5638482Y+7684258D01*
X+5642174Y+7673763D01*
X+5648202Y+7663268D01*
X+5657424Y+7652888D01*
X+5667919Y+7645200D01*
X+5678414Y+7640282D01*
X+5688909Y+7637476D01*
X+5699404Y+7636503D01*
X+5700000Y+7636500D01*
X+5763500Y+7700000D02*
X+5763283Y+7694753D01*
X+5761518Y+7684258D01*
X+5757826Y+7673763D01*
X+5751798Y+7663268D01*
X+5742576Y+7652888D01*
X+5732081Y+7645200D01*
X+5721586Y+7640282D01*
X+5711091Y+7637476D01*
X+5700596Y+7636503D01*
X+5700000Y+7636500D01*
X+5700000Y+7763500D02*
X+5700000Y+7636500D01*
X+5636500Y+7700000D02*
X+5763500Y+7700000D01*
X+5763283Y+7705247D01*
X+5761518Y+7715742D01*
X+5757826Y+7726237D01*
X+5751798Y+7736732D01*
X+5742576Y+7747112D01*
X+5732081Y+7754800D01*
X+5721586Y+7759718D01*
X+5711091Y+7762524D01*
X+5700596Y+7763497D01*
X+5700000Y+7763500D01*
X+5636500Y+7700000D02*
X+5636717Y+7705247D01*
X+5638482Y+7715742D01*
X+5642174Y+7726237D01*
X+5648202Y+7736732D01*
X+5657424Y+7747112D01*
X+5667919Y+7754800D01*
X+5678414Y+7759718D01*
X+5688909Y+7762524D01*
X+5699404Y+7763497D01*
X+5700000Y+7763500D01*
X+5636500Y+7700000D02*
X+5636717Y+7694753D01*
X+5638482Y+7684258D01*
X+5642174Y+7673763D01*
X+5648202Y+7663268D01*
X+5657424Y+7652888D01*
X+5667919Y+7645200D01*
X+5678414Y+7640282D01*
X+5688909Y+7637476D01*
X+5699404Y+7636503D01*
X+5700000Y+7636500D01*
X+5763500Y+7700000D02*
X+5763283Y+7694753D01*
X+5761518Y+7684258D01*
X+5757826Y+7673763D01*
X+5751798Y+7663268D01*
X+5742576Y+7652888D01*
X+5732081Y+7645200D01*
X+5721586Y+7640282D01*
X+5711091Y+7637476D01*
X+5700596Y+7636503D01*
X+5700000Y+7636500D01*
X+5655099Y+7744901D02*
X+5744901Y+7655099D01*
X+5655099Y+7655099D02*
X+5744901Y+7744901D01*
X+563500Y+7700000D02*
X+563283Y+7705247D01*
X+561518Y+7715742D01*
X+557826Y+7726237D01*
X+551798Y+7736732D01*
X+542576Y+7747112D01*
X+532081Y+7754800D01*
X+521586Y+7759718D01*
X+511091Y+7762524D01*
X+500596Y+7763497D01*
X+500000Y+7763500D01*
X+436500Y+7700000D02*
X+436717Y+7705247D01*
X+438482Y+7715742D01*
X+442174Y+7726237D01*
X+448202Y+7736732D01*
X+457424Y+7747112D01*
X+467919Y+7754800D01*
X+478414Y+7759718D01*
X+488909Y+7762524D01*
X+499404Y+7763497D01*
X+500000Y+7763500D01*
X+436500Y+7700000D02*
X+436717Y+7694753D01*
X+438482Y+7684258D01*
X+442174Y+7673763D01*
X+448202Y+7663268D01*
X+457424Y+7652888D01*
X+467919Y+7645200D01*
X+478414Y+7640282D01*
X+488909Y+7637476D01*
X+499404Y+7636503D01*
X+500000Y+7636500D01*
X+563500Y+7700000D02*
X+563283Y+7694753D01*
X+561518Y+7684258D01*
X+557826Y+7673763D01*
X+551798Y+7663268D01*
X+542576Y+7652888D01*
X+532081Y+7645200D01*
X+521586Y+7640282D01*
X+511091Y+7637476D01*
X+500596Y+7636503D01*
X+500000Y+7636500D01*
X+500000Y+7763500D02*
X+500000Y+7636500D01*
X+436500Y+7700000D02*
X+563500Y+7700000D01*
X+563283Y+7705247D01*
X+561518Y+7715742D01*
X+557826Y+7726237D01*
X+551798Y+7736732D01*
X+542576Y+7747112D01*
X+532081Y+7754800D01*
X+521586Y+7759718D01*
X+511091Y+7762524D01*
X+500596Y+7763497D01*
X+500000Y+7763500D01*
X+436500Y+7700000D02*
X+436717Y+7705247D01*
X+438482Y+7715742D01*
X+442174Y+7726237D01*
X+448202Y+7736732D01*
X+457424Y+7747112D01*
X+467919Y+7754800D01*
X+478414Y+7759718D01*
X+488909Y+7762524D01*
X+499404Y+7763497D01*
X+500000Y+7763500D01*
X+436500Y+7700000D02*
X+436717Y+7694753D01*
X+438482Y+7684258D01*
X+442174Y+7673763D01*
X+448202Y+7663268D01*
X+457424Y+7652888D01*
X+467919Y+7645200D01*
X+478414Y+7640282D01*
X+488909Y+7637476D01*
X+499404Y+7636503D01*
X+500000Y+7636500D01*
X+563500Y+7700000D02*
X+563283Y+7694753D01*
X+561518Y+7684258D01*
X+557826Y+7673763D01*
X+551798Y+7663268D01*
X+542576Y+7652888D01*
X+532081Y+7645200D01*
X+521586Y+7640282D01*
X+511091Y+7637476D01*
X+500596Y+7636503D01*
X+500000Y+7636500D01*
X+455099Y+7744901D02*
X+544901Y+7655099D01*
X+455099Y+7655099D02*
X+544901Y+7744901D01*
X+4055099Y+11244901D02*
X+4144901Y+11155099D01*
X+4055099Y+11155099D02*
X+4144901Y+11244901D01*
X+4055099Y+12260901D02*
X+4144901Y+12171099D01*
X+4055099Y+12171099D02*
X+4144901Y+12260901D01*
X+1300000Y+13263500D02*
X+1300000Y+13136500D01*
X+1236500Y+13200000D02*
X+1363500Y+13200000D01*
X+1255099Y+13244901D02*
X+1344901Y+13155099D01*
X+1255099Y+13155099D02*
X+1344901Y+13244901D01*
X+1554000Y+13263500D02*
X+1554000Y+13136500D01*
X+1490500Y+13200000D02*
X+1617500Y+13200000D01*
X+1509099Y+13244901D02*
X+1598901Y+13155099D01*
X+1509099Y+13155099D02*
X+1598901Y+13244901D01*
X+7463500Y+11800000D02*
X+7463283Y+11805247D01*
X+7461518Y+11815742D01*
X+7457826Y+11826237D01*
X+7451798Y+11836732D01*
X+7442576Y+11847112D01*
X+7432081Y+11854800D01*
X+7421586Y+11859718D01*
X+7411091Y+11862524D01*
X+7400596Y+11863497D01*
X+7400000Y+11863500D01*
X+7336500Y+11800000D02*
X+7336717Y+11805247D01*
X+7338482Y+11815742D01*
X+7342174Y+11826237D01*
X+7348202Y+11836732D01*
X+7357424Y+11847112D01*
X+7367919Y+11854800D01*
X+7378414Y+11859718D01*
X+7388909Y+11862524D01*
X+7399404Y+11863497D01*
X+7400000Y+11863500D01*
X+7336500Y+11800000D02*
X+7336717Y+11794753D01*
X+7338482Y+11784258D01*
X+7342174Y+11773763D01*
X+7348202Y+11763268D01*
X+7357424Y+11752888D01*
X+7367919Y+11745200D01*
X+7378414Y+11740282D01*
X+7388909Y+11737476D01*
X+7399404Y+11736503D01*
X+7400000Y+11736500D01*
X+7463500Y+11800000D02*
X+7463283Y+11794753D01*
X+7461518Y+11784258D01*
X+7457826Y+11773763D01*
X+7451798Y+11763268D01*
X+7442576Y+11752888D01*
X+7432081Y+11745200D01*
X+7421586Y+11740282D01*
X+7411091Y+11737476D01*
X+7400596Y+11736503D01*
X+7400000Y+11736500D01*
X+7355099Y+11844901D02*
X+7444901Y+11755099D01*
X+7355099Y+11755099D02*
X+7444901Y+11844901D01*
X+7463500Y+12308000D02*
X+7463283Y+12313247D01*
X+7461518Y+12323742D01*
X+7457826Y+12334237D01*
X+7451798Y+12344732D01*
X+7442576Y+12355112D01*
X+7432081Y+12362800D01*
X+7421586Y+12367718D01*
X+7411091Y+12370524D01*
X+7400596Y+12371497D01*
X+7400000Y+12371500D01*
X+7336500Y+12308000D02*
X+7336717Y+12313247D01*
X+7338482Y+12323742D01*
X+7342174Y+12334237D01*
X+7348202Y+12344732D01*
X+7357424Y+12355112D01*
X+7367919Y+12362800D01*
X+7378414Y+12367718D01*
X+7388909Y+12370524D01*
X+7399404Y+12371497D01*
X+7400000Y+12371500D01*
X+7336500Y+12308000D02*
X+7336717Y+12302753D01*
X+7338482Y+12292258D01*
X+7342174Y+12281763D01*
X+7348202Y+12271268D01*
X+7357424Y+12260888D01*
X+7367919Y+12253200D01*
X+7378414Y+12248282D01*
X+7388909Y+12245476D01*
X+7399404Y+12244503D01*
X+7400000Y+12244500D01*
X+7463500Y+12308000D02*
X+7463283Y+12302753D01*
X+7461518Y+12292258D01*
X+7457826Y+12281763D01*
X+7451798Y+12271268D01*
X+7442576Y+12260888D01*
X+7432081Y+12253200D01*
X+7421586Y+12248282D01*
X+7411091Y+12245476D01*
X+7400596Y+12244503D01*
X+7400000Y+12244500D01*
X+7355099Y+12352901D02*
X+7444901Y+12263099D01*
X+7355099Y+12263099D02*
X+7444901Y+12352901D01*
X+12413500Y+12308000D02*
X+12413283Y+12313247D01*
X+12411518Y+12323742D01*
X+12407826Y+12334237D01*
X+12401798Y+12344732D01*
X+12392576Y+12355112D01*
X+12382081Y+12362800D01*
X+12371586Y+12367718D01*
X+12361091Y+12370524D01*
X+12350596Y+12371497D01*
X+12350000Y+12371500D01*
X+12286500Y+12308000D02*
X+12286717Y+12313247D01*
X+12288482Y+12323742D01*
X+12292174Y+12334237D01*
X+12298202Y+12344732D01*
X+12307424Y+12355112D01*
X+12317919Y+12362800D01*
X+12328414Y+12367718D01*
X+12338909Y+12370524D01*
X+12349404Y+12371497D01*
X+12350000Y+12371500D01*
X+12286500Y+12308000D02*
X+12286717Y+12302753D01*
X+12288482Y+12292258D01*
X+12292174Y+12281763D01*
X+12298202Y+12271268D01*
X+12307424Y+12260888D01*
X+12317919Y+12253200D01*
X+12328414Y+12248282D01*
X+12338909Y+12245476D01*
X+12349404Y+12244503D01*
X+12350000Y+12244500D01*
X+12413500Y+12308000D02*
X+12413283Y+12302753D01*
X+12411518Y+12292258D01*
X+12407826Y+12281763D01*
X+12401798Y+12271268D01*
X+12392576Y+12260888D01*
X+12382081Y+12253200D01*
X+12371586Y+12248282D01*
X+12361091Y+12245476D01*
X+12350596Y+12244503D01*
X+12350000Y+12244500D01*
X+12350000Y+12371500D02*
X+12350000Y+12244500D01*
X+12286500Y+12308000D02*
X+12413500Y+12308000D01*
X+12413500Y+11800000D02*
X+12413283Y+11805247D01*
X+12411518Y+11815742D01*
X+12407826Y+11826237D01*
X+12401798Y+11836732D01*
X+12392576Y+11847112D01*
X+12382081Y+11854800D01*
X+12371586Y+11859718D01*
X+12361091Y+11862524D01*
X+12350596Y+11863497D01*
X+12350000Y+11863500D01*
X+12286500Y+11800000D02*
X+12286717Y+11805247D01*
X+12288482Y+11815742D01*
X+12292174Y+11826237D01*
X+12298202Y+11836732D01*
X+12307424Y+11847112D01*
X+12317919Y+11854800D01*
X+12328414Y+11859718D01*
X+12338909Y+11862524D01*
X+12349404Y+11863497D01*
X+12350000Y+11863500D01*
X+12286500Y+11800000D02*
X+12286717Y+11794753D01*
X+12288482Y+11784258D01*
X+12292174Y+11773763D01*
X+12298202Y+11763268D01*
X+12307424Y+11752888D01*
X+12317919Y+11745200D01*
X+12328414Y+11740282D01*
X+12338909Y+11737476D01*
X+12349404Y+11736503D01*
X+12350000Y+11736500D01*
X+12413500Y+11800000D02*
X+12413283Y+11794753D01*
X+12411518Y+11784258D01*
X+12407826Y+11773763D01*
X+12401798Y+11763268D01*
X+12392576Y+11752888D01*
X+12382081Y+11745200D01*
X+12371586Y+11740282D01*
X+12361091Y+11737476D01*
X+12350596Y+11736503D01*
X+12350000Y+11736500D01*
X+12350000Y+11863500D02*
X+12350000Y+11736500D01*
X+12286500Y+11800000D02*
X+12413500Y+11800000D01*
X+8455099Y+11590901D02*
X+8544901Y+11501099D01*
X+8455099Y+11501099D02*
X+8544901Y+11590901D01*
X+8455099Y+11844901D02*
X+8544901Y+11755099D01*
X+8455099Y+11755099D02*
X+8544901Y+11844901D01*
X+9030000Y+11915500D02*
X+9030000Y+11788500D01*
X+8966500Y+11852000D02*
X+9093500Y+11852000D01*
X+8985099Y+11896901D02*
X+9074901Y+11807099D01*
X+8985099Y+11807099D02*
X+9074901Y+11896901D01*
X+9030000Y+11661500D02*
X+9030000Y+11534500D01*
X+8966500Y+11598000D02*
X+9093500Y+11598000D01*
X+8985099Y+11642901D02*
X+9074901Y+11553099D01*
X+8985099Y+11553099D02*
X+9074901Y+11642901D01*
X+9030000Y+11407500D02*
X+9030000Y+11280500D01*
X+8966500Y+11344000D02*
X+9093500Y+11344000D01*
X+8985099Y+11388901D02*
X+9074901Y+11299099D01*
X+8985099Y+11299099D02*
X+9074901Y+11388901D01*
X+9030000Y+11153500D02*
X+9030000Y+11026500D01*
X+8966500Y+11090000D02*
X+9093500Y+11090000D01*
X+8985099Y+11134901D02*
X+9074901Y+11045099D01*
X+8985099Y+11045099D02*
X+9074901Y+11134901D01*
X+9030000Y+10899500D02*
X+9030000Y+10772500D01*
X+8966500Y+10836000D02*
X+9093500Y+10836000D01*
X+8985099Y+10880901D02*
X+9074901Y+10791099D01*
X+8985099Y+10791099D02*
X+9074901Y+10880901D01*
X+9030000Y+9883500D02*
X+9030000Y+9756500D01*
X+8966500Y+9820000D02*
X+9093500Y+9820000D01*
X+8985099Y+9864901D02*
X+9074901Y+9775099D01*
X+8985099Y+9775099D02*
X+9074901Y+9864901D01*
X+9030000Y+9629500D02*
X+9030000Y+9502500D01*
X+8966500Y+9566000D02*
X+9093500Y+9566000D01*
X+8985099Y+9610901D02*
X+9074901Y+9521099D01*
X+8985099Y+9521099D02*
X+9074901Y+9610901D01*
X+9030000Y+9375500D02*
X+9030000Y+9248500D01*
X+8966500Y+9312000D02*
X+9093500Y+9312000D01*
X+8985099Y+9356901D02*
X+9074901Y+9267099D01*
X+8985099Y+9267099D02*
X+9074901Y+9356901D01*
X+9030000Y+9121500D02*
X+9030000Y+8994500D01*
X+8966500Y+9058000D02*
X+9093500Y+9058000D01*
X+8985099Y+9102901D02*
X+9074901Y+9013099D01*
X+8985099Y+9013099D02*
X+9074901Y+9102901D01*
X+9030000Y+8867500D02*
X+9030000Y+8740500D01*
X+8966500Y+8804000D02*
X+9093500Y+8804000D01*
X+8985099Y+8848901D02*
X+9074901Y+8759099D01*
X+8985099Y+8759099D02*
X+9074901Y+8848901D01*
X+9030000Y+8613500D02*
X+9030000Y+8486500D01*
X+8966500Y+8550000D02*
X+9093500Y+8550000D01*
X+8985099Y+8594901D02*
X+9074901Y+8505099D01*
X+8985099Y+8505099D02*
X+9074901Y+8594901D01*
X+9030000Y+8359500D02*
X+9030000Y+8232500D01*
X+8966500Y+8296000D02*
X+9093500Y+8296000D01*
X+8985099Y+8340901D02*
X+9074901Y+8251099D01*
X+8985099Y+8251099D02*
X+9074901Y+8340901D01*
X+11570000Y+8359500D02*
X+11570000Y+8232500D01*
X+11506500Y+8296000D02*
X+11633500Y+8296000D01*
X+11525099Y+8340901D02*
X+11614901Y+8251099D01*
X+11525099Y+8251099D02*
X+11614901Y+8340901D01*
X+11570000Y+8613500D02*
X+11570000Y+8486500D01*
X+11506500Y+8550000D02*
X+11633500Y+8550000D01*
X+11525099Y+8594901D02*
X+11614901Y+8505099D01*
X+11525099Y+8505099D02*
X+11614901Y+8594901D01*
X+11570000Y+9121500D02*
X+11570000Y+8994500D01*
X+11506500Y+9058000D02*
X+11633500Y+9058000D01*
X+11525099Y+9102901D02*
X+11614901Y+9013099D01*
X+11525099Y+9013099D02*
X+11614901Y+9102901D01*
X+11570000Y+9375500D02*
X+11570000Y+9248500D01*
X+11506500Y+9312000D02*
X+11633500Y+9312000D01*
X+11525099Y+9356901D02*
X+11614901Y+9267099D01*
X+11525099Y+9267099D02*
X+11614901Y+9356901D01*
X+11570000Y+9629500D02*
X+11570000Y+9502500D01*
X+11506500Y+9566000D02*
X+11633500Y+9566000D01*
X+11525099Y+9610901D02*
X+11614901Y+9521099D01*
X+11525099Y+9521099D02*
X+11614901Y+9610901D01*
X+11570000Y+9883500D02*
X+11570000Y+9756500D01*
X+11506500Y+9820000D02*
X+11633500Y+9820000D01*
X+11525099Y+9864901D02*
X+11614901Y+9775099D01*
X+11525099Y+9775099D02*
X+11614901Y+9864901D01*
X+11570000Y+10137500D02*
X+11570000Y+10010500D01*
X+11506500Y+10074000D02*
X+11633500Y+10074000D01*
X+11525099Y+10118901D02*
X+11614901Y+10029099D01*
X+11525099Y+10029099D02*
X+11614901Y+10118901D01*
X+11570000Y+10391500D02*
X+11570000Y+10264500D01*
X+11506500Y+10328000D02*
X+11633500Y+10328000D01*
X+11525099Y+10372901D02*
X+11614901Y+10283099D01*
X+11525099Y+10283099D02*
X+11614901Y+10372901D01*
X+11570000Y+10645500D02*
X+11570000Y+10518500D01*
X+11506500Y+10582000D02*
X+11633500Y+10582000D01*
X+11525099Y+10626901D02*
X+11614901Y+10537099D01*
X+11525099Y+10537099D02*
X+11614901Y+10626901D01*
X+11570000Y+11153500D02*
X+11570000Y+11026500D01*
X+11506500Y+11090000D02*
X+11633500Y+11090000D01*
X+11525099Y+11134901D02*
X+11614901Y+11045099D01*
X+11525099Y+11045099D02*
X+11614901Y+11134901D01*
X+11570000Y+11407500D02*
X+11570000Y+11280500D01*
X+11506500Y+11344000D02*
X+11633500Y+11344000D01*
X+11525099Y+11388901D02*
X+11614901Y+11299099D01*
X+11525099Y+11299099D02*
X+11614901Y+11388901D01*
X+11570000Y+11915500D02*
X+11570000Y+11788500D01*
X+11506500Y+11852000D02*
X+11633500Y+11852000D01*
X+11525099Y+11896901D02*
X+11614901Y+11807099D01*
X+11525099Y+11807099D02*
X+11614901Y+11896901D01*
X+7150000Y+11063500D02*
X+7150000Y+10936500D01*
X+7086500Y+11000000D02*
X+7213500Y+11000000D01*
X+7105099Y+11044901D02*
X+7194901Y+10955099D01*
X+7105099Y+10955099D02*
X+7194901Y+11044901D01*
X+7404000Y+11063500D02*
X+7404000Y+10936500D01*
X+7340500Y+11000000D02*
X+7467500Y+11000000D01*
X+7359099Y+11044901D02*
X+7448901Y+10955099D01*
X+7359099Y+10955099D02*
X+7448901Y+11044901D01*
X+7658000Y+11063500D02*
X+7658000Y+10936500D01*
X+7594500Y+11000000D02*
X+7721500Y+11000000D01*
X+7613099Y+11044901D02*
X+7702901Y+10955099D01*
X+7613099Y+10955099D02*
X+7702901Y+11044901D01*
X+7912000Y+11063500D02*
X+7912000Y+10936500D01*
X+7848500Y+11000000D02*
X+7975500Y+11000000D01*
X+7867099Y+11044901D02*
X+7956901Y+10955099D01*
X+7867099Y+10955099D02*
X+7956901Y+11044901D01*
X+8166000Y+11063500D02*
X+8166000Y+10936500D01*
X+8102500Y+11000000D02*
X+8229500Y+11000000D01*
X+8121099Y+11044901D02*
X+8210901Y+10955099D01*
X+8121099Y+10955099D02*
X+8210901Y+11044901D01*
X+8420000Y+11063500D02*
X+8420000Y+10936500D01*
X+8356500Y+11000000D02*
X+8483500Y+11000000D01*
X+8375099Y+11044901D02*
X+8464901Y+10955099D01*
X+8375099Y+10955099D02*
X+8464901Y+11044901D01*
X+8500000Y+8263500D02*
X+8500000Y+8136500D01*
X+8436500Y+8200000D02*
X+8563500Y+8200000D01*
X+8455099Y+8244901D02*
X+8544901Y+8155099D01*
X+8455099Y+8155099D02*
X+8544901Y+8244901D01*
X+8500000Y+8517500D02*
X+8500000Y+8390500D01*
X+8436500Y+8454000D02*
X+8563500Y+8454000D01*
X+8455099Y+8498901D02*
X+8544901Y+8409099D01*
X+8455099Y+8409099D02*
X+8544901Y+8498901D01*
X+8500000Y+8771500D02*
X+8500000Y+8644500D01*
X+8436500Y+8708000D02*
X+8563500Y+8708000D01*
X+8455099Y+8752901D02*
X+8544901Y+8663099D01*
X+8455099Y+8663099D02*
X+8544901Y+8752901D01*
X+8500000Y+9025500D02*
X+8500000Y+8898500D01*
X+8436500Y+8962000D02*
X+8563500Y+8962000D01*
X+8455099Y+9006901D02*
X+8544901Y+8917099D01*
X+8455099Y+8917099D02*
X+8544901Y+9006901D01*
X+8500000Y+9279500D02*
X+8500000Y+9152500D01*
X+8436500Y+9216000D02*
X+8563500Y+9216000D01*
X+8455099Y+9260901D02*
X+8544901Y+9171099D01*
X+8455099Y+9171099D02*
X+8544901Y+9260901D01*
X+8500000Y+9533500D02*
X+8500000Y+9406500D01*
X+8436500Y+9470000D02*
X+8563500Y+9470000D01*
X+8455099Y+9514901D02*
X+8544901Y+9425099D01*
X+8455099Y+9425099D02*
X+8544901Y+9514901D01*
X+8500000Y+9787500D02*
X+8500000Y+9660500D01*
X+8436500Y+9724000D02*
X+8563500Y+9724000D01*
X+8455099Y+9768901D02*
X+8544901Y+9679099D01*
X+8455099Y+9679099D02*
X+8544901Y+9768901D01*
X+12563500Y+10750000D02*
X+12563283Y+10755247D01*
X+12561518Y+10765742D01*
X+12557826Y+10776237D01*
X+12551798Y+10786732D01*
X+12542576Y+10797112D01*
X+12532081Y+10804800D01*
X+12521586Y+10809718D01*
X+12511091Y+10812524D01*
X+12500596Y+10813497D01*
X+12500000Y+10813500D01*
X+12436500Y+10750000D02*
X+12436717Y+10755247D01*
X+12438482Y+10765742D01*
X+12442174Y+10776237D01*
X+12448202Y+10786732D01*
X+12457424Y+10797112D01*
X+12467919Y+10804800D01*
X+12478414Y+10809718D01*
X+12488909Y+10812524D01*
X+12499404Y+10813497D01*
X+12500000Y+10813500D01*
X+12436500Y+10750000D02*
X+12436717Y+10744753D01*
X+12438482Y+10734258D01*
X+12442174Y+10723763D01*
X+12448202Y+10713268D01*
X+12457424Y+10702888D01*
X+12467919Y+10695200D01*
X+12478414Y+10690282D01*
X+12488909Y+10687476D01*
X+12499404Y+10686503D01*
X+12500000Y+10686500D01*
X+12563500Y+10750000D02*
X+12563283Y+10744753D01*
X+12561518Y+10734258D01*
X+12557826Y+10723763D01*
X+12551798Y+10713268D01*
X+12542576Y+10702888D01*
X+12532081Y+10695200D01*
X+12521586Y+10690282D01*
X+12511091Y+10687476D01*
X+12500596Y+10686503D01*
X+12500000Y+10686500D01*
X+12455099Y+10794901D02*
X+12544901Y+10705099D01*
X+12455099Y+10705099D02*
X+12544901Y+10794901D01*
X+12563500Y+10242000D02*
X+12563283Y+10247247D01*
X+12561518Y+10257742D01*
X+12557826Y+10268237D01*
X+12551798Y+10278732D01*
X+12542576Y+10289112D01*
X+12532081Y+10296800D01*
X+12521586Y+10301718D01*
X+12511091Y+10304524D01*
X+12500596Y+10305497D01*
X+12500000Y+10305500D01*
X+12436500Y+10242000D02*
X+12436717Y+10247247D01*
X+12438482Y+10257742D01*
X+12442174Y+10268237D01*
X+12448202Y+10278732D01*
X+12457424Y+10289112D01*
X+12467919Y+10296800D01*
X+12478414Y+10301718D01*
X+12488909Y+10304524D01*
X+12499404Y+10305497D01*
X+12500000Y+10305500D01*
X+12436500Y+10242000D02*
X+12436717Y+10236753D01*
X+12438482Y+10226258D01*
X+12442174Y+10215763D01*
X+12448202Y+10205268D01*
X+12457424Y+10194888D01*
X+12467919Y+10187200D01*
X+12478414Y+10182282D01*
X+12488909Y+10179476D01*
X+12499404Y+10178503D01*
X+12500000Y+10178500D01*
X+12563500Y+10242000D02*
X+12563283Y+10236753D01*
X+12561518Y+10226258D01*
X+12557826Y+10215763D01*
X+12551798Y+10205268D01*
X+12542576Y+10194888D01*
X+12532081Y+10187200D01*
X+12521586Y+10182282D01*
X+12511091Y+10179476D01*
X+12500596Y+10178503D01*
X+12500000Y+10178500D01*
X+12455099Y+10286901D02*
X+12544901Y+10197099D01*
X+12455099Y+10197099D02*
X+12544901Y+10286901D01*
X+12563500Y+9734000D02*
X+12563283Y+9739247D01*
X+12561518Y+9749742D01*
X+12557826Y+9760237D01*
X+12551798Y+9770732D01*
X+12542576Y+9781112D01*
X+12532081Y+9788800D01*
X+12521586Y+9793718D01*
X+12511091Y+9796524D01*
X+12500596Y+9797497D01*
X+12500000Y+9797500D01*
X+12436500Y+9734000D02*
X+12436717Y+9739247D01*
X+12438482Y+9749742D01*
X+12442174Y+9760237D01*
X+12448202Y+9770732D01*
X+12457424Y+9781112D01*
X+12467919Y+9788800D01*
X+12478414Y+9793718D01*
X+12488909Y+9796524D01*
X+12499404Y+9797497D01*
X+12500000Y+9797500D01*
X+12436500Y+9734000D02*
X+12436717Y+9728753D01*
X+12438482Y+9718258D01*
X+12442174Y+9707763D01*
X+12448202Y+9697268D01*
X+12457424Y+9686888D01*
X+12467919Y+9679200D01*
X+12478414Y+9674282D01*
X+12488909Y+9671476D01*
X+12499404Y+9670503D01*
X+12500000Y+9670500D01*
X+12563500Y+9734000D02*
X+12563283Y+9728753D01*
X+12561518Y+9718258D01*
X+12557826Y+9707763D01*
X+12551798Y+9697268D01*
X+12542576Y+9686888D01*
X+12532081Y+9679200D01*
X+12521586Y+9674282D01*
X+12511091Y+9671476D01*
X+12500596Y+9670503D01*
X+12500000Y+9670500D01*
X+12455099Y+9778901D02*
X+12544901Y+9689099D01*
X+12455099Y+9689099D02*
X+12544901Y+9778901D01*
X+12563500Y+9226000D02*
X+12563283Y+9231247D01*
X+12561518Y+9241742D01*
X+12557826Y+9252237D01*
X+12551798Y+9262732D01*
X+12542576Y+9273112D01*
X+12532081Y+9280800D01*
X+12521586Y+9285718D01*
X+12511091Y+9288524D01*
X+12500596Y+9289497D01*
X+12500000Y+9289500D01*
X+12436500Y+9226000D02*
X+12436717Y+9231247D01*
X+12438482Y+9241742D01*
X+12442174Y+9252237D01*
X+12448202Y+9262732D01*
X+12457424Y+9273112D01*
X+12467919Y+9280800D01*
X+12478414Y+9285718D01*
X+12488909Y+9288524D01*
X+12499404Y+9289497D01*
X+12500000Y+9289500D01*
X+12436500Y+9226000D02*
X+12436717Y+9220753D01*
X+12438482Y+9210258D01*
X+12442174Y+9199763D01*
X+12448202Y+9189268D01*
X+12457424Y+9178888D01*
X+12467919Y+9171200D01*
X+12478414Y+9166282D01*
X+12488909Y+9163476D01*
X+12499404Y+9162503D01*
X+12500000Y+9162500D01*
X+12563500Y+9226000D02*
X+12563283Y+9220753D01*
X+12561518Y+9210258D01*
X+12557826Y+9199763D01*
X+12551798Y+9189268D01*
X+12542576Y+9178888D01*
X+12532081Y+9171200D01*
X+12521586Y+9166282D01*
X+12511091Y+9163476D01*
X+12500596Y+9162503D01*
X+12500000Y+9162500D01*
X+12455099Y+9270901D02*
X+12544901Y+9181099D01*
X+12455099Y+9181099D02*
X+12544901Y+9270901D01*
X+12563500Y+8718000D02*
X+12563283Y+8723247D01*
X+12561518Y+8733742D01*
X+12557826Y+8744237D01*
X+12551798Y+8754732D01*
X+12542576Y+8765112D01*
X+12532081Y+8772800D01*
X+12521586Y+8777718D01*
X+12511091Y+8780524D01*
X+12500596Y+8781497D01*
X+12500000Y+8781500D01*
X+12436500Y+8718000D02*
X+12436717Y+8723247D01*
X+12438482Y+8733742D01*
X+12442174Y+8744237D01*
X+12448202Y+8754732D01*
X+12457424Y+8765112D01*
X+12467919Y+8772800D01*
X+12478414Y+8777718D01*
X+12488909Y+8780524D01*
X+12499404Y+8781497D01*
X+12500000Y+8781500D01*
X+12436500Y+8718000D02*
X+12436717Y+8712753D01*
X+12438482Y+8702258D01*
X+12442174Y+8691763D01*
X+12448202Y+8681268D01*
X+12457424Y+8670888D01*
X+12467919Y+8663200D01*
X+12478414Y+8658282D01*
X+12488909Y+8655476D01*
X+12499404Y+8654503D01*
X+12500000Y+8654500D01*
X+12563500Y+8718000D02*
X+12563283Y+8712753D01*
X+12561518Y+8702258D01*
X+12557826Y+8691763D01*
X+12551798Y+8681268D01*
X+12542576Y+8670888D01*
X+12532081Y+8663200D01*
X+12521586Y+8658282D01*
X+12511091Y+8655476D01*
X+12500596Y+8654503D01*
X+12500000Y+8654500D01*
X+12455099Y+8762901D02*
X+12544901Y+8673099D01*
X+12455099Y+8673099D02*
X+12544901Y+8762901D01*
X+7363500Y+13200000D02*
X+7363283Y+13205247D01*
X+7361518Y+13215742D01*
X+7357826Y+13226237D01*
X+7351798Y+13236732D01*
X+7342576Y+13247112D01*
X+7332081Y+13254800D01*
X+7321586Y+13259718D01*
X+7311091Y+13262524D01*
X+7300596Y+13263497D01*
X+7300000Y+13263500D01*
X+7236500Y+13200000D02*
X+7236717Y+13205247D01*
X+7238482Y+13215742D01*
X+7242174Y+13226237D01*
X+7248202Y+13236732D01*
X+7257424Y+13247112D01*
X+7267919Y+13254800D01*
X+7278414Y+13259718D01*
X+7288909Y+13262524D01*
X+7299404Y+13263497D01*
X+7300000Y+13263500D01*
X+7236500Y+13200000D02*
X+7236717Y+13194753D01*
X+7238482Y+13184258D01*
X+7242174Y+13173763D01*
X+7248202Y+13163268D01*
X+7257424Y+13152888D01*
X+7267919Y+13145200D01*
X+7278414Y+13140282D01*
X+7288909Y+13137476D01*
X+7299404Y+13136503D01*
X+7300000Y+13136500D01*
X+7363500Y+13200000D02*
X+7363283Y+13194753D01*
X+7361518Y+13184258D01*
X+7357826Y+13173763D01*
X+7351798Y+13163268D01*
X+7342576Y+13152888D01*
X+7332081Y+13145200D01*
X+7321586Y+13140282D01*
X+7311091Y+13137476D01*
X+7300596Y+13136503D01*
X+7300000Y+13136500D01*
X+7300000Y+13263500D02*
X+7300000Y+13136500D01*
X+7236500Y+13200000D02*
X+7363500Y+13200000D01*
X+7363283Y+13205247D01*
X+7361518Y+13215742D01*
X+7357826Y+13226237D01*
X+7351798Y+13236732D01*
X+7342576Y+13247112D01*
X+7332081Y+13254800D01*
X+7321586Y+13259718D01*
X+7311091Y+13262524D01*
X+7300596Y+13263497D01*
X+7300000Y+13263500D01*
X+7236500Y+13200000D02*
X+7236717Y+13205247D01*
X+7238482Y+13215742D01*
X+7242174Y+13226237D01*
X+7248202Y+13236732D01*
X+7257424Y+13247112D01*
X+7267919Y+13254800D01*
X+7278414Y+13259718D01*
X+7288909Y+13262524D01*
X+7299404Y+13263497D01*
X+7300000Y+13263500D01*
X+7236500Y+13200000D02*
X+7236717Y+13194753D01*
X+7238482Y+13184258D01*
X+7242174Y+13173763D01*
X+7248202Y+13163268D01*
X+7257424Y+13152888D01*
X+7267919Y+13145200D01*
X+7278414Y+13140282D01*
X+7288909Y+13137476D01*
X+7299404Y+13136503D01*
X+7300000Y+13136500D01*
X+7363500Y+13200000D02*
X+7363283Y+13194753D01*
X+7361518Y+13184258D01*
X+7357826Y+13173763D01*
X+7351798Y+13163268D01*
X+7342576Y+13152888D01*
X+7332081Y+13145200D01*
X+7321586Y+13140282D01*
X+7311091Y+13137476D01*
X+7300596Y+13136503D01*
X+7300000Y+13136500D01*
X+7255099Y+13244901D02*
X+7344901Y+13155099D01*
X+7255099Y+13155099D02*
X+7344901Y+13244901D01*
X+12563500Y+13200000D02*
X+12563283Y+13205247D01*
X+12561518Y+13215742D01*
X+12557826Y+13226237D01*
X+12551798Y+13236732D01*
X+12542576Y+13247112D01*
X+12532081Y+13254800D01*
X+12521586Y+13259718D01*
X+12511091Y+13262524D01*
X+12500596Y+13263497D01*
X+12500000Y+13263500D01*
X+12436500Y+13200000D02*
X+12436717Y+13205247D01*
X+12438482Y+13215742D01*
X+12442174Y+13226237D01*
X+12448202Y+13236732D01*
X+12457424Y+13247112D01*
X+12467919Y+13254800D01*
X+12478414Y+13259718D01*
X+12488909Y+13262524D01*
X+12499404Y+13263497D01*
X+12500000Y+13263500D01*
X+12436500Y+13200000D02*
X+12436717Y+13194753D01*
X+12438482Y+13184258D01*
X+12442174Y+13173763D01*
X+12448202Y+13163268D01*
X+12457424Y+13152888D01*
X+12467919Y+13145200D01*
X+12478414Y+13140282D01*
X+12488909Y+13137476D01*
X+12499404Y+13136503D01*
X+12500000Y+13136500D01*
X+12563500Y+13200000D02*
X+12563283Y+13194753D01*
X+12561518Y+13184258D01*
X+12557826Y+13173763D01*
X+12551798Y+13163268D01*
X+12542576Y+13152888D01*
X+12532081Y+13145200D01*
X+12521586Y+13140282D01*
X+12511091Y+13137476D01*
X+12500596Y+13136503D01*
X+12500000Y+13136500D01*
X+12500000Y+13263500D02*
X+12500000Y+13136500D01*
X+12436500Y+13200000D02*
X+12563500Y+13200000D01*
X+12563283Y+13205247D01*
X+12561518Y+13215742D01*
X+12557826Y+13226237D01*
X+12551798Y+13236732D01*
X+12542576Y+13247112D01*
X+12532081Y+13254800D01*
X+12521586Y+13259718D01*
X+12511091Y+13262524D01*
X+12500596Y+13263497D01*
X+12500000Y+13263500D01*
X+12436500Y+13200000D02*
X+12436717Y+13205247D01*
X+12438482Y+13215742D01*
X+12442174Y+13226237D01*
X+12448202Y+13236732D01*
X+12457424Y+13247112D01*
X+12467919Y+13254800D01*
X+12478414Y+13259718D01*
X+12488909Y+13262524D01*
X+12499404Y+13263497D01*
X+12500000Y+13263500D01*
X+12436500Y+13200000D02*
X+12436717Y+13194753D01*
X+12438482Y+13184258D01*
X+12442174Y+13173763D01*
X+12448202Y+13163268D01*
X+12457424Y+13152888D01*
X+12467919Y+13145200D01*
X+12478414Y+13140282D01*
X+12488909Y+13137476D01*
X+12499404Y+13136503D01*
X+12500000Y+13136500D01*
X+12563500Y+13200000D02*
X+12563283Y+13194753D01*
X+12561518Y+13184258D01*
X+12557826Y+13173763D01*
X+12551798Y+13163268D01*
X+12542576Y+13152888D01*
X+12532081Y+13145200D01*
X+12521586Y+13140282D01*
X+12511091Y+13137476D01*
X+12500596Y+13136503D01*
X+12500000Y+13136500D01*
X+12455099Y+13244901D02*
X+12544901Y+13155099D01*
X+12455099Y+13155099D02*
X+12544901Y+13244901D01*
X+12563500Y+7700000D02*
X+12563283Y+7705247D01*
X+12561518Y+7715742D01*
X+12557826Y+7726237D01*
X+12551798Y+7736732D01*
X+12542576Y+7747112D01*
X+12532081Y+7754800D01*
X+12521586Y+7759718D01*
X+12511091Y+7762524D01*
X+12500596Y+7763497D01*
X+12500000Y+7763500D01*
X+12436500Y+7700000D02*
X+12436717Y+7705247D01*
X+12438482Y+7715742D01*
X+12442174Y+7726237D01*
X+12448202Y+7736732D01*
X+12457424Y+7747112D01*
X+12467919Y+7754800D01*
X+12478414Y+7759718D01*
X+12488909Y+7762524D01*
X+12499404Y+7763497D01*
X+12500000Y+7763500D01*
X+12436500Y+7700000D02*
X+12436717Y+7694753D01*
X+12438482Y+7684258D01*
X+12442174Y+7673763D01*
X+12448202Y+7663268D01*
X+12457424Y+7652888D01*
X+12467919Y+7645200D01*
X+12478414Y+7640282D01*
X+12488909Y+7637476D01*
X+12499404Y+7636503D01*
X+12500000Y+7636500D01*
X+12563500Y+7700000D02*
X+12563283Y+7694753D01*
X+12561518Y+7684258D01*
X+12557826Y+7673763D01*
X+12551798Y+7663268D01*
X+12542576Y+7652888D01*
X+12532081Y+7645200D01*
X+12521586Y+7640282D01*
X+12511091Y+7637476D01*
X+12500596Y+7636503D01*
X+12500000Y+7636500D01*
X+12500000Y+7763500D02*
X+12500000Y+7636500D01*
X+12436500Y+7700000D02*
X+12563500Y+7700000D01*
X+12563283Y+7705247D01*
X+12561518Y+7715742D01*
X+12557826Y+7726237D01*
X+12551798Y+7736732D01*
X+12542576Y+7747112D01*
X+12532081Y+7754800D01*
X+12521586Y+7759718D01*
X+12511091Y+7762524D01*
X+12500596Y+7763497D01*
X+12500000Y+7763500D01*
X+12436500Y+7700000D02*
X+12436717Y+7705247D01*
X+12438482Y+7715742D01*
X+12442174Y+7726237D01*
X+12448202Y+7736732D01*
X+12457424Y+7747112D01*
X+12467919Y+7754800D01*
X+12478414Y+7759718D01*
X+12488909Y+7762524D01*
X+12499404Y+7763497D01*
X+12500000Y+7763500D01*
X+12436500Y+7700000D02*
X+12436717Y+7694753D01*
X+12438482Y+7684258D01*
X+12442174Y+7673763D01*
X+12448202Y+7663268D01*
X+12457424Y+7652888D01*
X+12467919Y+7645200D01*
X+12478414Y+7640282D01*
X+12488909Y+7637476D01*
X+12499404Y+7636503D01*
X+12500000Y+7636500D01*
X+12563500Y+7700000D02*
X+12563283Y+7694753D01*
X+12561518Y+7684258D01*
X+12557826Y+7673763D01*
X+12551798Y+7663268D01*
X+12542576Y+7652888D01*
X+12532081Y+7645200D01*
X+12521586Y+7640282D01*
X+12511091Y+7637476D01*
X+12500596Y+7636503D01*
X+12500000Y+7636500D01*
X+12455099Y+7744901D02*
X+12544901Y+7655099D01*
X+12455099Y+7655099D02*
X+12544901Y+7744901D01*
X+7363500Y+7700000D02*
X+7363283Y+7705247D01*
X+7361518Y+7715742D01*
X+7357826Y+7726237D01*
X+7351798Y+7736732D01*
X+7342576Y+7747112D01*
X+7332081Y+7754800D01*
X+7321586Y+7759718D01*
X+7311091Y+7762524D01*
X+7300596Y+7763497D01*
X+7300000Y+7763500D01*
X+7236500Y+7700000D02*
X+7236717Y+7705247D01*
X+7238482Y+7715742D01*
X+7242174Y+7726237D01*
X+7248202Y+7736732D01*
X+7257424Y+7747112D01*
X+7267919Y+7754800D01*
X+7278414Y+7759718D01*
X+7288909Y+7762524D01*
X+7299404Y+7763497D01*
X+7300000Y+7763500D01*
X+7236500Y+7700000D02*
X+7236717Y+7694753D01*
X+7238482Y+7684258D01*
X+7242174Y+7673763D01*
X+7248202Y+7663268D01*
X+7257424Y+7652888D01*
X+7267919Y+7645200D01*
X+7278414Y+7640282D01*
X+7288909Y+7637476D01*
X+7299404Y+7636503D01*
X+7300000Y+7636500D01*
X+7363500Y+7700000D02*
X+7363283Y+7694753D01*
X+7361518Y+7684258D01*
X+7357826Y+7673763D01*
X+7351798Y+7663268D01*
X+7342576Y+7652888D01*
X+7332081Y+7645200D01*
X+7321586Y+7640282D01*
X+7311091Y+7637476D01*
X+7300596Y+7636503D01*
X+7300000Y+7636500D01*
X+7300000Y+7763500D02*
X+7300000Y+7636500D01*
X+7236500Y+7700000D02*
X+7363500Y+7700000D01*
X+7363283Y+7705247D01*
X+7361518Y+7715742D01*
X+7357826Y+7726237D01*
X+7351798Y+7736732D01*
X+7342576Y+7747112D01*
X+7332081Y+7754800D01*
X+7321586Y+7759718D01*
X+7311091Y+7762524D01*
X+7300596Y+7763497D01*
X+7300000Y+7763500D01*
X+7236500Y+7700000D02*
X+7236717Y+7705247D01*
X+7238482Y+7715742D01*
X+7242174Y+7726237D01*
X+7248202Y+7736732D01*
X+7257424Y+7747112D01*
X+7267919Y+7754800D01*
X+7278414Y+7759718D01*
X+7288909Y+7762524D01*
X+7299404Y+7763497D01*
X+7300000Y+7763500D01*
X+7236500Y+7700000D02*
X+7236717Y+7694753D01*
X+7238482Y+7684258D01*
X+7242174Y+7673763D01*
X+7248202Y+7663268D01*
X+7257424Y+7652888D01*
X+7267919Y+7645200D01*
X+7278414Y+7640282D01*
X+7288909Y+7637476D01*
X+7299404Y+7636503D01*
X+7300000Y+7636500D01*
X+7363500Y+7700000D02*
X+7363283Y+7694753D01*
X+7361518Y+7684258D01*
X+7357826Y+7673763D01*
X+7351798Y+7663268D01*
X+7342576Y+7652888D01*
X+7332081Y+7645200D01*
X+7321586Y+7640282D01*
X+7311091Y+7637476D01*
X+7300596Y+7636503D01*
X+7300000Y+7636500D01*
X+7255099Y+7744901D02*
X+7344901Y+7655099D01*
X+7255099Y+7655099D02*
X+7344901Y+7744901D01*
X+10855099Y+11244901D02*
X+10944901Y+11155099D01*
X+10855099Y+11155099D02*
X+10944901Y+11244901D01*
X+10855099Y+12260901D02*
X+10944901Y+12171099D01*
X+10855099Y+12171099D02*
X+10944901Y+12260901D01*
X+8100000Y+13263500D02*
X+8100000Y+13136500D01*
X+8036500Y+13200000D02*
X+8163500Y+13200000D01*
X+8055099Y+13244901D02*
X+8144901Y+13155099D01*
X+8055099Y+13155099D02*
X+8144901Y+13244901D01*
X+8354000Y+13263500D02*
X+8354000Y+13136500D01*
X+8290500Y+13200000D02*
X+8417500Y+13200000D01*
X+8309099Y+13244901D02*
X+8398901Y+13155099D01*
X+8309099Y+13155099D02*
X+8398901Y+13244901D01*
X+0Y+0D02*
X+6200000Y+0D01*
X+6200000Y+6500000D01*
X+0Y+6500000D01*
X+0Y+0D01*
X+6800000Y+0D02*
X+13000000Y+0D01*
X+13000000Y+6500000D01*
X+6800000Y+6500000D01*
X+6800000Y+0D01*
X+0Y+7200000D02*
X+6200000Y+7200000D01*
X+6200000Y+13700000D01*
X+0Y+13700000D01*
X+0Y+7200000D01*
X+6800000Y+7200000D02*
X+13000000Y+7200000D01*
X+13000000Y+13700000D01*
X+6800000Y+13700000D01*
X+6800000Y+7200000D01*
D70*
X-1172720Y-3118360D02*
X+1471420Y-3118360D01*
X+1471420Y-1391160D01*
X-1172720Y-1391160D01*
X-1172720Y-3118360D01*
D71*
X-705358Y-1391160D02*
X-705358Y-3118360D01*
X+107442Y-1391160D02*
X+107442Y-3118360D01*
X+940562Y-1391160D02*
X+940562Y-3118360D01*
X-1172720Y-1664210D02*
X+1471420Y-1664210D01*
X-1172720Y-1905510D02*
X+1471420Y-1905510D01*
X-1172720Y-2146810D02*
X+1471420Y-2146810D01*
X-1172720Y-2388110D02*
X+1471420Y-2388110D01*
X-1172720Y-2629410D02*
X+1471420Y-2629410D01*
X-1172720Y-2870710D02*
X+1471420Y-2870710D01*
D70*
X-1115570Y-1554990D02*
X-1100330Y-1570230D01*
X-1039370Y-1570230D01*
X-1024130Y-1554990D01*
X-1024130Y-1539750D01*
X-1039370Y-1524510D01*
X-1100330Y-1524510D01*
X-1115570Y-1509270D01*
X-1115570Y-1494030D01*
X-1100330Y-1478790D01*
X-1039370Y-1478790D01*
X-1024130Y-1494030D01*
X-902210Y-1478790D02*
X-993650Y-1570230D01*
X-993650Y-1478790D02*
X-947930Y-1524510D01*
X-871730Y-1570230D02*
X-871730Y-1478790D01*
X-826010Y-1524510D01*
X-780290Y-1478790D01*
X-780290Y-1570230D01*
X-648210Y-1554990D02*
X-632970Y-1570230D01*
X-572010Y-1570230D01*
X-556770Y-1554990D01*
X-556770Y-1539750D01*
X-572010Y-1524510D01*
X-632970Y-1524510D01*
X-648210Y-1509270D01*
X-648210Y-1494030D01*
X-632970Y-1478790D01*
X-572010Y-1478790D01*
X-556770Y-1494030D01*
X-511050Y-1478790D02*
X-450090Y-1478790D01*
X-480570Y-1478790D02*
X-480570Y-1570230D01*
X-511050Y-1570230D02*
X-450090Y-1570230D01*
X-404370Y-1478790D02*
X-312930Y-1478790D01*
X-404370Y-1570230D01*
X-312930Y-1570230D01*
X-191010Y-1570230D02*
X-282450Y-1570230D01*
X-282450Y-1478790D01*
X-191010Y-1478790D01*
X-282450Y-1524510D02*
X-221490Y-1524510D01*
X+164590Y-1570230D02*
X+164590Y-1478790D01*
X+240790Y-1478790D01*
X+256030Y-1494030D01*
X+256030Y-1509270D01*
X+240790Y-1524510D01*
X+164590Y-1524510D01*
X+286510Y-1478790D02*
X+286510Y-1570230D01*
X+377950Y-1570230D01*
X+408430Y-1570230D02*
X+408430Y-1509270D01*
X+438910Y-1478790D01*
X+469390Y-1478790D01*
X+499870Y-1509270D01*
X+499870Y-1570230D01*
X+408430Y-1539750D02*
X+499870Y-1539750D01*
X+530350Y-1478790D02*
X+621790Y-1478790D01*
X+576070Y-1478790D02*
X+576070Y-1570230D01*
X+743710Y-1570230D02*
X+652270Y-1570230D01*
X+652270Y-1478790D01*
X+743710Y-1478790D01*
X+652270Y-1524510D02*
X+713230Y-1524510D01*
X+774190Y-1570230D02*
X+774190Y-1478790D01*
X+835150Y-1478790D01*
X+865630Y-1509270D01*
X+865630Y-1539750D01*
X+835150Y-1570230D01*
X+774190Y-1570230D01*
X+997710Y-1509270D02*
X+1028190Y-1478790D01*
X+1058670Y-1478790D01*
X+1089150Y-1509270D01*
X+1089150Y-1539750D01*
X+1058670Y-1570230D01*
X+1028190Y-1570230D01*
X+997710Y-1539750D01*
X+997710Y-1509270D01*
X+1058670Y-1539750D02*
X+1089150Y-1570230D01*
X+1119630Y-1478790D02*
X+1211070Y-1478790D01*
X+1165350Y-1478790D02*
X+1165350Y-1570230D01*
X+1332990Y-1478790D02*
X+1241550Y-1570230D01*
X+1241550Y-1478790D02*
X+1287270Y-1524510D01*
D19*
X-926340Y-1715010D02*
X-926340Y-1842010D01*
X-989840Y-1778510D02*
X-862840Y-1778510D01*
D70*
X-629160Y-1803910D02*
X-629160Y-1753110D01*
X-616460Y-1740410D01*
X-565660Y-1740410D01*
X-552960Y-1753110D01*
X-552960Y-1803910D01*
X-565660Y-1816610D01*
X-616460Y-1816610D01*
X-629160Y-1803910D01*
X-629160Y-1816610D02*
X-552960Y-1740410D01*
X-489460Y-1803910D02*
X-476760Y-1803910D01*
X-476760Y-1816610D01*
X-489460Y-1816610D01*
X-489460Y-1803910D01*
X-349760Y-1740410D02*
X-413260Y-1740410D01*
X-413260Y-1765810D01*
X-362460Y-1765810D01*
X-349760Y-1778510D01*
X-349760Y-1803910D01*
X-362460Y-1816610D01*
X-400560Y-1816610D01*
X-413260Y-1803910D01*
X-324360Y-1803910D02*
X-324360Y-1753110D01*
X-311660Y-1740410D01*
X-260860Y-1740410D01*
X-248160Y-1753110D01*
X-248160Y-1803910D01*
X-260860Y-1816610D01*
X-311660Y-1816610D01*
X-324360Y-1803910D01*
X-324360Y-1816610D02*
X-248160Y-1740410D01*
X-197360Y-1778510D02*
X-210060Y-1765810D01*
X-210060Y-1753110D01*
X-197360Y-1740410D01*
X-159260Y-1740410D01*
X-146560Y-1753110D01*
X-146560Y-1765810D01*
X-159260Y-1778510D01*
X-197360Y-1778510D01*
X-210060Y-1791210D01*
X-210060Y-1803910D01*
X-197360Y-1816610D01*
X-159260Y-1816610D01*
X-146560Y-1803910D01*
X-146560Y-1791210D01*
X-159260Y-1778510D01*
X-121160Y-1816610D02*
X-121160Y-1765810D01*
X-121160Y-1778510D02*
X-108460Y-1765810D01*
X-83060Y-1791210D01*
X-57660Y-1765810D01*
X-44960Y-1778510D01*
X-44960Y-1816610D01*
X-19560Y-1816610D02*
X-19560Y-1765810D01*
X-19560Y-1778510D02*
X-6860Y-1765810D01*
X+18540Y-1791210D01*
X+43940Y-1765810D01*
X+56640Y-1778510D01*
X+56640Y-1816610D01*
X+272540Y-1740410D02*
X+196340Y-1816610D01*
X+196340Y-1740410D02*
X+234440Y-1778510D01*
X+374140Y-1816610D02*
X+297940Y-1816610D01*
X+297940Y-1740410D01*
X+374140Y-1740410D01*
X+297940Y-1778510D02*
X+348740Y-1778510D01*
X+399540Y-1803910D02*
X+412240Y-1816610D01*
X+463040Y-1816610D01*
X+475740Y-1803910D01*
X+475740Y-1791210D01*
X+463040Y-1778510D01*
X+412240Y-1778510D01*
X+399540Y-1765810D01*
X+399540Y-1753110D01*
X+412240Y-1740410D01*
X+463040Y-1740410D01*
X+475740Y-1753110D01*
X+1067560Y-1765810D02*
X+1092960Y-1740410D01*
X+1092960Y-1816610D01*
X+1219960Y-1753110D02*
X+1207260Y-1740410D01*
X+1169160Y-1740410D01*
X+1156460Y-1753110D01*
X+1156460Y-1803910D01*
X+1169160Y-1816610D01*
X+1207260Y-1816610D01*
X+1219960Y-1803910D01*
X+1219960Y-1791210D01*
X+1207260Y-1778510D01*
X+1156460Y-1778510D01*
D19*
X-971241Y-1974909D02*
X-881439Y-2064711D01*
X-971241Y-2064711D02*
X-881439Y-1974909D01*
D70*
X-629160Y-2045210D02*
X-629160Y-1994410D01*
X-616460Y-1981710D01*
X-565660Y-1981710D01*
X-552960Y-1994410D01*
X-552960Y-2045210D01*
X-565660Y-2057910D01*
X-616460Y-2057910D01*
X-629160Y-2045210D01*
X-629160Y-2057910D02*
X-552960Y-1981710D01*
X-489460Y-2045210D02*
X-476760Y-2045210D01*
X-476760Y-2057910D01*
X-489460Y-2057910D01*
X-489460Y-2045210D01*
X-413260Y-1981710D02*
X-349760Y-1981710D01*
X-349760Y-1994410D01*
X-413260Y-2057910D01*
X-248160Y-1994410D02*
X-260860Y-1981710D01*
X-298960Y-1981710D01*
X-311660Y-1994410D01*
X-311660Y-2045210D01*
X-298960Y-2057910D01*
X-260860Y-2057910D01*
X-248160Y-2045210D01*
X-248160Y-2032510D01*
X-260860Y-2019810D01*
X-311660Y-2019810D01*
X-210060Y-1994410D02*
X-197360Y-1981710D01*
X-159260Y-1981710D01*
X-146560Y-1994410D01*
X-146560Y-2007110D01*
X-159260Y-2019810D01*
X-197360Y-2019810D01*
X-210060Y-2032510D01*
X-210060Y-2057910D01*
X-146560Y-2057910D01*
X-121160Y-2057910D02*
X-121160Y-2007110D01*
X-121160Y-2019810D02*
X-108460Y-2007110D01*
X-83060Y-2032510D01*
X-57660Y-2007110D01*
X-44960Y-2019810D01*
X-44960Y-2057910D01*
X-19560Y-2057910D02*
X-19560Y-2007110D01*
X-19560Y-2019810D02*
X-6860Y-2007110D01*
X+18540Y-2032510D01*
X+43940Y-2007110D01*
X+56640Y-2019810D01*
X+56640Y-2057910D01*
X+272540Y-1981710D02*
X+196340Y-2057910D01*
X+196340Y-1981710D02*
X+234440Y-2019810D01*
X+374140Y-2057910D02*
X+297940Y-2057910D01*
X+297940Y-1981710D01*
X+374140Y-1981710D01*
X+297940Y-2019810D02*
X+348740Y-2019810D01*
X+399540Y-2045210D02*
X+412240Y-2057910D01*
X+463040Y-2057910D01*
X+475740Y-2045210D01*
X+475740Y-2032510D01*
X+463040Y-2019810D01*
X+412240Y-2019810D01*
X+399540Y-2007110D01*
X+399540Y-1994410D01*
X+412240Y-1981710D01*
X+463040Y-1981710D01*
X+475740Y-1994410D01*
X+1067560Y-2007110D02*
X+1092960Y-1981710D01*
X+1092960Y-2057910D01*
X+1219960Y-1994410D02*
X+1207260Y-1981710D01*
X+1169160Y-1981710D01*
X+1156460Y-1994410D01*
X+1156460Y-2045210D01*
X+1169160Y-2057910D01*
X+1207260Y-2057910D01*
X+1219960Y-2045210D01*
X+1219960Y-2032510D01*
X+1207260Y-2019810D01*
X+1156460Y-2019810D01*
D19*
X-926340Y-2197610D02*
X-926340Y-2324610D01*
X-989840Y-2261110D02*
X-862840Y-2261110D01*
X-971241Y-2216209D02*
X-881439Y-2306011D01*
X-971241Y-2306011D02*
X-881439Y-2216209D01*
D70*
X-603760Y-2248410D02*
X-578360Y-2223010D01*
X-578360Y-2299210D01*
X-489460Y-2286510D02*
X-476760Y-2286510D01*
X-476760Y-2299210D01*
X-489460Y-2299210D01*
X-489460Y-2286510D01*
X-425960Y-2286510D02*
X-425960Y-2235710D01*
X-413260Y-2223010D01*
X-362460Y-2223010D01*
X-349760Y-2235710D01*
X-349760Y-2286510D01*
X-362460Y-2299210D01*
X-413260Y-2299210D01*
X-425960Y-2286510D01*
X-425960Y-2299210D02*
X-349760Y-2223010D01*
X-298960Y-2248410D02*
X-273560Y-2223010D01*
X-273560Y-2299210D01*
X-146560Y-2235710D02*
X-159260Y-2223010D01*
X-197360Y-2223010D01*
X-210060Y-2235710D01*
X-210060Y-2286510D01*
X-197360Y-2299210D01*
X-159260Y-2299210D01*
X-146560Y-2286510D01*
X-146560Y-2273810D01*
X-159260Y-2261110D01*
X-210060Y-2261110D01*
X-121160Y-2299210D02*
X-121160Y-2248410D01*
X-121160Y-2261110D02*
X-108460Y-2248410D01*
X-83060Y-2273810D01*
X-57660Y-2248410D01*
X-44960Y-2261110D01*
X-44960Y-2299210D01*
X-19560Y-2299210D02*
X-19560Y-2248410D01*
X-19560Y-2261110D02*
X-6860Y-2248410D01*
X+18540Y-2273810D01*
X+43940Y-2248410D01*
X+56640Y-2261110D01*
X+56640Y-2299210D01*
X+272540Y-2223010D02*
X+196340Y-2299210D01*
X+196340Y-2223010D02*
X+234440Y-2261110D01*
X+374140Y-2299210D02*
X+297940Y-2299210D01*
X+297940Y-2223010D01*
X+374140Y-2223010D01*
X+297940Y-2261110D02*
X+348740Y-2261110D01*
X+399540Y-2286510D02*
X+412240Y-2299210D01*
X+463040Y-2299210D01*
X+475740Y-2286510D01*
X+475740Y-2273810D01*
X+463040Y-2261110D01*
X+412240Y-2261110D01*
X+399540Y-2248410D01*
X+399540Y-2235710D01*
X+412240Y-2223010D01*
X+463040Y-2223010D01*
X+475740Y-2235710D01*
X+1067560Y-2248410D02*
X+1092960Y-2223010D01*
X+1092960Y-2299210D01*
X+1219960Y-2223010D02*
X+1156460Y-2223010D01*
X+1156460Y-2248410D01*
X+1207260Y-2248410D01*
X+1219960Y-2261110D01*
X+1219960Y-2286510D01*
X+1207260Y-2299210D01*
X+1169160Y-2299210D01*
X+1156460Y-2286510D01*
X+1321560Y-2235710D02*
X+1308860Y-2223010D01*
X+1270760Y-2223010D01*
X+1258060Y-2235710D01*
X+1258060Y-2286510D01*
X+1270760Y-2299210D01*
X+1308860Y-2299210D01*
X+1321560Y-2286510D01*
X+1321560Y-2273810D01*
X+1308860Y-2261110D01*
X+1258060Y-2261110D01*
D19*
X-862840Y-2502410D02*
X-863057Y-2497163D01*
X-864822Y-2486668D01*
X-868514Y-2476173D01*
X-874542Y-2465678D01*
X-883764Y-2455298D01*
X-894259Y-2447610D01*
X-904754Y-2442692D01*
X-915249Y-2439886D01*
X-925744Y-2438913D01*
X-926340Y-2438910D01*
X-989840Y-2502410D02*
X-989623Y-2497163D01*
X-987858Y-2486668D01*
X-984166Y-2476173D01*
X-978138Y-2465678D01*
X-968916Y-2455298D01*
X-958421Y-2447610D01*
X-947926Y-2442692D01*
X-937431Y-2439886D01*
X-926936Y-2438913D01*
X-926340Y-2438910D01*
X-989840Y-2502410D02*
X-989623Y-2507657D01*
X-987858Y-2518152D01*
X-984166Y-2528647D01*
X-978138Y-2539142D01*
X-968916Y-2549522D01*
X-958421Y-2557210D01*
X-947926Y-2562128D01*
X-937431Y-2564934D01*
X-926936Y-2565907D01*
X-926340Y-2565910D01*
X-862840Y-2502410D02*
X-863057Y-2507657D01*
X-864822Y-2518152D01*
X-868514Y-2528647D01*
X-874542Y-2539142D01*
X-883764Y-2549522D01*
X-894259Y-2557210D01*
X-904754Y-2562128D01*
X-915249Y-2564934D01*
X-925744Y-2565907D01*
X-926340Y-2565910D01*
X-926340Y-2438910D02*
X-926340Y-2565910D01*
X-989840Y-2502410D02*
X-862840Y-2502410D01*
D70*
X-603760Y-2489710D02*
X-578360Y-2464310D01*
X-578360Y-2540510D01*
X-489460Y-2527810D02*
X-476760Y-2527810D01*
X-476760Y-2540510D01*
X-489460Y-2540510D01*
X-489460Y-2527810D01*
X-400560Y-2489710D02*
X-375160Y-2464310D01*
X-375160Y-2540510D01*
X-248160Y-2515110D02*
X-324360Y-2515110D01*
X-273560Y-2464310D01*
X-273560Y-2540510D01*
X-210060Y-2477010D02*
X-197360Y-2464310D01*
X-159260Y-2464310D01*
X-146560Y-2477010D01*
X-146560Y-2489710D01*
X-159260Y-2502410D01*
X-146560Y-2515110D01*
X-146560Y-2527810D01*
X-159260Y-2540510D01*
X-197360Y-2540510D01*
X-210060Y-2527810D01*
X-184660Y-2502410D02*
X-159260Y-2502410D01*
X-121160Y-2540510D02*
X-121160Y-2489710D01*
X-121160Y-2502410D02*
X-108460Y-2489710D01*
X-83060Y-2515110D01*
X-57660Y-2489710D01*
X-44960Y-2502410D01*
X-44960Y-2540510D01*
X-19560Y-2540510D02*
X-19560Y-2489710D01*
X-19560Y-2502410D02*
X-6860Y-2489710D01*
X+18540Y-2515110D01*
X+43940Y-2489710D01*
X+56640Y-2502410D01*
X+56640Y-2540510D01*
X+272540Y-2464310D02*
X+196340Y-2540510D01*
X+196340Y-2464310D02*
X+234440Y-2502410D01*
X+374140Y-2540510D02*
X+297940Y-2540510D01*
X+297940Y-2464310D01*
X+374140Y-2464310D01*
X+297940Y-2502410D02*
X+348740Y-2502410D01*
X+399540Y-2527810D02*
X+412240Y-2540510D01*
X+463040Y-2540510D01*
X+475740Y-2527810D01*
X+475740Y-2515110D01*
X+463040Y-2502410D01*
X+412240Y-2502410D01*
X+399540Y-2489710D01*
X+399540Y-2477010D01*
X+412240Y-2464310D01*
X+463040Y-2464310D01*
X+475740Y-2477010D01*
X+1067560Y-2502410D02*
X+1054860Y-2489710D01*
X+1054860Y-2477010D01*
X+1067560Y-2464310D01*
X+1105660Y-2464310D01*
X+1118360Y-2477010D01*
X+1118360Y-2489710D01*
X+1105660Y-2502410D01*
X+1067560Y-2502410D01*
X+1054860Y-2515110D01*
X+1054860Y-2527810D01*
X+1067560Y-2540510D01*
X+1105660Y-2540510D01*
X+1118360Y-2527810D01*
X+1118360Y-2515110D01*
X+1105660Y-2502410D01*
D19*
X-862840Y-2743710D02*
X-863057Y-2738463D01*
X-864822Y-2727968D01*
X-868514Y-2717473D01*
X-874542Y-2706978D01*
X-883764Y-2696598D01*
X-894259Y-2688910D01*
X-904754Y-2683992D01*
X-915249Y-2681186D01*
X-925744Y-2680213D01*
X-926340Y-2680210D01*
X-989840Y-2743710D02*
X-989623Y-2738463D01*
X-987858Y-2727968D01*
X-984166Y-2717473D01*
X-978138Y-2706978D01*
X-968916Y-2696598D01*
X-958421Y-2688910D01*
X-947926Y-2683992D01*
X-937431Y-2681186D01*
X-926936Y-2680213D01*
X-926340Y-2680210D01*
X-989840Y-2743710D02*
X-989623Y-2748957D01*
X-987858Y-2759452D01*
X-984166Y-2769947D01*
X-978138Y-2780442D01*
X-968916Y-2790822D01*
X-958421Y-2798510D01*
X-947926Y-2803428D01*
X-937431Y-2806234D01*
X-926936Y-2807207D01*
X-926340Y-2807210D01*
X-862840Y-2743710D02*
X-863057Y-2748957D01*
X-864822Y-2759452D01*
X-868514Y-2769947D01*
X-874542Y-2780442D01*
X-883764Y-2790822D01*
X-894259Y-2798510D01*
X-904754Y-2803428D01*
X-915249Y-2806234D01*
X-925744Y-2807207D01*
X-926340Y-2807210D01*
X-971241Y-2698809D02*
X-881439Y-2788611D01*
X-971241Y-2788611D02*
X-881439Y-2698809D01*
D70*
X-603760Y-2731010D02*
X-578360Y-2705610D01*
X-578360Y-2781810D01*
X-489460Y-2769110D02*
X-476760Y-2769110D01*
X-476760Y-2781810D01*
X-489460Y-2781810D01*
X-489460Y-2769110D01*
X-349760Y-2705610D02*
X-413260Y-2705610D01*
X-413260Y-2731010D01*
X-362460Y-2731010D01*
X-349760Y-2743710D01*
X-349760Y-2769110D01*
X-362460Y-2781810D01*
X-400560Y-2781810D01*
X-413260Y-2769110D01*
X-311660Y-2718310D02*
X-298960Y-2705610D01*
X-260860Y-2705610D01*
X-248160Y-2718310D01*
X-248160Y-2731010D01*
X-260860Y-2743710D01*
X-298960Y-2743710D01*
X-311660Y-2756410D01*
X-311660Y-2781810D01*
X-248160Y-2781810D01*
X-146560Y-2756410D02*
X-222760Y-2756410D01*
X-171960Y-2705610D01*
X-171960Y-2781810D01*
X-121160Y-2781810D02*
X-121160Y-2731010D01*
X-121160Y-2743710D02*
X-108460Y-2731010D01*
X-83060Y-2756410D01*
X-57660Y-2731010D01*
X-44960Y-2743710D01*
X-44960Y-2781810D01*
X-19560Y-2781810D02*
X-19560Y-2731010D01*
X-19560Y-2743710D02*
X-6860Y-2731010D01*
X+18540Y-2756410D01*
X+43940Y-2731010D01*
X+56640Y-2743710D01*
X+56640Y-2781810D01*
X+272540Y-2705610D02*
X+196340Y-2781810D01*
X+196340Y-2705610D02*
X+234440Y-2743710D01*
X+374140Y-2781810D02*
X+297940Y-2781810D01*
X+297940Y-2705610D01*
X+374140Y-2705610D01*
X+297940Y-2743710D02*
X+348740Y-2743710D01*
X+399540Y-2769110D02*
X+412240Y-2781810D01*
X+463040Y-2781810D01*
X+475740Y-2769110D01*
X+475740Y-2756410D01*
X+463040Y-2743710D01*
X+412240Y-2743710D01*
X+399540Y-2731010D01*
X+399540Y-2718310D01*
X+412240Y-2705610D01*
X+463040Y-2705610D01*
X+475740Y-2718310D01*
X+1054860Y-2718310D02*
X+1067560Y-2705610D01*
X+1105660Y-2705610D01*
X+1118360Y-2718310D01*
X+1118360Y-2731010D01*
X+1105660Y-2743710D01*
X+1067560Y-2743710D01*
X+1054860Y-2756410D01*
X+1054860Y-2781810D01*
X+1118360Y-2781810D01*
X+1169160Y-2743710D02*
X+1156460Y-2731010D01*
X+1156460Y-2718310D01*
X+1169160Y-2705610D01*
X+1207260Y-2705610D01*
X+1219960Y-2718310D01*
X+1219960Y-2731010D01*
X+1207260Y-2743710D01*
X+1169160Y-2743710D01*
X+1156460Y-2756410D01*
X+1156460Y-2769110D01*
X+1169160Y-2781810D01*
X+1207260Y-2781810D01*
X+1219960Y-2769110D01*
X+1219960Y-2756410D01*
X+1207260Y-2743710D01*
D19*
X-862840Y-2985010D02*
X-863057Y-2979763D01*
X-864822Y-2969268D01*
X-868514Y-2958773D01*
X-874542Y-2948278D01*
X-883764Y-2937898D01*
X-894259Y-2930210D01*
X-904754Y-2925292D01*
X-915249Y-2922486D01*
X-925744Y-2921513D01*
X-926340Y-2921510D01*
X-989840Y-2985010D02*
X-989623Y-2979763D01*
X-987858Y-2969268D01*
X-984166Y-2958773D01*
X-978138Y-2948278D01*
X-968916Y-2937898D01*
X-958421Y-2930210D01*
X-947926Y-2925292D01*
X-937431Y-2922486D01*
X-926936Y-2921513D01*
X-926340Y-2921510D01*
X-989840Y-2985010D02*
X-989623Y-2990257D01*
X-987858Y-3000752D01*
X-984166Y-3011247D01*
X-978138Y-3021742D01*
X-968916Y-3032122D01*
X-958421Y-3039810D01*
X-947926Y-3044728D01*
X-937431Y-3047534D01*
X-926936Y-3048507D01*
X-926340Y-3048510D01*
X-862840Y-2985010D02*
X-863057Y-2990257D01*
X-864822Y-3000752D01*
X-868514Y-3011247D01*
X-874542Y-3021742D01*
X-883764Y-3032122D01*
X-894259Y-3039810D01*
X-904754Y-3044728D01*
X-915249Y-3047534D01*
X-925744Y-3048507D01*
X-926340Y-3048510D01*
X-926340Y-2921510D02*
X-926340Y-3048510D01*
X-989840Y-2985010D02*
X-862840Y-2985010D01*
X-863057Y-2979763D01*
X-864822Y-2969268D01*
X-868514Y-2958773D01*
X-874542Y-2948278D01*
X-883764Y-2937898D01*
X-894259Y-2930210D01*
X-904754Y-2925292D01*
X-915249Y-2922486D01*
X-925744Y-2921513D01*
X-926340Y-2921510D01*
X-989840Y-2985010D02*
X-989623Y-2979763D01*
X-987858Y-2969268D01*
X-984166Y-2958773D01*
X-978138Y-2948278D01*
X-968916Y-2937898D01*
X-958421Y-2930210D01*
X-947926Y-2925292D01*
X-937431Y-2922486D01*
X-926936Y-2921513D01*
X-926340Y-2921510D01*
X-989840Y-2985010D02*
X-989623Y-2990257D01*
X-987858Y-3000752D01*
X-984166Y-3011247D01*
X-978138Y-3021742D01*
X-968916Y-3032122D01*
X-958421Y-3039810D01*
X-947926Y-3044728D01*
X-937431Y-3047534D01*
X-926936Y-3048507D01*
X-926340Y-3048510D01*
X-862840Y-2985010D02*
X-863057Y-2990257D01*
X-864822Y-3000752D01*
X-868514Y-3011247D01*
X-874542Y-3021742D01*
X-883764Y-3032122D01*
X-894259Y-3039810D01*
X-904754Y-3044728D01*
X-915249Y-3047534D01*
X-925744Y-3048507D01*
X-926340Y-3048510D01*
X-971241Y-2940109D02*
X-881439Y-3029911D01*
X-971241Y-3029911D02*
X-881439Y-2940109D01*
D70*
X-616460Y-2959610D02*
X-603760Y-2946910D01*
X-565660Y-2946910D01*
X-552960Y-2959610D01*
X-552960Y-2972310D01*
X-565660Y-2985010D01*
X-552960Y-2997710D01*
X-552960Y-3010410D01*
X-565660Y-3023110D01*
X-603760Y-3023110D01*
X-616460Y-3010410D01*
X-591060Y-2985010D02*
X-565660Y-2985010D01*
X-527560Y-3023110D02*
X-527560Y-2972310D01*
X-527560Y-2985010D02*
X-514860Y-2972310D01*
X-489460Y-2997710D01*
X-464060Y-2972310D01*
X-451360Y-2985010D01*
X-451360Y-3023110D01*
X-425960Y-3023110D02*
X-425960Y-2972310D01*
X-425960Y-2985010D02*
X-413260Y-2972310D01*
X-387860Y-2997710D01*
X-362460Y-2972310D01*
X-349760Y-2985010D01*
X-349760Y-3023110D01*
X+272540Y-2946910D02*
X+196340Y-3023110D01*
X+196340Y-2946910D02*
X+234440Y-2985010D01*
X+374140Y-3023110D02*
X+297940Y-3023110D01*
X+297940Y-2946910D01*
X+374140Y-2946910D01*
X+297940Y-2985010D02*
X+348740Y-2985010D01*
X+399540Y-3010410D02*
X+412240Y-3023110D01*
X+463040Y-3023110D01*
X+475740Y-3010410D01*
X+475740Y-2997710D01*
X+463040Y-2985010D01*
X+412240Y-2985010D01*
X+399540Y-2972310D01*
X+399540Y-2959610D01*
X+412240Y-2946910D01*
X+463040Y-2946910D01*
X+475740Y-2959610D01*
X+1067560Y-2972310D02*
X+1092960Y-2946910D01*
X+1092960Y-3023110D01*
X+1219960Y-2959610D02*
X+1207260Y-2946910D01*
X+1169160Y-2946910D01*
X+1156460Y-2959610D01*
X+1156460Y-3010410D01*
X+1169160Y-3023110D01*
X+1207260Y-3023110D01*
X+1219960Y-3010410D01*
X+1219960Y-2997710D01*
X+1207260Y-2985010D01*
X+1156460Y-2985010D01*
M02*
