M48
METRIC,TZ
T01C0.5080
T02C1.5240
T03C1.1430
T04C0.7620
T05C1.0160
T06C3.0000
%
T01
X+33098Y+27100
X+33117Y+36381
X+23277Y+48762
X+23245Y+53184
X+101098Y+27100
X+101117Y+36381
X+91277Y+48762
X+91245Y+53184
X+33098Y+99100
X+33117Y+108381
X+23277Y+120762
X+23245Y+125184
X+101098Y+99100
X+101117Y+108381
X+91277Y+120762
X+91245Y+125184
T02
X+6000Y+46000
X+6000Y+51080
X+57000Y+35500
X+57000Y+30420
X+57000Y+25340
X+57000Y+20260
X+57000Y+15180
X+74000Y+46000
X+74000Y+51080
X+125000Y+35500
X+125000Y+30420
X+125000Y+25340
X+125000Y+20260
X+125000Y+15180
X+6000Y+118000
X+6000Y+123080
X+57000Y+107500
X+57000Y+102420
X+57000Y+97340
X+57000Y+92260
X+57000Y+87180
X+74000Y+118000
X+74000Y+123080
X+125000Y+107500
X+125000Y+102420
X+125000Y+97340
X+125000Y+92260
X+125000Y+87180
T03
X+55500Y+51080
X+55500Y+46000
X+123500Y+51080
X+123500Y+46000
X+55500Y+123080
X+55500Y+118000
X+123500Y+123080
X+123500Y+118000
T04
X+17000Y+43460
X+17000Y+46000
X+41000Y+40000
X+41000Y+50160
X+85000Y+43460
X+85000Y+46000
X+109000Y+40000
X+109000Y+50160
X+17000Y+115460
X+17000Y+118000
X+41000Y+112000
X+41000Y+122160
X+85000Y+115460
X+85000Y+118000
X+109000Y+112000
X+109000Y+122160
T05
X+22300Y+46520
X+22300Y+43980
X+22300Y+41440
X+22300Y+38900
X+22300Y+36360
X+22300Y+26200
X+22300Y+23660
X+22300Y+21120
X+22300Y+18580
X+22300Y+16040
X+22300Y+13500
X+22300Y+10960
X+47700Y+10960
X+47700Y+13500
X+47700Y+18580
X+47700Y+21120
X+47700Y+23660
X+47700Y+26200
X+47700Y+28740
X+47700Y+31280
X+47700Y+33820
X+47700Y+38900
X+47700Y+41440
X+47700Y+46520
X+3500Y+38000
X+6040Y+38000
X+8580Y+38000
X+11120Y+38000
X+13660Y+38000
X+16200Y+38000
X+17000Y+10000
X+17000Y+12540
X+17000Y+15080
X+17000Y+17620
X+17000Y+20160
X+17000Y+22700
X+17000Y+25240
X+13000Y+60000
X+15540Y+60000
X+90300Y+46520
X+90300Y+43980
X+90300Y+41440
X+90300Y+38900
X+90300Y+36360
X+90300Y+26200
X+90300Y+23660
X+90300Y+21120
X+90300Y+18580
X+90300Y+16040
X+90300Y+13500
X+90300Y+10960
X+115700Y+10960
X+115700Y+13500
X+115700Y+18580
X+115700Y+21120
X+115700Y+23660
X+115700Y+26200
X+115700Y+28740
X+115700Y+31280
X+115700Y+33820
X+115700Y+38900
X+115700Y+41440
X+115700Y+46520
X+71500Y+38000
X+74040Y+38000
X+76580Y+38000
X+79120Y+38000
X+81660Y+38000
X+84200Y+38000
X+85000Y+10000
X+85000Y+12540
X+85000Y+15080
X+85000Y+17620
X+85000Y+20160
X+85000Y+22700
X+85000Y+25240
X+81000Y+60000
X+83540Y+60000
X+22300Y+118520
X+22300Y+115980
X+22300Y+113440
X+22300Y+110900
X+22300Y+108360
X+22300Y+98200
X+22300Y+95660
X+22300Y+93120
X+22300Y+90580
X+22300Y+88040
X+22300Y+85500
X+22300Y+82960
X+47700Y+82960
X+47700Y+85500
X+47700Y+90580
X+47700Y+93120
X+47700Y+95660
X+47700Y+98200
X+47700Y+100740
X+47700Y+103280
X+47700Y+105820
X+47700Y+110900
X+47700Y+113440
X+47700Y+118520
X+3500Y+110000
X+6040Y+110000
X+8580Y+110000
X+11120Y+110000
X+13660Y+110000
X+16200Y+110000
X+17000Y+82000
X+17000Y+84540
X+17000Y+87080
X+17000Y+89620
X+17000Y+92160
X+17000Y+94700
X+17000Y+97240
X+13000Y+132000
X+15540Y+132000
X+90300Y+118520
X+90300Y+115980
X+90300Y+113440
X+90300Y+110900
X+90300Y+108360
X+90300Y+98200
X+90300Y+95660
X+90300Y+93120
X+90300Y+90580
X+90300Y+88040
X+90300Y+85500
X+90300Y+82960
X+115700Y+82960
X+115700Y+85500
X+115700Y+90580
X+115700Y+93120
X+115700Y+95660
X+115700Y+98200
X+115700Y+100740
X+115700Y+103280
X+115700Y+105820
X+115700Y+110900
X+115700Y+113440
X+115700Y+118520
X+71500Y+110000
X+74040Y+110000
X+76580Y+110000
X+79120Y+110000
X+81660Y+110000
X+84200Y+110000
X+85000Y+82000
X+85000Y+84540
X+85000Y+87080
X+85000Y+89620
X+85000Y+92160
X+85000Y+94700
X+85000Y+97240
X+81000Y+132000
X+83540Y+132000
T06
X+5000Y+60000
X+57000Y+60000
X+57000Y+5000
X+5000Y+5000
X+73000Y+60000
X+125000Y+60000
X+125000Y+5000
X+73000Y+5000
X+5000Y+132000
X+57000Y+132000
X+57000Y+77000
X+5000Y+77000
X+73000Y+132000
X+125000Y+132000
X+125000Y+77000
X+73000Y+77000
M30
