G04 PROTEUS RS274X GERBER FILE*
%FSLAX45Y45*%
%MOMM*%
G01*
%ADD10C,1.270000*%
%ADD11C,1.270000*%
%ADD12C,3.048000*%
%ADD13C,2.540000*%
%ADD14C,1.778000*%
%ADD15R,2.000000X2.000000*%
%ADD16C,2.000000*%
%ADD17R,2.032000X2.032000*%
%ADD18C,6.350000*%
%ADD19C,0.203200*%
D10*
X+1700000Y+4346000D02*
X+1632014Y+4278014D01*
X+1632014Y+3901600D01*
X+1620000Y+3800000D01*
X+600000Y+4600000D02*
X+950000Y+4600000D01*
X+1150000Y+4400000D01*
X+1227000Y+4323000D01*
X+1611100Y+4323000D01*
X+1700000Y+4346000D01*
X+1946000Y+4346000D01*
X+2000000Y+4400000D01*
X+2130000Y+4400000D01*
X+2230000Y+4398000D01*
X+600000Y+5108000D02*
X+1559232Y+5108000D01*
X+1649807Y+5017425D01*
X+1649807Y+4650193D01*
X+1700000Y+4600000D01*
X+858000Y+3800000D02*
X+858000Y+3492000D01*
X+1400000Y+2950000D01*
X+3581813Y+2950000D01*
X+4150807Y+2381006D01*
X+4165813Y+2366000D01*
X+4770000Y+2366000D01*
X+1112000Y+3800000D02*
X+1112000Y+3538000D01*
X+1500000Y+3150000D01*
X+3693741Y+3150000D01*
X+4223742Y+2620000D01*
X+4770000Y+2620000D01*
X+1366000Y+3800000D02*
X+1366000Y+3566059D01*
X+1561790Y+3370269D01*
X+3754209Y+3370269D01*
X+4250479Y+2874000D01*
X+4770000Y+2874000D01*
X+600000Y+4600000D02*
X+600000Y+3843065D01*
X+635586Y+3807479D01*
X+604000Y+3800000D01*
X+1649807Y+5017425D02*
X+1699612Y+5017425D01*
X+1800684Y+5118497D01*
X+3382613Y+5118497D01*
X+3863876Y+4637234D01*
X+4787234Y+4637234D01*
X+4800000Y+4650000D01*
X+4770000Y+4652000D01*
X+4770000Y+3128000D02*
X+5005066Y+3128000D01*
X+5064950Y+3068116D01*
X+5186207Y+2946859D01*
X+5186207Y+2710729D01*
X+5336182Y+2560754D01*
X+5547600Y+2560754D01*
X+5700000Y+2534000D01*
X+4770000Y+1858000D02*
X+5132376Y+1858000D01*
X+5281489Y+2007113D01*
X+5291098Y+2016722D01*
X+5547600Y+2016722D01*
X+5700000Y+2026000D01*
X+5700000Y+1518000D02*
X+5157134Y+1518000D01*
X+5080209Y+1594925D01*
X+3448099Y+1594925D01*
X+3313022Y+1730002D01*
X+3313022Y+2706843D01*
X+3309820Y+2710045D01*
X+3311690Y+3638114D02*
X+3879508Y+3638114D01*
X+4137491Y+3380131D01*
X+4768131Y+3380131D01*
X+4770000Y+3382000D01*
X+5700000Y+3550000D02*
X+5811653Y+3550000D01*
X+5966165Y+3704512D01*
X+5966165Y+5007405D01*
X+5865570Y+5108000D01*
X+5550000Y+5108000D01*
X+4800000Y+4650000D02*
X+4800000Y+5000000D01*
X+4908000Y+5108000D01*
X+5550000Y+5108000D01*
X+5700000Y+3042000D02*
X+5468489Y+3042000D01*
X+5350000Y+3160489D01*
X+5350000Y+3900000D01*
X+5550000Y+4100000D01*
X+5550000Y+4600000D01*
X+2230000Y+4398000D02*
X+5080616Y+4398000D01*
X+5249155Y+4566539D01*
X+5282616Y+4600000D01*
X+5550000Y+4600000D01*
X+2230000Y+4652000D02*
X+2327666Y+4749666D01*
X+2327666Y+4876246D01*
X+1300000Y+6000000D02*
X+1300000Y+5428147D01*
X+1462834Y+5428147D01*
X+2324531Y+5318394D02*
X+2214778Y+5428147D01*
X+2026629Y+5428147D01*
X+1462834Y+5428147D01*
X+1300000Y+5428147D02*
X+449321Y+5428147D01*
X+270580Y+5249406D01*
X+270580Y+4114247D01*
X+355247Y+4029580D01*
X+355247Y+3805247D01*
X+350000Y+3800000D01*
X+1554000Y+6000000D02*
X+3819389Y+6000000D01*
X+4094555Y+5724834D01*
X+4094555Y+5021445D01*
X+4100000Y+5016000D01*
X+2230000Y+3890000D02*
X+2790000Y+3890000D01*
X+2900000Y+4000000D01*
X+4100000Y+4000000D01*
X+8500000Y+4346000D02*
X+8432014Y+4278014D01*
X+8432014Y+3901600D01*
X+8420000Y+3800000D01*
X+7400000Y+4600000D02*
X+7750000Y+4600000D01*
X+7950000Y+4400000D01*
X+8027000Y+4323000D01*
X+8411100Y+4323000D01*
X+8500000Y+4346000D01*
X+8746000Y+4346000D01*
X+8800000Y+4400000D01*
X+8930000Y+4400000D01*
X+9030000Y+4398000D01*
X+7400000Y+5108000D02*
X+8359232Y+5108000D01*
X+8449807Y+5017425D01*
X+8449807Y+4650193D01*
X+8500000Y+4600000D01*
X+7658000Y+3800000D02*
X+7658000Y+3492000D01*
X+8200000Y+2950000D01*
X+10381813Y+2950000D01*
X+10950807Y+2381006D01*
X+10965813Y+2366000D01*
X+11570000Y+2366000D01*
X+7912000Y+3800000D02*
X+7912000Y+3538000D01*
X+8300000Y+3150000D01*
X+10493741Y+3150000D01*
X+11023742Y+2620000D01*
X+11570000Y+2620000D01*
X+8166000Y+3800000D02*
X+8166000Y+3566059D01*
X+8361790Y+3370269D01*
X+10554209Y+3370269D01*
X+11050479Y+2874000D01*
X+11570000Y+2874000D01*
X+7400000Y+4600000D02*
X+7400000Y+3843065D01*
X+7435586Y+3807479D01*
X+7404000Y+3800000D01*
X+8449807Y+5017425D02*
X+8499612Y+5017425D01*
X+8600684Y+5118497D01*
X+10182613Y+5118497D01*
X+10663876Y+4637234D01*
X+11587234Y+4637234D01*
X+11600000Y+4650000D01*
X+11570000Y+4652000D01*
X+11570000Y+3128000D02*
X+11805066Y+3128000D01*
X+11864950Y+3068116D01*
X+11986207Y+2946859D01*
X+11986207Y+2710729D01*
X+12136182Y+2560754D01*
X+12347600Y+2560754D01*
X+12500000Y+2534000D01*
X+11570000Y+1858000D02*
X+11932376Y+1858000D01*
X+12081489Y+2007113D01*
X+12091098Y+2016722D01*
X+12347600Y+2016722D01*
X+12500000Y+2026000D01*
X+12500000Y+1518000D02*
X+11957134Y+1518000D01*
X+11880209Y+1594925D01*
X+10248099Y+1594925D01*
X+10113022Y+1730002D01*
X+10113022Y+2706843D01*
X+10109820Y+2710045D01*
X+10111690Y+3638114D02*
X+10679508Y+3638114D01*
X+10937491Y+3380131D01*
X+11568131Y+3380131D01*
X+11570000Y+3382000D01*
X+12500000Y+3550000D02*
X+12611653Y+3550000D01*
X+12766165Y+3704512D01*
X+12766165Y+5007405D01*
X+12665570Y+5108000D01*
X+12350000Y+5108000D01*
X+11600000Y+4650000D02*
X+11600000Y+5000000D01*
X+11708000Y+5108000D01*
X+12350000Y+5108000D01*
X+12500000Y+3042000D02*
X+12268489Y+3042000D01*
X+12150000Y+3160489D01*
X+12150000Y+3900000D01*
X+12350000Y+4100000D01*
X+12350000Y+4600000D01*
X+9030000Y+4398000D02*
X+11880616Y+4398000D01*
X+12049155Y+4566539D01*
X+12082616Y+4600000D01*
X+12350000Y+4600000D01*
X+9030000Y+4652000D02*
X+9127666Y+4749666D01*
X+9127666Y+4876246D01*
X+8100000Y+6000000D02*
X+8100000Y+5428147D01*
X+8262834Y+5428147D01*
X+9124531Y+5318394D02*
X+9014778Y+5428147D01*
X+8826629Y+5428147D01*
X+8262834Y+5428147D01*
X+8100000Y+5428147D02*
X+7249321Y+5428147D01*
X+7070580Y+5249406D01*
X+7070580Y+4114247D01*
X+7155247Y+4029580D01*
X+7155247Y+3805247D01*
X+7150000Y+3800000D01*
X+8354000Y+6000000D02*
X+10619389Y+6000000D01*
X+10894555Y+5724834D01*
X+10894555Y+5021445D01*
X+10900000Y+5016000D01*
X+9030000Y+3890000D02*
X+9590000Y+3890000D01*
X+9700000Y+4000000D01*
X+10900000Y+4000000D01*
X+1700000Y+11546000D02*
X+1632014Y+11478014D01*
X+1632014Y+11101600D01*
X+1620000Y+11000000D01*
X+600000Y+11800000D02*
X+950000Y+11800000D01*
X+1150000Y+11600000D01*
X+1227000Y+11523000D01*
X+1611100Y+11523000D01*
X+1700000Y+11546000D01*
X+1946000Y+11546000D01*
X+2000000Y+11600000D01*
X+2130000Y+11600000D01*
X+2230000Y+11598000D01*
X+600000Y+12308000D02*
X+1559232Y+12308000D01*
X+1649807Y+12217425D01*
X+1649807Y+11850193D01*
X+1700000Y+11800000D01*
X+858000Y+11000000D02*
X+858000Y+10692000D01*
X+1400000Y+10150000D01*
X+3581813Y+10150000D01*
X+4150807Y+9581006D01*
X+4165813Y+9566000D01*
X+4770000Y+9566000D01*
X+1112000Y+11000000D02*
X+1112000Y+10738000D01*
X+1500000Y+10350000D01*
X+3693741Y+10350000D01*
X+4223742Y+9820000D01*
X+4770000Y+9820000D01*
X+1366000Y+11000000D02*
X+1366000Y+10766059D01*
X+1561790Y+10570269D01*
X+3754209Y+10570269D01*
X+4250479Y+10074000D01*
X+4770000Y+10074000D01*
X+600000Y+11800000D02*
X+600000Y+11043065D01*
X+635586Y+11007479D01*
X+604000Y+11000000D01*
X+1649807Y+12217425D02*
X+1699612Y+12217425D01*
X+1800684Y+12318497D01*
X+3382613Y+12318497D01*
X+3863876Y+11837234D01*
X+4787234Y+11837234D01*
X+4800000Y+11850000D01*
X+4770000Y+11852000D01*
X+4770000Y+10328000D02*
X+5005066Y+10328000D01*
X+5064950Y+10268116D01*
X+5186207Y+10146859D01*
X+5186207Y+9910729D01*
X+5336182Y+9760754D01*
X+5547600Y+9760754D01*
X+5700000Y+9734000D01*
X+4770000Y+9058000D02*
X+5132376Y+9058000D01*
X+5281489Y+9207113D01*
X+5291098Y+9216722D01*
X+5547600Y+9216722D01*
X+5700000Y+9226000D01*
X+5700000Y+8718000D02*
X+5157134Y+8718000D01*
X+5080209Y+8794925D01*
X+3448099Y+8794925D01*
X+3313022Y+8930002D01*
X+3313022Y+9906843D01*
X+3309820Y+9910045D01*
X+3311690Y+10838114D02*
X+3879508Y+10838114D01*
X+4137491Y+10580131D01*
X+4768131Y+10580131D01*
X+4770000Y+10582000D01*
X+5700000Y+10750000D02*
X+5811653Y+10750000D01*
X+5966165Y+10904512D01*
X+5966165Y+12207405D01*
X+5865570Y+12308000D01*
X+5550000Y+12308000D01*
X+4800000Y+11850000D02*
X+4800000Y+12200000D01*
X+4908000Y+12308000D01*
X+5550000Y+12308000D01*
X+5700000Y+10242000D02*
X+5468489Y+10242000D01*
X+5350000Y+10360489D01*
X+5350000Y+11100000D01*
X+5550000Y+11300000D01*
X+5550000Y+11800000D01*
X+2230000Y+11598000D02*
X+5080616Y+11598000D01*
X+5249155Y+11766539D01*
X+5282616Y+11800000D01*
X+5550000Y+11800000D01*
X+2230000Y+11852000D02*
X+2327666Y+11949666D01*
X+2327666Y+12076246D01*
X+1300000Y+13200000D02*
X+1300000Y+12628147D01*
X+1462834Y+12628147D01*
X+2324531Y+12518394D02*
X+2214778Y+12628147D01*
X+2026629Y+12628147D01*
X+1462834Y+12628147D01*
X+1300000Y+12628147D02*
X+449321Y+12628147D01*
X+270580Y+12449406D01*
X+270580Y+11314247D01*
X+355247Y+11229580D01*
X+355247Y+11005247D01*
X+350000Y+11000000D01*
X+1554000Y+13200000D02*
X+3819389Y+13200000D01*
X+4094555Y+12924834D01*
X+4094555Y+12221445D01*
X+4100000Y+12216000D01*
X+2230000Y+11090000D02*
X+2790000Y+11090000D01*
X+2900000Y+11200000D01*
X+4100000Y+11200000D01*
X+8500000Y+11546000D02*
X+8432014Y+11478014D01*
X+8432014Y+11101600D01*
X+8420000Y+11000000D01*
X+7400000Y+11800000D02*
X+7750000Y+11800000D01*
X+7950000Y+11600000D01*
X+8027000Y+11523000D01*
X+8411100Y+11523000D01*
X+8500000Y+11546000D01*
X+8746000Y+11546000D01*
X+8800000Y+11600000D01*
X+8930000Y+11600000D01*
X+9030000Y+11598000D01*
X+7400000Y+12308000D02*
X+8359232Y+12308000D01*
X+8449807Y+12217425D01*
X+8449807Y+11850193D01*
X+8500000Y+11800000D01*
X+7658000Y+11000000D02*
X+7658000Y+10692000D01*
X+8200000Y+10150000D01*
X+10381813Y+10150000D01*
X+10950807Y+9581006D01*
X+10965813Y+9566000D01*
X+11570000Y+9566000D01*
X+7912000Y+11000000D02*
X+7912000Y+10738000D01*
X+8300000Y+10350000D01*
X+10493741Y+10350000D01*
X+11023742Y+9820000D01*
X+11570000Y+9820000D01*
X+8166000Y+11000000D02*
X+8166000Y+10766059D01*
X+8361790Y+10570269D01*
X+10554209Y+10570269D01*
X+11050479Y+10074000D01*
X+11570000Y+10074000D01*
X+7400000Y+11800000D02*
X+7400000Y+11043065D01*
X+7435586Y+11007479D01*
X+7404000Y+11000000D01*
X+8449807Y+12217425D02*
X+8499612Y+12217425D01*
X+8600684Y+12318497D01*
X+10182613Y+12318497D01*
X+10663876Y+11837234D01*
X+11587234Y+11837234D01*
X+11600000Y+11850000D01*
X+11570000Y+11852000D01*
X+11570000Y+10328000D02*
X+11805066Y+10328000D01*
X+11864950Y+10268116D01*
X+11986207Y+10146859D01*
X+11986207Y+9910729D01*
X+12136182Y+9760754D01*
X+12347600Y+9760754D01*
X+12500000Y+9734000D01*
X+11570000Y+9058000D02*
X+11932376Y+9058000D01*
X+12081489Y+9207113D01*
X+12091098Y+9216722D01*
X+12347600Y+9216722D01*
X+12500000Y+9226000D01*
X+12500000Y+8718000D02*
X+11957134Y+8718000D01*
X+11880209Y+8794925D01*
X+10248099Y+8794925D01*
X+10113022Y+8930002D01*
X+10113022Y+9906843D01*
X+10109820Y+9910045D01*
X+10111690Y+10838114D02*
X+10679508Y+10838114D01*
X+10937491Y+10580131D01*
X+11568131Y+10580131D01*
X+11570000Y+10582000D01*
X+12500000Y+10750000D02*
X+12611653Y+10750000D01*
X+12766165Y+10904512D01*
X+12766165Y+12207405D01*
X+12665570Y+12308000D01*
X+12350000Y+12308000D01*
X+11600000Y+11850000D02*
X+11600000Y+12200000D01*
X+11708000Y+12308000D01*
X+12350000Y+12308000D01*
X+12500000Y+10242000D02*
X+12268489Y+10242000D01*
X+12150000Y+10360489D01*
X+12150000Y+11100000D01*
X+12350000Y+11300000D01*
X+12350000Y+11800000D01*
X+9030000Y+11598000D02*
X+11880616Y+11598000D01*
X+12049155Y+11766539D01*
X+12082616Y+11800000D01*
X+12350000Y+11800000D01*
X+9030000Y+11852000D02*
X+9127666Y+11949666D01*
X+9127666Y+12076246D01*
X+8100000Y+13200000D02*
X+8100000Y+12628147D01*
X+8262834Y+12628147D01*
X+9124531Y+12518394D02*
X+9014778Y+12628147D01*
X+8826629Y+12628147D01*
X+8262834Y+12628147D01*
X+8100000Y+12628147D02*
X+7249321Y+12628147D01*
X+7070580Y+12449406D01*
X+7070580Y+11314247D01*
X+7155247Y+11229580D01*
X+7155247Y+11005247D01*
X+7150000Y+11000000D01*
X+8354000Y+13200000D02*
X+10619389Y+13200000D01*
X+10894555Y+12924834D01*
X+10894555Y+12221445D01*
X+10900000Y+12216000D01*
X+9030000Y+11090000D02*
X+9590000Y+11090000D01*
X+9700000Y+11200000D01*
X+10900000Y+11200000D01*
D11*
X+3309820Y+2710045D03*
X+3311690Y+3638114D03*
X+2327666Y+4876246D03*
X+2324531Y+5318394D03*
X+10109820Y+2710045D03*
X+10111690Y+3638114D03*
X+9127666Y+4876246D03*
X+9124531Y+5318394D03*
X+3309820Y+9910045D03*
X+3311690Y+10838114D03*
X+2327666Y+12076246D03*
X+2324531Y+12518394D03*
X+10109820Y+9910045D03*
X+10111690Y+10838114D03*
X+9127666Y+12076246D03*
X+9124531Y+12518394D03*
D12*
X+600000Y+4600000D03*
X+600000Y+5108000D03*
D13*
X+5550000Y+5108000D03*
X+5550000Y+4600000D03*
D14*
X+1700000Y+4346000D03*
X+1700000Y+4600000D03*
D15*
X+2230000Y+4652000D03*
D16*
X+2230000Y+4398000D03*
X+2230000Y+4144000D03*
X+2230000Y+3890000D03*
X+2230000Y+3636000D03*
X+2230000Y+2620000D03*
X+2230000Y+2366000D03*
X+2230000Y+2112000D03*
X+2230000Y+1858000D03*
X+2230000Y+1604000D03*
X+2230000Y+1350000D03*
X+2230000Y+1096000D03*
X+4770000Y+1096000D03*
X+4770000Y+1350000D03*
X+4770000Y+1858000D03*
X+4770000Y+2112000D03*
X+4770000Y+2366000D03*
X+4770000Y+2620000D03*
X+4770000Y+2874000D03*
X+4770000Y+3128000D03*
X+4770000Y+3382000D03*
X+4770000Y+3890000D03*
X+4770000Y+4144000D03*
X+4770000Y+4652000D03*
D17*
X+350000Y+3800000D03*
X+604000Y+3800000D03*
X+858000Y+3800000D03*
X+1112000Y+3800000D03*
X+1366000Y+3800000D03*
X+1620000Y+3800000D03*
X+1700000Y+1000000D03*
X+1700000Y+1254000D03*
X+1700000Y+1508000D03*
X+1700000Y+1762000D03*
X+1700000Y+2016000D03*
X+1700000Y+2270000D03*
X+1700000Y+2524000D03*
D12*
X+5700000Y+3550000D03*
X+5700000Y+3042000D03*
X+5700000Y+2534000D03*
X+5700000Y+2026000D03*
X+5700000Y+1518000D03*
D18*
X+500000Y+6000000D03*
X+5700000Y+6000000D03*
X+5700000Y+500000D03*
X+500000Y+500000D03*
D14*
X+4100000Y+4000000D03*
X+4100000Y+5016000D03*
D17*
X+1300000Y+6000000D03*
X+1554000Y+6000000D03*
D12*
X+7400000Y+4600000D03*
X+7400000Y+5108000D03*
D13*
X+12350000Y+5108000D03*
X+12350000Y+4600000D03*
D14*
X+8500000Y+4346000D03*
X+8500000Y+4600000D03*
D15*
X+9030000Y+4652000D03*
D16*
X+9030000Y+4398000D03*
X+9030000Y+4144000D03*
X+9030000Y+3890000D03*
X+9030000Y+3636000D03*
X+9030000Y+2620000D03*
X+9030000Y+2366000D03*
X+9030000Y+2112000D03*
X+9030000Y+1858000D03*
X+9030000Y+1604000D03*
X+9030000Y+1350000D03*
X+9030000Y+1096000D03*
X+11570000Y+1096000D03*
X+11570000Y+1350000D03*
X+11570000Y+1858000D03*
X+11570000Y+2112000D03*
X+11570000Y+2366000D03*
X+11570000Y+2620000D03*
X+11570000Y+2874000D03*
X+11570000Y+3128000D03*
X+11570000Y+3382000D03*
X+11570000Y+3890000D03*
X+11570000Y+4144000D03*
X+11570000Y+4652000D03*
D17*
X+7150000Y+3800000D03*
X+7404000Y+3800000D03*
X+7658000Y+3800000D03*
X+7912000Y+3800000D03*
X+8166000Y+3800000D03*
X+8420000Y+3800000D03*
X+8500000Y+1000000D03*
X+8500000Y+1254000D03*
X+8500000Y+1508000D03*
X+8500000Y+1762000D03*
X+8500000Y+2016000D03*
X+8500000Y+2270000D03*
X+8500000Y+2524000D03*
D12*
X+12500000Y+3550000D03*
X+12500000Y+3042000D03*
X+12500000Y+2534000D03*
X+12500000Y+2026000D03*
X+12500000Y+1518000D03*
D18*
X+7300000Y+6000000D03*
X+12500000Y+6000000D03*
X+12500000Y+500000D03*
X+7300000Y+500000D03*
D14*
X+10900000Y+4000000D03*
X+10900000Y+5016000D03*
D17*
X+8100000Y+6000000D03*
X+8354000Y+6000000D03*
D12*
X+600000Y+11800000D03*
X+600000Y+12308000D03*
D13*
X+5550000Y+12308000D03*
X+5550000Y+11800000D03*
D14*
X+1700000Y+11546000D03*
X+1700000Y+11800000D03*
D15*
X+2230000Y+11852000D03*
D16*
X+2230000Y+11598000D03*
X+2230000Y+11344000D03*
X+2230000Y+11090000D03*
X+2230000Y+10836000D03*
X+2230000Y+9820000D03*
X+2230000Y+9566000D03*
X+2230000Y+9312000D03*
X+2230000Y+9058000D03*
X+2230000Y+8804000D03*
X+2230000Y+8550000D03*
X+2230000Y+8296000D03*
X+4770000Y+8296000D03*
X+4770000Y+8550000D03*
X+4770000Y+9058000D03*
X+4770000Y+9312000D03*
X+4770000Y+9566000D03*
X+4770000Y+9820000D03*
X+4770000Y+10074000D03*
X+4770000Y+10328000D03*
X+4770000Y+10582000D03*
X+4770000Y+11090000D03*
X+4770000Y+11344000D03*
X+4770000Y+11852000D03*
D17*
X+350000Y+11000000D03*
X+604000Y+11000000D03*
X+858000Y+11000000D03*
X+1112000Y+11000000D03*
X+1366000Y+11000000D03*
X+1620000Y+11000000D03*
X+1700000Y+8200000D03*
X+1700000Y+8454000D03*
X+1700000Y+8708000D03*
X+1700000Y+8962000D03*
X+1700000Y+9216000D03*
X+1700000Y+9470000D03*
X+1700000Y+9724000D03*
D12*
X+5700000Y+10750000D03*
X+5700000Y+10242000D03*
X+5700000Y+9734000D03*
X+5700000Y+9226000D03*
X+5700000Y+8718000D03*
D18*
X+500000Y+13200000D03*
X+5700000Y+13200000D03*
X+5700000Y+7700000D03*
X+500000Y+7700000D03*
D14*
X+4100000Y+11200000D03*
X+4100000Y+12216000D03*
D17*
X+1300000Y+13200000D03*
X+1554000Y+13200000D03*
D12*
X+7400000Y+11800000D03*
X+7400000Y+12308000D03*
D13*
X+12350000Y+12308000D03*
X+12350000Y+11800000D03*
D14*
X+8500000Y+11546000D03*
X+8500000Y+11800000D03*
D15*
X+9030000Y+11852000D03*
D16*
X+9030000Y+11598000D03*
X+9030000Y+11344000D03*
X+9030000Y+11090000D03*
X+9030000Y+10836000D03*
X+9030000Y+9820000D03*
X+9030000Y+9566000D03*
X+9030000Y+9312000D03*
X+9030000Y+9058000D03*
X+9030000Y+8804000D03*
X+9030000Y+8550000D03*
X+9030000Y+8296000D03*
X+11570000Y+8296000D03*
X+11570000Y+8550000D03*
X+11570000Y+9058000D03*
X+11570000Y+9312000D03*
X+11570000Y+9566000D03*
X+11570000Y+9820000D03*
X+11570000Y+10074000D03*
X+11570000Y+10328000D03*
X+11570000Y+10582000D03*
X+11570000Y+11090000D03*
X+11570000Y+11344000D03*
X+11570000Y+11852000D03*
D17*
X+7150000Y+11000000D03*
X+7404000Y+11000000D03*
X+7658000Y+11000000D03*
X+7912000Y+11000000D03*
X+8166000Y+11000000D03*
X+8420000Y+11000000D03*
X+8500000Y+8200000D03*
X+8500000Y+8454000D03*
X+8500000Y+8708000D03*
X+8500000Y+8962000D03*
X+8500000Y+9216000D03*
X+8500000Y+9470000D03*
X+8500000Y+9724000D03*
D12*
X+12500000Y+10750000D03*
X+12500000Y+10242000D03*
X+12500000Y+9734000D03*
X+12500000Y+9226000D03*
X+12500000Y+8718000D03*
D18*
X+7300000Y+13200000D03*
X+12500000Y+13200000D03*
X+12500000Y+7700000D03*
X+7300000Y+7700000D03*
D14*
X+10900000Y+11200000D03*
X+10900000Y+12216000D03*
D17*
X+8100000Y+13200000D03*
X+8354000Y+13200000D03*
D19*
X+0Y+0D02*
X+6200000Y+0D01*
X+6200000Y+6500000D01*
X+0Y+6500000D01*
X+0Y+0D01*
X+6800000Y+0D02*
X+13000000Y+0D01*
X+13000000Y+6500000D01*
X+6800000Y+6500000D01*
X+6800000Y+0D01*
X+0Y+7200000D02*
X+6200000Y+7200000D01*
X+6200000Y+13700000D01*
X+0Y+13700000D01*
X+0Y+7200000D01*
X+6800000Y+7200000D02*
X+13000000Y+7200000D01*
X+13000000Y+13700000D01*
X+6800000Y+13700000D01*
X+6800000Y+7200000D01*
M02*
